<?xml version="1.0" encoding="UTF-8" standalone="no"?>
<!-- Created with Inkscape (http://www.inkscape.org/) -->

<svg
   xmlns:dc="http://purl.org/dc/elements/1.1/"
   xmlns:cc="http://creativecommons.org/ns#"
   xmlns:rdf="http://www.w3.org/1999/02/22-rdf-syntax-ns#"
   xmlns:svg="http://www.w3.org/2000/svg"
   xmlns="http://www.w3.org/2000/svg"
   version="1.1"
   width="253.28601"
   height="113.667"
   id="svg4970">
  <defs
     id="defs4972" />
  <metadata
     id="metadata4975">
    <rdf:RDF>
      <cc:Work
         rdf:about="">
        <dc:format>image/svg+xml</dc:format>
        <dc:type
           rdf:resource="http://purl.org/dc/dcmitype/StillImage" />
        <dc:title></dc:title>
      </cc:Work>
    </rdf:RDF>
  </metadata>
  <g
     transform="translate(-248.357,-475.52868)"
     id="layer1">
    <g
       transform="translate(126.91,-260.20732)"
       id="g1817">
      <g
         id="g1819">
        <g
           id="g1821">
          <path
             d="m 188.112,805.696 c -2.25,1.957 -5.361,2.937 -9.332,2.937 -4.027,0 -7.144,-0.972 -9.352,-2.915 -2.208,-1.944 -3.312,-4.943 -3.312,-8.998 v -18.497 h 6.541 v 18.497 c 0,0.805 0.068,1.596 0.208,2.373 0.139,0.779 0.431,1.465 0.874,2.063 0.445,0.598 1.063,1.083 1.854,1.459 0.792,0.374 1.854,0.563 3.187,0.563 2.333,0 3.943,-0.521 4.833,-1.563 0.888,-1.041 1.333,-2.673 1.333,-4.894 v -18.497 h 6.541 v 18.497 c -0.001,4.025 -1.126,7.018 -3.375,8.975 z"
             id="path1823" />
          <circle
             cx="178.80099"
             cy="792.52399"
             r="28.32"
             id="circle1825"
             style="fill:none;stroke:#000000;stroke-width:4;stroke-miterlimit:10" />
        </g>
        <g
           id="g1827">
          <path
             d="m 258.545,786.692 v 5.498 h -14.372 v 6.873 h 12.456 v 5.082 h -12.456 v 12.29 h -6.541 v -29.743 h 20.913 z"
             id="path1829" />
          <circle
             cx="248.09"
             cy="801.56299"
             r="28.32"
             id="circle1831"
             style="fill:none;stroke:#000000;stroke-width:4;stroke-miterlimit:10" />
        </g>
        <g
           id="g1833">
          <path
             d="m 303.755,786.483 c 0.667,-1.9 1.625,-3.562 2.875,-4.977 1.25,-1.417 2.784,-2.527 4.603,-3.334 1.82,-0.805 3.867,-1.207 6.145,-1.207 2.305,0 4.359,0.402 6.166,1.207 1.805,0.807 3.332,1.917 4.582,3.334 1.25,1.415 2.208,3.076 2.875,4.977 0.667,1.903 1,3.965 1,6.188 0,2.166 -0.333,4.186 -1,6.061 -0.667,1.875 -1.625,3.506 -2.875,4.895 -1.25,1.39 -2.776,2.479 -4.582,3.27 -1.806,0.792 -3.861,1.188 -6.166,1.188 -2.278,0 -4.325,-0.396 -6.145,-1.188 -1.819,-0.791 -3.353,-1.88 -4.603,-3.27 -1.25,-1.389 -2.208,-3.02 -2.875,-4.895 -0.667,-1.875 -1,-3.895 -1,-6.061 0,-2.223 0.333,-4.285 1,-6.188 z m 5.978,9.832 c 0.292,1.181 0.756,2.242 1.396,3.188 0.639,0.943 1.473,1.701 2.5,2.27 1.027,0.569 2.277,0.854 3.749,0.854 1.472,0 2.722,-0.285 3.749,-0.854 1.028,-0.568 1.861,-1.326 2.5,-2.27 0.639,-0.945 1.104,-2.007 1.396,-3.188 0.292,-1.181 0.438,-2.396 0.438,-3.645 0,-1.307 -0.146,-2.569 -0.438,-3.793 -0.292,-1.221 -0.756,-2.311 -1.396,-3.27 -0.639,-0.957 -1.472,-1.721 -2.5,-2.291 -1.027,-0.568 -2.277,-0.854 -3.749,-0.854 -1.472,0 -2.722,0.285 -3.749,0.854 -1.027,0.57 -1.861,1.334 -2.5,2.291 -0.64,0.959 -1.103,2.049 -1.396,3.27 -0.291,1.224 -0.437,2.486 -0.437,3.793 0,1.248 0.146,2.464 0.437,3.645 z"
             id="path1835" />
          <circle
             cx="317.37701"
             cy="792.52399"
             r="28.32"
             id="circle1837"
             style="fill:none;stroke:#000000;stroke-width:4;stroke-miterlimit:10" />
        </g>
      </g>
      <path
         d="m 317.526,764.086 c -15.097,-15.904 -40.563,-26.35 -69.437,-26.35 -28.873,0 -54.339,10.445 -69.437,26.35"
         id="path1839"
         style="fill:none;stroke:#000000;stroke-width:4;stroke-miterlimit:10" />
      <path
         d="m 345.698,792.524 c 15.322,2.539 27.04,10.815 27.035,19.199 -0.007,11.832 -31.936,35.68 -124.643,35.68 -92.707,0 -124.635,-23.848 -124.643,-35.68 -0.005,-8.384 11.713,-16.66 27.035,-19.199"
         id="path1841"
         style="fill:none;stroke:#000000;stroke-width:4;stroke-linejoin:round;stroke-miterlimit:10" />
      <path
         d="m 220.682,808.723 c -6.028,-0.561 -11.805,-1.301 -17.266,-2.2"
         id="path1843"
         style="fill:none;stroke:#000000;stroke-width:4;stroke-linejoin:round;stroke-miterlimit:10" />
      <path
         d="m 292.762,806.523 c -5.461,0.899 -11.239,1.64 -17.267,2.2"
         id="path1845"
         style="fill:none;stroke:#000000;stroke-width:4;stroke-linejoin:round;stroke-miterlimit:10" />
    </g>
  </g>
</svg>
