<?xml version="1.0" encoding="utf-8"?>
<!-- Generator: Adobe Illustrator 15.0.2, SVG Export Plug-In . SVG Version: 6.00 Build 0)  -->
<!DOCTYPE svg PUBLIC "-//W3C//DTD SVG 1.1//EN" "http://www.w3.org/Graphics/SVG/1.1/DTD/svg11.dtd">
<svg version="1.1" id="Layer_1" xmlns="http://www.w3.org/2000/svg" xmlns:xlink="http://www.w3.org/1999/xlink" x="0px" y="0px"
	 width="253.286px" height="113.666px" viewBox="0 0 253.286 113.666" enable-background="new 0 0 253.286 113.666"
	 xml:space="preserve">
<path fill="#010101" d="M66.665,69.959c-2.25,1.957-5.361,2.937-9.332,2.937c-4.027,0-7.144-0.972-9.352-2.916
	c-2.208-1.943-3.312-4.942-3.312-8.997V42.485h6.541v18.497c0,0.805,0.068,1.596,0.208,2.372c0.139,0.78,0.431,1.466,0.874,2.063
	c0.445,0.598,1.063,1.083,1.854,1.459c0.792,0.374,1.855,0.563,3.187,0.563c2.333,0,3.943-0.521,4.833-1.563
	c0.888-1.041,1.332-2.673,1.332-4.894V42.485h6.541v18.497C70.039,65.009,68.915,68.002,66.665,69.959"/>
<circle fill="none" stroke="#010101" stroke-width="4" stroke-miterlimit="10" cx="57.354" cy="56.787" r="28.32"/>
<polygon fill="#010101" points="137.098,50.955 137.098,56.453 122.727,56.453 122.727,63.326 135.182,63.326 135.182,68.408 
	122.727,68.408 122.727,80.698 116.186,80.698 116.186,50.955 "/>
<circle fill="none" stroke="#010101" stroke-width="4" stroke-miterlimit="10" cx="126.643" cy="65.826" r="28.32"/>
<path fill="#010101" d="M182.308,50.746c0.667-1.9,1.624-3.562,2.874-4.977c1.25-1.417,2.785-2.527,4.604-3.334
	c1.819-0.805,3.867-1.207,6.146-1.207c2.304,0,4.358,0.402,6.165,1.207c1.805,0.807,3.332,1.917,4.582,3.334
	c1.25,1.415,2.208,3.076,2.875,4.977c0.666,1.903,1,3.965,1,6.188c0,2.166-0.334,4.186-1,6.061
	c-0.667,1.875-1.625,3.506-2.875,4.896c-1.25,1.389-2.777,2.478-4.582,3.269c-1.807,0.792-3.861,1.188-6.165,1.188
	c-2.278,0-4.326-0.396-6.146-1.188c-1.818-0.791-3.354-1.88-4.604-3.269c-1.25-1.39-2.207-3.021-2.874-4.896s-1-3.895-1-6.061
	C181.308,54.711,181.641,52.649,182.308,50.746 M188.286,60.578c0.293,1.181,0.756,2.242,1.396,3.188
	c0.639,0.942,1.473,1.7,2.5,2.269s2.277,0.854,3.749,0.854s2.722-0.286,3.748-0.854c1.028-0.568,1.86-1.326,2.5-2.269
	c0.639-0.946,1.104-2.008,1.396-3.188c0.293-1.181,0.438-2.396,0.438-3.645c0-1.307-0.145-2.569-0.438-3.792
	c-0.291-1.222-0.757-2.312-1.396-3.271c-0.64-0.957-1.472-1.721-2.5-2.291c-1.026-0.568-2.276-0.854-3.748-0.854
	s-2.722,0.285-3.749,0.854c-1.027,0.57-1.861,1.334-2.5,2.291c-0.641,0.959-1.104,2.049-1.396,3.271
	c-0.291,1.223-0.437,2.485-0.437,3.792C187.849,58.183,187.995,59.397,188.286,60.578"/>
<circle fill="none" stroke="#010101" stroke-width="4" stroke-miterlimit="10" cx="195.931" cy="56.787" r="28.32"/>
<path fill="none" stroke="#010101" stroke-width="4" stroke-miterlimit="10" d="M196.08,28.35C180.983,12.445,155.516,2,126.643,2
	C97.77,2,72.304,12.445,57.206,28.35"/>
<path fill="none" stroke="#010101" stroke-width="4" stroke-linejoin="round" stroke-miterlimit="10" d="M224.25,56.787
	c15.322,2.539,27.041,10.815,27.035,19.199c-0.008,11.832-31.936,35.68-124.643,35.68S2.007,87.818,2,75.986
	c-0.005-8.384,11.713-16.66,27.035-19.199"/>
<path fill="none" stroke="#010101" stroke-width="4" stroke-linejoin="round" stroke-miterlimit="10" d="M99.235,72.986
	c-6.028-0.561-11.805-1.301-17.266-2.2"/>
<path fill="none" stroke="#010101" stroke-width="4" stroke-linejoin="round" stroke-miterlimit="10" d="M171.315,70.786
	c-5.461,0.899-11.238,1.64-17.267,2.2"/>
</svg>
