<?xml version="1.0" encoding="UTF-8" standalone="no"?>
<!-- Generator: Adobe Illustrator 16.0.0, SVG Export Plug-In . SVG Version: 6.00 Build 0)  -->

<svg
   xmlns:dc="http://purl.org/dc/elements/1.1/"
   xmlns:cc="http://creativecommons.org/ns#"
   xmlns:rdf="http://www.w3.org/1999/02/22-rdf-syntax-ns#"
   xmlns:svg="http://www.w3.org/2000/svg"
   xmlns="http://www.w3.org/2000/svg"
   xmlns:sodipodi="http://sodipodi.sourceforge.net/DTD/sodipodi-0.dtd"
   xmlns:inkscape="http://www.inkscape.org/namespaces/inkscape"
   version="1.1"
   id="Layer_1"
   x="0px"
   y="0px"
   width="250.53601"
   height="131.82899"
   viewBox="0 0 250.53601 131.82899"
   enable-background="new 0 0 841.89 595.28"
   xml:space="preserve"
   inkscape:version="0.48.5 r10040"
   sodipodi:docname="trojste new logo.svg"><metadata
     id="metadata55"><rdf:RDF><cc:Work
         rdf:about=""><dc:format>image/svg+xml</dc:format><dc:type
           rdf:resource="http://purl.org/dc/dcmitype/StillImage" /></cc:Work></rdf:RDF></metadata><defs
     id="defs53" /><sodipodi:namedview
     pagecolor="#ffffff"
     bordercolor="#666666"
     borderopacity="1"
     objecttolerance="10"
     gridtolerance="10"
     guidetolerance="10"
     inkscape:pageopacity="0"
     inkscape:pageshadow="2"
     inkscape:window-width="640"
     inkscape:window-height="480"
     id="namedview51"
     showgrid="false"
     fit-margin-top="0"
     fit-margin-left="0"
     fit-margin-right="0"
     fit-margin-bottom="0"
     inkscape:zoom="1.1213358"
     inkscape:cx="76.550146"
     inkscape:cy="47.53909"
     inkscape:window-x="0"
     inkscape:window-y="29"
     inkscape:window-maximized="0"
     inkscape:current-layer="Layer_1" /><g
     id="g3"
     transform="translate(-295.804,-232.01401)"><polygon
       points="409.478,272.054 344.25,350.467 427.469,267.311 "
       id="polygon5"
       style="fill:#96b3f0" /><polygon
       points="308.906,245.221 321.188,257.392 409.427,262.503 "
       id="polygon7"
       style="fill:#96b3f0" /><polygon
       points="331.081,363.784 386.361,279.618 335.968,345.832 "
       id="polygon9"
       style="fill:#96b3f0" /></g><g
     id="g11"
     transform="translate(-295.804,-232.01401)"><polygon
       points="335.968,345.832 300.674,250.136 331.081,363.784 "
       id="polygon13"
       style="fill:#4e7ee9" /><polygon
       points="295.804,232.014 341.053,321.97 308.906,245.221 "
       id="polygon15"
       style="fill:#4e7ee9" /><polygon
       points="326.938,261.52 409.478,272.054 392.798,276.605 327.814,264.114 "
       id="polygon17"
       style="fill:#4e7ee9" /></g><g
     id="g19"
     transform="translate(-295.804,-232.01401)"><polygon
       points="308.906,245.221 409.427,262.503 295.804,232.014 "
       id="polygon21"
       style="fill:#cbd9f7" /><polygon
       points="335.968,345.832 340.366,329.111 300.674,250.136 "
       id="polygon23"
       style="fill:#cbd9f7" /><polygon
       points="409.478,272.054 392.798,276.605 344.25,350.467 "
       id="polygon25"
       style="fill:#cbd9f7" /><polygon
       points="427.469,267.311 326.938,261.52 409.478,272.054 "
       id="polygon27"
       style="fill:#cbd9f7" /><polygon
       points="386.361,279.618 335.968,345.832 340.366,329.111 383.675,279.079 "
       id="polygon29"
       style="fill:#cbd9f7" /><polygon
       points="341.053,321.97 308.906,245.221 321.188,257.392 342.863,319.914 "
       id="polygon31"
       style="fill:#cbd9f7" /></g><g
     id="g33"
     transform="translate(-295.804,-232.01401)"><path
       d="m 428.48,322.09 v 5.765 h -7.988 v 23.101 h -5.766 v -23.101 h -8.029 v -5.765 h 21.783 z"
       id="path35"
       inkscape:connector-curvature="0"
       style="fill:#4e7ee9" /><path
       d="m 433.219,335.226 c 1.316,-1.73 3.664,-2.471 6.012,-2.471 1.029,0 2.058,0.164 3.005,0.494 l -2.017,4.57 c -3.007,-1.317 -6.054,0.494 -6.589,3.336 v 9.8 h -5.147 v -17.748 h 3.994 l 0.742,2.019 z"
       id="path37"
       inkscape:connector-curvature="0"
       style="fill:#4e7ee9" /><path
       d="m 462.908,342.061 c 0,5.229 -4.365,9.389 -9.842,9.389 -5.434,0 -9.799,-4.16 -9.799,-9.389 0,-5.188 4.365,-9.389 9.799,-9.389 5.477,0 9.842,4.2 9.842,9.389 z m -5.187,-0.042 c 0,-1.276 -0.454,-2.47 -1.318,-3.375 -0.905,-0.949 -2.018,-1.442 -3.294,-1.442 -1.194,0 -2.389,0.493 -3.212,1.442 -0.946,0.905 -1.4,2.141 -1.4,3.417 0,1.317 0.454,2.511 1.4,3.459 0.823,0.906 2.018,1.4 3.212,1.4 1.276,0 2.389,-0.494 3.294,-1.4 0.864,-0.949 1.318,-2.182 1.318,-3.501 z"
       id="path39"
       inkscape:connector-curvature="0"
       style="fill:#4e7ee9" /><path
       d="m 462.292,363.843 v -5.022 h 1.399 c 1.813,0 2.019,-1.978 2.019,-3.007 v -22.606 h 5.353 v 22.606 c 0,4.652 -2.924,8.029 -6.876,8.029 h -1.895 z m 3.377,-35.905 v -5.765 h 5.353 v 5.765 h -5.353 z"
       id="path41"
       inkscape:connector-curvature="0"
       style="fill:#4e7ee9" /><path
       d="m 477.076,344.902 c 2.594,2.965 6.547,3.087 6.547,0.864 0,-1.318 -1.276,-1.729 -2.595,-2.142 -3.459,-1.07 -5.847,-2.142 -5.847,-5.559 0,-3.254 2.924,-5.395 6.3,-5.395 3.047,0 4.694,0.659 7.083,2.101 l -2.389,3.747 c -3.459,-2.47 -5.807,-2.265 -6.053,-0.371 -0.206,1.317 1.729,1.564 3.788,2.266 2.512,0.741 4.858,2.428 4.858,5.477 0,2.841 -2.924,5.559 -6.547,5.559 -3.211,0 -6.258,-1.029 -8.441,-3.211 l 3.296,-3.336 z"
       id="path43"
       inkscape:connector-curvature="0"
       style="fill:#4e7ee9" /><path
       d="m 504.254,333.207 v 4.819 h -4.118 v 12.929 h -5.229 V 338.026 H 491.2 v -4.819 h 3.706 v -6.588 h 5.229 v 6.588 h 4.119 z"
       id="path45"
       inkscape:connector-curvature="0"
       style="fill:#4e7ee9" /><path
       d="m 522.99,348.155 c -1.688,2.017 -4.281,3.294 -7.123,3.294 -5.189,0 -9.43,-4.242 -9.43,-9.431 0,-5.229 4.24,-9.429 9.43,-9.429 5.188,0 9.43,4.2 9.43,9.429 0,0.576 -0.041,1.112 -0.164,1.689 h -13.26 c 0.247,0.657 0.576,1.233 1.029,1.729 0.864,0.946 1.977,1.441 3.17,1.441 1.112,0 2.225,-0.495 3.047,-1.318 l 3.871,2.596 z m -2.676,-7.577 c -0.206,-0.74 -0.576,-1.441 -1.112,-2.018 -0.823,-0.905 -1.976,-1.4 -3.13,-1.4 -1.193,0 -2.306,0.495 -3.17,1.4 -0.494,0.576 -0.864,1.277 -1.111,2.018 h 8.523 z"
       id="path47"
       inkscape:connector-curvature="0"
       style="fill:#4e7ee9" /><path
       d="m 532.588,334.772 c 1.4,-1.234 3.252,-2.059 5.064,-2.059 4.776,0 8.688,4.199 8.688,9.429 v 8.813 h -5.024 v -8.813 c 0,-2.553 -1.811,-4.817 -4.281,-4.817 -2.47,0 -4.283,2.265 -4.283,4.817 v 8.813 h -5.188 v -17.748 h 4.199 l 0.825,1.565 z"
       id="path49"
       inkscape:connector-curvature="0"
       style="fill:#4e7ee9" /></g></svg>