<?xml version="1.0" encoding="UTF-8" standalone="no"?>
<!-- Created with Inkscape (http://www.inkscape.org/) -->

<svg
   xmlns:dc="http://purl.org/dc/elements/1.1/"
   xmlns:cc="http://creativecommons.org/ns#"
   xmlns:rdf="http://www.w3.org/1999/02/22-rdf-syntax-ns#"
   xmlns:svg="http://www.w3.org/2000/svg"
   xmlns="http://www.w3.org/2000/svg"
   version="1.1"
   width="383.2092"
   height="63.458122"
   viewBox="0 0 383.2092 63.458122"
   id="svg2">
  <metadata
     id="metadata190">
    <rdf:RDF>
      <cc:Work
         rdf:about="">
        <dc:format>image/svg+xml</dc:format>
        <dc:type
           rdf:resource="http://purl.org/dc/dcmitype/StillImage" />
        <dc:title></dc:title>
      </cc:Work>
    </rdf:RDF>
  </metadata>
  <defs
     id="defs188" />
  <g
     transform="matrix(1.0842522,-4.0151813e-4,4.0151813e-4,1.0842522,-204.24377,-134.57832)"
     id="g4142"
     style="fill:#0089a2;fill-opacity:1">
    <g
       transform="scale(0.34217,0.34217)"
       id="g21"
       style="fill:#0089a2;fill-opacity:1;stroke-width:1;stroke-linecap:square;stroke-linejoin:miter;stroke-miterlimit:10;stroke-dasharray:none;stroke-dashoffset:0">
      <clipPath
         id="clip2">
        <path
           d="m 0,0 0,737 1429,0 0,-737 z"
           id="path24" />
      </clipPath>
      <g
         clip-path="url(#clip2)"
         id="g26"
         style="fill:#0089a2;fill-opacity:1">
        <g
           id="g28"
           style="fill:#0089a2;fill-opacity:1;fill-rule:nonzero;stroke:none">
          <path
             d="M 578.84,417.8 559,534 l 99,-64 -75.13,27.81 z"
             id="path30"
             style="fill:#0089a2;fill-opacity:1" />
        </g>
      </g>
    </g>
    <g
       transform="scale(0.34217,0.34217)"
       id="g32"
       style="fill:#0089a2;fill-opacity:1;stroke-width:1;stroke-linecap:square;stroke-linejoin:miter;stroke-miterlimit:10;stroke-dasharray:none;stroke-dashoffset:0">
      <clipPath
         id="clip3">
        <path
           d="m 0,0 0,737 1429,0 0,-737 z"
           id="path35" />
      </clipPath>
      <g
         clip-path="url(#clip3)"
         id="g37"
         style="fill:#0089a2;fill-opacity:1">
        <g
           id="g39"
           style="fill:#0089a2;fill-opacity:1;fill-rule:nonzero;stroke:none">
          <path
             d="M 592.27,481.94 702.83,441.02 597.9,387.28 659.55,438.44 z"
             id="path41"
             style="fill:#0089a2;fill-opacity:1" />
        </g>
      </g>
    </g>
    <g
       transform="scale(0.34217,0.34217)"
       id="g43"
       style="fill:#0089a2;fill-opacity:1;stroke-width:1;stroke-linecap:square;stroke-linejoin:miter;stroke-miterlimit:10;stroke-dasharray:none;stroke-dashoffset:0">
      <clipPath
         id="clip4">
        <path
           d="m 0,0 0,737 1429,0 0,-737 z"
           id="path46" />
      </clipPath>
      <g
         clip-path="url(#clip4)"
         id="g48"
         style="fill:#0089a2;fill-opacity:1">
        <g
           id="g50"
           style="fill:#0089a2;fill-opacity:1;fill-rule:nonzero;stroke:none">
          <path
             d="m 641.11,438.23 -90.72,-75.28 5.93,117.74 13.48,-78.98 z"
             id="path52"
             style="fill:#0089a2;fill-opacity:1" />
        </g>
      </g>
    </g>
  </g>
  <g
     id="text3103"
     style="font-size:57px;font-style:normal;font-variant:normal;font-weight:600;font-stretch:normal;text-align:start;line-height:125%;letter-spacing:0px;word-spacing:0px;writing-mode:lr-tb;text-anchor:start;fill:#666666;fill-opacity:1;stroke:none;font-family:Raleway;-inkscape-font-specification:Raleway Semi-Bold">
    <path
       d="m 69.70919,9.4175797 38.29688,0 0,8.0991213 -13.77686,0 0,33.454101 -10.715332,0 0,-33.454101 -13.804688,0 0,-8.0991213"
       id="path3083" />
    <path
       d="m 128.74093,27.842384 c 2.24509,2.3e-5 3.85007,-0.417457 4.81494,-1.252441 0.98337,-0.834936 1.47507,-2.207981 1.4751,-4.119141 -3e-5,-1.892547 -0.49173,-3.247038 -1.4751,-4.063476 -0.96487,-0.816373 -2.56985,-1.224576 -4.81494,-1.22461 l -4.50879,0 0,10.659668 4.50879,0 m -4.50879,7.403321 0,15.725097 -10.71533,0 0,-41.5532223 16.36523,0 c 5.47361,4.15e-5 9.48142,0.9184973 12.02344,2.7553713 2.56051,1.836951 3.84078,4.740756 3.84082,8.711426 -4e-5,2.746121 -0.66801,5.000513 -2.00391,6.763183 -1.31741,1.762717 -3.31204,3.061544 -5.98388,3.896484 1.46579,0.334004 2.77389,1.094745 3.92431,2.282227 1.16891,1.168961 2.34714,2.95021 3.53467,5.34375 l 5.8169,11.800781 -11.41114,0 -5.06543,-10.325683 c -1.02053,-2.078113 -2.05959,-3.497545 -3.11718,-4.258301 -1.03909,-0.760727 -2.43069,-1.141098 -4.17481,-1.141113 l -3.03369,0"
       id="path3085" />
    <path
       d="m 176.36153,16.431252 c -3.26564,3.4e-5 -5.79835,1.206088 -7.59814,3.618164 -1.79982,2.412137 -2.69972,5.807642 -2.69971,10.186523 -1e-5,4.360368 0.89989,7.746595 2.69971,10.158691 1.79979,2.412118 4.3325,3.618171 7.59814,3.618164 3.28416,7e-6 5.82615,-1.206046 7.62598,-3.618164 1.79977,-2.412096 2.69967,-5.798323 2.69971,-10.158691 -4e-5,-4.378881 -0.89994,-7.774386 -2.69971,-10.186523 -1.79983,-2.412076 -4.34182,-3.61813 -7.62598,-3.618164 m 0,-7.7651372 c 6.67966,4.23e-5 11.91208,1.9111732 15.69727,5.7333982 3.78511,3.822299 5.67769,9.101102 5.67773,15.836426 -4e-5,6.716811 -1.89262,11.986337 -5.67773,15.808594 -3.78519,3.822267 -9.01761,5.733397 -15.69727,5.733398 -6.66115,-1e-6 -11.89356,-1.911131 -15.69726,-5.733398 -3.78516,-3.822257 -5.67774,-9.091783 -5.67774,-15.808594 0,-6.735324 1.89258,-12.014127 5.67774,-15.836426 3.8037,-3.822225 9.03611,-5.7333559 15.69726,-5.7333982"
       id="path3087" />
    <path
       d="m 205.80782,9.4175797 10.71534,0 0,37.5175783 c -2e-5,5.176756 -1.41018,9.045405 -4.23047,11.605957 -2.80177,2.560537 -7.05079,3.840809 -12.74707,3.84082 l -2.1709,0 0,-8.099121 1.66992,0 c 2.22656,-3e-6 3.90576,-0.621585 5.0376,-1.864746 1.15038,-1.243164 1.72558,-3.070799 1.72558,-5.48291 l 0,-37.5175783"
       id="path3089" />
    <path
       d="m 255.98898,10.725685 0,8.794922 c -2.28226,-1.020475 -4.50882,-1.790494 -6.67969,-2.310059 -2.17093,-0.519497 -4.22122,-0.779262 -6.15088,-0.779296 -2.56057,3.4e-5 -4.45314,0.352573 -5.67774,1.057617 -1.22462,0.705111 -1.83692,1.799836 -1.83691,3.284179 -10e-6,1.113311 0.40819,1.98538 1.22461,2.616211 0.83495,0.612332 2.33787,1.14114 4.50879,1.586426 l 4.56445,0.918457 c 4.62009,0.927759 7.90427,2.337914 9.85254,4.230469 1.94821,1.892597 2.92233,4.583024 2.92236,8.071289 -3e-5,4.583016 -1.3638,7.997075 -4.0913,10.242187 -2.70902,2.226563 -6.85599,3.339843 -12.44092,3.339844 -2.63479,-1e-6 -5.27883,-0.250489 -7.93213,-0.751465 -2.65333,-0.500976 -5.30665,-1.243163 -7.95996,-2.226562 l 0,-9.04541 c 2.65331,1.410166 5.21386,2.477059 7.68164,3.200683 2.48631,0.705086 4.87986,1.057624 7.18066,1.057617 2.33787,7e-6 4.1284,-0.389641 5.37158,-1.168945 1.24314,-0.779288 1.86472,-1.892568 1.86475,-3.339844 -3e-5,-1.298815 -0.42678,-2.300767 -1.28027,-3.005859 -0.83499,-0.705063 -2.51419,-1.335922 -5.0376,-1.892578 l -4.14697,-0.918457 c -4.15626,-0.890607 -7.19923,-2.310039 -9.12891,-4.258301 -1.91114,-1.948219 -2.8667,-4.573704 -2.8667,-7.876465 0,-4.137661 1.33593,-7.319787 4.00781,-9.546386 2.67187,-2.2265218 6.51268,-3.3398019 11.52247,-3.3398442 2.2822,4.23e-5 4.62937,0.1763117 7.0415,0.5288086 2.41208,0.3340258 4.90768,0.8442796 7.48682,1.5307616"
       id="path3091" />
    <path
       d="m 263.19747,9.4175797 38.29688,0 0,8.0991213 -13.77686,0 0,33.454101 -10.71533,0 0,-33.454101 -13.80469,0 0,-8.0991213"
       id="path3093" />
    <path
       d="m 307.00509,9.4175797 28.91748,0 0,8.0991213 -18.20215,0 0,7.737304 17.1167,0 0,8.099122 -17.1167,0 0,9.518554 18.81445,0 0,8.099121 -29.52978,0 0,-41.5532223"
       id="path3095" />
    <path
       d="m 345.96993,9.4175797 11.96778,0 15.11279,28.5000003 0,-28.5000003 10.15869,0 0,41.5532223 -11.96777,0 -15.1128,-28.5 0,28.5 -10.15869,0 0,-41.5532223"
       id="path3097" />
  </g>
</svg>
