<?xml version="1.0" encoding="UTF-8" standalone="no"?>
<!-- Created with Inkscape (http://www.inkscape.org/) -->

<svg
   xmlns:dc="http://purl.org/dc/elements/1.1/"
   xmlns:cc="http://creativecommons.org/ns#"
   xmlns:rdf="http://www.w3.org/1999/02/22-rdf-syntax-ns#"
   xmlns:svg="http://www.w3.org/2000/svg"
   xmlns="http://www.w3.org/2000/svg"
   xmlns:sodipodi="http://sodipodi.sourceforge.net/DTD/sodipodi-0.dtd"
   xmlns:inkscape="http://www.inkscape.org/namespaces/inkscape"
   width="943.5"
   height="255"
   id="svg3158"
   version="1.1"
   inkscape:version="0.48.3.1 r9886"
   sodipodi:docname="ksp-greyscale.svg">
  <defs
     id="defs3160" />
  <sodipodi:namedview
     id="base"
     pagecolor="#ffffff"
     bordercolor="#666666"
     borderopacity="1.0"
     inkscape:pageopacity="0.0"
     inkscape:pageshadow="2"
     inkscape:zoom="1.4"
     inkscape:cx="480.27205"
     inkscape:cy="181.91991"
     inkscape:document-units="px"
     inkscape:current-layer="layer1"
     showgrid="false"
     fit-margin-top="0"
     fit-margin-left="0"
     fit-margin-right="0"
     fit-margin-bottom="0"
     inkscape:showpageshadow="false"
     inkscape:window-width="1920"
     inkscape:window-height="1107"
     inkscape:window-x="0"
     inkscape:window-y="27"
     inkscape:window-maximized="1" />
  <metadata
     id="metadata3163">
    <rdf:RDF>
      <cc:Work
         rdf:about="">
        <dc:format>image/svg+xml</dc:format>
        <dc:type
           rdf:resource="http://purl.org/dc/dcmitype/StillImage" />
        <dc:title></dc:title>
      </cc:Work>
    </rdf:RDF>
  </metadata>
  <g
     inkscape:label="Layer 1"
     inkscape:groupmode="layer"
     id="layer1"
     transform="translate(96.750001,-404.86223)">
    <path
       transform="matrix(2.0209151,0,0,2.884397,-100.33265,-1177.3861)"
       d="m 467.42722,592.75763 c 0,23.94336 -27.70326,43.35328 -61.87696,43.35328 -34.1737,0 -61.87695,-19.40992 -61.87695,-43.35328 0,-23.94336 27.70325,-43.35328 61.87695,-43.35328 34.1737,0 61.87696,19.40992 61.87696,43.35328 z"
       sodipodi:ry="43.353283"
       sodipodi:rx="61.876957"
       sodipodi:cy="592.75763"
       sodipodi:cx="405.55026"
       id="path5941-5-9-9"
       style="fill:#000000;fill-opacity:1;stroke:#ffffff;stroke-width:2.07094446;stroke-miterlimit:4;stroke-opacity:1;stroke-dasharray:none"
       sodipodi:type="arc" />
    <path
       transform="matrix(2.0209151,0,0,2.884397,-444.33265,-1177.3861)"
       d="m 467.42722,592.75763 c 0,23.94336 -27.70326,43.35328 -61.87696,43.35328 -34.1737,0 -61.87695,-19.40992 -61.87695,-43.35328 0,-23.94336 27.70325,-43.35328 61.87695,-43.35328 34.1737,0 61.87696,19.40992 61.87696,43.35328 z"
       sodipodi:ry="43.353283"
       sodipodi:rx="61.876957"
       sodipodi:cy="592.75763"
       sodipodi:cx="405.55026"
       id="path5941-4-9-3"
       style="fill:#000000;fill-opacity:1;stroke:#ffffff;stroke-width:2.07094446;stroke-miterlimit:4;stroke-opacity:1;stroke-dasharray:none;stroke-linejoin:miter"
       sodipodi:type="arc" />
    <path
       transform="matrix(2.0209151,0,0,2.884397,-788.83265,-1177.3861)"
       d="m 467.42722,592.75763 c 0,23.94336 -27.70326,43.35328 -61.87696,43.35328 -34.1737,0 -61.87695,-19.40992 -61.87695,-43.35328 0,-23.94336 27.70325,-43.35328 61.87695,-43.35328 34.1737,0 61.87696,19.40992 61.87696,43.35328 z"
       sodipodi:ry="43.353283"
       sodipodi:rx="61.876957"
       sodipodi:cy="592.75763"
       sodipodi:cx="405.55026"
       id="path5941-9-7"
       style="fill:#000000;fill-opacity:1;stroke:#ffffff;stroke-width:2.07094446;stroke-miterlimit:4;stroke-opacity:1;stroke-dasharray:none"
       sodipodi:type="arc" />
    <path
       transform="matrix(1.7673101,0,0,2.5224334,2.5169191,-962.82955)"
       d="m 467.42722,592.75763 c 0,23.94336 -27.70326,43.35328 -61.87696,43.35328 -34.1737,0 -61.87695,-19.40992 -61.87695,-43.35328 0,-23.94336 27.70325,-43.35328 61.87695,-43.35328 34.1737,0 61.87696,19.40992 61.87696,43.35328 z"
       sodipodi:ry="43.353283"
       sodipodi:rx="61.876957"
       sodipodi:cy="592.75763"
       sodipodi:cx="405.55026"
       id="path5941-5-4-9-8"
       style="fill:#000000;fill-opacity:1;stroke:#ffffff;stroke-width:2.84174442;stroke-miterlimit:4;stroke-opacity:1;stroke-dasharray:none"
       sodipodi:type="arc" />
    <g
       style="fill:#000000;fill-opacity:1"
       transform="matrix(0.125,0,0,-0.125,-148.83516,739.6678)"
       id="g92-8-8-3">
      <path
         style="fill:#000000;fill-opacity:1"
         inkscape:connector-curvature="0"
         d="m 5282.0782,1693.5702 436.79,0 c -21.05,65 -31.52,107.34 -32.57,165.11 47.85,-99.61 110.07,-151.44 185.31,-200.19 -75.24,-46.72 -134.73,-103.75 -185.31,-200.28 3.2,62.78 11.95,100.67 33.24,169.77 l -437.46,0 0,65.59 z"
         clip-rule="evenodd"
         id="path98-6-4-6" />
    </g>
    <g
       style="fill:#6a6c1e;fill-opacity:1"
       transform="matrix(0.125,0,0,-0.125,-493.33506,739.6678)"
       id="g92-8-1-4-9">
      <path
         style="fill:#000000;fill-opacity:1"
         inkscape:connector-curvature="0"
         d="m 5282.0782,1693.5702 436.79,0 c -21.05,65 -31.52,107.34 -32.57,165.11 47.85,-99.61 110.07,-151.44 185.31,-200.19 -75.24,-46.72 -134.73,-103.75 -185.31,-200.28 3.2,62.78 11.95,100.67 33.24,169.77 l -437.46,0 0,65.59 z"
         clip-rule="evenodd"
         id="path98-6-1-6-3" />
    </g>
    <g
       style="fill:#ffffff;fill-opacity:1;stroke:none"
       transform="matrix(0.125,0,0,-0.125,15.228398,717.81478)"
       id="g128-1-9-2">
      <path
         style="fill:#ffffff;fill-opacity:1;stroke:none"
         inkscape:connector-curvature="0"
         d="m -176.86225,1095.8911 173.7500006,0 0,253.12 65.6300004,81.72 190.939999,-334.84 203.75,0 -269.38,445.31 256.72,330.15 -216.41,0 -174.839999,-257.65 c -18.44,-27.66 -36.87,-55.31 -54.06000042,-85.16 l -2.34999998,0 0,342.81 -173.7500006,0 0,-775.46 z"
         id="path134-8-2-4" />
    </g>
    <g
       style="fill:#ffffff;fill-opacity:1;stroke:none"
       transform="matrix(0.125,0,0,-0.125,-32.363771,733.90777)"
       id="g152-8-5-9">
      <path
         style="fill:#ffffff;fill-opacity:1;stroke:none"
         inkscape:connector-curvature="0"
         d="m 2995.1302,1261.505 c 43.59,-24.22 131.09,-48.44 219.68,-48.44 212.82,0 311.88,110.47 311.88,240.47 0,109.38 -63.28,180.78 -200.31,231.41 -101.25,37.97 -143.75,59.84 -143.75,109.22 0,39.22 36.87,74.84 112.81,74.84 74.69,0 131.09,-21.87 161.09,-36.87 l 39.06,140.46 c -46.09,21.88 -109.37,39.07 -197.96,39.07 -181.72,0 -293.44,-100.16 -293.44,-232.5 0,-112.66 85.15,-184.07 214.06,-230 93.28,-32.35 130,-59.85 130,-108.28 0,-50.63 -42.5,-83.91 -123.12,-83.91 -74.69,0 -148.44,24.22 -194.38,48.28 l -35.62,-143.75 z"
         id="path158-8-2-3" />
    </g>
    <path
       style="fill:#ffffff;fill-opacity:1;stroke:none"
       id="path182-1-3-6"
       d="m 688.44564,581.19028 21.71875,0 0,-34.80375 c 2.01125,0.42875 4.60875,0.56625 7.48,0.56625 12.94875,0 24.02375,-3.30125 31.50375,-10.195 5.89875,-5.3325 8.90625,-13.53625 8.90625,-23.0275 0,-9.4925 -4.02375,-17.54 -10.35125,-22.4225 -6.465,-5.195 -16.11375,-7.77375 -29.62875,-7.77375 -13.37875,0 -22.87125,0.86 -29.62875,2.0125 l 0,95.64375 z m 21.71875,-80.25375 c 1.58125,-0.42875 4.60875,-0.7225 8.925,-0.7225 11.075,0 17.24625,5.3325 17.24625,14.23875 0,9.785 -7.1875,15.68375 -18.8275,15.68375 -3.32125,0 -5.46875,-0.15625 -7.34375,-0.58625 l 0,-28.61375 z"
       inkscape:connector-curvature="0" />
  </g>
</svg>
