<?xml version="1.0" encoding="UTF-8" standalone="no"?>
<!-- Created with Inkscape (http://www.inkscape.org/) -->

<svg
   xmlns:dc="http://purl.org/dc/elements/1.1/"
   xmlns:cc="http://creativecommons.org/ns#"
   xmlns:rdf="http://www.w3.org/1999/02/22-rdf-syntax-ns#"
   xmlns:svg="http://www.w3.org/2000/svg"
   xmlns="http://www.w3.org/2000/svg"
   xmlns:sodipodi="http://sodipodi.sourceforge.net/DTD/sodipodi-0.dtd"
   xmlns:inkscape="http://www.inkscape.org/namespaces/inkscape"
   width="605.08533"
   height="322.81012"
   id="svg3960"
   version="1.1"
   inkscape:version="0.48.5 r10040"
   sodipodi:docname="jesko.svg">
  <defs
     id="defs3962">
    <inkscape:perspective
       sodipodi:type="inkscape:persp3d"
       inkscape:vp_x="0 : 526.18109 : 1"
       inkscape:vp_y="0 : 1000 : 0"
       inkscape:vp_z="744.09448 : 526.18109 : 1"
       inkscape:persp3d-origin="372.04724 : 350.78739 : 1"
       id="perspective3968" />
    <inkscape:perspective
       id="perspective3978"
       inkscape:persp3d-origin="0.5 : 0.33333333 : 1"
       inkscape:vp_z="1 : 0.5 : 1"
       inkscape:vp_y="0 : 1000 : 0"
       inkscape:vp_x="0 : 0.5 : 1"
       sodipodi:type="inkscape:persp3d" />
  </defs>
  <sodipodi:namedview
     id="base"
     pagecolor="#ffffff"
     bordercolor="#666666"
     borderopacity="1.0"
     inkscape:pageopacity="0.0"
     inkscape:pageshadow="2"
     inkscape:zoom="1.2175961"
     inkscape:cx="338.98291"
     inkscape:cy="107.7602"
     inkscape:document-units="px"
     inkscape:current-layer="layer1"
     showgrid="false"
     inkscape:window-width="1920"
     inkscape:window-height="1147"
     inkscape:window-x="0"
     inkscape:window-y="27"
     inkscape:window-maximized="1" />
  <metadata
     id="metadata3965">
    <rdf:RDF>
      <cc:Work
         rdf:about="">
        <dc:format>image/svg+xml</dc:format>
        <dc:type
           rdf:resource="http://purl.org/dc/dcmitype/StillImage" />
        <dc:title />
      </cc:Work>
    </rdf:RDF>
  </metadata>
  <g
     inkscape:label="Vrstva 1"
     inkscape:groupmode="layer"
     id="layer1"
     transform="translate(-92.316415,-52.906235)">
    <g
       id="g3082">
      <path
         id="path4433-7-0"
         d="m 192.03125,52.90625 c -11.59912,0.01001 -20.99704,4.856584 -28.125,11.21875 -3.28958,2.427417 -6.41801,5.039525 -9.375,7.84375 -4.72232,0.755966 1.32823,7.411247 3.9375,4.78125 4.62069,-6.723311 10.94993,-12.266634 20.53125,-12.9375 14.47048,-1.42482 34.96422,4.496051 51.9375,20.59375 16.4393,18.17413 21.58315,39.04357 23.25,56.5 2.55131,-0.39882 5.09673,-0.75197 7.65625,-1.09375 -0.0779,-0.26277 -0.13698,-0.51653 -0.21875,-0.78125 -4.87289,-15.43876 -8.36429,-30.5961 -14,-46.1875 -5.14811,-14.215826 -18.75068,-28.936413 -32.34375,-34.03125 -8.53261,-4.165738 -16.29053,-5.912258 -23.25,-5.90625 z m -84.25,77.625 c -17.67161,10.39118 1.60794,57.32954 31.09375,70.625 12.15092,4.77579 24.165,8.64247 35.9375,11.71875 -1.70944,-2.52163 -3.06148,-5.28353 -4.0625,-8.28125 -16.75959,-5.49818 -34.65132,-16.31797 -49.34375,-33.03125 -10.36434,-14.16348 -10.39611,-29.0997 -13.625,-41.03125 z"
         style="fill:#87b177;fill-opacity:1;stroke:none"
         inkscape:connector-curvature="0" />
      <path
         inkscape:connector-curvature="0"
         id="path4458-8-7"
         d="m 126.19854,125.38678 c 22.10933,4.66386 46.1569,-9.55353 44.62997,-32.363261 -0.31396,-4.21397 -2.01907,-10.608735 -5.08992,-12.917047 -2.80851,4.443216 1.23205,10.837143 -1.68533,15.40391 -4.59704,17.150718 -21.92658,25.630358 -38.54095,29.737948 0.22874,0.0461 0.45748,0.0923 0.68623,0.13845 z"
         style="fill:#87b177;fill-opacity:1;stroke:none" />
      <path
         inkscape:connector-curvature="0"
         id="path4461-8-0"
         d="m 114.14348,54.157374 c -3.89279,16.422569 8.72247,30.158413 17.42836,42.56315 2.66623,3.956016 7.65352,9.379716 12.5027,7.326916 C 143.08429,92.506049 134.8127,83.118089 133.539,71.613899 130.73876,63.666989 124.42307,50.835554 114.14348,54.157374 z"
         style="fill:#87b177;fill-opacity:1;stroke:none" />
      <path
         inkscape:connector-curvature="0"
         d="m 212.23675,230.86787 c -5.6339,0.48727 -8.7799,4.29744 -7.94812,7.46514 0.65362,1.35916 0.85269,2.75616 1.02511,4.16826 2.82406,19.19519 3.47595,38.52604 1.36637,57.75968 -1.1033,7.84765 -2.66064,15.97492 -9.15913,22.96008 -1.90784,1.9166 -5.13786,4.03109 -9.22128,3.58829 -4.24168,-0.35534 -7.07546,-2.71423 -8.00226,-5.08141 -1.72464,-2.40129 -3.97983,-5.26952 -8.63992,-5.88796 -3.85014,-0.43487 -6.92348,1.92989 -7.09324,4.06802 -0.0109,1.75836 0.42444,3.5247 0.87519,5.26689 1.7291,5.25914 5.53777,10.1912 10.0357,14.78142 3.13033,2.7581 8.80888,4.84879 14.48332,4.02087 7.92998,-0.90065 13.8547,-4.61675 18.5449,-8.33288 8.58126,-7.06071 11.97203,-15.83708 13.61015,-24.39203 3.55584,-17.34657 1.16057,-34.8459 1.97345,-52.26197 0.16705,-8.42456 0.69211,-16.86229 -0.2132,-25.27841 -1.97009,-2.60265 -7.47227,-2.9458 -11.63704,-2.84399 z"
         id="path3915-1-0-8"
         style="font-size:217.08743286px;font-style:normal;font-weight:normal;fill:#000000;fill-opacity:1;stroke:none;font-family:Bitstream Vera Sans" />
      <path
         inkscape:connector-curvature="0"
         d="m 278.15195,256.90378 c -12.83671,0.36476 -26.09742,7.73731 -30.84542,20.08181 -5.28144,12.6568 -3.45899,28.82745 6.67414,38.5892 10.24397,8.60857 24.97831,9.8498 37.43993,6.05398 4.51951,-1.39565 8.83232,-3.44381 12.83968,-5.95449 1.62291,-5.77655 -0.95503,-11.66929 -0.13375,-17.49472 -0.77181,-1.84876 -2.91964,-0.0623 -4.1998,0.24075 -3.94903,1.83168 -7.79463,3.87421 -11.90391,5.32332 -5.6424,2.3617 -12.73306,3.92816 -18.19023,0.321 -3.14209,-2.47721 -4.7925,-6.45329 -5.05581,-10.37913 13.69239,-3.11549 27.9898,-4.29442 41.91778,-2.11328 1.60465,-8.49376 1.48422,-18.23673 -4.33355,-25.19882 -5.74766,-7.13603 -15.34802,-9.8556 -24.20906,-9.46962 z m 1.97952,10.56639 c 5.27835,0.26533 10.14554,5.18709 9.63013,10.59313 -8.2018,0.74965 -16.46795,1.09356 -24.55682,2.75529 -1.05614,-3.19268 1.52565,-6.12052 3.31638,-8.49248 2.92512,-3.17407 7.2838,-5.04465 11.61031,-4.85594 z"
         id="path3921-5-9-0"
         style="font-size:130.12974548px;font-style:normal;font-weight:bold;fill:#000000;fill-opacity:1;stroke:none;font-family:Bitstream Vera Sans;-inkscape-font-specification:Bitstream Vera Sans Bold" />
      <path
         inkscape:connector-curvature="0"
         d="m 373.48125,162.81861 c -13.72477,0.24166 -28.0821,0.75218 -40.54304,7.17811 -11.40037,5.90732 -18.21413,19.16665 -16.81819,31.87266 1.05019,12.28084 7.49654,23.99362 17.15304,31.61252 5.7375,4.38539 12.85595,6.55375 19.98763,7.1379 12.18788,1.70811 24.9116,2.27411 36.19215,7.66982 6.25567,3.30468 10.07117,10.27565 10.02902,17.28472 0.23746,10.38387 -7.22414,20.35908 -17.29237,22.98993 -8.65637,2.5911 -17.88601,1.82137 -26.70105,0.55334 -9.17838,-1.47158 -17.92592,-4.73046 -26.77044,-7.44937 -3.23002,-0.53672 -6.14049,2.03323 -6.83247,5.0809 -1.31362,3.8342 -1.59628,7.94081 -1.98421,11.93835 0.23591,3.33118 3.18208,6.05318 6.50601,6.10129 7.21519,1.32651 14.5935,0.7724 21.88195,1.21085 14.87996,0.21064 30.24648,0.4834 44.4136,-4.74124 13.34474,-5.59793 22.47368,-19.36556 23.24272,-33.71598 0.90351,-11.05494 -2.10933,-22.9937 -10.15924,-30.96001 -5.51911,-5.51085 -13.29952,-8.29971 -21.02309,-8.42502 -8.53521,-0.24944 -17.23557,1.05929 -25.60363,-1.23147 -10.16159,-2.29695 -19.76119,-9.05223 -23.55499,-19.01506 -2.81917,-6.85431 -1.98538,-15.48573 3.42524,-20.86377 5.23307,-5.61833 13.11298,-7.38589 20.46869,-8.06855 12.288,-1.20351 24.40423,2.42042 35.69537,6.91257 3.80346,0.84353 7.71429,-2.2916 7.99305,-6.11919 1.12247,-3.94216 2.26346,-8.82783 -0.58161,-12.31835 -3.70758,-3.49696 -9.17996,-3.18888 -13.87029,-4.08345 -5.06079,-0.57425 -10.16564,-0.67258 -15.25385,-0.5515 z"
         id="path3918-2-1-6"
         style="font-size:269.89916992px;font-style:normal;font-weight:normal;fill:#87b177;fill-opacity:1;stroke:none;font-family:Bitstream Vera Sans" />
      <path
         inkscape:connector-curvature="0"
         d="m 443.02962,196.85614 c -3.08453,0.14828 -4.9487,3.37395 -4.62766,6.2287 -0.0585,4.85764 1.06673,9.64373 1.05005,14.50305 1.08182,13.40185 1.61635,26.86682 0.81079,40.30052 -0.46995,12.72525 -1.06377,25.45024 -2.2774,38.12838 -0.23181,3.55588 -0.64269,7.24792 0.10916,10.73293 2.2999,3.00173 6.45378,1.8335 9.68341,1.99408 2.97649,0.12475 7.00545,-0.21995 8.12575,-3.47767 1.45051,-4.30759 -0.14119,-8.85578 0.47031,-13.26489 0.1757,-5.01462 0.21131,-10.03209 0.20958,-15.04935 10.30166,8.94041 20.69131,17.84659 29.9205,27.90733 3.30492,4.01054 9.00343,3.9774 13.74616,3.71864 2.92776,-0.0533 6.25958,0.321 8.79474,-1.35978 1.89212,-2.52043 0.10828,-6.19761 -2.58412,-7.27181 -12.03524,-9.56149 -22.38053,-21.00584 -33.29984,-31.73626 -1.08823,-0.98994 -2.17647,-1.97988 -3.2647,-2.96982 10.15231,-9.68011 20.84328,-18.94218 32.28768,-27.18605 2.39223,-2.10651 5.50747,-3.58893 7.18782,-6.37183 1.16065,-4.02444 -3.30546,-8.0497 -7.22022,-6.9067 -5.18654,0.0711 -11.09002,-1.47911 -15.58695,1.93001 -5.15811,4.19981 -8.5415,10.16085 -13.79772,14.25916 -5.75384,5.1242 -11.46315,10.36456 -16.31494,16.35795 -0.57821,-13.61394 -2.0332,-27.21639 -1.37631,-40.85757 -0.0182,-5.76395 0.52819,-11.58502 0.1056,-17.31303 -1.82522,-2.98508 -5.7945,-2.23654 -8.75032,-2.30813 -1.13385,-0.0273 -2.26848,-0.062 -3.40137,0.0121 z"
         id="path3857-3-7-9"
         style="font-size:194.88398743px;font-style:normal;font-weight:normal;fill:#87b177;fill-opacity:1;stroke:none;font-family:Bitstream Vera Sans" />
      <text
         transform="scale(1.0587064,0.94454894)"
         id="text2836-0-0-2"
         y="342.43176"
         x="488.10522"
         style="font-size:135.50915527px;font-style:normal;font-weight:normal;fill:#87b177;fill-opacity:1;stroke:none;font-family:Bitstream Vera Sans;-inkscape-font-specification:Bitstream Vera Sans"
         xml:space="preserve"><tspan
           y="342.43176"
           x="488.10522"
           id="tspan2838-0-3-8"
           sodipodi:role="line">o</tspan></text>
      <path
         id="path3060-5-0-8"
         d="m 693.37974,348.46268 c -16.15117,3.39712 -30.53317,10.14725 -47.17575,12.52452 -8.75533,1.04637 -17.62415,1.54481 -26.46447,2.1114 -11.84217,0.70124 -23.74092,1.11927 -35.6266,0.89912 -14.9177,-0.4676 -29.81295,-2.54253 -43.53173,-6.69636 -4.34879,-1.12936 -8.83674,-2.42609 -13.57778,-2.20357 -5.00952,1.67472 -5.18537,7.40656 -0.26318,9.22218 4.81746,1.91779 9.84807,3.5682 15.07259,4.87906 8.07267,2.04479 16.39049,3.61718 24.78929,4.86118 18.33307,2.38997 37.12906,1.82399 55.5999,0.60682 15.69385,-1.01755 31.55663,-2.50034 46.30681,-6.54252 9.14106,-2.57531 18.15256,-5.99482 24.59559,-11.29755 1.80292,-1.58029 3.63215,-3.30632 4.29734,-5.2854 -0.0119,-1.4896 -1.59047,-3.29166 -4.02201,-3.07888 z"
         style="fill:#000000;fill-opacity:1;stroke:#ff68d2;stroke-width:0;stroke-miterlimit:4;stroke-opacity:1"
         inkscape:connector-curvature="0" />
      <path
         id="path3064-7-5-6"
         d="m 647.49795,306.55818 c -5.29029,0.95951 -8.10257,6.13957 -10.32223,10.51558 -5.12613,10.33123 -8.30904,22.329 -5.66674,33.81053 0.0834,1.39354 1.09702,3.55094 2.80786,2.76194 2.75031,-1.28837 2.00981,-4.87791 3.32159,-7.15955 3.60717,-9.93848 9.4959,-18.8001 14.80949,-27.86277 1.44983,-3.86256 1.31606,-9.31598 -2.65395,-11.62574 -0.69313,-0.3718 -1.5151,-0.51749 -2.29602,-0.43999 z"
         style="fill:#000000;fill-opacity:1;stroke:#ff68d2;stroke-width:0;stroke-miterlimit:4;stroke-opacity:1"
         inkscape:connector-curvature="0" />
      <path
         id="path3074-8-5-5"
         d="m 575.80219,198.82809 c -3.30699,2.10522 -2.33644,7.03265 0.0246,9.49648 5.56736,6.20496 10.65798,12.80753 16.01094,19.19555 9.25763,11.28121 18.10322,23.07192 24.3536,36.32838 12.89182,24.1888 26.11055,48.67122 44.92703,68.86644 7.99631,8.75346 16.95489,17.34904 28.29154,21.43573 2.3038,0.8257 5.85434,0.63445 6.60157,-2.17127 0.84928,-3.2004 -1.85485,-5.85531 -4.3097,-7.41171 -23.19039,-20.17579 -42.95946,-44.3901 -57.37143,-71.57848 -10.83217,-19.50645 -20.60059,-39.99932 -35.77552,-56.63128 -5.48202,-6.25225 -10.97991,-12.94849 -18.51989,-16.78416 -1.34666,-0.5155 -2.78126,-0.86836 -4.23292,-0.74568 z"
         style="fill:#000000;fill-opacity:1;stroke:#ff68d2;stroke-width:0;stroke-miterlimit:4;stroke-opacity:1"
         inkscape:connector-curvature="0" />
      <path
         transform="matrix(1.0209477,0,0,1.0209477,1033.0284,-31.485587)"
         d="m -437.14286,307.36218 c 0,9.86223 -7.99491,17.85715 -17.85714,17.85715 -9.86223,0 -17.85714,-7.99492 -17.85714,-17.85715 0,-9.86223 7.99491,-17.85714 17.85714,-17.85714 9.86223,0 17.85714,7.99491 17.85714,17.85714 z"
         sodipodi:ry="17.857143"
         sodipodi:rx="17.857143"
         sodipodi:cy="307.36218"
         sodipodi:cx="-455"
         id="path3077-7-8-3"
         style="fill:#87b177;fill-opacity:1;stroke:#ff68d2;stroke-width:0;stroke-miterlimit:4;stroke-opacity:1;stroke-dasharray:none"
         sodipodi:type="arc" />
      <path
         transform="matrix(0.6709645,0,0,0.6709645,890.18617,78.588593)"
         d="m -459.99999,293.79074 c 0,6.31183 -5.11674,11.42857 -11.42857,11.42857 -6.31182,0 -11.42857,-5.11674 -11.42857,-11.42857 0,-6.31182 5.11675,-11.42857 11.42857,-11.42857 6.31183,0 11.42857,5.11675 11.42857,11.42857 z"
         sodipodi:ry="11.428572"
         sodipodi:rx="11.428572"
         sodipodi:cy="293.79074"
         sodipodi:cx="-471.42856"
         id="path3851-8-4-0"
         style="fill:#87b177;fill-opacity:1;stroke:#ff68d2;stroke-width:0;stroke-miterlimit:4;stroke-opacity:1;stroke-dasharray:none"
         sodipodi:type="arc" />
      <path
         inkscape:connector-curvature="0"
         d="m 231.25091,107.80855 c -4.2836,2.26206 -4.77059,9.21412 -3.08618,13.86503 2.91338,16.76194 4.95757,34.71749 0.17041,51.27711 -2.28165,8.49701 -6.01374,16.36978 -10.69334,23.24827 2.76072,1.77592 5.26083,-1.59426 7.81848,-2.43385 7.15141,-3.61684 12.44926,-11.77769 13.84848,-21.00443 3.5058,-12.82822 5.56917,-27.30053 1.37387,-40.2661 -0.86571,-1.94281 -2.40333,-4.60583 -0.85573,-6.6399 3.19239,-0.85574 4.73033,3.53317 6.91854,5.441 11.19936,12.45822 20.41485,27.68158 33.27365,37.83409 4.42715,1.06577 7.5008,-3.96095 11.38571,-5.46133 0.90954,-2.20703 -1.82566,-2.89873 -2.73869,-4.1918 -10.49638,-10.11641 -19.77179,-21.99083 -30.57079,-31.668 -8.11961,-7.42094 -16.72168,-14.12938 -25.67457,-19.93303 -0.38316,-0.12003 -0.77892,-0.11436 -1.16984,-0.067 z"
         id="path2850-50-9-9"
         style="fill:#000000;fill-opacity:1;stroke:#ff68d2;stroke-width:0;stroke-miterlimit:4;stroke-opacity:1;stroke-dasharray:none" />
      <path
         inkscape:connector-curvature="0"
         d="m 299.19895,82.431188 c -4.50601,1.572607 -5.76502,8.657367 -4.03535,13.394018 1.42998,16.934134 2.58888,34.811174 -2.9313,50.915864 -2.80558,8.41302 -6.43582,16.42355 -10.84497,23.75404 6.84775,-3.42766 14.61019,-7.10275 18.16521,-15.61592 5.71944,-12.87086 10.25407,-27.61193 8.18911,-42.44925 -0.10787,-3.67261 -3.03188,-7.0474 -1.91387,-10.71806 2.16633,-1.715735 4.09321,1.42842 5.19369,3.34627 10.87803,14.08937 20.05507,29.9645 30.70269,44.27992 2.28316,2.45615 5.17308,-0.19567 7.35939,-1.49744 2.07589,-1.5557 4.32197,-2.72242 6.57992,-3.76174 0.5313,-1.2976 -1.31212,-2.07721 -1.80933,-3.10729 -3.28259,-3.60415 -6.51881,-7.27094 -9.33747,-11.42029 -12.09488,-15.79076 -24.8187,-31.1701 -39.79588,-42.935096 -1.74188,-1.487018 -3.36898,-3.764867 -5.52184,-4.185026 z"
         id="path2850-5-32-3-0"
         style="fill:#000000;fill-opacity:1;stroke:#ff68d2;stroke-width:0;stroke-miterlimit:4;stroke-opacity:1;stroke-dasharray:none" />
      <path
         inkscape:connector-curvature="0"
         d="m 374.84333,66.729863 c -4.42778,0.561769 -6.63787,6.799041 -5.72951,11.613976 -0.79723,17.094285 -1.87513,35.082051 -9.38068,50.072691 -4.19783,8.69175 -9.64581,16.43041 -15.72416,23.26074 7.41045,-2.8564 15.93888,-4.69254 21.03945,-12.54169 7.59076,-11.58604 14.26183,-25.34981 14.25771,-40.596431 0.12119,-3.599807 -1.07536,-7.141764 -1.09105,-10.646635 0.94235,-2.258826 3.73764,-0.945029 4.10423,1.18655 6.83895,12.437676 12.49855,25.859116 20.40661,37.395936 3.4015,5.08165 6.93248,10.13965 10.69099,14.78365 3.59824,1.45515 6.9856,-1.55907 10.45527,-2.30104 1.48886,-0.54937 2.99406,-1.0579 4.52816,-1.37889 -2.38172,-4.43705 -6.31819,-7.16181 -8.91699,-11.39081 -8.56073,-10.46074 -16.25336,-21.8862 -23.66289,-33.553673 -6.04379,-9.398832 -13.58145,-17.135846 -20.17088,-25.934057 -0.26933,-0.0065 -0.5378,8.06e-4 -0.80626,0.02967 z"
         id="path2850-5-5-8-4-6"
         style="fill:#000000;fill-opacity:1;stroke:#ff68d2;stroke-width:0;stroke-miterlimit:4;stroke-opacity:1;stroke-dasharray:none" />
      <path
         inkscape:connector-curvature="0"
         d="m 447.50691,65.008349 c -4.40191,1.073381 -6.11524,7.14969 -6.17505,11.994848 -2.93718,16.287334 -5.44742,33.150573 -12.41842,47.753273 -3.80074,7.38837 -9.31718,13.23203 -15.24615,18.01646 7.09812,-1.62502 15.19906,-1.41362 20.86574,-7.68743 8.38193,-11.27143 14.04325,-25.82857 14.97739,-41.048997 0.26736,-2.511031 -0.54789,-5.238513 0.26876,-7.598372 1.33321,-1.853238 3.38049,-0.129884 3.79063,1.81912 2.95898,8.128741 6.10991,16.165759 8.68493,24.501469 3.69995,11.51461 7.42353,23.20619 13.008,33.57594 3.1443,2.61175 6.99098,0.27109 10.44987,0.48159 0.84225,-0.39941 3.20264,0.56545 2.49887,-1.28646 -1.0209,-3.47211 -3.18155,-6.23413 -4.30997,-9.6684 -4.58514,-11.15011 -8.35367,-22.78943 -13.52832,-33.57982 -5.48048,-12.059574 -12.09354,-23.292194 -19.03556,-34.151441 -0.83247,-1.585727 -2.03354,-3.67505 -3.83072,-3.12178 z"
         id="path2850-5-5-5-83-5-6"
         style="fill:#000000;fill-opacity:1;stroke:#ff68d2;stroke-width:0;stroke-miterlimit:4;stroke-opacity:1;stroke-dasharray:none" />
      <path
         inkscape:connector-curvature="0"
         d="m 522.71152,90.771581 c -4.42073,0.498153 -6.14119,6.218814 -7.68872,10.460929 -6.61515,16.42808 -15.73172,32.39935 -29.18874,41.41874 -3.00337,1.99167 -6.21759,3.46535 -9.49627,4.63321 6.23645,1.38882 13.16416,3.93856 19.14528,0.0606 9.6877,-7.54077 19.06916,-16.97574 24.02773,-29.89023 1.00379,-2.66226 0.97237,-5.85694 2.19897,-8.3404 1.42801,-1.3986 3.02194,0.61085 3.13966,2.40182 1.48913,9.29332 2.8777,18.63493 3.9525,28.02753 1.08638,7.54994 1.6834,15.26328 3.41401,22.64051 0.95544,3.24857 4.30187,2.40271 6.52893,2.72197 2.09727,-0.15301 4.17534,0.65142 6.20063,0.75072 0.65126,-1.47876 -0.63655,-3.25576 -0.71904,-4.86904 -2.80161,-11.84006 -4.46041,-24.03924 -7.66111,-35.74818 -2.95462,-11.29854 -6.5182,-22.43942 -11.14177,-32.873259 -0.61182,-1.01566 -1.65245,-1.783082 -2.71206,-1.395009 z"
         id="path2850-5-5-5-7-0-4-8"
         style="fill:#000000;fill-opacity:1;stroke:#ff68d2;stroke-width:0;stroke-miterlimit:4;stroke-opacity:1;stroke-dasharray:none" />
      <path
         inkscape:connector-curvature="0"
         d="m 581.07251,133.46466 c -5.48644,1.40239 -7.91772,8.2498 -11.82186,12.29753 -6.55089,7.9145 -14.55404,14.34595 -23.62576,17.01407 -3.45924,1.25699 -7.1116,1.30435 -10.64865,1.83169 1.28302,1.30187 3.54036,2.10939 5.26613,3.03012 5.87746,2.74346 12.45832,3.39482 18.44114,0.91843 7.58148,-2.36423 14.7485,-8.3514 18.17817,-17.09793 0.4657,0.73746 -0.51992,1.96929 -0.37155,2.94883 -2.12342,11.51319 -4.91692,23.10488 -4.2122,35.03957 0.24806,3.55321 0.39424,7.41462 1.76362,10.58668 2.44347,3.26574 5.85186,5.28989 9.11161,7.03149 2.48305,-0.42941 2.67884,-4.31814 1.74369,-6.53611 -3.36799,-19.20963 0.0816,-38.77722 0.005,-58.13653 -0.29312,-2.97163 0.43076,-7.22999 -2.34333,-8.7172 -0.47178,-0.21051 -0.98193,-0.30585 -1.48617,-0.21064 z"
         id="path2850-5-5-5-78-9-8-8"
         style="fill:#000000;fill-opacity:1;stroke:#ff68d2;stroke-width:0;stroke-miterlimit:4;stroke-opacity:1;stroke-dasharray:none" />
      <path
         inkscape:connector-curvature="0"
         d="m 157.75661,154.46729 c -3.71711,3.41028 -2.74899,10.32372 -0.0753,14.19735 6.67987,15.02511 12.63021,31.55167 11.94998,48.99378 -0.36089,8.04173 -2.55195,15.76178 -4.91105,23.18097 1.00331,1.4771 2.71991,-0.63296 3.43787,-1.70598 4.39251,-4.89665 8.56664,-10.49648 10.32136,-17.58073 1.87837,-6.88641 1.54602,-14.27425 1.29666,-21.41411 -0.68499,-10.20278 -3.76007,-20.39739 -9.65618,-27.8626 -1.05325,-1.67985 0.15669,-4.81304 2.03388,-3.66618 3.81397,1.20009 6.83221,4.55737 10.46332,6.30282 11.69642,7.6363 22.62097,17.4576 35.37436,22.38456 4.56696,0.0476 6.90735,-5.51188 10.20548,-8.39976 1.14289,-1.10941 0.73255,-3.36261 -0.81133,-3.50453 -17.24093,-7.96138 -33.40523,-19.17461 -51.11032,-25.69293 -5.94773,-2.29052 -11.97297,-4.38994 -18.15198,-5.52947 -0.12215,0.0989 -0.24437,0.19788 -0.36651,0.29681 z"
         id="path2850-5-5-5-8-1-4-4"
         style="fill:#000000;fill-opacity:1;stroke:#ff68d2;stroke-width:0;stroke-miterlimit:4;stroke-opacity:1;stroke-dasharray:none" />
      <path
         inkscape:connector-curvature="0"
         d="m 169.5089,226.41436 c -23.57442,2.51031 -47.61967,1.06985 -70.708995,8.31072 -2.566053,1.09065 -4.203786,5.03993 -2.519368,7.93498 2.375662,5.43059 7.501903,7.56872 10.990023,11.70268 9.7162,9.25655 19.5856,19.48234 24.7338,33.46189 2.36631,7.50442 2.67591,15.64731 2.68749,23.59649 2.03451,1.55029 3.72646,-1.84157 3.81888,-4.0064 2.05742,-8.87092 5.59952,-18.19429 3.21395,-27.51105 -3.56366,-11.60604 -10.89151,-20.97812 -18.99407,-28.21887 -3.00445,-2.76903 -6.62589,-4.48723 -9.6359,-7.14458 -0.90051,-2.34296 1.53897,-4.28237 3.26246,-3.60872 5.33169,-0.0661 10.64944,0.72234 15.98144,0.60004 11.13032,0.53433 22.27404,0.009 33.38312,-0.87024 3.68738,-2.98271 3.76015,-8.91081 5.79062,-13.23779 -0.21552,-1.03415 -1.2946,-1.10242 -2.00345,-1.00915 z"
         id="path2850-5-5-5-5-4-8-8"
         style="fill:#000000;fill-opacity:1;stroke:#ff68d2;stroke-width:0;stroke-miterlimit:4;stroke-opacity:1;stroke-dasharray:none" />
      <path
         inkscape:connector-curvature="0"
         d="m 135.81587,295.77917 c -4.69441,4.37832 -7.93159,10.55027 -12.35865,15.2804 -9.39978,11.6614 -20.6482,20.78251 -30.486148,31.84246 -1.452174,2.05855 -0.331477,5.47993 1.821858,5.97669 4.186427,1.91341 8.71883,0.28934 13.02661,1.28578 11.13483,0.92134 22.60266,4.95348 30.92747,14.3743 2.00321,2.09693 3.95387,4.26621 5.91348,6.42268 -2.34784,-8.52709 -5.20273,-17.59811 -11.35011,-23.15921 -5.17927,-4.50779 -11.38167,-7.34779 -17.78261,-7.5731 -2.99646,-0.10288 -6.01248,0.2769 -8.9093,1.22927 -1.59873,-0.90178 -0.51117,-3.44897 0.75743,-4.00696 2.35022,-0.71612 4.36239,-2.59328 6.52817,-3.89894 9.23165,-6.42779 17.88271,-14.57419 24.06188,-25.21825 1.1643,-4.22198 -0.19277,-8.62681 -1.53928,-12.52543 -0.20141,-0.0468 -0.40757,-0.0975 -0.6108,-0.0298 z"
         id="path2850-5-5-5-1-8-1-3"
         style="fill:#000000;fill-opacity:1;stroke:#ff68d2;stroke-width:0;stroke-miterlimit:4;stroke-opacity:1;stroke-dasharray:none" />
      <g
         transform="matrix(0.79262805,0,0,0.96288433,225.86928,837.4973)"
         id="g4255-7-5">
        <path
           inkscape:connector-curvature="0"
           style="fill:#87b177;fill-opacity:1;stroke:#ff68d2;stroke-width:0;stroke-miterlimit:4;stroke-opacity:1;stroke-dasharray:none"
           d="m 93.904341,-786.63016 c -3.661775,0.49523 -7.453447,3.56504 -7.218254,7.53459 2.081928,3.48138 6.096185,5.07008 8.656117,8.13408 17.558486,16.22042 32.295466,35.12293 47.922616,53.1265 2.3526,2.18083 5.03731,5.49629 8.65451,4.53943 3.91339,-0.92145 7.27821,-3.35927 10.98937,-4.68247 1.70122,-2.04116 -0.28822,-4.75133 -2.11433,-5.91224 -12.91759,-13.4773 -24.76553,-27.98663 -38.50415,-40.66884 -8.44915,-8.05332 -17.04059,-16.24715 -27.310622,-21.94314 -0.347882,-0.091 -0.713987,-0.18848 -1.075257,-0.12791 z"
           id="path2850-5-3-9-8-8" />
        <path
           inkscape:connector-curvature="0"
           style="fill:#87b177;fill-opacity:1;stroke:#ff68d2;stroke-width:0;stroke-miterlimit:4;stroke-opacity:1;stroke-dasharray:none"
           d="m 188.36166,-802.21158 c -5.97008,0.9149 -9.25716,7.61604 -8.51325,13.19558 -0.25712,18.79882 -3.35541,38.08669 -12.67,54.65923 -4.56005,7.79782 -10.6758,14.64102 -17.56087,20.43499 -0.0782,2.10585 2.75394,1.99334 4.19622,1.68097 12.41292,-1.47341 23.68725,-9.89382 28.70964,-21.33269 5.04031,-9.9679 10.46495,-20.12171 11.66261,-31.41211 1.06822,-7.07987 0.15024,-14.23084 -1.00264,-21.23463 -0.75011,-5.30742 -1.66111,-10.61663 -3.31919,-15.72599 -0.43853,-0.32474 -0.98262,-0.29663 -1.50252,-0.26535 z"
           id="path2850-5-5-9-4-2-0" />
      </g>
      <path
         id="path4161-7-5"
         d="m 649.81678,320.58274 c -17.83639,5.80125 -26.66661,30.77595 -15.37011,46.03351 12.21,9.19301 28.61957,3.89424 40.78928,-2.56424 8.59483,-3.67855 14.96017,-15.77932 7.9175,-23.70852 -7.09741,-10.94701 -19.75798,-20.68354 -33.33667,-19.76075 z"
         style="fill:#000000;fill-opacity:1;stroke:#ff68d2;stroke-width:0;stroke-miterlimit:4;stroke-opacity:1"
         inkscape:connector-curvature="0" />
      <path
         id="path4164-8-9"
         d="m 652.19147,317.5297 c -3.34314,8.67282 6.93361,13.35805 12.34776,17.85266 3.25584,2.86143 6.85606,6.4783 11.55814,6.14097 -5.29547,-10.20642 -14.05425,-18.1845 -23.66461,-24.27875 l -0.24129,0.28512 z"
         style="fill:#ffffff;fill-opacity:1;stroke:#ff68d2;stroke-width:0;stroke-miterlimit:4;stroke-opacity:1"
         inkscape:connector-curvature="0" />
    </g>
  </g>
</svg>
