<?xml version="1.0" encoding="UTF-8" standalone="no"?>
<!-- Created with Inkscape (http://www.inkscape.org/) -->

<svg
   xmlns:dc="http://purl.org/dc/elements/1.1/"
   xmlns:cc="http://creativecommons.org/ns#"
   xmlns:rdf="http://www.w3.org/1999/02/22-rdf-syntax-ns#"
   xmlns:svg="http://www.w3.org/2000/svg"
   xmlns="http://www.w3.org/2000/svg"
   version="1.1"
   width="707.56555"
   height="373.47122"
   viewBox="0 0 707.56553 373.47124"
   id="svg2">
  <defs
     id="defs4" />
  <metadata
     id="metadata7">
    <rdf:RDF>
      <cc:Work
         rdf:about="">
        <dc:format>image/svg+xml</dc:format>
        <dc:type
           rdf:resource="http://purl.org/dc/dcmitype/StillImage" />
        <dc:title></dc:title>
      </cc:Work>
    </rdf:RDF>
  </metadata>
  <g
     transform="translate(-4.8974534,-306.17667)"
     id="layer1">
    <path
       d="m 286.92841,678.39792 c -0.56693,-0.6875 -10.99111,-21.25659 -23.16486,-45.70908 -12.17375,-24.45249 -22.30432,-44.62932 -22.51239,-44.83739 -0.20807,-0.20807 -3.39404,2.10921 -7.07993,5.1495 -8.40949,6.93654 -17.2884,11.59363 -29.45694,15.45049 -16.88843,5.35285 -28.34705,6.68186 -57.5,6.66906 -29.04373,-0.0128 -36.40881,-1.12468 -50.007296,-7.54965 -14.44729,-6.82602 -30.32442,-21.62523 -37.358149,-34.82186 -4.226799,-7.93029 -9.703692,-24.74934 -11.592999,-35.60107 -0.861805,-4.95 -3.156877,-29.475 -5.100161,-54.5 -1.943283,-25.025 -4.366142,-55.4 -5.384131,-67.5 -1.420712,-16.88684 -1.577457,-22.28911 -0.674413,-23.24395 1.671982,-1.76787 70.246589,-7.02661 71.769459,-5.50374 0.6569,0.6569 3.22653,28.59245 6.43161,69.92083 2.9357,37.85477 5.61769,70.92928 5.95997,73.4989 0.82682,6.20714 5.34845,15.56646 9.55044,19.76844 10.77692,10.77693 34.26642,12.13091 48.20213,2.77848 8.33863,-5.59616 13.7048,-16.22886 13.70245,-27.15046 -0.001,-5.73347 -6.46802,-90.26717 -7.96118,-104.0685 -2.22296,-20.54678 -3.27662,-39.66111 -2.24325,-40.69448 0.56891,-0.56891 14.46038,-2.09439 30.86995,-3.38996 32.11259,-2.53536 40.93357,-2.87503 41.71763,-1.6064 0.27504,0.44504 0.81322,5.35568 1.19594,10.91254 0.38273,5.55686 1.0344,10.65116 1.44818,11.32066 0.5265,0.85189 25.17398,-12.69562 82.11307,-45.13353 44.74841,-25.49294 82.45697,-46.36386 83.7968,-46.37981 2.3439,-0.0279 3.06953,1.97598 19.18136,52.97098 9.20991,29.15 16.77619,54.02662 16.81394,55.28138 0.0378,1.25477 -0.49385,2.46503 -1.18135,2.68947 -0.6875,0.22445 -30.275,2.23854 -65.75,4.47576 -77.51736,4.8886 -80.3518,5.10722 -79.31519,6.1175 0.57989,0.56517 88.23316,35.65778 114.00414,45.64237 0.72426,0.2806 1.60755,-1.23313 2.25992,-3.87292 1.67442,-6.7754 6.9894,-19.74071 10.79515,-26.33356 17.8807,-30.97549 50.5492,-53.83249 85.70189,-59.96261 12.03998,-2.09959 28.8953,-1.94985 40.05409,0.35585 l 9,1.85963 7.99152,-2.89472 c 33.67053,-12.1963 70.06271,-17.57681 91.39902,-13.51316 14.67742,2.79541 26.19551,9.43891 31.97229,18.44125 15.80178,24.62493 -0.66743,66.11749 -43.94444,110.71376 l -10.6746,11 -2.55729,10.24791 c -10.39091,41.63986 -43.77255,73.55726 -87.1865,83.36218 -8.97827,2.02772 -37.12743,1.78507 -45.79873,-0.39479 l -6.79874,-1.70912 -17.70126,5.92112 c -69.65568,23.30003 -116.62784,15.32298 -123.2004,-20.92249 -2.80301,-15.45768 3.74865,-35.80647 19.25161,-59.79356 3.30185,-5.10881 5.8333,-9.44186 5.62544,-9.62901 -0.46756,-0.42097 -105.17917,16.38568 -105.77002,16.97652 -0.4169,0.41691 5.95044,11.21091 14.56528,24.69124 l 4.31371,6.75 19.53794,0 c 15.69583,0 19.64215,0.27156 20.06785,1.38093 0.74559,1.94298 -55.25213,113.61907 -56.97199,113.61907 -0.75669,0 -1.83965,-0.5625 -2.40657,-1.25 z m -18.9072,-114.5 c 0.66019,-1.16516 -4.52954,-14.44242 -5.29446,-13.54522 -0.83704,0.9818 -5.01246,12.13094 -5.01246,13.3842 0,1.08874 9.69545,1.2402 10.30692,0.16102 z m 34.71461,-82.95335 c 27.54417,-12.77987 35.70417,-16.96835 34.73941,-17.83157 -1.45052,-1.29786 -75.22544,-33.46508 -76.75153,-33.46508 -0.55517,0 -1.00597,0.1125 -1.00176,0.25 0.004,0.1375 1.12576,14.425 2.49235,31.75 1.36659,17.325 2.48815,32.5125 2.49235,33.75 0.004,1.2375 0.46242,2.25 1.01824,2.25 0.55582,0 17.21075,-7.51651 37.01094,-16.70335 z M 23.214294,364.5557 C 10.735011,358.3544 5.122313,355.04925 4.914395,353.77943 c -0.21391,-1.30642 1.579085,-3.05578 6.253366,-6.10119 5.709036,-3.71959 6.765801,-4.09323 8.203063,-2.90041 3.637511,3.01886 25.34347,26.85056 25.34347,27.82544 0,2.14947 -3.970724,0.66321 -21.5,-8.04757 z m 81.011996,5.84222 c -0.23387,-0.6875 1.91797,-10.01888 4.78187,-20.7364 4.04468,-15.13631 5.59425,-19.56096 6.94137,-19.82039 1.66593,-0.32083 15.41243,8.47241 17.86527,11.4279 0.97482,1.17459 -1.39288,4.03598 -13.1613,15.90557 -7.89247,7.96033 -14.72166,14.47332 -15.17597,14.47332 -0.4543,0 -1.01736,-0.5625 -1.25124,-1.25 z m 62.488,-8.54276 c -14.83888,-7.86589 -16.48371,-8.99614 -16.3382,-11.22683 0.26648,-4.085 4.38193,-13.98041 5.81438,-13.98041 1.73778,0 29.52382,30.61971 29.52382,32.5347 0,0.80592 -0.5625,1.45487 -1.25,1.44213 -0.6875,-0.0127 -8.675,-3.95906 -17.75,-8.76959 z M 47.853569,353.46014 c -5.065026,-8.90328 -8.990318,-16.75801 -8.722872,-17.45497 0.852426,-2.22138 10.006446,-8.36084 12.083597,-8.10428 1.785115,0.22049 2.343202,2.23471 5.194294,18.74703 1.756862,10.175 3.219362,19.5125 3.25,20.75 0.127949,5.16795 -3.112196,1.34242 -11.805019,-13.93778 z m 28.860725,5.91811 c 0,-4.62898 0.29415,-13.88698 0.65368,-20.57333 0.77927,-14.4928 0.87677,-14.55773 10.69719,-7.12348 4.78775,3.62442 6.63214,5.65402 6.58844,7.25 -0.0883,3.22592 -14.30872,28.15592 -16.27946,28.5398 -1.4406,0.28062 -1.65985,-0.78839 -1.65985,-8.09299 z m 173.701116,5.63745 c -0.34772,-0.34772 2.75665,-7.32272 6.8986,-15.5 8.60058,-16.97975 7.83818,-16.4872 19.03122,-12.29518 8.16256,3.05705 9.11925,3.81854 7.4,5.89012 -1.72879,2.08306 -30.53947,22.53728 -31.74477,22.53728 -0.52406,0 -1.23733,-0.2845 -1.58505,-0.63222 z m -61.08655,-20.87409 c -8.7419,-13.22067 -10.65451,-16.74063 -9.71277,-17.87537 2.11756,-2.5515 20.82701,-9.95456 21.14894,-8.36832 0.20073,0.98911 2.88233,37.82564 2.91188,40 0.0838,6.16527 -3.35598,2.86736 -14.34805,-13.75631 z m 41.93164,14.58107 c -0.8515,-1.37774 0.64241,-41.0733 1.56726,-41.64489 0.43722,-0.27022 3.74056,0.8443 7.34074,2.4767 4.97188,2.25436 6.54579,3.46167 6.54579,5.02115 0,2.00538 -9.68954,28.75514 -11.93731,32.95513 -1.20343,2.24864 -2.57589,2.71383 -3.51648,1.19191 z"
       id="path4223"
       style="fill:#b0b0b0" />
    <path
       d="m 265.7054,632.57985 c -12.37011,-24.78745 -23.01429,-45.50991 -23.65373,-46.04993 -0.81161,-0.68542 -3.5764,0.9669 -9.15772,5.47295 -19.40397,15.66569 -43.49735,21.76202 -85.9023,21.73579 -21.16821,-0.0131 -23.2338,-0.17857 -34.77736,-2.78612 -23.517126,-5.31224 -45.767766,-24.52453 -54.785668,-47.30462 -7.082934,-17.89218 -8.009261,-23.7777 -12.197786,-77.5 -1.929664,-24.75 -3.944138,-49.05 -4.476608,-54 -1.799969,-16.73303 -3.23221,-38.64106 -2.56949,-39.30378 0.956485,-0.95648 68.905262,-6.20978 69.690192,-5.38793 0.66698,0.69835 1.06924,5.56503 7.33093,88.69171 3.91483,51.97112 4.64042,57.89697 7.98587,65.22034 6.40689,14.02499 22.48586,21.36636 40.33234,18.41501 17.06107,-2.82146 27.63113,-12.91172 30.22576,-28.85373 0.8769,-5.38785 -1.90908,-44.9945 -8.98829,-127.78162 -0.94062,-11 -1.51291,-20.5625 -1.27175,-21.25 0.24116,-0.6875 1.17783,-1.24502 2.08149,-1.23893 0.90365,0.006 16.41366,-1.16075 34.46668,-2.59299 18.05302,-1.43224 33.11802,-2.30973 33.47777,-1.94998 0.35975,0.35975 1.11409,5.9141 1.67632,12.343 0.86463,9.88672 1.2775,11.66991 2.67783,11.56575 0.91057,-0.0677 38.09179,-20.87276 82.62492,-46.23339 44.53313,-25.36063 81.67498,-46.38102 82.53743,-46.71197 1.70977,-0.6561 1.56173,-1.08944 24.10619,70.56504 7.09966,22.56531 11.12692,36.85242 10.55047,37.42887 -0.51279,0.51279 -34.07194,3.08194 -74.57589,5.70922 -40.50395,2.62729 -73.89596,5.0293 -74.20446,5.3378 -0.3085,0.3085 -0.14092,0.96475 0.37242,1.45832 1.61231,1.55025 117.69653,47.16552 119.2516,46.8599 0.8976,-0.17641 2.22788,-3.04188 3.38465,-7.29064 1.04819,-3.85 4.05765,-11.5 6.68768,-17 15.45551,-32.32109 48.27963,-57.39368 85.30285,-65.15828 11.33815,-2.37786 31.49415,-2.37192 42.89383,0.0126 l 8.58727,1.79627 14.91273,-4.97451 c 26.51607,-8.84509 46.43209,-12.51184 67.41272,-12.41139 33.71376,0.16142 51.61834,12.81247 52.81082,37.31518 1.19392,24.53258 -16.10517,56.4542 -49.05719,90.52408 l -10.74637,11.11093 -2.46205,9.70572 c -10.69616,42.1655 -42.62228,73.26577 -84.98581,82.78745 -12.4786,2.8047 -31.6185,2.96479 -44.86083,0.37521 l -9.80144,-1.9167 -15.19856,5.15651 c -28.9426,9.81952 -47.9239,13.48338 -69.69857,13.45353 -15.53977,-0.0213 -25.271,-1.82343 -34.06111,-6.30782 -6.35677,-3.24298 -13.58029,-10.53907 -16.67672,-16.84428 -2.51681,-5.12491 -2.75932,-6.60167 -2.7301,-16.62454 0.0285,-9.77461 0.39537,-12.05119 3.29332,-20.43622 3.95114,-11.43232 8.62288,-20.49221 16.92523,-32.82304 4.86586,-7.22687 5.92695,-9.42724 4.76176,-9.87436 -2.00858,-0.77077 -107.44145,16.16269 -108.74402,17.46526 -0.69537,0.69537 2.14727,6.07365 8.90325,16.84494 l 9.92478,15.82342 18.92469,0.27288 c 10.96683,0.15814 19.34755,0.69575 19.9303,1.2785 1.14368,1.14372 -53.24284,110.94866 -54.953,110.94866 -0.55888,0 -11.13716,-20.28063 -23.50727,-45.06807 z m 176.03512,-17.97699 c 98.78302,-12.1828 237.38423,-110.15134 263.08016,-185.95494 4.00581,-11.81723 4.56303,-24.13944 1.49084,-32.96799 -2.29889,-6.6063 -9.80603,-14.54001 -16.88342,-17.84275 -15.62796,-7.29296 -39.36187,-8.04817 -67.62514,-2.15182 -10.2103,2.13009 -31.24623,8.15249 -37.00533,10.59429 l -3.58334,1.5193 7.5,3.70475 c 10.5698,5.22114 17.85543,10.26453 26.52776,18.36354 7.6765,7.16899 19.47224,21.98504 19.47224,24.4581 0,1.86821 -16.07038,25.85349 -28.14364,42.0048 -27.08029,36.22733 -49.4308,51.92321 -90.85636,63.80483 -6.875,1.97188 -24.99116,6.09603 -40.25814,9.16478 -22.00097,4.42233 -28.05822,5.3305 -29.20501,4.37875 -3.93197,-3.26324 -13.24763,-24.00535 -16.06971,-35.78058 -2.02942,-8.46783 -0.93848,-8.11309 -17.28062,-5.61915 -5.91443,0.90258 -11.46062,2.30479 -12.42003,3.14006 -3.47753,3.02758 -14.77806,20.99649 -19.63978,31.22909 -6.36027,13.38664 -8.43731,21.26798 -8.44695,32.05203 -0.009,9.64713 2.44182,16.60004 8.13613,23.0855 5.04552,5.74652 18.17075,11.7705 28.68411,13.16491 6.36094,0.84366 24.43337,0.65058 32.52623,-0.3475 z m -278.78789,-2.96603 c 23.40699,-1.49321 42.10554,-5.57988 54.78084,-11.97264 6.37746,-3.21647 16.29757,-10.41556 19.34844,-14.04131 l 2.59977,-3.08965 -3.4837,-6.91769 c -1.91603,-3.80473 -3.48369,-7.58763 -3.48369,-8.40644 0,-1.19698 1.91091,-1.54485 9.75,-1.77497 l 9.75,-0.28621 2.68538,-5.5 c 3.48622,-7.14024 5.62731,-15.80242 7.04762,-28.51242 1.02784,-9.1979 0.75683,-15.3944 -2.62952,-60.12121 -2.07651,-27.4265 -4.13987,-50.24696 -4.58523,-50.71212 -0.97057,-1.01372 -63.95842,3.85739 -65.03664,5.02955 -0.41293,0.44891 1.01706,22.8662 3.17776,49.8162 4.31698,53.84468 4.27551,57.76149 -0.71582,67.61141 -4.96566,9.79926 -13.31951,15.69632 -26.05902,18.39531 -8.33481,1.76581 -12.62114,1.84655 -19.58531,0.3689 -13.66852,-2.90016 -23.73907,-12.48164 -27.72192,-26.37562 -0.63065,-2.2 -2.91023,-26.2317 -5.06574,-53.40378 -2.15551,-27.17207 -4.27741,-49.75516 -4.71534,-50.18464 -1.0181,-0.99846 -63.4973,3.9202 -64.68714,5.09249 -0.520696,0.51301 0.648752,20.85064 2.814188,48.94093 3.966166,51.44959 5.156916,59.25163 11.588251,75.92864 5.795508,15.02825 17.046485,28.74187 30.743165,37.47231 12.911476,8.22995 23.782606,11.51528 41.745316,12.61574 6.6,0.40434 12.9,0.80177 14,0.88319 1.1,0.0814 9.08225,-0.30377 17.73834,-0.85597 z m 106.70322,-47.73891 c -0.10641,-3.18691 -5.67043,-16.75 -6.87139,-16.75 -1.03593,0 -5.16276,9.94964 -6.74004,16.25 -0.54459,2.17533 -0.32709,2.25 6.55329,2.25 6.13329,0 7.10851,-0.2418 7.05814,-1.75 z m 33.55844,-81.5982 c 21.96083,-10.23382 37,-17.7925 37,-18.59618 0,-1.21414 -77.10494,-35.84847 -80.14301,-35.99899 -0.62866,-0.0312 -1.343,0.50587 -1.58744,1.19337 -0.63482,1.78552 4.70874,68.09685 5.60421,69.54573 0.40935,0.66235 1.05522,1.1804 1.43526,1.15123 0.38004,-0.0292 17.34098,-7.812 37.69098,-17.29516 z M 23.464294,363.0892 c -9.2125,-4.64906 -16.741915,-9.01274 -16.732033,-9.69706 0.018095,-1.25307 9.151234,-7.74422 10.896226,-7.74422 0.990141,0 23.348223,23.41106 23.91914,25.04564 0.587538,1.68216 -1.025075,1.00403 -18.083333,-7.60436 z m 82.249996,5.14621 c 0,-1.84051 9.41852,-35.36644 10.20395,-36.32173 0.77229,-0.93931 2.78843,-0.008 8.43715,3.89683 4.0823,2.82209 7.69003,5.56417 8.01718,6.09351 0.32715,0.52934 -5.19314,6.76326 -12.2673,13.85317 -11.34927,11.37451 -14.39098,14.01194 -14.39098,12.47822 z m 60.5,-8.10057 c -7.7,-4.07244 -14.12359,-7.98549 -14.27465,-8.69567 -0.40335,-1.89633 3.24917,-12.11609 4.47648,-12.52519 0.9648,-0.3216 26.29817,26.78522 26.29817,28.13917 0,1.43901 -3.36979,0.0261 -16.5,-6.91831 z m -111.659607,2.00925 c -6.864696,-10.99279 -13.993112,-24.6558 -13.514466,-25.90313 0.296282,-0.7721 2.547662,-2.78602 5.003066,-4.47538 3.373637,-2.32113 4.694181,-2.7718 5.404976,-1.84461 1.162409,1.51628 6.624852,33.1505 6.031592,34.93028 -0.245887,0.73766 -1.497066,-0.42027 -2.925168,-2.70716 z m 23.896091,-15.20223 c 0.27505,-9.78667 0.81673,-18.1413 1.20373,-18.56586 0.90559,-0.99348 14.08097,8.94409 13.99455,10.55544 -0.10476,1.95325 -13.32178,25.03404 -14.56657,25.43751 -0.82627,0.26781 -0.99681,-4.43675 -0.63171,-17.42709 z m 174.263516,15.66557 c 0,-1.00468 10.73071,-22.53148 12.87596,-25.83036 0.73449,-1.12948 2.32938,-0.89198 9.05812,1.34889 4.81112,1.60226 8.00954,3.19272 7.78428,3.87086 -0.21031,0.6331 -6.19548,5.34093 -13.30037,10.46184 -15.03548,10.83694 -16.41799,11.69154 -16.41799,10.14877 z m -61.81094,-18.7767 c -5.67101,-8.42445 -10.14076,-15.82772 -9.93276,-16.45171 0.50611,-1.51834 17.05026,-8.81548 17.9525,-7.91831 0.87844,0.8735 3.0973,31.38952 2.63122,36.18721 -0.33003,3.39717 -0.64296,3.04998 -10.65096,-11.81719 z m 41.81094,-6.12379 c 0,-10.03779 0.41147,-18.19529 0.93407,-18.51827 0.99773,-0.61663 12.0595,4.2626 12.07538,5.32632 0.0264,1.7704 -11.45215,31.13293 -12.17067,31.13293 -0.46133,0 -0.83878,-8.07344 -0.83878,-17.94098 z"
       id="path4221"
       style="fill:#514e4c" />
  </g>
</svg>
