<?xml version="1.0" encoding="UTF-8" standalone="no"?>
<!-- Created with Inkscape (http://www.inkscape.org/) -->

<svg
   xmlns:dc="http://purl.org/dc/elements/1.1/"
   xmlns:cc="http://creativecommons.org/ns#"
   xmlns:rdf="http://www.w3.org/1999/02/22-rdf-syntax-ns#"
   xmlns:svg="http://www.w3.org/2000/svg"
   xmlns="http://www.w3.org/2000/svg"
   xmlns:sodipodi="http://sodipodi.sourceforge.net/DTD/sodipodi-0.dtd"
   xmlns:inkscape="http://www.inkscape.org/namespaces/inkscape"
   width="447"
   height="222"
   id="svg2"
   version="1.1"
   inkscape:version="0.48.3.1 r9886"
   sodipodi:docname="task6.svg">
  <sodipodi:namedview
     id="base"
     pagecolor="#ffffff"
     bordercolor="#666666"
     borderopacity="1.0"
     inkscape:pageopacity="0.0"
     inkscape:pageshadow="2"
     inkscape:zoom="0.98994949"
     inkscape:cx="62.27798"
     inkscape:cy="74.432617"
     inkscape:document-units="px"
     inkscape:current-layer="layer1"
     showgrid="true"
     inkscape:snap-grids="true"
     inkscape:snap-page="true"
     inkscape:object-paths="true"
     inkscape:snap-intersection-paths="false"
     inkscape:object-nodes="false"
     inkscape:snap-smooth-nodes="true"
     inkscape:window-width="1920"
     inkscape:window-height="1107"
     inkscape:window-x="0"
     inkscape:window-y="27"
     inkscape:window-maximized="1"
     fit-margin-top="0"
     fit-margin-left="0"
     fit-margin-right="0"
     fit-margin-bottom="0"
     showborder="false">
    <inkscape:grid
       type="xygrid"
       id="grid2985"
       empspacing="5"
       visible="true"
       enabled="true"
       snapvisiblegridlinesonly="true"
       originx="-349px"
       originy="-578.99999px" />
  </sodipodi:namedview>
  <defs
     id="defs4" />
  <metadata
     id="metadata7">
    <rdf:RDF>
      <cc:Work
         rdf:about="">
        <dc:format>image/svg+xml</dc:format>
        <dc:type
           rdf:resource="http://purl.org/dc/dcmitype/StillImage" />
        <dc:title />
      </cc:Work>
    </rdf:RDF>
  </metadata>
  <g
     inkscape:label="Layer 1"
     inkscape:groupmode="layer"
     id="layer1"
     transform="translate(-349,-251.36216)">
    <rect
       style="fill:#ffffff;fill-opacity:1;stroke:#000000;stroke-width:2;stroke-linejoin:round;stroke-miterlimit:4;stroke-opacity:1;stroke-dasharray:none;stroke-dashoffset:0"
       id="rect2987"
       width="250"
       height="220"
       x="350"
       y="252.36217"
       ry="0"
       rx="0" />
    <rect
       style="fill:#808080;fill-opacity:1;stroke:#000000;stroke-width:2;stroke-linejoin:round;stroke-miterlimit:4;stroke-opacity:1;stroke-dasharray:none;stroke-dashoffset:0"
       id="rect2989"
       width="5"
       height="220"
       x="600"
       y="252.36218"
       transform="translate(0,-2.2302535e-5)"
       ry="0"
       rx="0" />
    <rect
       style="fill:#808080;fill-opacity:1;stroke:#000000;stroke-width:2;stroke-linejoin:round;stroke-miterlimit:4;stroke-opacity:1;stroke-dasharray:none;stroke-dashoffset:0"
       id="rect2989-1"
       width="5"
       height="220"
       x="605"
       y="252.36217"
       ry="0"
       rx="0" />
    <rect
       style="fill:#808080;fill-opacity:1;stroke:#000000;stroke-width:2;stroke-linejoin:round;stroke-miterlimit:4;stroke-opacity:1;stroke-dasharray:none;stroke-dashoffset:0"
       id="rect2989-7"
       width="5"
       height="220"
       x="610"
       y="252.36217"
       ry="0"
       rx="0" />
    <rect
       style="fill:#e6e6e6;fill-opacity:1;stroke:#000000;stroke-width:2;stroke-linejoin:round;stroke-miterlimit:4;stroke-opacity:1;stroke-dasharray:none;stroke-dashoffset:0"
       id="rect3784"
       width="180"
       height="220"
       x="615"
       y="252.36217" />
    <path
       style="fill:none;stroke:#000000;stroke-width:1px;stroke-linecap:butt;stroke-linejoin:miter;stroke-opacity:1"
       d="m 350,372.36218 30,0 10,-50 10,90 10,-90 10,90 10,-90 10,90 10,-90 10,90 10,-90 10,90 10,-90 10,90 10,-90 10,90 10,-90 10,90 10,-90 10,90 10,-40 30,0"
       id="path3786"
       inkscape:connector-curvature="0"
       transform="translate(0,-2.2302535e-5)" />
    <g
       id="g3800"
       transform="matrix(0.67722662,0,0,0.67722662,175.11019,-36.720653)">
      <g
         id="content"
         transform="matrix(1.5033746,0,0,-1.5033746,-263.09055,1116.1418)"
         xml:space="preserve"
         stroke-miterlimit="10.433"
         font-style="normal"
         font-variant="normal"
         font-weight="normal"
         font-stretch="normal"
         font-size-adjust="none"
         letter-spacing="normal"
         word-spacing="normal"
         style="font-style:normal;font-variant:normal;font-weight:normal;font-stretch:normal;letter-spacing:normal;word-spacing:normal;text-anchor:start;fill:none;stroke:#000000;stroke-linecap:butt;stroke-linejoin:miter;stroke-miterlimit:10.43299961;stroke-opacity:1;stroke-dasharray:none;stroke-dashoffset:0"><path
           d="m 469.82,440.23 0,0 0,0.01 0,0 0,0.01 -0.01,0.02 0,0.01 0,0.02 0,0.02 0,0.02 -0.01,0.02 0,0.02 -0.01,0.02 -0.01,0.02 -0.01,0.03 -0.01,0.02 -0.01,0.03 -0.01,0.02 -0.02,0.03 -0.02,0.02 -0.02,0.02 -0.02,0.03 -0.01,0.01 -0.01,0.01 -0.02,0.01 -0.01,0.01 -0.02,0.01 -0.01,0.01 -0.02,0.01 -0.01,0.01 -0.02,0.01 -0.02,0.01 -0.02,0 -0.02,0.01 -0.02,0.01 -0.02,0 -0.02,0.01 -0.02,0.01 -0.03,0 -0.02,0 -0.03,0.01 -0.02,0 -0.03,0 -0.03,0.01 -0.02,0 -0.03,0 c -1.16,0 -4.79,-0.41 -6.08,-0.5 -0.41,-0.05 -0.96,-0.1 -0.96,-1 0,-0.6 0.46,-0.6 1.21,-0.6 2.39,0 2.48,-0.34 2.48,-0.84 l -0.15,-1 -7.22,-28.7 c -0.21,-0.69 -0.21,-0.8 -0.21,-1.1 0,-1.14 1,-1.39 1.46,-1.39 0.64,0 1.39,0.46 1.68,1.05 0.25,0.45 2.5,9.66 2.8,10.91 1.69,-0.15 5.78,-0.94 5.78,-4.24 0,-0.34 0,-0.55 -0.15,-1.05 -0.1,-0.59 -0.21,-1.18 -0.21,-1.73 0,-2.95 2,-4.94 4.6,-4.94 1.48,0 2.83,0.8 3.93,2.64 1.24,2.19 1.79,4.94 1.79,5.03 0,0.5 -0.44,0.5 -0.6,0.5 -0.5,0 -0.54,-0.2 -0.7,-0.9 -0.99,-3.63 -2.14,-6.17 -4.33,-6.17 -0.94,0 -1.59,0.54 -1.59,2.34 0,0.84 0.2,1.98 0.4,2.78 0.19,0.86 0.19,1.05 0.19,1.55 0,3.25 -3.14,4.69 -7.37,5.23 1.54,0.91 3.14,2.5 4.29,3.69 2.39,2.64 4.67,4.78 7.13,4.78 0.29,0 0.34,0 0.44,-0.05 0.6,-0.09 0.65,-0.09 1.04,-0.39 0.11,-0.06 0.11,-0.11 0.21,-0.2 -2.4,-0.16 -2.85,-2.09 -2.85,-2.69 0,-0.79 0.55,-1.75 1.89,-1.75 1.3,0 2.75,1.1 2.75,3.03 0,1.5 -1.15,3.14 -3.39,3.14 -1.39,0 -3.69,-0.39 -7.28,-4.37 -1.69,-1.89 -3.62,-3.89 -5.52,-4.64 z"
           id="path3803"
           inkscape:connector-curvature="0"
           style="fill:#000000;stroke-width:0" /></g>    </g>
    <g
       id="g3833"
       transform="matrix(0.67722662,0,0,0.67722662,381.81146,60.603687)">
      <g
         word-spacing="normal"
         letter-spacing="normal"
         font-size-adjust="none"
         font-stretch="normal"
         font-weight="normal"
         font-variant="normal"
         font-style="normal"
         stroke-miterlimit="10.433"
         xml:space="preserve"
         transform="matrix(1.5033746,0,0,-1.5033746,-263.09055,1116.1418)"
         id="g3835"
         style="font-style:normal;font-variant:normal;font-weight:normal;font-stretch:normal;letter-spacing:normal;word-spacing:normal;text-anchor:start;fill:none;stroke:#000000;stroke-linecap:butt;stroke-linejoin:miter;stroke-miterlimit:10.43299961;stroke-opacity:1;stroke-dasharray:none;stroke-dashoffset:0"><path
           id="path3837"
           d="m 457.75,400.12 -0.03,-0.15 -0.04,-0.15 -0.03,-0.14 -0.03,-0.13 -0.04,-0.13 -0.03,-0.11 -0.04,-0.12 -0.03,-0.1 -0.04,-0.1 -0.04,-0.09 -0.04,-0.09 -0.05,-0.08 -0.05,-0.07 -0.05,-0.07 -0.06,-0.07 -0.06,-0.06 -0.07,-0.05 -0.07,-0.05 -0.08,-0.04 -0.09,-0.04 -0.09,-0.04 -0.1,-0.03 -0.11,-0.03 -0.12,-0.02 -0.13,-0.02 -0.06,-0.01 -0.07,-0.01 -0.07,-0.01 -0.08,-0.01 -0.07,0 -0.08,-0.01 -0.08,0 -0.09,-0.01 -0.08,0 -0.09,0 -0.1,0 -0.09,0 -0.1,-0.01 -0.1,0 c -0.6,0 -1.14,0 -1.14,-0.93 0,-0.41 0.25,-0.61 0.64,-0.61 1.36,0 2.79,0.15 4.18,0.15 1.64,0 3.35,-0.15 4.94,-0.15 0.25,0 0.89,0 0.89,1 0,0.54 -0.5,0.54 -1.19,0.54 -2.5,0 -2.5,0.36 -2.5,0.8 0,0.61 2.1,8.72 2.46,9.97 0.64,-1.44 2.03,-3.19 4.58,-3.19 l -0.05,1.1 c -3.3,0 -3.94,4.14 -3.94,4.43 0,0.1 0,0.21 0.14,0.8 l 2.46,9.77 c 0.34,1.34 1.68,2.73 2.57,3.48 1.75,1.55 3.21,1.89 4.05,1.89 1.98,0 3.19,-1.73 3.19,-4.69 0,-2.93 -1.64,-8.65 -2.55,-10.56 -1.69,-3.48 -4.08,-5.12 -5.92,-5.12 l 0.05,-1.1 c 5.78,0 12,7.27 12,14.6 0,4.68 -2.83,7.96 -6.63,7.96 -2.48,0 -4.87,-1.78 -6.51,-3.73 -0.5,2.69 -2.65,3.73 -4.49,3.73 -2.3,0 -3.25,-1.93 -3.69,-2.82 -0.9,-1.71 -1.54,-4.69 -1.54,-4.85 0,-0.5 0.5,-0.5 0.59,-0.5 0.5,0 0.55,0.07 0.84,1.16 0.86,3.53 1.85,5.92 3.64,5.92 0.85,0 1.55,-0.39 1.55,-2.28 0,-1.16 -0.15,-1.7 -0.34,-2.55 z"
           inkscape:connector-curvature="0"
           style="fill:#000000;stroke-width:0" /><path
           id="path3839"
           d="m 498.59,409.87 -0.01,0.71 -0.02,0.68 -0.03,0.66 -0.04,0.64 -0.06,0.62 -0.07,0.6 -0.09,0.57 -0.11,0.56 -0.13,0.55 -0.15,0.53 -0.17,0.51 -0.19,0.5 -0.21,0.49 -0.24,0.48 -0.26,0.47 -0.14,0.23 -0.15,0.23 c -1.07,1.61 -3.23,3 -6.03,3 v -0.98 c 1.89,0 3.71,-1.14 4.33,-3.17 0.56,-1.88 0.59,-4.39 0.59,-7.43 0,-2.57 0,-5.15 -0.45,-7.34 -0.7,-3.17 -3.06,-3.94 -4.47,-3.94 h 0 c -1.59,0 -3.72,0.94 -4.42,3.8 -0.48,2.05 -0.48,4.91 -0.48,7.48 0,2.55 0,5.21 0.51,7.11 0.74,2.75 2.97,3.49 4.39,3.49 v 0.98 c -8.08,0 -8.08,-9.51 -8.08,-12.03 0,-2.5 0,-11.81 8.08,-11.81 8.1,0 8.1,9.31 8.1,11.81 z"
           inkscape:connector-curvature="0"
           style="fill:#000000;stroke-width:0" /></g>    </g>
    <g
       id="g3877"
       transform="matrix(0.67722662,0,0,0.67722662,442.72978,30.821646)">
      <g
         id="g3879"
         transform="matrix(1.5033746,0,0,-1.5033746,-263.09055,1116.1418)"
         xml:space="preserve"
         stroke-miterlimit="10.433"
         font-style="normal"
         font-variant="normal"
         font-weight="normal"
         font-stretch="normal"
         font-size-adjust="none"
         letter-spacing="normal"
         word-spacing="normal"
         style="font-style:normal;font-variant:normal;font-weight:normal;font-stretch:normal;letter-spacing:normal;word-spacing:normal;text-anchor:start;fill:none;stroke:#000000;stroke-linecap:butt;stroke-linejoin:miter;stroke-miterlimit:10.43299961;stroke-opacity:1;stroke-dasharray:none;stroke-dashoffset:0"><path
           d="m 476.8,436.43 0.02,0.07 0.01,0.06 0.03,0.12 0.03,0.12 0.03,0.11 0.03,0.11 0.03,0.09 0.03,0.1 0.03,0.09 0.03,0.08 0.03,0.08 0.03,0.07 0.03,0.07 0.03,0.06 0.03,0.06 0.03,0.06 0.03,0.05 0.03,0.05 0.03,0.04 0.04,0.04 0.03,0.04 0.04,0.04 0.03,0.03 0.04,0.03 0.04,0.03 0.04,0.02 0.05,0.03 0.04,0.02 0.05,0.02 0.04,0.01 0.05,0.02 0.06,0.01 0.05,0.02 c 0.45,0.11 2.1,0.11 3.14,0.11 5.03,0 7.27,-0.21 7.27,-4.1 0,-0.73 -0.19,-2.68 -0.39,-3.98 -0.05,-0.19 -0.16,-0.8 -0.16,-0.94 0,-0.3 0.16,-0.66 0.59,-0.66 0.57,0 0.66,0.41 0.75,1.16 l 1.35,8.66 c 0.06,0.2 0.11,0.7 0.11,0.86 0,0.54 -0.5,0.54 -1.35,0.54 H 461.6 c -1.21,0 -1.25,-0.06 -1.6,-1 l -2.98,-8.76 c -0.06,-0.11 -0.3,-0.8 -0.3,-0.91 0,-0.3 0.24,-0.55 0.6,-0.55 0.5,0 0.54,0.25 0.84,1.05 2.69,7.72 3.98,8.63 11.36,8.63 h 1.94 c 1.4,0 1.4,-0.21 1.4,-0.6 0,-0.31 -0.15,-0.9 -0.2,-1.04 l -6.67,-26.61 c -0.45,-1.85 -0.61,-2.39 -5.94,-2.39 -1.8,0 -2.09,0 -2.09,-0.96 0,-0.59 0.54,-0.59 0.84,-0.59 1.36,0 2.75,0.09 4.09,0.09 1.4,0 2.85,0.07 4.24,0.07 1.39,0 2.78,-0.07 4.14,-0.07 1.44,0 2.94,-0.09 4.33,-0.09 0.5,0 1.09,0 1.09,1 0,0.55 -0.39,0.55 -1.69,0.55 -1.25,0 -1.89,0 -3.18,0.09 -1.46,0.16 -1.85,0.3 -1.85,1.09 0,0.07 0,0.32 0.19,1.05 z"
           id="path3881"
           inkscape:connector-curvature="0"
           style="fill:#000000;stroke-width:0" /><path
           d="m 502.66,409.87 0,0.71 -0.02,0.68 -0.03,0.66 -0.04,0.64 -0.06,0.62 -0.07,0.6 -0.09,0.57 -0.11,0.56 -0.13,0.55 -0.15,0.53 -0.17,0.51 -0.19,0.5 -0.21,0.49 -0.24,0.48 -0.26,0.47 -0.14,0.23 -0.15,0.23 c -1.08,1.61 -3.23,3 -6.03,3 v -0.98 c 1.89,0 3.7,-1.14 4.33,-3.17 0.56,-1.88 0.59,-4.39 0.59,-7.43 0,-2.57 0,-5.15 -0.45,-7.34 -0.7,-3.17 -3.06,-3.94 -4.47,-3.94 h 0 c -1.59,0 -3.72,0.94 -4.42,3.8 -0.49,2.05 -0.49,4.91 -0.49,7.48 0,2.55 0,5.21 0.52,7.11 0.73,2.75 2.97,3.49 4.39,3.49 v 0.98 c -8.08,0 -8.08,-9.51 -8.08,-12.03 0,-2.5 0,-11.81 8.08,-11.81 8.09,0 8.09,9.31 8.09,11.81 z"
           id="path3883"
           inkscape:connector-curvature="0"
           style="fill:#000000;stroke-width:0" /></g>    </g>
    <g
       id="g3929"
       transform="matrix(0.67722662,0,0,0.67722662,362.82958,-18.41476)">
      <g
         word-spacing="normal"
         letter-spacing="normal"
         font-size-adjust="none"
         font-stretch="normal"
         font-weight="normal"
         font-variant="normal"
         font-style="normal"
         stroke-miterlimit="10.433"
         xml:space="preserve"
         transform="matrix(1.5033746,0,0,-1.5033746,-263.09055,1116.1418)"
         id="g3931"
         style="font-style:normal;font-variant:normal;font-weight:normal;font-stretch:normal;letter-spacing:normal;word-spacing:normal;text-anchor:start;fill:none;stroke:#000000;stroke-linecap:butt;stroke-linejoin:miter;stroke-miterlimit:10.43299961;stroke-opacity:1;stroke-dasharray:none;stroke-dashoffset:0"><path
           id="path3933"
           d="m 486.8,434.54 0.23,0.36 0.23,0.33 0.22,0.31 0.22,0.29 0.22,0.28 0.22,0.25 0.22,0.24 0.22,0.22 0.21,0.2 0.21,0.19 0.21,0.17 0.2,0.16 0.21,0.14 0.2,0.13 0.21,0.12 0.19,0.11 0.2,0.09 0.2,0.09 0.19,0.07 0.2,0.07 0.19,0.06 0.19,0.05 0.18,0.04 0.19,0.03 0.18,0.03 0.19,0.03 0.36,0.04 0.35,0.02 0.35,0.02 c 0.6,0.05 0.64,0.89 0.64,0.96 0,0.39 -0.25,0.59 -0.64,0.59 -1.3,0 -2.75,-0.16 -4.09,-0.16 -1.64,0 -3.35,0.16 -4.94,0.16 -0.3,0 -0.94,0 -0.94,-0.95 0,-0.55 0.46,-0.6 0.8,-0.6 1.34,-0.09 2.3,-0.59 2.3,-1.64 0,-0.75 -0.75,-1.84 -0.75,-1.89 l -15.3,-24.31 -3.39,26.34 c 0,0.85 1.14,1.5 3.44,1.5 0.7,0 1.25,0 1.25,1 0,0.44 -0.41,0.55 -0.71,0.55 -1.98,0 -4.14,-0.16 -6.17,-0.16 -0.9,0 -1.84,0.05 -2.75,0.05 -0.89,0 -1.84,0.11 -2.69,0.11 -0.34,0 -0.93,0 -0.93,-0.95 0,-0.6 0.43,-0.6 1.23,-0.6 2.8,0 2.84,-0.45 3,-1.68 l 3.92,-30.75 c 0.16,-1 0.36,-1.14 1,-1.14 0.8,0 1,0.25 1.41,0.89 z"
           inkscape:connector-curvature="0"
           style="fill:#000000;stroke-width:0" /><path
           id="path3935"
           d="m 502.54,409.87 0,0.71 -0.02,0.68 -0.03,0.66 -0.04,0.64 -0.06,0.62 -0.08,0.6 -0.09,0.57 -0.1,0.56 -0.13,0.55 -0.15,0.53 -0.17,0.51 -0.19,0.5 -0.21,0.49 -0.24,0.48 -0.26,0.47 -0.14,0.23 -0.15,0.23 c -1.08,1.61 -3.23,3 -6.03,3 v -0.98 c 1.89,0 3.7,-1.14 4.33,-3.17 0.56,-1.88 0.59,-4.39 0.59,-7.43 0,-2.57 0,-5.15 -0.45,-7.34 -0.71,-3.17 -3.06,-3.94 -4.47,-3.94 h 0 c -1.59,0 -3.72,0.94 -4.42,3.8 -0.49,2.05 -0.49,4.91 -0.49,7.48 0,2.55 0,5.21 0.52,7.11 0.73,2.75 2.97,3.49 4.39,3.49 v 0.98 c -8.08,0 -8.08,-9.51 -8.08,-12.03 0,-2.5 0,-11.81 8.08,-11.81 8.09,0 8.09,9.31 8.09,11.81 z"
           inkscape:connector-curvature="0"
           style="fill:#000000;stroke-width:0" /></g>    </g>
  </g>
</svg>
