<?xml version="1.0" encoding="UTF-8" standalone="no"?>
<!-- Created with Inkscape (http://www.inkscape.org/) -->

<svg
   xmlns:dc="http://purl.org/dc/elements/1.1/"
   xmlns:cc="http://creativecommons.org/ns#"
   xmlns:rdf="http://www.w3.org/1999/02/22-rdf-syntax-ns#"
   xmlns:svg="http://www.w3.org/2000/svg"
   xmlns="http://www.w3.org/2000/svg"
   xmlns:xlink="http://www.w3.org/1999/xlink"
   version="1.1"
   width="462"
   height="362.71713"
   id="svg2">
  <defs
     id="defs4">
    <marker
       refX="0"
       refY="0"
       orient="auto"
       id="Arrow1Mstart"
       style="overflow:visible">
      <path
         d="M 0,0 5,-5 -12.5,0 5,5 0,0 z"
         transform="matrix(0.4,0,0,0.4,4,0)"
         id="path4444"
         style="fill-rule:evenodd;stroke:#000000;stroke-width:1pt" />
    </marker>
    <marker
       refX="0"
       refY="0"
       orient="auto"
       id="Arrow1Mend"
       style="overflow:visible">
      <path
         d="M 0,0 5,-5 -12.5,0 5,5 0,0 z"
         transform="matrix(-0.4,0,0,-0.4,-4,0)"
         id="path3822"
         style="fill-rule:evenodd;stroke:#000000;stroke-width:1pt" />
    </marker>
    <linearGradient
       id="linearGradient5165">
      <stop
         id="stop5167"
         style="stop-color:#adadad;stop-opacity:1"
         offset="0" />
      <stop
         id="stop5175"
         style="stop-color:#ffffff;stop-opacity:1"
         offset="1" />
    </linearGradient>
    <marker
       refX="0"
       refY="0"
       orient="auto"
       id="Arrow1Lend"
       style="overflow:visible">
      <path
         d="M 0,0 5,-5 -12.5,0 5,5 0,0 z"
         transform="matrix(-0.8,0,0,-0.8,-10,0)"
         id="path3968"
         style="fill-rule:evenodd;stroke:#000000;stroke-width:1pt" />
    </marker>
    <marker
       refX="0"
       refY="0"
       orient="auto"
       id="Arrow1Lstart"
       style="overflow:visible">
      <path
         d="M 0,0 5,-5 -12.5,0 5,5 0,0 z"
         transform="matrix(0.8,0,0,0.8,10,0)"
         id="path3965"
         style="fill-rule:evenodd;stroke:#000000;stroke-width:1pt" />
    </marker>
    <linearGradient
       id="linearGradient3761">
      <stop
         id="stop3763"
         style="stop-color:#5f5f5f;stop-opacity:1"
         offset="0" />
      <stop
         id="stop3765"
         style="stop-color:#c0c0c0;stop-opacity:1"
         offset="1" />
    </linearGradient>
    <linearGradient
       x1="290"
       y1="74.409424"
       x2="290"
       y2="34.409424"
       id="linearGradient3767"
       xlink:href="#linearGradient3761"
       gradientUnits="userSpaceOnUse"
       gradientTransform="translate(0.47202544,607.66986)" />
    <linearGradient
       x1="430"
       y1="592.36218"
       x2="430"
       y2="622.36218"
       id="linearGradient5171"
       xlink:href="#linearGradient5165"
       gradientUnits="userSpaceOnUse" />
    <linearGradient
       x1="190"
       y1="64.409424"
       x2="190"
       y2="94.409424"
       id="linearGradient5173"
       xlink:href="#linearGradient5165"
       gradientUnits="userSpaceOnUse" />
  </defs>
  <metadata
     id="metadata7">
    <rdf:RDF>
      <cc:Work
         rdf:about="">
        <dc:format>image/svg+xml</dc:format>
        <dc:type
           rdf:resource="http://purl.org/dc/dcmitype/StillImage" />
        <dc:title></dc:title>
      </cc:Work>
    </rdf:RDF>
  </metadata>
  <g
     transform="translate(-79.472026,-591.86215)"
     id="layer1">
    <rect
       width="460"
       height="20"
       x="80.472031"
       y="652.07928"
       id="rect2991"
       style="fill:url(#linearGradient3767);fill-opacity:1;stroke:#010101;stroke-width:1;stroke-linejoin:round;stroke-miterlimit:4;stroke-opacity:1;stroke-dasharray:none;stroke-dashoffset:0" />
    <path
       d="m 90.472026,952.07928 449.999994,0"
       id="path3769"
       style="fill:none;stroke:#000000;stroke-width:1px;stroke-linecap:butt;stroke-linejoin:miter;stroke-opacity:1" />
    <path
       d="m 270.47202,732.07928 -46,43.1579"
       id="path3775"
       style="fill:none;stroke:#000000;stroke-width:0.99630892px;stroke-linecap:butt;stroke-linejoin:miter;stroke-opacity:1" />
    <path
       d="m 290.47202,732.07928 46,43.1579"
       id="path3777"
       style="fill:none;stroke:#000000;stroke-width:0.99630892px;stroke-linecap:butt;stroke-linejoin:miter;stroke-opacity:1" />
    <path
       d="m 200,224.40942 a 10,10 0 1 1 -20,0 10,10 0 1 1 20,0 z"
       transform="matrix(1.1,0,0,1.0131579,12.472026,550.63816)"
       id="path3779"
       style="fill:#b8b8b8;fill-opacity:1;stroke:#010101;stroke-width:1;stroke-linejoin:round;stroke-miterlimit:4;stroke-opacity:1;stroke-dasharray:none;stroke-dashoffset:0" />
    <path
       d="m 200,224.40942 a 10,10 0 1 1 -20,0 10,10 0 1 1 20,0 z"
       transform="matrix(1.1000001,0,0,1.013158,130.472,550.63814)"
       id="path3779-1"
       style="fill:#b8b8b8;fill-opacity:1;stroke:#010101;stroke-width:1;stroke-linejoin:round;stroke-miterlimit:4;stroke-opacity:1;stroke-dasharray:none;stroke-dashoffset:0" />
    <path
       d="m 110,259.40942 a 25,15 0 1 1 -50,0 25,15 0 1 1 50,0 z"
       transform="translate(155.47202,677.66986)"
       id="path3799"
       style="fill:#b8b8b8;fill-opacity:1;stroke:#010101;stroke-width:1;stroke-linejoin:round;stroke-miterlimit:4;stroke-opacity:1;stroke-dasharray:none;stroke-dashoffset:0" />
    <path
       d="m 110,259.40942 a 25,15 0 1 1 -50,0 25,15 0 1 1 50,0 z"
       transform="translate(235.47202,677.66986)"
       id="path3799-7"
       style="fill:#b8b8b8;fill-opacity:1;stroke:#010101;stroke-width:1;stroke-linejoin:round;stroke-miterlimit:4;stroke-opacity:1;stroke-dasharray:none;stroke-dashoffset:0" />
    <path
       d="m 260.47202,792.07928 -10,130"
       id="path3819"
       style="fill:none;stroke:#000000;stroke-width:1.36277032px;stroke-linecap:butt;stroke-linejoin:miter;stroke-opacity:1" />
    <path
       d="m 300.47202,792.07928 10,130"
       id="path3821"
       style="fill:none;stroke:#000000;stroke-width:1.36277032px;stroke-linecap:butt;stroke-linejoin:miter;stroke-opacity:1" />
    <path
       d="m 350,179.40942 a 35,55 0 1 1 -70,0 35,55 0 1 1 70,0 z"
       transform="matrix(0.79999999,0,0,1.1435407,28.472028,574.02256)"
       id="path3773"
       style="fill:#b8b8b8;fill-opacity:1;stroke:#010101;stroke-width:1;stroke-linejoin:round;stroke-miterlimit:4;stroke-opacity:1;stroke-dasharray:none;stroke-dashoffset:0" />
    <path
       d="m 80.472026,778.07928 459.999994,0"
       id="path3825"
       style="fill:none;stroke:#000000;stroke-width:2;stroke-linecap:butt;stroke-linejoin:miter;stroke-miterlimit:4;stroke-opacity:1;stroke-dasharray:8, 8;stroke-dashoffset:0" />
    <path
       d="m 90,129.40942 a 25,25 0 1 1 -50,0 25,25 0 1 1 50,0 z"
       transform="translate(215.47202,567.66986)"
       id="path3827"
       style="fill:#b8b8b8;fill-opacity:1;stroke:#010101;stroke-width:1;stroke-linejoin:round;stroke-miterlimit:4;stroke-opacity:1;stroke-dasharray:none;stroke-dashoffset:0" />
    <path
       d="m 280.47202,672.07928 0,280"
       id="path3823"
       style="fill:none;stroke:#000000;stroke-width:2;stroke-linecap:butt;stroke-linejoin:miter;stroke-miterlimit:4;stroke-opacity:1;stroke-dasharray:8, 8;stroke-dashoffset:0" />
    <path
       d="m 80,139.40942 a 5,5 0 1 1 -10,0 5,5 0 1 1 10,0 z"
       transform="translate(205.47202,638.66986)"
       id="path3829"
       style="fill:#000000;fill-opacity:1;stroke:#010101;stroke-width:1;stroke-linejoin:round;stroke-miterlimit:4;stroke-opacity:1;stroke-dasharray:none;stroke-dashoffset:0" />
    <g
       transform="matrix(0.89912745,0,0,0.89912745,93.208792,546.2715)"
       id="g3856">
      <g
         transform="matrix(0.74915631,0,0,-0.74915631,-131.10235,558.07086)"
         id="content"
         xml:space="preserve"
         style="font-style:normal;font-variant:normal;font-weight:normal;font-stretch:normal;letter-spacing:normal;word-spacing:normal;text-anchor:start;fill:none;stroke:#000000;stroke-width:0.67092133;stroke-linecap:butt;stroke-linejoin:miter;stroke-miterlimit:10.43299961;stroke-opacity:1;stroke-dasharray:none;stroke-dashoffset:0"><path
           d="m 488.71,439.93 h -30.46 l -0.93,-11.22 h 1.25 c 0.68,8.04 1.43,9.68 8.95,9.68 0.91,0 2.2,0 2.7,-0.11 1.05,-0.19 1.05,-0.74 1.05,-1.89 v -26.25 c 0,-1.71 0,-2.39 -5.23,-2.39 h -2 v -1.55 c 2.04,0.16 7.12,0.16 9.42,0.16 2.29,0 7.42,0 9.47,-0.16 v 1.55 h -2 c -5.24,0 -5.24,0.68 -5.24,2.39 v 26.25 c 0,1 0,1.7 0.91,1.89 0.54,0.11 1.89,0.11 2.84,0.11 7.52,0 8.27,-1.64 8.95,-9.68 h 1.25 z"
           id="path3859"
           style="fill:#000000;stroke-width:0" /></g>    </g>
    <g
       transform="matrix(0.87437028,0,0,0.87437028,196.96481,653.81859)"
       id="g3915">
      <g
         transform="matrix(0.74915631,0,0,-0.74915631,-131.10235,558.07086)"
         id="g3917"
         xml:space="preserve"
         style="font-style:normal;font-variant:normal;font-weight:normal;font-stretch:normal;letter-spacing:normal;word-spacing:normal;text-anchor:start;fill:none;stroke:#000000;stroke-width:0.64888215;stroke-linecap:butt;stroke-linejoin:miter;stroke-miterlimit:10.43299961;stroke-opacity:1;stroke-dasharray:none;stroke-dashoffset:0"><path
           d="m 471.04,437.4 0.25,0 0.25,-0.02 0.24,-0.03 0.24,-0.04 0.23,-0.05 0.23,-0.06 0.22,-0.07 0.21,-0.08 0.21,-0.1 0.2,-0.1 0.2,-0.12 0.19,-0.12 0.18,-0.14 0.17,-0.15 0.17,-0.16 0.16,-0.17 0.15,-0.18 0.14,-0.19 0.14,-0.2 0.13,-0.22 0.11,-0.22 0.11,-0.24 0.1,-0.24 0.09,-0.26 0.08,-0.27 0.07,-0.28 0.06,-0.29 0.05,-0.3 0.04,-0.31 0.02,-0.32 0.02,-0.33 0.01,-0.35 c 0,-4.33 -2.52,-5.61 -4.53,-5.61 -1.39,0 -4.47,0.38 -5.93,2.44 1.63,0.06 2.02,1.22 2.02,1.95 0,1.11 -0.84,1.91 -1.92,1.91 -0.97,0 -1.96,-0.59 -1.96,-2.02 0,-3.28 3.63,-5.4 7.85,-5.4 4.84,0 8.19,3.25 8.19,6.73 0,2.72 -2.22,5.44 -6.07,6.24 3.66,1.33 4.99,3.93 4.99,6.06 0,2.75 -3.17,4.81 -7.03,4.81 -3.88,0 -6.83,-1.89 -6.83,-4.67 0,-1.19 0.76,-1.84 1.81,-1.84 1.08,0 1.77,0.79 1.77,1.76 0,1.02 -0.69,1.75 -1.77,1.81 1.22,1.55 3.61,1.93 4.91,1.93 1.56,0 3.76,-0.77 3.76,-3.8 0,-1.47 -0.48,-3.06 -1.39,-4.14 -1.15,-1.33 -2.12,-1.41 -3.87,-1.5 -0.88,-0.08 -0.94,-0.08 -1.11,-0.11 -0.08,0 -0.36,-0.06 -0.36,-0.45 0,-0.49 0.31,-0.49 0.9,-0.49 z"
           id="path3919"
           style="fill:#000000;stroke-width:0" /><polyline
           id="polyline3921"
           points="462,418 481.92,418 481.92,420.04 462,420.04 "
           style="fill:#000000;fill-rule:nonzero;stroke-width:0" /><path
           d="m 466.93,408.48 0.16,-0.04 0.16,-0.04 0.15,-0.04 0.15,-0.03 0.15,-0.03 0.14,-0.03 0.14,-0.03 0.14,-0.03 0.13,-0.02 0.13,-0.02 0.12,-0.02 0.12,-0.02 0.12,-0.01 0.11,-0.02 0.11,-0.01 0.1,-0.01 0.11,-0.01 0.09,-0.01 0.1,-0.01 0.09,0 0.09,-0.01 0.08,0 0.09,-0.01 0.07,0 0.08,0 0.07,0 0.07,-0.01 0.07,0 0.06,0 0.06,0 0.06,0 0.05,0 c 4.59,0 7.31,3.14 7.31,3.68 0,0.37 -0.23,0.48 -0.4,0.48 -0.08,0 -0.14,0 -0.28,-0.11 -0.85,-0.31 -2.69,-1.02 -5.27,-1.02 -0.97,0 -2.83,0.08 -5.09,0.96 -0.35,0.17 -0.41,0.17 -0.46,0.17 -0.45,0 -0.45,-0.39 -0.45,-0.94 v -10.28 c 0,-0.59 0,-1.01 0.56,-1.01 0.32,0 0.35,0.06 0.71,0.48 1.5,1.92 3.62,2.2 4.84,2.2 2.08,0 3.03,-1.67 3.2,-1.95 0.63,-1.16 0.83,-2.47 0.83,-4.5 0,-1.05 0,-3.09 -1.05,-4.63 -0.86,-1.26 -2.36,-2.09 -4.06,-2.09 -2.26,0 -4.61,1.25 -5.48,3.55 1.33,-0.1 1.98,0.76 1.98,1.7 0,1.5 -1.28,1.78 -1.73,1.78 -0.07,0 -1.75,0 -1.75,-1.87 0,-3.14 2.86,-6.28 7.04,-6.28 4.46,0 8.36,3.31 8.36,7.7 0,3.94 -3,7.56 -7.31,7.56 -1.53,0 -3.34,-0.37 -4.87,-1.7 z"
           id="path3923"
           style="fill:#000000;stroke-width:0" /><path
           d="m 501.62,440.23 0,0 0,0.01 0,0 0,0.01 0,0.02 -0.01,0.01 0,0.02 0,0.02 0,0.02 -0.01,0.02 0,0.02 -0.01,0.02 -0.01,0.02 -0.01,0.03 -0.01,0.02 -0.01,0.03 -0.01,0.02 -0.02,0.03 -0.02,0.02 -0.02,0.02 -0.02,0.03 -0.01,0.01 -0.01,0.01 -0.02,0.01 -0.01,0.01 -0.02,0.01 -0.01,0.01 -0.02,0.01 -0.01,0.01 -0.02,0.01 -0.02,0.01 -0.02,0 -0.02,0.01 -0.02,0.01 -0.02,0 -0.02,0.01 -0.02,0.01 -0.03,0 -0.02,0 -0.02,0.01 -0.03,0 -0.03,0 -0.02,0.01 -0.03,0 -0.03,0 c -1.16,0 -4.78,-0.41 -6.08,-0.5 -0.41,-0.05 -0.95,-0.1 -0.95,-1 0,-0.6 0.45,-0.6 1.2,-0.6 2.39,0 2.48,-0.34 2.48,-0.84 l -0.15,-1 -7.22,-28.7 c -0.21,-0.69 -0.21,-0.8 -0.21,-1.1 0,-1.14 1,-1.39 1.46,-1.39 0.79,0 1.59,0.6 1.84,1.3 l 0.94,3.78 1.11,4.48 c 0.3,1.1 0.59,2.19 0.84,3.35 0.1,0.3 0.5,1.94 0.55,2.23 0.14,0.46 1.69,3.25 3.39,4.6 1.09,0.79 2.64,1.73 4.78,1.73 2.14,0 2.69,-1.69 2.69,-3.48 0,-2.69 -1.89,-8.13 -3.1,-11.16 -0.39,-1.16 -0.64,-1.75 -0.64,-2.75 0,-2.33 1.74,-4.08 4.08,-4.08 4.69,0 6.53,7.27 6.53,7.67 0,0.5 -0.45,0.5 -0.59,0.5 -0.5,0 -0.5,-0.15 -0.75,-0.9 -0.75,-2.64 -2.34,-6.17 -5.08,-6.17 -0.86,0 -1.2,0.5 -1.2,1.64 0,1.25 0.45,2.45 0.9,3.54 0.8,2.14 3.04,8.07 3.04,10.96 0,3.23 -2,5.32 -5.74,5.32 -3.14,0 -5.53,-1.53 -7.37,-3.82 z"
           id="path3925"
           style="fill:#000000;stroke-width:0" /></g>    </g>
    <path
       d="m 370.47202,778.07928 0,174"
       id="path3959"
       style="fill:none;stroke:#000000;stroke-width:2;stroke-linecap:butt;stroke-linejoin:miter;stroke-miterlimit:4;stroke-opacity:1;stroke-dasharray:none;marker-start:url(#Arrow1Mstart);marker-mid:none;marker-end:url(#Arrow1Mend)" />
    <path
       d="m 80,64.409424 460,0"
       transform="translate(0,527.95273)"
       id="path5143"
       style="fill:none;stroke:#000000;stroke-width:1px;stroke-linecap:butt;stroke-linejoin:miter;stroke-opacity:1" />
    <rect
       width="130"
       height="30"
       x="130"
       y="64.409424"
       transform="translate(0,527.95273)"
       id="rect5145"
       style="fill:url(#linearGradient5173);fill-opacity:1;stroke:#010101;stroke-width:1;stroke-linejoin:round;stroke-miterlimit:4;stroke-opacity:1;stroke-dasharray:none;stroke-dashoffset:0" />
    <rect
       width="130"
       height="30"
       x="360"
       y="592.36218"
       id="rect5145-4"
       style="fill:url(#linearGradient5171);fill-opacity:1;stroke:#010101;stroke-width:1;stroke-linejoin:round;stroke-miterlimit:4;stroke-opacity:1;stroke-dasharray:none;stroke-dashoffset:0" />
  </g>
</svg>
