<?xml version="1.0" encoding="utf-8"?>
<!-- Generator: Adobe Illustrator 15.0.2, SVG Export Plug-In . SVG Version: 6.00 Build 0)  -->
<!DOCTYPE svg PUBLIC "-//W3C//DTD SVG 1.1//EN" "http://www.w3.org/Graphics/SVG/1.1/DTD/svg11.dtd">
<svg version="1.1" id="Layer_1" xmlns="http://www.w3.org/2000/svg" xmlns:xlink="http://www.w3.org/1999/xlink" x="0px" y="0px"
	 width="253.781px" height="115.569px" viewBox="0 0 253.781 115.569" enable-background="new 0 0 253.781 115.569"
	 xml:space="preserve">
<polygon fill="#010101" points="118.657,72.154 118.657,77.461 104.791,77.461 104.791,84.093 116.808,84.093 116.808,88.994 
	104.791,88.994 104.791,100.852 98.481,100.852 98.481,72.154 "/>
<circle fill="none" stroke="#010101" stroke-width="3.488" stroke-miterlimit="10" cx="108.569" cy="86.502" r="27.322"/>
<path fill="#010101" d="M219.27,93.797c0.348,0.671,0.81,1.213,1.387,1.628c0.574,0.415,1.252,0.724,2.029,0.925
	c0.776,0.201,1.58,0.301,2.412,0.301c0.562,0,1.164-0.047,1.808-0.141c0.643-0.094,1.245-0.275,1.809-0.542
	c0.562-0.269,1.031-0.637,1.406-1.107c0.376-0.467,0.563-1.063,0.563-1.786c0-0.778-0.248-1.407-0.744-1.89
	s-1.146-0.885-1.948-1.206c-0.806-0.321-1.716-0.603-2.734-0.844c-1.018-0.242-2.05-0.509-3.094-0.804
	c-1.072-0.267-2.117-0.597-3.136-0.984c-1.018-0.388-1.928-0.891-2.732-1.507c-0.804-0.617-1.454-1.388-1.949-2.312
	c-0.496-0.925-0.744-2.044-0.744-3.356c0-1.473,0.315-2.752,0.944-3.838c0.63-1.086,1.453-1.988,2.472-2.713
	c1.019-0.724,2.17-1.261,3.457-1.607c1.287-0.348,2.572-0.523,3.858-0.523c1.5,0,2.94,0.169,4.319,0.503
	c1.381,0.336,2.607,0.879,3.679,1.628c1.071,0.75,1.922,1.709,2.552,2.873c0.629,1.166,0.945,2.58,0.945,4.24h-6.109
	c-0.054-0.856-0.234-1.566-0.543-2.13c-0.308-0.562-0.717-1.005-1.226-1.328c-0.509-0.319-1.093-0.547-1.748-0.681
	c-0.657-0.135-1.374-0.201-2.149-0.201c-0.511,0-1.02,0.055-1.529,0.16c-0.508,0.107-0.971,0.296-1.385,0.563
	c-0.416,0.27-0.759,0.604-1.025,1.006c-0.268,0.402-0.402,0.91-0.402,1.526c0,0.563,0.107,1.02,0.322,1.366
	c0.214,0.35,0.636,0.671,1.265,0.965c0.63,0.295,1.501,0.59,2.613,0.885c1.11,0.295,2.565,0.67,4.36,1.125
	c0.535,0.107,1.279,0.301,2.23,0.583c0.951,0.281,1.895,0.729,2.834,1.347c0.938,0.616,1.748,1.439,2.432,2.471
	c0.683,1.032,1.024,2.352,1.024,3.96c0,1.313-0.255,2.53-0.765,3.657c-0.508,1.125-1.264,2.096-2.27,2.914
	c-1.005,0.816-2.251,1.453-3.738,1.908c-1.486,0.455-3.209,0.684-5.164,0.684c-1.582,0-3.114-0.195-4.602-0.583
	c-1.486-0.388-2.801-0.997-3.939-1.829c-1.139-0.829-2.043-1.889-2.713-3.174c-0.67-1.287-0.992-2.814-0.965-4.582h6.11
	C218.748,92.31,218.92,93.127,219.27,93.797"/>
<circle fill="none" stroke="#010101" stroke-width="3.488" stroke-miterlimit="10" cx="224.715" cy="86.502" r="27.323"/>
<circle fill="none" stroke="#010101" stroke-width="3.488" stroke-miterlimit="10" cx="166.644" cy="86.502" r="27.323"/>
<polygon fill="#010101" points="159.713,72.154 159.713,84.051 170.926,72.154 178.805,72.154 167.592,83.488 179.891,100.852 
	171.971,100.852 163.33,87.949 159.713,91.607 159.713,100.852 153.402,100.852 153.402,72.154 "/>
<path fill="#010101" d="M53.735,77.102c-6.495,13.62-22.802,19.396-36.422,12.902C3.693,83.51-2.084,67.202,4.411,53.581
	c6.495-13.62,22.801-19.396,36.422-12.901C54.453,47.174,60.23,63.48,53.735,77.102"/>
<circle fill="none" stroke="#010101" stroke-width="3.488" stroke-miterlimit="10" cx="29.073" cy="65.341" r="27.323"/>
<rect x="107.333" y="14.702" fill="#010101" width="2.471" height="44.479"/>
<rect x="49.169" y="-1.634" transform="matrix(0.9028 0.4301 -0.4301 0.9028 13.7641 -19.6768)" fill="#010101" width="2.47" height="44.479"/>
<rect x="165.409" y="14.702" fill="#010101" width="2.472" height="44.479"/>
<rect x="223.478" y="14.702" fill="#010101" width="2.472" height="44.479"/>
</svg>
