<?xml version="1.0" encoding="UTF-8" standalone="no"?>
<!-- Created with Inkscape (http://www.inkscape.org/) -->

<svg
   xmlns:dc="http://purl.org/dc/elements/1.1/"
   xmlns:cc="http://creativecommons.org/ns#"
   xmlns:rdf="http://www.w3.org/1999/02/22-rdf-syntax-ns#"
   xmlns:svg="http://www.w3.org/2000/svg"
   xmlns="http://www.w3.org/2000/svg"
   version="1.2"
   width="318.89764"
   height="193.53795"
   id="svg2456">
  <defs
     id="defs3" />
  <metadata
     id="metadata4">
    <rdf:RDF>
      <cc:Work
         rdf:about="">
        <dc:format>image/svg+xml</dc:format>
        <dc:type
           rdf:resource="http://purl.org/dc/dcmitype/StillImage" />
        <dc:title></dc:title>
      </cc:Work>
    </rdf:RDF>
  </metadata>
  <g
     transform="translate(-197.72609,-94.321637)"
     id="layer1">
    <g
       transform="matrix(1.3518162,0,0,1.4068507,-52.96487,-415.56239)"
       id="g2431">
      <path
         d="m 383.31898,499.76581 c -8.63109,-3.31432 7.015,-22.45174 3.24836,-23.69112 -5.7027,7.32321 -15.87342,26.05464 -25.5037,13.49315 -4.32862,-6.64397 0.85193,-12.65869 7.3242,-7.69862 10.52031,-5.91445 19.08606,-14.87893 26.07546,-24.65776 4.62247,-6.43705 8.14773,-12.98148 -1.64497,-16.6415 -8.42448,-8.01545 -18.08018,-13.52102 -27.95181,-19.91325 -3.28712,-10.86845 13.07797,-21.34469 15.19225,-33.10765 5.29249,-7.36655 6.72304,-24.56341 16.26311,-25.11968 6.88569,3.11591 5.32132,6.88012 1.36638,11.76325 -3.33432,6.53904 -11.7828,16.51923 -12.29805,20.32392 11.11022,-6.82741 21.65597,-14.55542 32.67314,-21.51065 11.17693,10.5002 -9.03143,17.73945 -17.68497,20.26464 -9.83755,4.04654 -18.28537,10.6779 -25.55537,18.47134 4.11554,10.09311 16.22049,17.43795 23.53867,26.29368 13.64258,6.50175 3.75808,19.52879 -0.007,29.27915 -2.1524,7.10734 -14.72715,24.92187 -0.94086,23.33565 4.02982,7.90482 -9.14514,10.13658 -14.09495,9.11545 z m -28.33252,-88.90137 c -11.52229,-9.70101 10.55155,-27.33562 14.62293,-11.52756 0.48263,7.0977 -7.10097,17.93729 -14.62293,11.52756 z"
         id="path2461"
         style="fill:#000000" />
      <path
         d="m 187.95563,497.83755 c -5.8399,-8.03719 9.21805,-3.83174 6.71654,-12.63757 3.34857,-12.83724 1.52963,-26.62095 2.17013,-39.86397 -0.72822,-9.53825 1.58353,-28.66413 -2.16879,-33.0169 -0.71785,13.79421 0.10913,27.61501 0.2297,41.41926 -11.61218,4.19903 -7.70965,-5.9755 -7.26484,-13.54242 -1.44729,-15.17621 3.84459,-29.99964 5.73883,-44.82013 -8.42373,-2.97681 -12.86073,-20.03262 0.84572,-20.98605 12.75575,-0.43573 7.51301,18.74771 1.28643,19.46227 7.54971,-0.99602 12.29355,4.44386 20.70981,-0.88549 10.1532,-1.56885 18.84955,-18.78356 27.85378,-14.26363 5.848,11.59792 -14.66145,15.02816 -22.25394,18.27196 -5.07144,5.68235 -21.08379,0.57847 -19.93225,9.68492 0.86147,14.51627 -1.55271,29.73523 3.8028,43.54494 12.61342,0.14185 24.74005,-3.83125 35.58722,-10.17014 1.50098,-7.91138 12.85402,-13.10829 9.88775,-0.8893 0.044,12.94597 -18.38596,10.85645 -26.91515,16.65548 -6.7411,0.89036 -13.5677,0.47051 -20.35074,0.64517 -2.8569,13.6357 -1.3276,27.77454 -3.573,41.48927 -3.27534,1.6486 -9.86818,3.71668 -12.37,-0.0977 z"
         id="path2463"
         style="fill:#000000" />
      <path
         d="m 269.29877,498.39474 c -9.13181,-6.36049 9.78873,-6.83491 5.7973,-15.8119 1.88082,-16.91604 -0.90219,-33.95804 -0.23342,-50.94945 0.2253,-4.05357 -0.8719,-14.8695 -1.37968,-3.9286 -1.25397,12.83168 0.1924,25.95069 -2.04126,38.62257 -11.45726,8.49656 -5.64267,-12.71695 -6.09487,-19.11875 3.17359,-12.85147 3.04802,-26.19442 5.73481,-39.11699 2.34054,-13.4544 22.07159,-4.48214 18.00583,6.27453 -0.87986,5.5597 0.56866,17.86836 4.89411,6.42791 7.39,-8.46148 12.41138,-21.25608 20.8056,-27.39197 14.20044,5.06481 -7.32781,16.05023 -11.03489,23.08413 -7.51287,3.45028 -10.73441,23.87662 -18.99574,17.1558 -1.41848,-1.77301 -1.93848,-18.79942 -2.26555,-12.27872 0.27919,10.30617 -3.46871,21.90965 3.79979,30.58415 6.36447,9.9718 17.88898,16.06465 28.05368,21.85766 7.61492,2.5705 11.83302,12.31497 17.83503,1.85804 12.87615,1.132 -6.45402,26.59605 -13.25087,11.13607 -9.17756,-7.94845 -21.44747,-11.76 -29.96223,-20.15097 -2.02014,-4.45327 -11.78411,-12.72242 -7.89022,-1.68678 -0.45843,11.17733 3.17068,23.79644 -0.81546,34.01831 -3.45526,1.7506 -7.62018,1.03706 -10.96196,-0.58504 z m 4.53961,-101.86865 c -8.14434,-8.13776 4.34587,-17.28862 12.7602,-13.95954 2.08096,6.85949 2.1866,18.09798 -8.09937,16.38561 -1.7435,-0.34396 -3.36417,-1.21868 -4.66083,-2.42607 z"
         id="path2459"
         style="fill:#000000" />
    </g>
    <text
       x="242"
       y="595.36218"
       id="text2472"
       xml:space="preserve"
       style="font-size:22px;font-style:normal;font-weight:normal;fill:#000000;fill-opacity:1;stroke:none;font-family:Bitstream Vera Sans"><tspan
         x="242"
         y="595.36218"
         id="tspan2474" /></text>
    <flowRoot
       id="flowRoot2488"
       xml:space="preserve"
       style="font-size:22px;font-style:normal;font-weight:normal;fill:#000000;fill-opacity:1;stroke:none;font-family:Bitstream Vera Sans"><flowRegion
         id="flowRegion2490"><rect
           width="51"
           height="51"
           x="220"
           y="667.36218"
           id="rect2492" /></flowRegion><flowPara
         id="flowPara2494" /></flowRoot>  </g>
</svg>
