<?xml version="1.0" encoding="UTF-8" standalone="no"?>
<!-- Created with Inkscape (http://www.inkscape.org/) -->

<svg
   xmlns:dc="http://purl.org/dc/elements/1.1/"
   xmlns:cc="http://creativecommons.org/ns#"
   xmlns:rdf="http://www.w3.org/1999/02/22-rdf-syntax-ns#"
   xmlns:svg="http://www.w3.org/2000/svg"
   xmlns="http://www.w3.org/2000/svg"
   version="1.0"
   width="344.98935"
   height="180.82727"
   id="svg2">
  <defs
     id="defs4" />
  <metadata
     id="metadata7">
    <rdf:RDF>
      <cc:Work
         rdf:about="">
        <dc:format>image/svg+xml</dc:format>
        <dc:type
           rdf:resource="http://purl.org/dc/dcmitype/StillImage" />
        <dc:title></dc:title>
      </cc:Work>
    </rdf:RDF>
  </metadata>
  <g
     transform="translate(-493.28593,-351.59992)"
     id="layer2"
     style="display:inline" />
  <g
     transform="translate(-493.28593,-351.59992)"
     id="layer1"
     style="display:inline">
    <path
       d=""
       transform="translate(79.194989,91.599921)"
       id="path3838"
       style="opacity:0.97000002;fill:#000000;fill-opacity:1;fill-rule:nonzero;stroke:none;stroke-width:1;marker:none;visibility:visible;display:inline;overflow:visible;enable-background:accumulate" />
  </g>
  <g
     transform="translate(-414.09094,-260)"
     id="layer4"
     style="display:inline">
    <text
       x="183.84776"
       y="240.93135"
       id="text3149"
       xml:space="preserve"
       style="font-size:40px;font-style:normal;font-weight:normal;line-height:125%;letter-spacing:0px;word-spacing:0px;fill:#000000;fill-opacity:1;stroke:none;font-family:Sans"><tspan
         x="183.84776"
         y="240.93135"
         id="tspan3151"
         style="font-style:italic" /></text>
    <path
       d="m 472.15755,331.04385 c -4.72883,0.0703 -9.62296,0.42023 -14.78778,1.05348 -5.1648,0.63325 -10.60454,1.51145 -15.56813,2.8483 -4.9636,1.30169 -9.48377,3.03568 -12.60277,5.11135 -3.15255,2.07564 -4.86913,4.44351 -5.77465,6.90616 -0.93906,2.46264 -1.08351,4.98975 -0.31214,7.45241 0.73783,2.46265 2.33866,4.86185 5.18938,6.86715 2.8507,2.04048 6.98201,3.71626 11.74438,4.87723 4.76236,1.16096 10.15693,1.84087 15.7242,2.26304 5.60081,0.42217 11.38424,0.62048 16.58259,0.58527 5.19836,-0.0352 9.83558,-0.31918 12.71983,-0.74134 2.88424,-0.38699 4.00526,-0.94665 4.87724,-1.75581 0.87199,-0.77396 1.50394,-1.82997 1.87285,-3.9408 0.40247,-2.07567 0.59626,-5.19124 0.66331,-8.42786 0.067,-3.23663 0.0616,-6.56903 -0.039,-9.55938 -0.10061,-3.02554 -0.26085,-5.66587 -0.6633,-7.53045 -0.40246,-1.86458 -1.06731,-2.93272 -2.10697,-3.7067 -1.00614,-0.80915 -2.3996,-1.33364 -5.38447,-1.7558 -2.95132,-0.38699 -7.43927,-0.58146 -12.13455,-0.54625 l -2e-5,0 z m -0.74134,4.01884 c 3.73216,0.002 7.80614,0.10032 12.21259,0.31214 -42.30528,0.40726 -50.11875,10.59384 -55.95163,11.66634 1.74834,-3.00608 7.66144,-11.99861 43.73904,-11.97848 z"
       id="path4063"
       style="fill:#000000;fill-opacity:1;fill-rule:evenodd;stroke:none;display:inline" />
    <path
       d="m 440.74324,333.49482 c 23.99842,-11.25913 69.60433,-20.81431 87.19796,-24.78329 27.9867,-6.31353 114.0808,-21.53256 231.1391,-27.38361 -107.0312,9.04929 -188.8305,20.39025 -244.25187,32.9701 -27.03924,6.07302 -61.80741,13.49187 -74.08519,19.1968 l 0,0 z"
       id="path4065"
       style="font-size:medium;font-style:normal;font-variant:normal;font-weight:normal;font-stretch:normal;text-indent:0;text-align:start;text-decoration:none;line-height:normal;letter-spacing:normal;word-spacing:normal;text-transform:none;direction:ltr;block-progression:tb;writing-mode:lr-tb;text-anchor:start;fill:#000000;fill-opacity:1;stroke:none;stroke-width:2;marker:none;visibility:visible;display:inline;overflow:visible;enable-background:accumulate;font-family:Sans;-inkscape-font-specification:Sans" />
    <path
       d="M 428.86698,338.41101 C 449.43168,313.69359 552.6413,275.4413 592.6351,265.46483 554.139,279.04031 460.90244,311.35152 428.86698,338.41101 z"
       id="path4067"
       style="font-size:medium;font-style:normal;font-variant:normal;font-weight:normal;font-stretch:normal;text-indent:0;text-align:start;text-decoration:none;line-height:normal;letter-spacing:normal;word-spacing:normal;text-transform:none;direction:ltr;block-progression:tb;writing-mode:lr-tb;text-anchor:start;fill:#000000;fill-opacity:1;stroke:none;stroke-width:2;marker:none;visibility:visible;display:inline;overflow:visible;enable-background:accumulate;font-family:Sans;-inkscape-font-specification:Sans" />
    <path
       d="m 440.19104,368.14612 c 23.99843,11.25913 69.60433,20.81431 87.19796,24.78329 27.9867,6.31353 114.0808,21.53256 231.1391,27.38361 -107.0312,-9.04929 -188.8305,-20.39025 -244.25186,-32.9701 -27.03924,-6.07302 -61.80741,-13.49187 -74.0852,-19.1968 l 0,0 z"
       id="path4069"
       style="font-size:medium;font-style:normal;font-variant:normal;font-weight:normal;font-stretch:normal;text-indent:0;text-align:start;text-decoration:none;line-height:normal;letter-spacing:normal;word-spacing:normal;text-transform:none;direction:ltr;block-progression:tb;writing-mode:lr-tb;text-anchor:start;fill:#000000;fill-opacity:1;stroke:none;stroke-width:2;marker:none;visibility:visible;display:inline;overflow:visible;enable-background:accumulate;font-family:Sans;-inkscape-font-specification:Sans" />
    <path
       d="m 420.00005,351.12 c -0.0572,24.44135 48.06399,69.30192 75.85212,89.70727 -22.9745,-21.19701 -74.94602,-67.68856 -75.0096,-89.66904 -0.0636,-21.98049 50.26772,-72.31767 74.43432,-91.15823 -31.22137,20.37578 -75.21969,66.67864 -75.27684,91.12 z"
       id="path4071"
       style="font-size:medium;font-style:normal;font-variant:normal;font-weight:normal;font-stretch:normal;text-indent:0;text-align:start;text-decoration:none;line-height:normal;letter-spacing:normal;word-spacing:normal;text-transform:none;direction:ltr;block-progression:tb;writing-mode:lr-tb;text-anchor:start;fill:#000000;fill-opacity:1;stroke:none;stroke-width:2;marker:none;visibility:visible;display:inline;overflow:visible;enable-background:accumulate;font-family:Sans;-inkscape-font-specification:Sans" />
    <path
       d="M 429.27185,363.831 C 449.83654,388.54841 553.0462,426.8007 593.04,436.77718 554.5438,423.20169 461.30731,390.89048 429.27185,363.831 z"
       id="path4073"
       style="font-size:medium;font-style:normal;font-variant:normal;font-weight:normal;font-stretch:normal;text-indent:0;text-align:start;text-decoration:none;line-height:normal;letter-spacing:normal;word-spacing:normal;text-transform:none;direction:ltr;block-progression:tb;writing-mode:lr-tb;text-anchor:start;fill:#000000;fill-opacity:1;stroke:none;stroke-width:2;marker:none;visibility:visible;display:inline;overflow:visible;enable-background:accumulate;font-family:Sans;-inkscape-font-specification:Sans" />
    <path
       d="m 578.6843,332.00937 c 0.889,0.10413 1.5328,0.34699 1.9926,0.65928 0.4598,0.34699 0.7051,0.79809 0.8584,2.81065 0.1532,1.97786 0.2145,5.5172 0.2145,9.50762 0.031,3.99043 0.031,8.50134 0,11.6243 -0.031,3.12294 -0.1226,4.8579 -0.3678,6.10707 -0.2453,1.21449 -0.6438,1.90847 -1.1956,2.39426 -0.5518,0.4511 -1.2568,0.69399 -2.2684,0.7287 -1.0423,0.0347 -2.3911,-0.10413 -3.4334,-0.4164 -1.0423,-0.34699 -1.7783,-1.30219 -2.7593,-2.06558 -0.981,-0.79809 -2.1762,-2.06994 -4.2914,-4.256 -3.2959,-3.55945 -6.6219,-7.64691 -9.4219,-10.725 -2.8,-3.0781 -2.8726,-1.65204 -2.7436,2.517 0.064,3.84117 0.19,8.88464 0.1093,12.72522 -0.1226,1.17977 -0.3034,1.56146 -0.6099,1.87375 -0.3066,0.3123 -0.5488,0.55519 -1.4991,0.6593 -0.981,0.13879 -2.1109,0.13879 -3.1531,0 -1.0423,-0.1735 -1.687,-0.4511 -2.0242,-0.90218 -0.3372,-0.4511 -0.5521,-1.04099 -0.6747,-2.60246 -0.1227,-1.59616 -0.1531,-4.16393 -0.1837,-7.77266 -0.031,-3.57403 -0.031,-8.18905 0,-11.93658 0.031,-3.78223 0.123,-6.69697 0.3683,-8.32784 0.2759,-1.59618 0.6736,-1.87377 1.1335,-2.08196 0.4291,-0.2082 0.9201,-0.347 1.8091,-0.3817 0.8583,-0.0347 1.9611,0.0347 2.9727,0.34699 0.981,0.27759 1.6861,0.83278 2.6057,1.80437 0.9503,1.00628 2.0845,2.42895 3.8012,4.51092 1.686,2.11665 3.9852,4.89261 5.7325,7.04397 1.7473,2.15136 3.0042,3.67813 4.1078,4.89261 1.0729,1.21448 2.0232,2.18606 2.6056,2.63715 1.4815,0.84191 1.3662,-0.49049 1.4408,-1.90847 0.031,-1.70027 -0.1226,-4.75381 -0.1839,-7.91145 -0.092,-3.15764 -0.092,-6.38468 0.031,-8.22374 0.1226,-1.83907 0.3372,-2.29017 0.6744,-2.63716 0.3066,-0.31229 0.7357,-0.55519 1.5328,-0.69398 0.797,-0.10413 1.9312,-0.10413 2.8202,0 l 0,0 z"
       id="path4075"
       style="fill:#000000;fill-opacity:1;fill-rule:evenodd;stroke:none;display:inline" />
    <path
       d="m 611.9449,332.03125 c -0.4404,-0.004 -0.8705,0.0278 -1.25,0.0625 -0.7566,0.1041 -1.2785,0.27456 -1.75,0.65625 -0.4715,0.3817 -0.8964,0.92128 -1.9375,2.65625 -1.0411,1.73497 -2.6704,4.58545 -4.4375,7.8125 -1.767,3.22703 -3.6773,6.76606 -5.4063,10.0625 -1.6933,3.33114 -3.2089,6.4075 -3.875,8.28125 -0.6992,1.87377 -0.5779,2.50731 -0.4062,3.0625 0.2024,0.52049 0.4729,0.97586 1.7187,1.21875 1.2766,0.20819 3.1784,0.1944 4.4688,0.125 1.6719,0.0241 2.0249,-0.71558 2.75,-2.0625 0.5534,-1.11038 1.4125,-2.95901 1.9375,-4 0.5226,-1.07567 0.6737,-1.36119 1.0625,-1.5 0.3864,-0.1735 1.4547,-0.1875 2.75,-0.1875 1.2928,-0.0347 3.2516,0 4.8125,0 1.5609,0 2.9446,-0.004 3.8437,0.0312 0.8992,0.0347 1.9908,0.0696 2.4063,0.3125 0.4155,0.24288 0.6566,0.68466 1.1562,1.65625 0.4973,0.93688 1.2448,2.36793 1.7188,3.46875 0.4571,1.06155 0.9815,1.528 1.4375,1.875 0.4892,0.34699 0.7019,0.4931 1.9687,0.5625 1.2669,0.0694 3.072,0.0138 4.125,-0.125 1.0531,-0.13879 1.2337,-0.39955 1.4063,-0.78125 0.175,-0.34699 0.3387,-0.82408 -0.25,-2.59375 -0.6195,-1.73496 -2.0432,-4.80441 -3.7188,-8.34375 -1.6756,-3.53933 -3.5797,-7.62726 -5.2812,-11.0625 -1.7039,-3.46994 -3.2388,-6.27193 -4.2188,-7.9375 -0.9799,-1.66557 -1.415,-2.153 -1.9375,-2.5 -0.4892,-0.34699 -1.0393,-0.55212 -1.8437,-0.65625 -0.3856,-0.052 -0.8096,-0.0894 -1.25,-0.0937 z m 0.094,10.5625 c 0.098,-0.008 0.1685,0.0572 0.3125,0.1875 0.7368,0.66677 3.2823,6.20235 3.4688,7.5625 0.1613,1.17758 0.026,1.20749 -3.4688,1.1875 -1.6218,-0.009 -3.2628,-0.0713 -3.625,-0.15625 -0.9739,-0.22836 -1.1538,-0.44033 -1.0625,-1.25 0.1416,-1.2559 3.0028,-6.54598 3.9375,-7.28125 0.2015,-0.15851 0.3391,-0.24196 0.4375,-0.25 z"
       id="path4077"
       style="fill:#000000;fill-opacity:1;fill-rule:evenodd;stroke:none;display:inline" />
    <path
       d="m 612.0166,325.46471 c 0.066,0.2776 0.2657,0.4858 0.8635,0.58989 0.5646,0.13881 1.4945,0.13881 2.3912,0.10413 0.8967,0 1.7602,-0.0347 2.3912,-0.0347 0.6311,-0.0347 1.096,-0.0694 1.5278,-0.13879 0.4317,-0.0694 0.8967,-0.1735 1.5941,-0.62458 0.6975,-0.4164 1.6274,-1.21449 2.7898,-2.08197 1.1292,-0.90218 1.8541,-1.90847 2.5183,-2.56775 0.6643,-0.65929 0.6643,-0.97158 0.4318,-1.24918 -0.1993,-0.27759 -0.6642,-0.55519 -1.3617,-0.65929 -0.6974,-0.13879 -1.0902,-0.13879 -2.1862,-0.13879 -1.0628,0 -2.2584,0 -3.0887,0.0347 -0.7971,0.0694 -1.1956,0.13879 -1.5609,0.34699 -0.3322,0.1735 -0.6311,0.4511 -1.6274,1.38797 -0.9964,0.97159 -2.7233,2.60245 -3.6533,3.57404 -0.9299,0.93688 -1.0627,1.21447 -1.0295,1.45737 l 0,-4e-5 z"
       id="path4079"
       style="fill:#000000;fill-opacity:1;fill-rule:evenodd;stroke:none;display:inline" />
    <path
       d="m 651.1085,331.78125 c -1.0378,0.0217 -1.9695,0.0729 -2.75,0.125 -2.364,0.29137 -5.2128,0.60472 -5.8437,3.21875 -0.3653,1.56146 -0.2188,4.15852 -0.2188,7.59375 0,3.43524 0,7.76627 0,11.375 0,3.60872 -0.012,6.50814 0.1875,8.3125 0.4737,2.33377 1.8653,3.63674 4.4375,3.8125 1.5278,0.1388 3.9037,0.18405 6.5938,0.21875 2.6569,0.0347 5.6166,0.0623 7.875,-0.25 2.2584,-0.3123 3.8415,-1.01807 4.9375,-2.09375 1.096,-1.07567 1.7284,-2.54263 2.0937,-4 0.3654,-1.49207 0.4806,-2.95577 0.2813,-4.34375 -0.1661,-1.38799 -0.6443,-2.74027 -1.375,-3.78125 -0.7639,-1.07569 -1.8358,-1.85452 -2.5,-2.375 -0.6974,-0.52049 -1.0312,-0.78835 -1.0313,-1.03125 0,-0.2429 0.3144,-0.45862 0.8125,-0.875 0.4982,-0.4164 1.0624,-1.07347 1.5938,-1.90625 0.5314,-0.86748 1.0234,-1.93487 1.1562,-3.21875 0.1661,-1.31856 0.025,-2.74047 -0.4062,-4.09375 -0.3985,-1.35328 -1.1267,-2.55278 -2.1563,-3.59375 -1.0627,-1.04099 -2.3628,-1.92046 -4.1562,-2.40625 l 0,-0.125 c -1.7934,-0.48576 -3.9916,-0.5278 -6.25,-0.5625 -1.1126,0 -2.2434,-0.0217 -3.2813,0 z m 0.875,6.25 c 0.3571,-0.008 0.8025,0 1.4063,0 1.605,0 2.8552,0.0676 3.375,0.21875 1.7143,0.49843 2.8633,2.00677 2.875,3.75 0.014,2.03299 -1.0195,3.51056 -2.7188,3.875 -0.4985,0.10692 -2.0432,0.1875 -3.4375,0.1875 -2.1563,0 -2.5934,-0.0494 -2.9062,-0.3125 -0.31,-0.26079 -0.4013,-0.59043 -0.5,-2.09375 -0.1588,-2.41822 0.053,-4.70483 0.4687,-5.21875 0.2301,-0.28424 0.3663,-0.38321 1.4375,-0.40625 z m 2.1563,14.3125 c 0.8137,-0.0173 1.6609,-0.003 2.375,0.0312 1.3949,0.0694 2.2654,0.26765 3.0625,0.71875 0.7971,0.4164 1.4784,1.07691 1.8437,1.875 0.3654,0.83278 0.3634,1.53877 0.031,2.40625 -0.299,0.90219 -0.8905,1.67046 -1.6875,2.15625 -0.7971,0.4858 -1.7614,0.71186 -3.1563,0.78125 -1.4281,0.0694 -3.2478,0.0382 -4.3437,-0.0312 -1.0628,-0.10413 -1.3613,-0.22586 -1.5938,-0.46875 -0.2325,-0.2082 -0.3711,-0.56291 -0.4375,-1.1875 -0.066,-0.62458 -0.062,-1.32002 -0.062,-2.1875 -0.033,-0.83279 -0.033,-1.56291 0,-2.1875 0.033,-0.58989 0.1464,-0.9724 0.3125,-1.25 0.1661,-0.27759 0.4021,-0.42716 1.5313,-0.53125 0.5479,-0.0694 1.3113,-0.10765 2.125,-0.125 z"
       id="path4081"
       style="fill:#000000;fill-opacity:1;fill-rule:evenodd;stroke:none;display:inline" />
    <path
       d="m 702.5857,333.22384 c 2.1588,0.97158 4.2179,2.56775 5.8452,4.75381 1.6274,2.18607 2.8562,4.92732 3.3876,7.98085 0.4982,3.05354 0.2989,6.41938 -0.465,9.23003 -0.797,2.81066 -2.1255,5.03142 -3.8857,6.80108 -1.7602,1.76967 -3.9522,3.08825 -6.908,3.71283 -2.9226,0.62459 -6.6423,0.55519 -9.4985,-0.2082 -2.8562,-0.79808 -4.8489,-2.29015 -6.4098,-4.05982 -1.5942,-1.76966 -2.7898,-3.81693 -3.4872,-6.45408 -0.6975,-2.63716 -0.8967,-5.89889 -0.4982,-8.88304 0.3653,-2.98415 1.3285,-5.65599 2.7234,-7.80735 1.3948,-2.11666 3.2215,-3.67813 5.347,-4.68442 2.1587,-1.00628 4.6496,-1.45737 7.0408,-1.52677 2.3581,-0.10413 4.6497,0.2082 6.8084,1.14508 l 0,0 z m -2.8894,6.69698 c 1.1292,0.52049 2.2252,1.42267 3.0887,2.67185 0.8635,1.21448 1.4945,2.74124 1.7602,4.47621 0.2989,1.70028 0.166,3.60873 -0.2325,5.17021 -0.3985,1.59618 -1.1292,2.84535 -2.0591,3.85163 -0.9299,0.97158 -2.0591,1.70027 -3.6201,2.04726 -1.5609,0.34699 -3.5204,0.34699 -5.0481,-0.10413 -1.4945,-0.4511 -2.5241,-1.28388 -3.3876,-2.29016 -0.8303,-0.97158 -1.4613,-2.11666 -1.8266,-3.60873 -0.3653,-1.49208 -0.465,-3.33114 -0.2657,-4.99671 0.1993,-1.66557 0.6974,-3.19235 1.4281,-4.37212 0.7306,-1.21448 1.6938,-2.08196 2.8562,-2.63715 1.1292,-0.55519 2.4244,-0.83278 3.6864,-0.86748 1.2621,-0.0347 2.4577,0.10413 3.6201,0.65928 l 0,4e-5 z"
       id="path4083"
       style="fill:#000000;fill-opacity:1;fill-rule:evenodd;stroke:none;display:inline" />
    <path
       d="m 747.8157,331.93996 c 1.3616,0.1735 1.727,0.52049 2.0591,0.93689 0.2989,0.41639 0.5646,0.93688 0.7306,2.84535 0.1661,1.90846 0.1993,5.2396 0.2325,8.43194 0.033,3.19233 0.033,6.24588 -0.1,8.74423 -0.1,2.49836 -0.3653,4.47622 -1.0959,6.2806 -0.7639,1.83906 -2.0259,3.46993 -3.3876,4.61501 -1.3285,1.14507 -2.7566,1.76967 -4.3839,2.15136 -1.6274,0.38169 -3.454,0.55519 -5.3471,0.48579 -1.9263,-0.0694 -3.8857,-0.347 -5.7788,-1.21448 -1.8598,-0.86748 -3.6201,-2.32486 -4.6496,-3.88633 -0.9964,-1.59616 -1.2953,-3.26173 -1.3285,-4.30272 -0.066,-1.04098 0.1661,-1.42267 0.3986,-1.73496 0.2657,-0.34699 0.5646,-0.62459 1.4613,-0.76339 0.8967,-0.13879 2.358,-0.13879 3.3211,-0.0347 0.93,0.1388 1.3285,0.34699 1.6606,0.62458 0.2989,0.31229 0.5314,0.6593 0.8635,1.14508 0.9404,1.58681 2.3235,2.13915 4.0518,2.49835 2.2518,0.0774 4.2589,-0.40319 5.6031,-2.20044 0.631,-1.14508 1.1656,-1.93005 1.2653,-4.2896 0.1,-2.35956 0.067,-5.82231 -0.033,-8.16748 0.054,-2.90976 -0.2716,-3.95291 -2.208,-4.27777 -1.9364,-0.32486 -3.1258,-0.17627 -5.6906,-0.1 -2.5648,0.0763 -5.7456,0.0238 -7.539,-0.115 -1.8266,-0.10413 -2.3248,-0.28138 -2.6901,-0.69778 -0.3322,-0.38169 -0.4982,-0.90218 -0.5979,-1.76966 -0.066,-0.86748 -0.066,-2.08196 0.033,-2.91474 0.1,-0.83279 0.299,-1.31858 0.5979,-1.63088 0.2989,-0.31229 0.6642,-0.52049 2.1255,-0.62458 1.4613,-0.1388 3.9522,-0.1735 6.5094,-0.2082 2.5573,0 5.1478,0.0347 7.6387,0.0347 2.4909,0 4.8821,-0.0347 6.277,0.13879 l -10e-5,4e-5 z"
       id="path4085"
       style="fill:#000000;fill-opacity:1;fill-rule:evenodd;stroke:none;display:inline" />
    <path
       d="m 472.37695,330.8978 c -4.7288,0.07 -9.6229,0.4202 -14.7878,1.0535 -5.1648,0.6332 -10.6045,1.5114 -15.5681,2.8483 -4.9636,1.3017 -9.4838,3.0356 -12.6028,5.1113 -3.1525,2.0757 -4.8691,4.4435 -5.7746,6.9062 -0.9391,2.4626 -1.0835,4.9897 -0.3121,7.4524 0.7378,2.4626 2.3386,4.8618 5.1893,6.8671 2.8507,2.0405 6.982,3.7163 11.7444,4.8773 4.7624,1.1609 10.1569,1.8408 15.7242,2.263 5.6008,0.4222 11.3843,0.6205 16.5826,0.5853 5.1984,-0.035 9.8356,-0.3192 12.7198,-0.7414 2.8843,-0.387 4.0053,-0.9466 4.8773,-1.7558 0.872,-0.7739 1.5039,-1.8299 1.8728,-3.9408 0.4025,-2.0756 0.5963,-5.1912 0.6633,-8.4278 0.067,-3.2367 0.062,-6.5691 -0.039,-9.5594 -0.1006,-3.0256 -0.2608,-5.6659 -0.6633,-7.5305 -0.4024,-1.8645 -1.0673,-2.9327 -2.1069,-3.7067 -1.0062,-0.8091 -2.3996,-1.3336 -5.3845,-1.7558 -2.9513,-0.387 -7.4393,-0.5814 -12.1346,-0.5462 z"
       id="path4089"
       style="fill:#ffffff;fill-opacity:1;fill-rule:evenodd;stroke:#000000;stroke-width:1.5;stroke-miterlimit:4;stroke-dasharray:none;display:inline" />
    <path
       d="m 455.58393,331.2272 c -5.1648,0.664 -9.3545,1.585 -14.3181,2.9869 -4.9636,1.3651 -9.4838,3.1834 -12.6028,5.3601 -3.1525,2.1767 -4.8691,4.6597 -5.7746,7.2423 -1.78205,3.7162 -8.74042,3.0581 -8.79749,3.9075 0.0679,0.8493 7.09969,0.2568 8.48539,3.9075 0.7378,2.5825 2.3386,5.0984 5.1893,7.2013 2.8507,2.1398 6.982,3.8972 11.7444,5.1147 4.7624,1.2174 10.1569,1.9303 15.7242,2.3731 3.75946,-3.7787 3.93631,-35.7533 0.3497,-38.0934 z m -28.4426,15.671 c 0.96259,-2.8737 10.34287,-8.7074 19.74655,-9.6662 -14.31196,3.7115 -16.59195,10.2301 -19.74655,9.6662 z"
       id="path4091"
       style="fill:#000000;fill-opacity:1;fill-rule:evenodd;stroke:none;display:inline" />
    <path
       d="m 461.79386,349.9904 c 3.40872,0 6.17203,2.5191 6.17203,5.6266 0,3.1074 -2.76331,5.6265 -6.17203,5.6265 -3.40871,0 -6.17202,-2.5191 -6.17202,-5.6265 0,-3.1075 2.76331,-5.6266 6.17202,-5.6266 z"
       id="path4093"
       style="fill:#ffffff;fill-opacity:1;stroke:#000000;stroke-width:1;stroke-linecap:round;stroke-linejoin:round;stroke-miterlimit:4;stroke-opacity:1;stroke-dasharray:none" />
    <path
       d="m 461.41886,340.4904 c 3.06354,0 5.54703,2.1834 5.54703,4.8766 0,2.6932 -2.48349,4.8765 -5.54703,4.8765 -3.06353,0 -5.54702,-2.1833 -5.54702,-4.8765 0,-2.6932 2.48349,-4.8766 5.54702,-4.8766 z"
       id="path4095"
       style="fill:#ffffff;fill-opacity:1;stroke:#000000;stroke-width:1;stroke-linecap:round;stroke-linejoin:round;stroke-miterlimit:4;stroke-opacity:1;stroke-dasharray:none" />
    <path
       d="m 459.41886,353.2404 c 1.26861,0 2.29703,0.7282 2.29703,1.6266 0,0.8983 -1.02842,1.6265 -2.29703,1.6265 -1.26861,0 -2.29702,-0.7282 -2.29702,-1.6265 0,-0.8984 1.02841,-1.6266 2.29702,-1.6266 z"
       id="path4097"
       style="fill:#000000;fill-opacity:1;stroke:#000000;stroke-width:1.29999995;stroke-linecap:round;stroke-linejoin:round;stroke-miterlimit:4;stroke-opacity:1" />
    <path
       d="m 459.41886,344.9904 c 1.26861,0 2.29703,0.7282 2.29703,1.6266 0,0.8983 -1.02842,1.6265 -2.29703,1.6265 -1.26861,0 -2.29702,-0.7282 -2.29702,-1.6265 0,-0.8984 1.02841,-1.6266 2.29702,-1.6266 z"
       id="path4099"
       style="fill:#000000;fill-opacity:1;stroke:#000000;stroke-width:1.29999995;stroke-linecap:round;stroke-linejoin:round;stroke-miterlimit:4;stroke-opacity:1" />
    <path
       d="m 472.25321,346.0709 c 2.42573,0 3.3737,1.6899 3.3737,3.7747 0,2.0847 -0.94797,3.7747 -3.3737,3.7747 -2.42574,0 -4.51949,-1.8137 -8.72071,-3.651 3.18274,-0.4758 6.29497,-3.8984 8.72071,-3.8984 z"
       id="path4101"
       style="fill:#000000;fill-opacity:1;stroke:#000000;stroke-width:1.29999995;stroke-linecap:round;stroke-linejoin:round;stroke-miterlimit:4;stroke-opacity:1" />
    <path
       d="m 1158.25,206.45227 a 1.25,3.125 0 1 1 -2.5,0 1.25,3.125 0 1 1 2.5,0 z"
       transform="matrix(0,-0.7,0.76,0,323.00378,1159.8459)"
       id="path4103"
       style="fill:#000000;fill-opacity:1;stroke:#000000;stroke-width:1.78232753;stroke-linecap:round;stroke-linejoin:round;stroke-miterlimit:4;stroke-opacity:1;stroke-dasharray:none" />
    <path
       d="m 465.7825,331.0709 c 0,0 15,-16.625 31,-29.75"
       id="path4105"
       style="fill:none;stroke:#000000;stroke-width:1px;stroke-linecap:butt;stroke-linejoin:miter;stroke-opacity:1" />
    <path
       d="m 495.25479,310.6484 c 0,0 -2.71339,-1.6383 -5.90089,-2.8883"
       id="path4107"
       style="fill:none;stroke:#000000;stroke-width:1px;stroke-linecap:butt;stroke-linejoin:miter;stroke-opacity:1" />
    <path
       d="m 487.65568,299.6236 c 0,0 -0.36428,5.449 1.69822,8.1365"
       id="path4109"
       style="fill:none;stroke:#000000;stroke-width:1px;stroke-linecap:butt;stroke-linejoin:miter;stroke-opacity:1" />
    <path
       d="m 492.36279,298.9343 c 0,0 -2.94639,5.4508 -3.00889,8.8258"
       id="path4111"
       style="fill:none;stroke:#000000;stroke-width:1px;stroke-linecap:butt;stroke-linejoin:miter;stroke-opacity:1" />
    <path
       d="m 465.97335,368.907 c 0,0 21.96209,4.3655 42.63432,5.3272"
       id="path4113"
       style="fill:none;stroke:#000000;stroke-width:1px;stroke-linecap:butt;stroke-linejoin:miter;stroke-opacity:1" />
    <path
       d="m 501.80854,367.6685 c 0,0 -1.19649,2.9351 -3.00516,5.8423"
       id="path4115"
       style="fill:none;stroke:#000000;stroke-width:1px;stroke-linecap:butt;stroke-linejoin:miter;stroke-opacity:1" />
    <path
       d="m 502.30422,381.0494 c 0,0 -3.54845,-4.1513 -3.50084,-7.5386"
       id="path4117"
       style="fill:none;stroke:#000000;stroke-width:1px;stroke-linecap:butt;stroke-linejoin:miter;stroke-opacity:1" />
    <path
       d="m 506.49026,378.789 c 0,0 -5.61984,-2.6096 -7.68688,-5.2782"
       id="path4119"
       style="fill:none;stroke:#000000;stroke-width:1px;stroke-linecap:butt;stroke-linejoin:miter;stroke-opacity:1" />
    <path
       d="m 526.2097,315.5164 c 0,0 -14.87067,16.2526 -33.28584,27.1684"
       id="path4121"
       style="fill:none;stroke:#000000;stroke-width:1px;stroke-linecap:butt;stroke-linejoin:miter;stroke-opacity:1" />
    <path
       d="m 531.1328,335.5098 c 0,0 -19.85001,12.911 -38.53586,19.0014"
       id="path4123"
       style="fill:none;stroke:#000000;stroke-width:1px;stroke-linecap:butt;stroke-linejoin:miter;stroke-opacity:1" />
    <path
       d="m 517.8253,328.7956 -4.73049,-4.3433 c 0,0 3.22023,-2.1034 6.63233,-6.5022 3.41216,-4.3987 3.69616,-6.9678 0.0941,-12.3649 5.78966,2.3557 7.96296,8.8787 7.96296,8.8787 l 1.2467,-0.9997 1.6971,1.4114 z"
       id="path4125"
       style="fill:#000000;fill-opacity:1;stroke:#000000;stroke-width:1;stroke-linecap:round;stroke-linejoin:round;stroke-miterlimit:4;stroke-opacity:1" />
    <path
       d="m 517.41241,340.5882 3.52359,5.3691 c 0,0 2.5952,-2.8389 7.4866,-5.497 4.8914,-2.6581 7.4727,-2.5241 12.2183,1.9014 -1.3912,-6.0939 -7.4783,-9.2908 -7.4783,-9.2908 l 1.1876,-1.0691 -1.1192,-1.9025 z"
       id="path4127"
       style="fill:#000000;fill-opacity:1;stroke:#000000;stroke-width:1;stroke-linecap:round;stroke-linejoin:round;stroke-miterlimit:4;stroke-opacity:1" />
    <g
       transform="matrix(0.92003749,0,0,0.92003749,73.8274,275.77161)"
       id="g4332"
       style="font-size:40px;font-style:normal;font-weight:normal;line-height:125%;letter-spacing:0px;word-spacing:0px;fill:#000000;fill-opacity:1;stroke:none;font-family:Sans">
      <path
         d="m 607.40601,118.21214 6.99218,0 0,32.48438 c 0,2.92968 -0.70313,5.16275 -2.10937,6.69922 -1.40626,1.54947 -3.44402,2.32422 -6.11328,2.32422 l -3.45703,0 0,-4.58985 1.21093,0 c 1.32813,0 2.23958,-0.29948 2.73438,-0.89844 0.49479,-0.59896 0.74219,-1.77734 0.74219,-3.53515 l 0,-32.48438 m 0,-8.51562 6.99218,0 0,5.70312 -6.99218,0 0,-5.70312"
         id="path4334"
         style="font-variant:normal;font-weight:bold;font-stretch:normal;font-family:DejaVu Sans;-inkscape-font-specification:DejaVu Sans Oblique" />
      <path
         d="m 620.92163,131.57152 0,-13.35938 7.03125,0 0,2.1875 c -1e-5,1.18492 -0.007,2.6758 -0.0195,4.47266 -0.013,1.78387 -0.0195,2.97527 -0.0195,3.57422 -10e-6,1.75782 0.0456,3.02735 0.13672,3.80859 0.0911,0.76824 0.24738,1.32813 0.46875,1.67969 0.28644,0.45573 0.65754,0.8073 1.11328,1.05469 0.46874,0.2474 1.00259,0.3711 1.60156,0.37109 1.45832,1e-5 2.60415,-0.55989 3.4375,-1.67969 0.83332,-1.11978 1.24998,-2.67577 1.25,-4.66797 l 0,-10.80078 6.99219,0 0,21.875 -6.99219,0 0,-3.16406 c -1.0547,1.27604 -2.17449,2.22005 -3.35937,2.83203 -1.17189,0.59896 -2.46746,0.89844 -3.88672,0.89844 -2.52605,0 -4.45313,-0.77474 -5.78125,-2.32422 -1.31511,-1.54948 -1.97266,-3.80208 -1.97266,-6.75781"
         id="path4336"
         style="font-variant:normal;font-weight:bold;font-stretch:normal;font-family:DejaVu Sans;-inkscape-font-specification:DejaVu Sans Oblique" />
      <path
         d="m 671.66382,126.76683 0,13.32031 -7.03125,0 0,-2.16797 0,-8.02734 c -2e-5,-1.88801 -0.0456,-3.19009 -0.13672,-3.90625 -0.0781,-0.71613 -0.22137,-1.24347 -0.42969,-1.58203 -0.27345,-0.45571 -0.64455,-0.80728 -1.11328,-1.05469 -0.46877,-0.2604 -1.00262,-0.39061 -1.60156,-0.39062 -1.45835,1e-5 -2.60418,0.56642 -3.4375,1.69922 -0.83335,1.1198 -1.25001,2.67579 -1.25,4.66796 l 0,10.76172 -6.99219,0 0,-21.875 6.99219,0 0,3.20313 c 1.05467,-1.27602 2.17447,-2.21352 3.35937,-2.8125 1.18488,-0.61196 2.49348,-0.91795 3.92578,-0.91797 2.52603,2e-5 4.44009,0.77476 5.74219,2.32422 1.31508,1.5495 1.97263,3.8021 1.97266,6.75781"
         id="path4338"
         style="font-variant:normal;font-weight:bold;font-stretch:normal;font-family:DejaVu Sans;-inkscape-font-specification:DejaVu Sans Oblique" />
      <path
         d="m 678.18726,118.21214 6.99218,0 0,21.875 -6.99218,0 0,-21.875 m 0,-8.51562 6.99218,0 0,5.70312 -6.99218,0 0,-5.70312"
         id="path4340"
         style="font-variant:normal;font-weight:bold;font-stretch:normal;font-family:DejaVu Sans;-inkscape-font-specification:DejaVu Sans Oblique" />
      <path
         d="m 702.34741,122.6848 c -1.54949,2e-5 -2.73438,0.55991 -3.55469,1.67969 -0.8073,1.10678 -1.21094,2.70834 -1.21093,4.80468 -10e-6,2.09637 0.40363,3.70444 1.21093,4.82422 0.82031,1.10678 2.0052,1.66016 3.55469,1.66016 1.52342,0 2.68879,-0.55338 3.4961,-1.66016 0.80727,-1.11978 1.21091,-2.72785 1.21093,-4.82422 -2e-5,-2.09634 -0.40366,-3.6979 -1.21093,-4.80468 -0.80731,-1.11978 -1.97268,-1.67967 -3.4961,-1.67969 m 0,-5 c 3.76301,2e-5 6.6992,1.01565 8.8086,3.04687 2.12237,2.03127 3.18356,4.84377 3.18359,8.4375 -3e-5,3.59376 -1.06122,6.40626 -3.18359,8.4375 -2.1094,2.03125 -5.04559,3.04688 -8.8086,3.04688 -3.77605,0 -6.73178,-1.01563 -8.86719,-3.04688 -2.12239,-2.03124 -3.18359,-4.84374 -3.18359,-8.4375 0,-3.59373 1.0612,-6.40623 3.18359,-8.4375 2.13541,-2.03122 5.09114,-3.04685 8.86719,-3.04687"
         id="path4342"
         style="font-variant:normal;font-weight:bold;font-stretch:normal;font-family:DejaVu Sans;-inkscape-font-specification:DejaVu Sans Oblique" />
      <path
         d="m 735.68726,124.16917 c -0.612,-0.28644 -1.22398,-0.49477 -1.83594,-0.625 -0.59898,-0.14321 -1.20445,-0.21482 -1.81641,-0.21484 -1.79689,2e-5 -3.1836,0.57944 -4.16015,1.73828 -0.96356,1.14585 -1.44533,2.79298 -1.44532,4.94141 l 0,10.07812 -6.99218,0 0,-21.875 6.99218,0 0,3.59375 c 0.89843,-1.43227 1.92707,-2.47393 3.08594,-3.125 1.17186,-0.66404 2.5716,-0.99607 4.19922,-0.99609 0.23436,2e-5 0.48826,0.013 0.76172,0.0391 0.27342,0.013 0.67055,0.0521 1.1914,0.11719 l 0.0195,6.32812"
         id="path4344"
         style="font-variant:normal;font-weight:bold;font-stretch:normal;font-family:DejaVu Sans;-inkscape-font-specification:DejaVu Sans Oblique" />
    </g>
  </g>
</svg>
