<?xml version="1.0" encoding="UTF-8" standalone="no"?>
<!-- Created with Inkscape (http://www.inkscape.org/) -->

<svg
   xmlns:dc="http://purl.org/dc/elements/1.1/"
   xmlns:cc="http://creativecommons.org/ns#"
   xmlns:rdf="http://www.w3.org/1999/02/22-rdf-syntax-ns#"
   xmlns:svg="http://www.w3.org/2000/svg"
   xmlns="http://www.w3.org/2000/svg"
   xmlns:sodipodi="http://sodipodi.sourceforge.net/DTD/sodipodi-0.dtd"
   xmlns:inkscape="http://www.inkscape.org/namespaces/inkscape"
   width="401"
   height="641"
   id="svg2"
   version="1.1"
   inkscape:version="0.48.5 r10040"
   sodipodi:docname="01.svg"
   inkscape:export-filename="D:\FKS a Trojsten\Obrázky\FKS + UFO, 2016 Leto\1_1.png"
   inkscape:export-xdpi="90"
   inkscape:export-ydpi="90">
  <defs
     id="defs4" />
  <sodipodi:namedview
     id="base"
     pagecolor="#ffffff"
     bordercolor="#666666"
     borderopacity="1.0"
     inkscape:pageopacity="0.0"
     inkscape:pageshadow="2"
     inkscape:zoom="1.979899"
     inkscape:cx="202.2507"
     inkscape:cy="333.54522"
     inkscape:document-units="px"
     inkscape:current-layer="layer1"
     showgrid="true"
     inkscape:snap-grids="true"
     inkscape:object-paths="false"
     inkscape:snap-intersection-paths="true"
     inkscape:object-nodes="false"
     inkscape:snap-nodes="true"
     fit-margin-top="0"
     fit-margin-left="0"
     fit-margin-right="0"
     fit-margin-bottom="0"
     inkscape:window-width="1920"
     inkscape:window-height="993"
     inkscape:window-x="0"
     inkscape:window-y="29"
     inkscape:window-maximized="1">
    <inkscape:grid
       type="xygrid"
       id="grid2985"
       empspacing="5"
       visible="true"
       enabled="true"
       snapvisiblegridlinesonly="true"
       originx="-199.5px"
       originy="-399.49998px" />
  </sodipodi:namedview>
  <metadata
     id="metadata7">
    <rdf:RDF>
      <cc:Work
         rdf:about="">
        <dc:format>image/svg+xml</dc:format>
        <dc:type
           rdf:resource="http://purl.org/dc/dcmitype/StillImage" />
        <dc:title />
      </cc:Work>
    </rdf:RDF>
  </metadata>
  <g
     inkscape:label="Layer 1"
     inkscape:groupmode="layer"
     id="layer1"
     transform="translate(-199.5,-11.862183)">
    <path
       style="fill:none;stroke:#000000;stroke-width:1px;stroke-linecap:butt;stroke-linejoin:miter;stroke-opacity:1"
       d="m 353.78158,247.93815 103.20076,-6.74772"
       id="path3783"
       inkscape:connector-curvature="0" />
    <path
       transform="translate(352,128)"
       sodipodi:type="arc"
       style="fill:#b6b6b6;fill-opacity:1;stroke:#000000;stroke-width:2;stroke-linejoin:round;stroke-miterlimit:4;stroke-opacity:1;stroke-dasharray:none;stroke-dashoffset:0"
       id="path3787-7"
       sodipodi:cx="100"
       sodipodi:cy="112.36218"
       sodipodi:rx="20"
       sodipodi:ry="20"
       d="m 120,112.36218 c 0,11.0457 -8.95431,20 -20,20 -11.045695,0 -20,-8.9543 -20,-20 0,-11.04569 8.954305,-19.999997 20,-19.999997 11.04569,0 20,8.954307 20,19.999997 z" />
    <path
       style="fill:#7d7d7d;fill-opacity:1;stroke:#000000;stroke-width:1;stroke-linecap:butt;stroke-linejoin:miter;stroke-miterlimit:4;stroke-opacity:1;stroke-dasharray:none"
       d="m 200,652.36218 400,0 0,-639.999997 z"
       id="path2987"
       inkscape:connector-curvature="0" />
    <path
       style="fill:none;stroke:#000000;stroke-width:1px;stroke-linecap:butt;stroke-linejoin:miter;stroke-opacity:1"
       d="m 337.0068,389.04988 c -6.39033,-26.31285 -42.9647,-36.67332 -45.57823,-89.54484 14.6415,84.51332 4.69992,117.78756 8.57143,152.85715"
       id="path3777"
       inkscape:connector-curvature="0"
       sodipodi:nodetypes="ccc" />
    <path
       sodipodi:type="arc"
       style="fill:#b6b6b6;fill-opacity:1;stroke:#000000;stroke-width:2.29075412;stroke-linejoin:round;stroke-miterlimit:4;stroke-opacity:1;stroke-dasharray:none;stroke-dashoffset:0"
       id="path3779"
       sodipodi:cx="132.85715"
       sodipodi:cy="193.79076"
       sodipodi:rx="47.142857"
       sodipodi:ry="77.14286"
       d="m 180,193.79076 c 0,42.60482 -21.10657,77.14286 -47.14285,77.14286 -26.03628,0 -47.142859,-34.53804 -47.142859,-77.14286 0,-42.60483 21.106579,-77.14286 47.142859,-77.14286 26.03628,0 47.14285,34.53803 47.14285,77.14286 z"
       transform="matrix(0.71279529,0.27011652,-0.35436279,0.93510802,284.70579,59.053597)" />
    <path
       sodipodi:type="arc"
       style="fill:#b6b6b6;fill-opacity:1;stroke:#000000;stroke-width:2;stroke-linejoin:round;stroke-miterlimit:4;stroke-opacity:1;stroke-dasharray:none;stroke-dashoffset:0"
       id="path3781"
       sodipodi:cx="160"
       sodipodi:cy="112.36218"
       sodipodi:rx="40"
       sodipodi:ry="40"
       d="m 200,112.36218 c 0,22.09139 -17.90861,40 -40,40 -22.09139,0 -40,-17.90861 -40,-40 0,-22.091387 17.90861,-39.999997 40,-39.999997 22.09139,0 40,17.90861 40,39.999997 z"
       transform="translate(200,60)" />
    <path
       style="fill:none;stroke:#000000;stroke-width:1px;stroke-linecap:butt;stroke-linejoin:miter;stroke-opacity:1"
       d="m 320,252.36218 140,20"
       id="path3785"
       inkscape:connector-curvature="0" />
    <path
       sodipodi:type="arc"
       style="fill:#b6b6b6;fill-opacity:1;stroke:#000000;stroke-width:2;stroke-linejoin:round;stroke-miterlimit:4;stroke-opacity:1;stroke-dasharray:none;stroke-dashoffset:0"
       id="path3787"
       sodipodi:cx="100"
       sodipodi:cy="112.36218"
       sodipodi:rx="20"
       sodipodi:ry="20"
       d="m 120,112.36218 c 0,11.0457 -8.95431,20 -20,20 -11.045695,0 -20,-8.9543 -20,-20 0,-11.04569 8.954305,-19.999997 20,-19.999997 11.04569,0 20,8.954307 20,19.999997 z"
       transform="translate(360,160)" />
    <path
       transform="matrix(0.67387862,-0.73884207,0.73884207,0.67387862,3.1250854,344.00661)"
       sodipodi:type="arc"
       style="fill:#b6b6b6;fill-opacity:1;stroke:#000000;stroke-width:2;stroke-linejoin:round;stroke-miterlimit:4;stroke-opacity:1;stroke-dasharray:none;stroke-dashoffset:0"
       id="path3757-1"
       sodipodi:cx="150"
       sodipodi:cy="292.36218"
       sodipodi:rx="30"
       sodipodi:ry="20"
       d="m 180,292.36218 c 0,11.0457 -13.43146,20 -30,20 -16.56854,0 -30,-8.9543 -30,-20 0,-11.04569 13.43146,-20 30,-20 16.56854,0 30,8.95431 30,20 z" />
    <path
       sodipodi:type="arc"
       style="fill:#b6b6b6;fill-opacity:1;stroke:#000000;stroke-width:2;stroke-linejoin:round;stroke-miterlimit:4;stroke-opacity:1;stroke-dasharray:none;stroke-dashoffset:0"
       id="path3757"
       sodipodi:cx="150"
       sodipodi:cy="292.36218"
       sodipodi:rx="30"
       sodipodi:ry="20"
       d="m 180,292.36218 c 0,11.0457 -13.43146,20 -30,20 -16.56854,0 -30,-8.9543 -30,-20 0,-11.04569 13.43146,-20 30,-20 16.56854,0 30,8.95431 30,20 z"
       transform="matrix(0.67387862,-0.73884207,0.73884207,0.67387862,40.131885,280.6943)" />
  </g>
</svg>
