<?xml version="1.0" encoding="UTF-8" standalone="no"?>
<svg
   xmlns:dc="http://purl.org/dc/elements/1.1/"
   xmlns:cc="http://creativecommons.org/ns#"
   xmlns:rdf="http://www.w3.org/1999/02/22-rdf-syntax-ns#"
   xmlns:svg="http://www.w3.org/2000/svg"
   xmlns="http://www.w3.org/2000/svg"
   xmlns:sodipodi="http://sodipodi.sourceforge.net/DTD/sodipodi-0.dtd"
   xmlns:inkscape="http://www.inkscape.org/namespaces/inkscape"
   viewBox="0 0 855 270"
   height="270"
   width="855"
   xml:space="preserve"
   version="1.1"
   id="svg2"
   inkscape:version="0.48.3.1 r9886"
   sodipodi:docname="black.svg"><sodipodi:namedview
     pagecolor="#ffffff"
     bordercolor="#666666"
     borderopacity="1"
     objecttolerance="10"
     gridtolerance="10"
     guidetolerance="10"
     inkscape:pageopacity="0"
     inkscape:pageshadow="2"
     inkscape:window-width="1920"
     inkscape:window-height="1107"
     id="namedview4530"
     showgrid="false"
     inkscape:zoom="1.7497076"
     inkscape:cx="483.86868"
     inkscape:cy="200.15527"
     inkscape:window-x="0"
     inkscape:window-y="27"
     inkscape:window-maximized="1"
     inkscape:current-layer="svg2" /><metadata
     id="metadata8"><rdf:RDF><cc:Work
         rdf:about=""><dc:format>image/svg+xml</dc:format><dc:type
           rdf:resource="http://purl.org/dc/dcmitype/StillImage" /><dc:title></dc:title></cc:Work></rdf:RDF></metadata><defs
     id="defs6" /><g
     transform="matrix(1.25,0,0,-1.25,0,270)"
     id="g10"><g
       transform="scale(0.1,0.1)"
       id="g12"><path
         id="path14"
         style="fill:#231f20;fill-opacity:1;fill-rule:evenodd;stroke:none"
         d="m 3105.85,634.426 c 5.14,6.043 5.94,26.203 -2.47,26.508 -134.75,4.843 -265.67,69.246 -270.03,237.515 l 0.28,28.637 40.23,606.174 c 199.58,-124.53 474.8,-252.6 708.07,-392.54 3.82,-2.29 263.83,221.74 431.98,270.7 l 33.79,-372.22 c -9.53,-104.841 -170.87,-157.45 -248.06,-186.227 -8.34,-3.11 -7.85,-29.446 0.75,-28.707 86.53,7.437 378.77,99.672 378.77,99.672 L 4114.8,1599.3 c 0,0 -15.32,12.24 -27.61,16.13 -12.29,3.89 -21.56,-0.56 -21.56,-0.56 -65.63,-30.63 -275.56,-115.33 -522.53,-366.9 -198.06,93.69 -481.87,267.01 -675.32,435.3 -31.26,27.19 -37.3,18.12 -59.9,23.81 -13.87,3.49 -32.46,-2.31 -32.46,-2.31 L 2686.55,511.914 c 111.02,41.5 224.82,56.254 337.16,94.621 0,0 68.18,11.496 82.14,27.891" /><path
         id="path16"
         style="fill:none;stroke:#231f20;stroke-width:9.90139961;stroke-linecap:butt;stroke-linejoin:miter;stroke-miterlimit:10;stroke-dasharray:none;stroke-opacity:1"
         d="m 3105.85,634.426 c 5.14,6.043 5.94,26.203 -2.47,26.508 -134.75,4.843 -265.67,69.246 -270.03,237.515 l 0.28,28.637 40.23,606.174 c 199.58,-124.53 474.8,-252.6 708.07,-392.54 3.82,-2.29 263.83,221.74 431.98,270.7 l 33.79,-372.22 c -9.53,-104.841 -170.87,-157.45 -248.06,-186.227 -8.34,-3.11 -7.85,-29.446 0.75,-28.707 86.53,7.437 378.77,99.672 378.77,99.672 L 4114.8,1599.3 c 0,0 -15.32,12.24 -27.61,16.13 -12.29,3.89 -21.56,-0.56 -21.56,-0.56 -65.63,-30.63 -275.56,-115.33 -522.53,-366.9 -198.06,93.69 -481.87,267.01 -675.32,435.3 -31.26,27.19 -37.3,18.12 -59.9,23.81 -13.87,3.49 -32.46,-2.31 -32.46,-2.31 L 2686.55,511.914 c 111.02,41.5 224.82,56.254 337.16,94.621 0,0 68.18,11.496 82.14,27.891 z" /><path
         id="path18"
         style="fill:#231f20;fill-opacity:1;fill-rule:evenodd;stroke:none"
         d="m 3432.46,835.273 c -95.59,-26.652 -173.41,-79.023 -271.12,-159.839 -3.85,-5.176 -2.5,-19.555 2.99,-16.293 222.42,132.047 335.58,165.722 580.22,172.824 2.58,0.078 2.62,4.914 0.04,4.945 -28.74,0.297 -202.77,30.57 -312.13,-1.637" /><path
         id="path20"
         style="fill:none;stroke:#231f20;stroke-width:9.90139961;stroke-linecap:butt;stroke-linejoin:miter;stroke-miterlimit:10;stroke-dasharray:none;stroke-opacity:1"
         d="m 3432.46,835.273 c -95.59,-26.652 -173.41,-79.023 -271.12,-159.839 -3.85,-5.176 -2.5,-19.555 2.99,-16.293 222.42,132.047 335.58,165.722 580.22,172.824 2.58,0.078 2.62,4.914 0.04,4.945 -28.74,0.297 -202.77,30.57 -312.13,-1.637 z" /><path
         id="path22"
         style="fill:#231f20;fill-opacity:1;fill-rule:evenodd;stroke:none"
         d="m 4011.47,1642.23 c 31.26,-11.51 24.3,3.24 1.14,13.2 -282.17,121.34 -426.88,158.04 -656.02,147.56 -161.01,-7.24 -296.73,-37.25 -463.38,-69.88 -37.38,-7.32 -6.84,-16.96 20.9,-13.06 98.36,13.85 282.48,24.48 338.14,27.28 113.5,5.72 188.37,9.9 386.73,-20.61 104.65,-16.09 216.11,-26.89 372.49,-84.49" /><path
         id="path24"
         style="fill:none;stroke:#231f20;stroke-width:9.90139961;stroke-linecap:butt;stroke-linejoin:miter;stroke-miterlimit:10;stroke-dasharray:none;stroke-opacity:1"
         d="m 4011.47,1642.23 c 31.26,-11.51 24.3,3.24 1.14,13.2 -282.17,121.34 -426.88,158.04 -656.02,147.56 -161.01,-7.24 -296.73,-37.25 -463.38,-69.88 -37.38,-7.32 -6.84,-16.96 20.9,-13.06 98.36,13.85 282.48,24.48 338.14,27.28 113.5,5.72 188.37,9.9 386.73,-20.61 104.65,-16.09 216.11,-26.89 372.49,-84.49 z" /><path
         id="path26"
         style="fill:#231f20;fill-opacity:1;fill-rule:evenodd;stroke:none"
         d="m 6261.42,825.23 c -6.04,5.133 -26.24,5.934 -26.54,-2.46 -4.85,-134.579 2.29,-246.86 -146.24,-279.137 l -28.68,0.277 -622.54,12.266 c 82.83,288.039 238.82,612.694 334.67,770.364 -57.55,104.97 -150.34,210.34 -290.91,430.54 l 372.74,33.74 c 102.53,-17.92 159.83,-195.66 188.65,-272.75 3.12,-8.34 29.48,-7.84 28.75,0.74 -7.44,86.42 -99.81,378.26 -99.81,378.26 l -676.3,-64.28 c 0,0 -12.25,-15.29 -16.14,-27.57 -3.9,-12.27 0.56,-21.53 0.56,-21.53 208.82,-239.86 262.02,-299.78 387.94,-456.25 -215,-268.57 -294.87,-403.542 -456.43,-739.956 -17.93,-37.332 -18.15,-37.242 -23.85,-59.82 -3.49,-13.844 2.31,-32.406 2.31,-32.406 l 1194.5,-88.754 c -41.56,110.863 -56.33,224.519 -94.75,336.703 0,0 -11.51,68.09 -27.93,82.023" /><path
         id="path28"
         style="fill:none;stroke:#231f20;stroke-width:9.90139961;stroke-linecap:butt;stroke-linejoin:miter;stroke-miterlimit:10;stroke-dasharray:none;stroke-opacity:1"
         d="m 6261.42,825.23 c -6.04,5.133 -26.24,5.934 -26.54,-2.46 -4.85,-134.579 2.29,-246.86 -146.24,-279.137 l -28.68,0.277 -622.54,12.266 c 82.83,288.039 238.82,612.694 334.67,770.364 -57.55,104.97 -150.34,210.34 -290.91,430.54 l 372.74,33.74 c 102.53,-17.92 159.83,-195.66 188.65,-272.75 3.12,-8.34 29.48,-7.84 28.75,0.74 -7.44,86.42 -99.81,378.26 -99.81,378.26 l -676.3,-64.28 c 0,0 -12.25,-15.29 -16.14,-27.57 -3.9,-12.27 0.56,-21.53 0.56,-21.53 208.82,-239.86 262.02,-299.78 387.94,-456.25 -215,-268.57 -294.87,-403.542 -456.43,-739.956 -17.93,-37.332 -18.15,-37.242 -23.85,-59.82 -3.49,-13.844 2.31,-32.406 2.31,-32.406 l 1194.5,-88.754 c -41.56,110.863 -56.33,224.519 -94.75,336.703 0,0 -11.51,68.09 -27.93,82.023 z" /><path
         id="path30"
         style="fill:#231f20;fill-opacity:1;fill-rule:evenodd;stroke:none"
         d="m 6061.42,1147.85 c 26.69,-95.46 79.13,-173.178 160.06,-270.748 5.19,-3.852 19.58,-2.5 16.32,2.984 -132.23,222.114 -165.95,335.114 -173.07,579.414 -0.07,2.58 -4.92,2.62 -4.94,0.04 -0.3,-28.7 -30.62,-202.49 1.63,-311.69" /><path
         id="path32"
         style="fill:none;stroke:#231f20;stroke-width:9.90139961;stroke-linecap:butt;stroke-linejoin:miter;stroke-miterlimit:10;stroke-dasharray:none;stroke-opacity:1"
         d="m 6061.42,1147.85 c 26.69,-95.46 79.13,-173.178 160.06,-270.748 5.19,-3.852 19.58,-2.5 16.32,2.984 -132.23,222.114 -165.95,335.114 -173.07,579.414 0,2.58 -4.94,2.62 -4.94,0.04 -0.3,-28.7 -30.62,-202.49 1.63,-311.69 z" /><path
         id="path34"
         style="fill:#231f20;fill-opacity:1;fill-rule:evenodd;stroke:none"
         d="m 5249.76,1726.66 c 11.53,31.22 -3.24,24.26 -13.21,1.14 -121.52,-281.78 -158.26,-426.29 -147.77,-655.12 7.25,-160.789 37.3,-296.321 69.98,-462.735 7.33,-37.332 16.98,-6.84 13.07,20.864 -13.86,98.226 -24.51,282.089 -27.31,337.679 -5.73,113.342 -9.91,188.102 20.63,386.192 16.12,104.51 26.93,215.82 84.61,371.98" /><path
         id="path36"
         style="fill:none;stroke:#231f20;stroke-width:9.90139961;stroke-linecap:butt;stroke-linejoin:miter;stroke-miterlimit:10;stroke-dasharray:none;stroke-opacity:1"
         d="m 5249.76,1726.66 c 11.53,31.22 -3.24,24.26 -13.21,1.14 -121.52,-281.78 -158.26,-426.29 -147.77,-655.12 7.25,-160.789 37.3,-296.321 69.98,-462.735 7.33,-37.332 16.98,-6.84 13.07,20.864 -13.86,98.226 -24.51,282.089 -27.31,337.679 -5.73,113.342 -9.91,188.102 20.63,386.192 16.12,104.51 26.93,215.82 84.61,371.98 z" /><path
         id="path38"
         style="fill:#231f20;fill-opacity:1;fill-rule:evenodd;stroke:none"
         d="m 577.094,824.004 c 6.047,5.137 26.238,5.937 26.539,-2.461 4.855,-134.574 -26.258,-314.66 142.242,-319.016 l 28.68,0.27 626.535,40.187 c -67.36,194.426 -535.856,605.286 -534.371,662.676 0.117,4.45 360.651,303.32 518.571,590.08 l -372.74,33.74 c -102.53,10 -187.792,-235.55 -216.612,-312.64 -3.114,-8.33 -29.485,-7.83 -28.747,0.75 C 774.637,1604 867,1895.84 867,1895.84 l 676.3,-64.27 c 0,0 12.25,-15.3 16.15,-27.58 3.89,-12.27 -0.57,-21.53 -0.57,-21.53 -30.67,-65.53 -281.22,-344.13 -567.669,-583.88 390.299,-393.674 548.219,-531.982 636.169,-612.322 30.58,-27.945 18.14,-37.246 23.84,-59.82 3.49,-13.84 -2.31,-32.407 -2.31,-32.407 l -1194.5,-88.75 c 41.559,110.864 56.332,224.516 94.75,336.699 0,0 11.512,68.086 27.934,82.024" /><path
         id="path40"
         style="fill:none;stroke:#231f20;stroke-width:9.90139961;stroke-linecap:butt;stroke-linejoin:miter;stroke-miterlimit:10;stroke-dasharray:none;stroke-opacity:1"
         d="m 577.094,824.004 c 6.047,5.137 26.238,5.937 26.539,-2.461 4.855,-134.574 -26.258,-314.66 142.242,-319.016 l 28.68,0.27 626.535,40.187 c -67.36,194.426 -535.856,605.286 -534.371,662.676 0,4.45 360.651,303.32 518.571,590.08 l -372.74,33.74 c -102.53,10 -187.792,-235.55 -216.612,-312.64 -3.114,-8.33 -29.485,-7.83 -28.747,0.75 C 774.637,1604 867,1895.84 867,1895.84 l 676.3,-64.27 c 0,0 12.25,-15.3 16.15,-27.58 3.89,-12.27 -0.57,-21.53 -0.57,-21.53 -30.67,-65.53 -281.22,-344.13 -567.669,-583.88 390.299,-393.674 548.219,-531.982 636.169,-612.322 30.58,-27.945 18.14,-37.246 23.84,-59.82 3.49,-13.84 -2.31,-32.407 -2.31,-32.407 l -1194.5,-88.75 c 41.559,110.864 56.332,224.516 94.75,336.699 0,0 11.512,68.086 27.934,82.024 z" /><path
         id="path42"
         style="fill:#231f20;fill-opacity:1;fill-rule:evenodd;stroke:none"
         d="m 777.086,1146.63 c -26.688,-95.47 -79.133,-173.181 -160.063,-270.755 -5.179,-3.848 -19.582,-2.5 -16.312,2.988 132.227,222.107 165.953,335.117 173.062,579.417 0.075,2.58 4.922,2.62 4.95,0.04 0.3,-28.7 30.617,-202.5 -1.637,-311.69" /><path
         id="path44"
         style="fill:none;stroke:#231f20;stroke-width:9.90139961;stroke-linecap:butt;stroke-linejoin:miter;stroke-miterlimit:10;stroke-dasharray:none;stroke-opacity:1"
         d="m 777.086,1146.63 c -26.688,-95.47 -79.133,-173.181 -160.063,-270.755 -5.179,-3.848 -19.582,-2.5 -16.312,2.988 132.227,222.107 165.953,335.117 173.062,579.417 0,2.58 4.95,2.62 4.95,0.04 0.3,-28.7 30.617,-202.5 -1.637,-311.69 z" /><path
         id="path46"
         style="fill:#231f20;fill-opacity:1;fill-rule:evenodd;stroke:none"
         d="m 1588.75,1725.44 c -11.53,31.21 3.25,24.26 13.21,1.14 121.52,-281.79 158.26,-426.29 147.77,-655.12 -7.25,-160.792 -37.3,-296.323 -69.98,-462.741 -7.33,-37.332 -16.98,-6.84 -13.07,20.863 13.86,98.227 24.51,282.09 27.32,337.68 5.72,113.338 9.9,188.108 -20.64,386.198 -16.12,104.5 -26.93,215.81 -84.61,371.98" /><path
         id="path48"
         style="fill:none;stroke:#231f20;stroke-width:9.90139961;stroke-linecap:butt;stroke-linejoin:miter;stroke-miterlimit:10;stroke-dasharray:none;stroke-opacity:1"
         d="m 1588.75,1725.44 c -11.53,31.21 3.25,24.26 13.21,1.14 121.52,-281.79 158.26,-426.29 147.77,-655.12 -7.25,-160.792 -37.3,-296.323 -69.98,-462.741 -7.33,-37.332 -16.98,-6.84 -13.07,20.863 13.86,98.227 24.51,282.09 27.32,337.68 5.72,113.338 9.9,188.108 -20.64,386.198 -16.12,104.5 -26.93,215.81 -84.61,371.98 z" /><g
         transform="scale(0.989897,1.0101)"
         id="g50"><path
           id="path52"
           style="fill:none;stroke:#231f20;stroke-width:120.50499725;stroke-linecap:butt;stroke-linejoin:miter;stroke-miterlimit:10;stroke-dasharray:none;stroke-opacity:1"
           d="M 2111.89,1068.79 C 2111.89,514.938 1652.58,65.4366 1086.65,65.4366 520.718,65.4366 61.4095,514.938 61.4095,1068.79 c 0,553.85 459.3085,1003.35 1025.2405,1003.35 565.93,0 1025.24,-449.5 1025.24,-1003.35 z" /></g><g
         transform="scale(0.989897,1.0101)"
         id="g54"><path
           id="path56"
           style="fill:none;stroke:#231f20;stroke-width:120.50499725;stroke-linecap:butt;stroke-linejoin:miter;stroke-miterlimit:10;stroke-dasharray:none;stroke-opacity:1"
           d="M 4478.15,1068.8 C 4478.15,514.95 4018.84,65.4443 3452.91,65.4443 2886.98,65.4482 2427.67,514.95 2427.67,1068.8 c 0,553.85 459.31,1003.35 1025.24,1003.35 565.93,0 1025.24,-449.5 1025.24,-1003.35 z" /></g><g
         transform="scale(0.989897,1.0101)"
         id="g58"><path
           id="path60"
           style="fill:none;stroke:#231f20;stroke-width:120.50499725;stroke-linecap:butt;stroke-linejoin:miter;stroke-miterlimit:10;stroke-dasharray:none;stroke-opacity:1"
           d="M 6844.42,1068.8 C 6844.42,514.95 6385.11,65.4443 5819.18,65.4443 5253.24,65.4482 4793.94,514.95 4793.94,1068.8 c 0,553.85 459.3,1003.35 1025.24,1003.35 565.93,0 1025.24,-449.5 1025.24,-1003.35 z" /></g></g></g></svg>