<?xml version="1.0" encoding="utf-8"?>
<!-- Generator: Adobe Illustrator 15.0.2, SVG Export Plug-In . SVG Version: 6.00 Build 0)  -->
<!DOCTYPE svg PUBLIC "-//W3C//DTD SVG 1.1//EN" "http://www.w3.org/Graphics/SVG/1.1/DTD/svg11.dtd">
<svg version="1.1"
	 id="svg2" sodipodi:docname="Fraunhofer_lines_DE.svg" inkscape:version="0.46" sodipodi:version="0.32" xmlns:dc="http://purl.org/dc/elements/1.1/" xmlns:cc="http://creativecommons.org/ns#" xmlns:rdf="http://www.w3.org/1999/02/22-rdf-syntax-ns#" xmlns:svg="http://www.w3.org/2000/svg" xmlns:sodipodi="http://sodipodi.sourceforge.net/DTD/sodipodi-0.dtd" xmlns:inkscape="http://www.inkscape.org/namespaces/inkscape" inkscape:output_extension="org.inkscape.output.svg.inkscape"
	 xmlns="http://www.w3.org/2000/svg" xmlns:xlink="http://www.w3.org/1999/xlink" x="0px" y="0px" width="768px" height="225px"
	 viewBox="0 0 768 225" enable-background="new 0 0 768 225" xml:space="preserve">
<sodipodi:namedview  id="base" inkscape:pageshadow="2" inkscape:pageopacity="0.0" showguides="true" showgrid="false" inkscape:cy="110.91748" inkscape:cx="292.59331" inkscape:zoom="1.535248" borderopacity="1.0" bordercolor="#666666" pagecolor="#ffffff" inkscape:guide-bbox="true" inkscape:window-y="0" inkscape:window-x="0" inkscape:window-height="930" inkscape:window-width="1272" inkscape:current-layer="layer1" inkscape:document-units="px">
	</sodipodi:namedview>
<g id="layer2" inkscape:label="bitmap" inkscape:groupmode="layer">
</g>
<g id="layer1" transform="translate(4.0000525,-83.862144)" inkscape:label="Ebene 1" inkscape:groupmode="layer">
	
		<linearGradient id="rect2160_1_" gradientUnits="userSpaceOnUse" x1="51.1337" y1="-619.4084" x2="693.9913" y2="-619.4084" gradientTransform="matrix(1.0104 0 0 -0.3717 -50.6671 -46.3661)">
		<stop  offset="0" style="stop-color:#00121F"/>
		<stop  offset="0.006" style="stop-color:#00121F"/>
		<stop  offset="0.012" style="stop-color:#00121F"/>
		<stop  offset="0.0181" style="stop-color:#00121F"/>
		<stop  offset="0.0241" style="stop-color:#00121F"/>
		<stop  offset="0.0301" style="stop-color:#001930"/>
		<stop  offset="0.0361" style="stop-color:#001930"/>
		<stop  offset="0.0422" style="stop-color:#240036"/>
		<stop  offset="0.0482" style="stop-color:#24003E"/>
		<stop  offset="0.0542" style="stop-color:#1F0043"/>
		<stop  offset="0.0602" style="stop-color:#190048"/>
		<stop  offset="0.0663" style="stop-color:#330052"/>
		<stop  offset="0.0723" style="stop-color:#2C0059"/>
		<stop  offset="0.0783" style="stop-color:#240061"/>
		<stop  offset="0.0843" style="stop-color:#1F006A"/>
		<stop  offset="0.0904" style="stop-color:#2C0078"/>
		<stop  offset="0.0964" style="stop-color:#360087"/>
		<stop  offset="0.1024" style="stop-color:#390096"/>
		<stop  offset="0.1084" style="stop-color:#4C00A8"/>
		<stop  offset="0.1145" style="stop-color:#5500BC"/>
		<stop  offset="0.1205" style="stop-color:#5200CD"/>
		<stop  offset="0.1265" style="stop-color:#6100E2"/>
		<stop  offset="0.1325" style="stop-color:#6B00F8"/>
		<stop  offset="0.1386" style="stop-color:#6E00FF"/>
		<stop  offset="0.1446" style="stop-color:#7000FF"/>
		<stop  offset="0.1506" style="stop-color:#6E00FF"/>
		<stop  offset="0.1566" style="stop-color:#6C00FF"/>
		<stop  offset="0.1627" style="stop-color:#6E00FF"/>
		<stop  offset="0.1687" style="stop-color:#7000FF"/>
		<stop  offset="0.1747" style="stop-color:#6F00FF"/>
		<stop  offset="0.1807" style="stop-color:#6C00FF"/>
		<stop  offset="0.1867" style="stop-color:#6A00FF"/>
		<stop  offset="0.1928" style="stop-color:#6700FF"/>
		<stop  offset="0.1988" style="stop-color:#6700FF"/>
		<stop  offset="0.2048" style="stop-color:#6100FF"/>
		<stop  offset="0.2108" style="stop-color:#5C00FF"/>
		<stop  offset="0.2169" style="stop-color:#5700FF"/>
		<stop  offset="0.2229" style="stop-color:#5900FF"/>
		<stop  offset="0.2289" style="stop-color:#5400FF"/>
		<stop  offset="0.2349" style="stop-color:#4E00FF"/>
		<stop  offset="0.241" style="stop-color:#4300FF"/>
		<stop  offset="0.247" style="stop-color:#3300FF"/>
		<stop  offset="0.253" style="stop-color:#1F00FF"/>
		<stop  offset="0.259" style="stop-color:#0019FF"/>
		<stop  offset="0.2651" style="stop-color:#003CFF"/>
		<stop  offset="0.2711" style="stop-color:#0050FF"/>
		<stop  offset="0.2771" style="stop-color:#0061FF"/>
		<stop  offset="0.2831" style="stop-color:#0070FF"/>
		<stop  offset="0.2892" style="stop-color:#007FFF"/>
		<stop  offset="0.2952" style="stop-color:#008DFF"/>
		<stop  offset="0.3012" style="stop-color:#009DFF"/>
		<stop  offset="0.3072" style="stop-color:#00A3FA"/>
		<stop  offset="0.3133" style="stop-color:#00B1F5"/>
		<stop  offset="0.3193" style="stop-color:#00B6ED"/>
		<stop  offset="0.3253" style="stop-color:#00BBE6"/>
		<stop  offset="0.3313" style="stop-color:#00C4E1"/>
		<stop  offset="0.3373" style="stop-color:#00CDDD"/>
		<stop  offset="0.3434" style="stop-color:#00D6DA"/>
		<stop  offset="0.3494" style="stop-color:#00DFD8"/>
		<stop  offset="0.3554" style="stop-color:#00E3D5"/>
		<stop  offset="0.3614" style="stop-color:#00EBD4"/>
		<stop  offset="0.3675" style="stop-color:#00F6D5"/>
		<stop  offset="0.3735" style="stop-color:#00FDD4"/>
		<stop  offset="0.3795" style="stop-color:#00FFCF"/>
		<stop  offset="0.3855" style="stop-color:#00FFCA"/>
		<stop  offset="0.3916" style="stop-color:#00FFC4"/>
		<stop  offset="0.3976" style="stop-color:#00FFBF"/>
		<stop  offset="0.4036" style="stop-color:#00FFBA"/>
		<stop  offset="0.4096" style="stop-color:#00FFB5"/>
		<stop  offset="0.4157" style="stop-color:#00FFB2"/>
		<stop  offset="0.4217" style="stop-color:#00FFAD"/>
		<stop  offset="0.4277" style="stop-color:#00FFAA"/>
		<stop  offset="0.4337" style="stop-color:#00FFA6"/>
		<stop  offset="0.4398" style="stop-color:#00FFA4"/>
		<stop  offset="0.4458" style="stop-color:#00FFA0"/>
		<stop  offset="0.4518" style="stop-color:#00FF9C"/>
		<stop  offset="0.4578" style="stop-color:#00FF97"/>
		<stop  offset="0.4639" style="stop-color:#00FF94"/>
		<stop  offset="0.4699" style="stop-color:#00FF8E"/>
		<stop  offset="0.4759" style="stop-color:#00FF8B"/>
		<stop  offset="0.4819" style="stop-color:#00FF82"/>
		<stop  offset="0.488" style="stop-color:#00FF7E"/>
		<stop  offset="0.494" style="stop-color:#00FF76"/>
		<stop  offset="0.5" style="stop-color:#00FF6A"/>
		<stop  offset="0.506" style="stop-color:#00FF5C"/>
		<stop  offset="0.512" style="stop-color:#00FF46"/>
		<stop  offset="0.5181" style="stop-color:#00FF24"/>
		<stop  offset="0.5241" style="stop-color:#39FF00"/>
		<stop  offset="0.5301" style="stop-color:#59FF00"/>
		<stop  offset="0.5361" style="stop-color:#73FF00"/>
		<stop  offset="0.5422" style="stop-color:#8AFF00"/>
		<stop  offset="0.5482" style="stop-color:#9DFF00"/>
		<stop  offset="0.5542" style="stop-color:#ABFF00"/>
		<stop  offset="0.5602" style="stop-color:#BBFA00"/>
		<stop  offset="0.5663" style="stop-color:#C7F600"/>
		<stop  offset="0.5723" style="stop-color:#D5F100"/>
		<stop  offset="0.5783" style="stop-color:#DFEC00"/>
		<stop  offset="0.5843" style="stop-color:#EAE600"/>
		<stop  offset="0.5904" style="stop-color:#F3E100"/>
		<stop  offset="0.5964" style="stop-color:#FDDA00"/>
		<stop  offset="0.6024" style="stop-color:#FFCE00"/>
		<stop  offset="0.6084" style="stop-color:#FFC000"/>
		<stop  offset="0.6145" style="stop-color:#FFB300"/>
		<stop  offset="0.6205" style="stop-color:#FFA800"/>
		<stop  offset="0.6265" style="stop-color:#FF9C00"/>
		<stop  offset="0.6325" style="stop-color:#FF9100"/>
		<stop  offset="0.6386" style="stop-color:#FF8700"/>
		<stop  offset="0.6446" style="stop-color:#FF7C00"/>
		<stop  offset="0.6506" style="stop-color:#FF7000"/>
		<stop  offset="0.6566" style="stop-color:#FF6A00"/>
		<stop  offset="0.6627" style="stop-color:#FF5E00"/>
		<stop  offset="0.6687" style="stop-color:#FF5500"/>
		<stop  offset="0.6747" style="stop-color:#FF4800"/>
		<stop  offset="0.6807" style="stop-color:#FF4100"/>
		<stop  offset="0.6867" style="stop-color:#FF3300"/>
		<stop  offset="0.6928" style="stop-color:#FF2C00"/>
		<stop  offset="0.6988" style="stop-color:#FF1200"/>
		<stop  offset="0.7048" style="stop-color:#FF0012"/>
		<stop  offset="0.7108" style="stop-color:#FF0028"/>
		<stop  offset="0.7169" style="stop-color:#FF002C"/>
		<stop  offset="0.7229" style="stop-color:#FF0036"/>
		<stop  offset="0.7289" style="stop-color:#FF003C"/>
		<stop  offset="0.7349" style="stop-color:#FF0041"/>
		<stop  offset="0.741" style="stop-color:#FF0041"/>
		<stop  offset="0.747" style="stop-color:#FF0043"/>
		<stop  offset="0.753" style="stop-color:#FF0043"/>
		<stop  offset="0.759" style="stop-color:#FF004C"/>
		<stop  offset="0.7651" style="stop-color:#FF0048"/>
		<stop  offset="0.7711" style="stop-color:#FF004A"/>
		<stop  offset="0.7771" style="stop-color:#F7004A"/>
		<stop  offset="0.7831" style="stop-color:#F3004E"/>
		<stop  offset="0.7892" style="stop-color:#E80046"/>
		<stop  offset="0.7952" style="stop-color:#E00046"/>
		<stop  offset="0.8012" style="stop-color:#D70043"/>
		<stop  offset="0.8072" style="stop-color:#CF003E"/>
		<stop  offset="0.8133" style="stop-color:#C90043"/>
		<stop  offset="0.8193" style="stop-color:#BF003E"/>
		<stop  offset="0.8253" style="stop-color:#B50039"/>
		<stop  offset="0.8313" style="stop-color:#AF0039"/>
		<stop  offset="0.8373" style="stop-color:#A9003C"/>
		<stop  offset="0.8434" style="stop-color:#9D0036"/>
		<stop  offset="0.8494" style="stop-color:#970030"/>
		<stop  offset="0.8554" style="stop-color:#8F0030"/>
		<stop  offset="0.8614" style="stop-color:#880030"/>
		<stop  offset="0.8675" style="stop-color:#800028"/>
		<stop  offset="0.8735" style="stop-color:#760028"/>
		<stop  offset="0.8795" style="stop-color:#6E001F"/>
		<stop  offset="0.8855" style="stop-color:#640019"/>
		<stop  offset="0.8916" style="stop-color:#620024"/>
		<stop  offset="0.8976" style="stop-color:#620024"/>
		<stop  offset="0.9036" style="stop-color:#570019"/>
		<stop  offset="0.9096" style="stop-color:#4A0000"/>
		<stop  offset="0.9157" style="stop-color:#550024"/>
		<stop  offset="0.9217" style="stop-color:#460019"/>
		<stop  offset="0.9277" style="stop-color:#460019"/>
		<stop  offset="0.9337" style="stop-color:#330000"/>
		<stop  offset="0.9398" style="stop-color:#330000"/>
		<stop  offset="0.9458" style="stop-color:#330000"/>
		<stop  offset="0.9518" style="stop-color:#330000"/>
		<stop  offset="0.9578" style="stop-color:#300019"/>
		<stop  offset="0.9639" style="stop-color:#300019"/>
		<stop  offset="0.9699" style="stop-color:#300019"/>
		<stop  offset="0.9759" style="stop-color:#300019"/>
		<stop  offset="0.9819" style="stop-color:#300019"/>
		<stop  offset="0.988" style="stop-color:#300019"/>
		<stop  offset="0.994" style="stop-color:#300019"/>
		<stop  offset="1" style="stop-color:#300019"/>
	</linearGradient>
	<path id="rect2160" fill="url(#rect2160_1_)" d="M-3,123.862v120h0.75h0.031h3.216h0.999h644.059h4.466H763v-120H650.52h-4.466
		H1.996H0.997h-3.216h-0.031H-3z"/>
	<g id="g3640" transform="translate(0,-14)">
		<path id="path3356" fill="none" stroke="#000000" stroke-width="1.5" d="M30.094,262.96v19"/>
		<path id="path3358" fill="none" stroke="#000000" stroke-width="1" d="M20.242,262.71v9"/>
		<path id="path3360" fill="none" stroke="#000000" stroke-width="1" d="M10.39,262.71v12"/>
		<path id="path3362" fill="none" stroke="#000000" stroke-width="1" d="M0.539,262.71v9"/>
		<path id="path3372" fill="none" stroke="#000000" stroke-width="1.5" d="M70.094,262.96v19"/>
		<path id="path3374" fill="none" stroke="#000000" stroke-width="1" d="M60.242,262.71v9"/>
		<path id="path3376" fill="none" stroke="#000000" stroke-width="1" d="M50.39,262.71v12"/>
		<path id="path3378" fill="none" stroke="#000000" stroke-width="1" d="M40.539,262.71v9"/>
		<path id="path3382" fill="none" stroke="#000000" stroke-width="1.5" d="M110.094,262.96v19"/>
		<path id="path3384" fill="none" stroke="#000000" stroke-width="1" d="M100.242,262.71v9"/>
		<path id="path3386" fill="none" stroke="#000000" stroke-width="1" d="M90.39,262.71v12"/>
		<path id="path3388" fill="none" stroke="#000000" stroke-width="1" d="M80.539,262.71v9"/>
		<path id="path3392" fill="none" stroke="#000000" stroke-width="1.5" d="M150.094,262.96v19"/>
		<path id="path3394" fill="none" stroke="#000000" stroke-width="1" d="M140.242,262.71v9"/>
		<path id="path3396" fill="none" stroke="#000000" stroke-width="1" d="M130.39,262.71v12"/>
		<path id="path3398" fill="none" stroke="#000000" stroke-width="1" d="M120.539,262.71v9"/>
		<path id="path3402" fill="none" stroke="#000000" stroke-width="1.5" d="M190.094,262.96v19"/>
		<path id="path3404" fill="none" stroke="#000000" stroke-width="1" d="M180.242,262.71v9"/>
		<path id="path3406" fill="none" stroke="#000000" stroke-width="1" d="M170.39,262.71v12"/>
		<path id="path3408" fill="none" stroke="#000000" stroke-width="1" d="M160.539,262.71v9"/>
		<path id="path3412" fill="none" stroke="#000000" stroke-width="1.5" d="M230.094,262.96v19"/>
		<path id="path3414" fill="none" stroke="#000000" stroke-width="1" d="M220.242,262.71v9"/>
		<path id="path3416" fill="none" stroke="#000000" stroke-width="1" d="M210.39,262.71v12"/>
		<path id="path3418" fill="none" stroke="#000000" stroke-width="1" d="M200.539,262.71v9"/>
		<path id="path3422" fill="none" stroke="#000000" stroke-width="1.5" d="M270.094,262.96v19"/>
		<path id="path3424" fill="none" stroke="#000000" stroke-width="1" d="M260.242,262.71v9"/>
		<path id="path3426" fill="none" stroke="#000000" stroke-width="1" d="M250.39,262.71v12"/>
		<path id="path3428" fill="none" stroke="#000000" stroke-width="1" d="M240.539,262.71v9"/>
		<path id="path3432" fill="none" stroke="#000000" stroke-width="1.5" d="M310.094,262.96v19"/>
		<path id="path3434" fill="none" stroke="#000000" stroke-width="1" d="M300.242,262.71v9"/>
		<path id="path3436" fill="none" stroke="#000000" stroke-width="1" d="M290.39,262.71v12"/>
		<path id="path3438" fill="none" stroke="#000000" stroke-width="1" d="M280.539,262.71v9"/>
		<path id="path3442" fill="none" stroke="#000000" stroke-width="1.5" d="M350.094,262.96v19"/>
		<path id="path3444" fill="none" stroke="#000000" stroke-width="1" d="M340.242,262.71v9"/>
		<path id="path3446" fill="none" stroke="#000000" stroke-width="1" d="M330.391,262.71v12"/>
		<path id="path3448" fill="none" stroke="#000000" stroke-width="1" d="M320.539,262.71v9"/>
		<path id="path3452" fill="none" stroke="#000000" stroke-width="1.5" d="M390.094,262.96v19"/>
		<path id="path3454" fill="none" stroke="#000000" stroke-width="1" d="M380.242,262.71v9"/>
		<path id="path3456" fill="none" stroke="#000000" stroke-width="1" d="M370.391,262.71v12"/>
		<path id="path3458" fill="none" stroke="#000000" stroke-width="1" d="M360.539,262.71v9"/>
		<path id="path3462" fill="none" stroke="#000000" stroke-width="1.5" d="M430.094,262.96v19"/>
		<path id="path3464" fill="none" stroke="#000000" stroke-width="1" d="M420.242,262.71v9"/>
		<path id="path3466" fill="none" stroke="#000000" stroke-width="1" d="M410.391,262.71v12"/>
		<path id="path3468" fill="none" stroke="#000000" stroke-width="1" d="M400.539,262.71v9"/>
		<path id="path3472" fill="none" stroke="#000000" stroke-width="1.5" d="M470.094,262.96v19"/>
		<path id="path3474" fill="none" stroke="#000000" stroke-width="1" d="M460.242,262.71v9"/>
		<path id="path3476" fill="none" stroke="#000000" stroke-width="1" d="M450.391,262.71v12"/>
		<path id="path3478" fill="none" stroke="#000000" stroke-width="1" d="M440.539,262.71v9"/>
		<path id="path3482" fill="none" stroke="#000000" stroke-width="1.5" d="M510.094,262.96v19"/>
		<path id="path3484" fill="none" stroke="#000000" stroke-width="1" d="M500.242,262.71v9"/>
		<path id="path3486" fill="none" stroke="#000000" stroke-width="1" d="M490.391,262.71v12"/>
		<path id="path3488" fill="none" stroke="#000000" stroke-width="1" d="M480.539,262.71v9"/>
		<path id="path3492" fill="none" stroke="#000000" stroke-width="1.5" d="M550.094,262.96v19"/>
		<path id="path3494" fill="none" stroke="#000000" stroke-width="1" d="M540.242,262.71v9"/>
		<path id="path3496" fill="none" stroke="#000000" stroke-width="1" d="M530.391,262.71v12"/>
		<path id="path3498" fill="none" stroke="#000000" stroke-width="1" d="M520.539,262.71v9"/>
		<path id="path3502" fill="none" stroke="#000000" stroke-width="1.5" d="M590.094,262.96v19"/>
		<path id="path3504" fill="none" stroke="#000000" stroke-width="1" d="M580.242,262.71v9"/>
		<path id="path3506" fill="none" stroke="#000000" stroke-width="1" d="M570.391,262.71v12"/>
		<path id="path3508" fill="none" stroke="#000000" stroke-width="1" d="M560.539,262.71v9"/>
		<path id="path3512" fill="none" stroke="#000000" stroke-width="1.5" d="M630.094,262.96v19"/>
		<path id="path3514" fill="none" stroke="#000000" stroke-width="1" d="M620.242,262.71v9"/>
		<path id="path3516" fill="none" stroke="#000000" stroke-width="1" d="M610.391,262.71v12"/>
		<path id="path3518" fill="none" stroke="#000000" stroke-width="1" d="M600.539,262.71v9"/>
		<path id="path3522" fill="none" stroke="#000000" stroke-width="1.5" d="M670.094,262.96v19"/>
		<path id="path3524" fill="none" stroke="#000000" stroke-width="1" d="M660.242,262.71v9"/>
		<path id="path3526" fill="none" stroke="#000000" stroke-width="1" d="M650.391,262.71v12"/>
		<path id="path3528" fill="none" stroke="#000000" stroke-width="1" d="M640.539,262.71v9"/>
		<path id="path3532" fill="none" stroke="#000000" stroke-width="1.5" d="M710.094,262.96v19"/>
		<path id="path3534" fill="none" stroke="#000000" stroke-width="1" d="M700.242,262.71v9"/>
		<path id="path3536" fill="none" stroke="#000000" stroke-width="1" d="M690.391,262.71v12"/>
		<path id="path3538" fill="none" stroke="#000000" stroke-width="1" d="M680.539,262.71v9"/>
		<path id="path3542" fill="none" stroke="#000000" stroke-width="1.5" d="M750.094,262.96v19"/>
		<path id="path3544" fill="none" stroke="#000000" stroke-width="1" d="M740.242,262.71v9"/>
		<path id="path3546" fill="none" stroke="#000000" stroke-width="1" d="M730.391,262.71v12"/>
		<path id="path3548" fill="none" stroke="#000000" stroke-width="1" d="M720.539,262.71v9"/>
		<path id="path3558" fill="none" stroke="#000000" stroke-width="1" d="M760.539,262.71v9"/>
	</g>
	<g enable-background="new    ">
		<path d="M5.492,265.188l0.527-0.07c0.061,0.299,0.164,0.515,0.309,0.646c0.146,0.133,0.323,0.198,0.532,0.198
			c0.248,0,0.458-0.086,0.628-0.258s0.256-0.385,0.256-0.639c0-0.242-0.079-0.441-0.237-0.599s-0.359-0.236-0.604-0.236
			c-0.1,0-0.224,0.02-0.372,0.059l0.059-0.463c0.035,0.004,0.063,0.006,0.085,0.006c0.225,0,0.427-0.059,0.606-0.176
			s0.27-0.298,0.27-0.542c0-0.193-0.065-0.354-0.196-0.48s-0.3-0.19-0.507-0.19c-0.205,0-0.376,0.064-0.513,0.193
			s-0.225,0.322-0.264,0.58l-0.527-0.094c0.064-0.354,0.211-0.627,0.439-0.822c0.229-0.193,0.513-0.291,0.853-0.291
			c0.234,0,0.45,0.051,0.647,0.15c0.197,0.102,0.348,0.238,0.453,0.412s0.157,0.358,0.157,0.554c0,0.186-0.05,0.354-0.149,0.507
			s-0.247,0.273-0.442,0.363c0.254,0.059,0.451,0.18,0.592,0.365c0.141,0.184,0.211,0.415,0.211,0.692
			c0,0.375-0.137,0.692-0.41,0.954c-0.273,0.26-0.619,0.391-1.037,0.391c-0.377,0-0.69-0.112-0.939-0.337
			S5.527,265.546,5.492,265.188z"/>
		<path d="M8.905,265.329l0.507-0.047c0.043,0.238,0.125,0.411,0.246,0.519s0.276,0.161,0.466,0.161
			c0.162,0,0.304-0.037,0.426-0.111s0.222-0.173,0.3-0.298c0.078-0.123,0.144-0.291,0.196-0.502s0.079-0.426,0.079-0.645
			c0-0.023-0.001-0.059-0.003-0.105c-0.105,0.168-0.25,0.305-0.432,0.408c-0.183,0.105-0.38,0.157-0.593,0.157
			c-0.355,0-0.656-0.129-0.902-0.387s-0.369-0.598-0.369-1.02c0-0.436,0.128-0.786,0.385-1.052s0.579-0.398,0.965-0.398
			c0.279,0,0.535,0.075,0.766,0.226s0.407,0.364,0.527,0.644c0.12,0.277,0.18,0.681,0.18,1.208c0,0.549-0.06,0.985-0.179,1.312
			c-0.119,0.324-0.296,0.572-0.532,0.742s-0.511,0.255-0.828,0.255c-0.336,0-0.61-0.093-0.823-0.28
			C9.076,265.93,8.948,265.667,8.905,265.329z M11.064,263.433c0-0.303-0.081-0.543-0.242-0.721s-0.355-0.267-0.582-0.267
			c-0.234,0-0.438,0.096-0.612,0.287s-0.261,0.439-0.261,0.744c0,0.273,0.083,0.496,0.248,0.667s0.369,0.256,0.611,0.256
			c0.244,0,0.445-0.085,0.602-0.256S11.064,263.736,11.064,263.433z"/>
		<path d="M12.163,264.204c0-0.508,0.052-0.916,0.157-1.226s0.26-0.549,0.466-0.717s0.465-0.252,0.778-0.252
			c0.23,0,0.433,0.047,0.606,0.139c0.174,0.094,0.317,0.228,0.431,0.402s0.202,0.388,0.267,0.639s0.097,0.589,0.097,1.015
			c0,0.504-0.052,0.911-0.155,1.22c-0.104,0.311-0.258,0.55-0.464,0.719s-0.466,0.253-0.781,0.253c-0.414,0-0.739-0.148-0.976-0.445
			C12.305,265.593,12.163,265.011,12.163,264.204z M12.705,264.204c0,0.705,0.083,1.175,0.248,1.407
			c0.165,0.234,0.369,0.351,0.611,0.351s0.446-0.117,0.611-0.352s0.248-0.703,0.248-1.406c0-0.707-0.083-1.177-0.248-1.409
			s-0.371-0.349-0.617-0.349c-0.242,0-0.436,0.103-0.58,0.308C12.796,263.015,12.705,263.499,12.705,264.204z"/>
	</g>
	<g enable-background="new    ">
		<path d="M24.46,277.684v-1.714h-3.105v-0.806l3.267-4.639h0.718v4.639h0.967v0.806h-0.967v1.714H24.46z M24.46,275.165v-3.228
			l-2.241,3.228H24.46z"/>
		<path d="M27.205,274.154c0-0.847,0.087-1.527,0.261-2.044c0.174-0.516,0.433-0.913,0.776-1.193s0.775-0.42,1.296-0.42
			c0.384,0,0.721,0.077,1.011,0.232c0.29,0.154,0.529,0.377,0.718,0.668c0.189,0.292,0.337,0.646,0.444,1.064
			c0.107,0.419,0.161,0.982,0.161,1.692c0,0.84-0.086,1.518-0.259,2.034c-0.172,0.516-0.431,0.914-0.774,1.195
			c-0.343,0.282-0.777,0.423-1.301,0.423c-0.69,0-1.232-0.247-1.626-0.742C27.44,276.469,27.205,275.499,27.205,274.154z
			 M28.108,274.154c0,1.175,0.138,1.957,0.413,2.347c0.275,0.389,0.614,0.583,1.018,0.583s0.743-0.195,1.018-0.586
			s0.413-1.172,0.413-2.344c0-1.179-0.138-1.961-0.413-2.349s-0.618-0.581-1.028-0.581c-0.404,0-0.726,0.171-0.967,0.513
			C28.259,272.174,28.108,272.979,28.108,274.154z"/>
		<path d="M32.766,274.154c0-0.847,0.087-1.527,0.261-2.044c0.174-0.516,0.433-0.913,0.776-1.193s0.775-0.42,1.296-0.42
			c0.384,0,0.721,0.077,1.011,0.232c0.29,0.154,0.529,0.377,0.718,0.668c0.189,0.292,0.337,0.646,0.444,1.064
			c0.107,0.419,0.161,0.982,0.161,1.692c0,0.84-0.086,1.518-0.259,2.034c-0.172,0.516-0.431,0.914-0.774,1.195
			c-0.343,0.282-0.777,0.423-1.301,0.423c-0.69,0-1.232-0.247-1.626-0.742C33.002,276.469,32.766,275.499,32.766,274.154z
			 M33.669,274.154c0,1.175,0.138,1.957,0.413,2.347c0.275,0.389,0.614,0.583,1.018,0.583s0.743-0.195,1.018-0.586
			s0.413-1.172,0.413-2.344c0-1.179-0.138-1.961-0.413-2.349s-0.618-0.581-1.028-0.581c-0.404,0-0.726,0.171-0.967,0.513
			C33.821,272.174,33.669,272.979,33.669,274.154z"/>
	</g>
	<g enable-background="new    ">
		<path d="M222.232,275.809l0.923-0.078c0.068,0.449,0.227,0.787,0.476,1.014c0.249,0.226,0.549,0.339,0.901,0.339
			c0.423,0,0.781-0.159,1.074-0.479s0.439-0.742,0.439-1.27c0-0.501-0.141-0.896-0.422-1.187s-0.65-0.435-1.106-0.435
			c-0.283,0-0.539,0.064-0.767,0.192c-0.228,0.129-0.407,0.296-0.537,0.501l-0.825-0.107l0.693-3.677h3.56v0.84h-2.856l-0.386,1.924
			c0.43-0.3,0.88-0.449,1.353-0.449c0.625,0,1.152,0.217,1.582,0.649s0.645,0.989,0.645,1.67c0,0.647-0.189,1.208-0.566,1.68
			c-0.459,0.579-1.085,0.869-1.88,0.869c-0.651,0-1.183-0.183-1.594-0.547S222.291,276.412,222.232,275.809z"/>
		<path d="M227.794,274.154c0-0.847,0.087-1.527,0.261-2.044c0.174-0.516,0.433-0.913,0.776-1.193s0.775-0.42,1.296-0.42
			c0.384,0,0.721,0.077,1.011,0.232c0.29,0.154,0.529,0.377,0.718,0.668c0.189,0.292,0.337,0.646,0.444,1.064
			c0.107,0.419,0.161,0.982,0.161,1.692c0,0.84-0.086,1.518-0.259,2.034c-0.172,0.516-0.431,0.914-0.774,1.195
			c-0.343,0.282-0.777,0.423-1.301,0.423c-0.69,0-1.232-0.247-1.626-0.742C228.03,276.469,227.794,275.499,227.794,274.154z
			 M228.697,274.154c0,1.175,0.138,1.957,0.413,2.347c0.275,0.389,0.614,0.583,1.018,0.583s0.743-0.195,1.018-0.586
			s0.413-1.172,0.413-2.344c0-1.179-0.138-1.961-0.413-2.349s-0.618-0.581-1.028-0.581c-0.404,0-0.726,0.171-0.967,0.513
			C228.849,272.174,228.697,272.979,228.697,274.154z"/>
		<path d="M233.355,274.154c0-0.847,0.087-1.527,0.261-2.044c0.174-0.516,0.433-0.913,0.776-1.193s0.775-0.42,1.296-0.42
			c0.384,0,0.721,0.077,1.011,0.232c0.29,0.154,0.529,0.377,0.718,0.668c0.189,0.292,0.337,0.646,0.444,1.064
			c0.107,0.419,0.161,0.982,0.161,1.692c0,0.84-0.086,1.518-0.259,2.034c-0.172,0.516-0.431,0.914-0.774,1.195
			c-0.343,0.282-0.777,0.423-1.301,0.423c-0.69,0-1.232-0.247-1.626-0.742C233.591,276.469,233.355,275.499,233.355,274.154z
			 M234.259,274.154c0,1.175,0.138,1.957,0.413,2.347c0.275,0.389,0.614,0.583,1.018,0.583s0.743-0.195,1.018-0.586
			s0.413-1.172,0.413-2.344c0-1.179-0.138-1.961-0.413-2.349s-0.618-0.581-1.028-0.581c-0.404,0-0.726,0.171-0.967,0.513
			C234.41,272.174,234.259,272.979,234.259,274.154z"/>
	</g>
	<g enable-background="new    ">
		<path d="M126.072,269.684v-1.371h-2.484v-0.645l2.613-3.711h0.574v3.711h0.773v0.645h-0.773v1.371H126.072z M126.072,267.669
			v-2.582l-1.793,2.582H126.072z"/>
		<path d="M128.267,268.184l0.738-0.063c0.055,0.359,0.182,0.63,0.381,0.811s0.439,0.271,0.721,0.271
			c0.338,0,0.625-0.128,0.859-0.383s0.352-0.594,0.352-1.016c0-0.401-0.113-0.718-0.338-0.949s-0.52-0.348-0.885-0.348
			c-0.227,0-0.431,0.052-0.613,0.154s-0.326,0.236-0.43,0.4l-0.66-0.086l0.555-2.941h2.848v0.672h-2.285l-0.309,1.539
			c0.344-0.239,0.705-0.359,1.082-0.359c0.5,0,0.922,0.173,1.266,0.52s0.516,0.792,0.516,1.336c0,0.519-0.151,0.966-0.453,1.344
			c-0.367,0.464-0.869,0.695-1.504,0.695c-0.521,0-0.946-0.146-1.275-0.438S128.314,268.666,128.267,268.184z"/>
		<path d="M132.716,266.86c0-0.677,0.07-1.222,0.209-1.635s0.346-0.731,0.621-0.955s0.621-0.336,1.037-0.336
			c0.307,0,0.577,0.062,0.809,0.186s0.423,0.302,0.574,0.535s0.27,0.517,0.355,0.852s0.129,0.786,0.129,1.354
			c0,0.672-0.069,1.214-0.207,1.627s-0.344,0.731-0.619,0.957s-0.622,0.338-1.041,0.338c-0.552,0-0.986-0.198-1.301-0.594
			C132.905,268.712,132.716,267.935,132.716,266.86z M133.439,266.86c0,0.94,0.11,1.565,0.33,1.877s0.492,0.467,0.814,0.467
			s0.594-0.156,0.814-0.469s0.33-0.938,0.33-1.875c0-0.942-0.11-1.569-0.33-1.879s-0.494-0.465-0.822-0.465
			c-0.323,0-0.581,0.137-0.773,0.41C133.56,265.275,133.439,265.92,133.439,266.86z"/>
	</g>
	<g enable-background="new    ">
		<path d="M426.793,272.279l-0.874,0.068c-0.078-0.345-0.188-0.596-0.332-0.752c-0.237-0.251-0.53-0.376-0.879-0.376
			c-0.28,0-0.526,0.078-0.737,0.234c-0.277,0.202-0.494,0.496-0.654,0.884s-0.242,0.939-0.249,1.655
			c0.212-0.322,0.47-0.562,0.776-0.718s0.627-0.234,0.962-0.234c0.586,0,1.085,0.216,1.497,0.647
			c0.411,0.431,0.617,0.988,0.617,1.672c0,0.449-0.097,0.867-0.291,1.252c-0.193,0.387-0.459,0.682-0.798,0.887
			s-0.723,0.308-1.152,0.308c-0.732,0-1.329-0.27-1.792-0.808c-0.463-0.539-0.693-1.427-0.693-2.664c0-1.384,0.256-2.39,0.767-3.018
			c0.446-0.547,1.046-0.82,1.802-0.82c0.563,0,1.024,0.158,1.385,0.474C426.506,271.286,426.721,271.722,426.793,272.279z
			 M423.204,275.365c0,0.303,0.064,0.593,0.192,0.869c0.129,0.276,0.309,0.487,0.54,0.632c0.231,0.146,0.474,0.218,0.728,0.218
			c0.371,0,0.689-0.149,0.957-0.449s0.4-0.706,0.4-1.221c0-0.495-0.132-0.885-0.396-1.169c-0.264-0.285-0.596-0.428-0.996-0.428
			c-0.397,0-0.733,0.143-1.011,0.428C423.342,274.529,423.204,274.903,423.204,275.365z"/>
		<path d="M427.794,274.154c0-0.847,0.087-1.527,0.261-2.044c0.175-0.516,0.434-0.913,0.777-1.193c0.343-0.28,0.775-0.42,1.296-0.42
			c0.384,0,0.722,0.077,1.011,0.232c0.289,0.154,0.529,0.377,0.718,0.668c0.188,0.292,0.337,0.646,0.444,1.064
			c0.107,0.419,0.161,0.982,0.161,1.692c0,0.84-0.087,1.518-0.259,2.034c-0.172,0.516-0.431,0.914-0.773,1.195
			c-0.344,0.282-0.777,0.423-1.302,0.423c-0.69,0-1.231-0.247-1.626-0.742C428.029,276.469,427.794,275.499,427.794,274.154z
			 M428.697,274.154c0,1.175,0.138,1.957,0.412,2.347c0.275,0.389,0.615,0.583,1.019,0.583s0.743-0.195,1.019-0.586
			c0.274-0.391,0.412-1.172,0.412-2.344c0-1.179-0.138-1.961-0.412-2.349c-0.275-0.388-0.618-0.581-1.028-0.581
			c-0.403,0-0.726,0.171-0.967,0.513C428.849,272.174,428.697,272.979,428.697,274.154z"/>
		<path d="M433.355,274.154c0-0.847,0.087-1.527,0.262-2.044c0.174-0.516,0.433-0.913,0.775-1.193c0.344-0.28,0.775-0.42,1.297-0.42
			c0.385,0,0.721,0.077,1.011,0.232c0.29,0.154,0.528,0.377,0.718,0.668c0.189,0.292,0.337,0.646,0.444,1.064
			c0.107,0.419,0.161,0.982,0.161,1.692c0,0.84-0.086,1.518-0.259,2.034c-0.173,0.516-0.431,0.914-0.774,1.195
			c-0.343,0.282-0.777,0.423-1.301,0.423c-0.689,0-1.232-0.247-1.626-0.742C433.592,276.469,433.355,275.499,433.355,274.154z
			 M434.259,274.154c0,1.175,0.138,1.957,0.413,2.347c0.274,0.389,0.613,0.583,1.018,0.583s0.743-0.195,1.018-0.586
			c0.275-0.391,0.413-1.172,0.413-2.344c0-1.179-0.138-1.961-0.413-2.349c-0.274-0.388-0.617-0.581-1.027-0.581
			c-0.404,0-0.727,0.171-0.967,0.513C434.41,272.174,434.259,272.979,434.259,274.154z"/>
	</g>
	<g enable-background="new    ">
		<path d="M323.818,268.184l0.738-0.063c0.055,0.359,0.182,0.63,0.381,0.811s0.439,0.271,0.721,0.271
			c0.338,0,0.625-0.128,0.859-0.383s0.352-0.594,0.352-1.016c0-0.401-0.113-0.718-0.338-0.949s-0.52-0.348-0.885-0.348
			c-0.227,0-0.431,0.052-0.613,0.154s-0.326,0.236-0.43,0.4l-0.66-0.086l0.555-2.941h2.848v0.672h-2.285l-0.309,1.539
			c0.344-0.239,0.705-0.359,1.082-0.359c0.5,0,0.922,0.173,1.266,0.52s0.516,0.792,0.516,1.336c0,0.519-0.151,0.966-0.453,1.344
			c-0.367,0.464-0.869,0.695-1.504,0.695c-0.521,0-0.946-0.146-1.275-0.438S323.865,268.666,323.818,268.184z"/>
		<path d="M328.267,268.184l0.738-0.063c0.055,0.359,0.182,0.63,0.381,0.811s0.439,0.271,0.721,0.271
			c0.338,0,0.625-0.128,0.859-0.383s0.352-0.594,0.352-1.016c0-0.401-0.113-0.718-0.338-0.949s-0.52-0.348-0.885-0.348
			c-0.227,0-0.431,0.052-0.613,0.154s-0.326,0.236-0.43,0.4l-0.66-0.086l0.555-2.941h2.848v0.672h-2.285l-0.309,1.539
			c0.344-0.239,0.705-0.359,1.082-0.359c0.5,0,0.922,0.173,1.266,0.52s0.516,0.792,0.516,1.336c0,0.519-0.151,0.966-0.453,1.344
			c-0.367,0.464-0.869,0.695-1.504,0.695c-0.521,0-0.946-0.146-1.275-0.438S328.314,268.666,328.267,268.184z"/>
		<path d="M332.716,266.86c0-0.677,0.07-1.222,0.209-1.635s0.346-0.731,0.621-0.955s0.621-0.336,1.037-0.336
			c0.307,0,0.577,0.062,0.809,0.186s0.423,0.302,0.574,0.535s0.27,0.517,0.355,0.852s0.129,0.786,0.129,1.354
			c0,0.672-0.069,1.214-0.207,1.627s-0.344,0.731-0.619,0.957s-0.622,0.338-1.041,0.338c-0.552,0-0.986-0.198-1.301-0.594
			C332.905,268.712,332.716,267.935,332.716,266.86z M333.439,266.86c0,0.94,0.11,1.565,0.33,1.877s0.492,0.467,0.814,0.467
			s0.594-0.156,0.814-0.469s0.33-0.938,0.33-1.875c0-0.942-0.11-1.569-0.33-1.879s-0.494-0.465-0.822-0.465
			c-0.323,0-0.581,0.137-0.773,0.41C333.56,265.275,333.439,265.92,333.439,266.86z"/>
	</g>
	<g enable-background="new    ">
		<path d="M622.291,271.464v-0.845h4.634v0.684c-0.456,0.485-0.907,1.13-1.354,1.934c-0.448,0.804-0.794,1.631-1.038,2.48
			c-0.176,0.599-0.288,1.255-0.337,1.968h-0.903c0.01-0.563,0.12-1.243,0.332-2.041s0.515-1.566,0.911-2.307
			c0.395-0.741,0.816-1.365,1.262-1.873H622.291z"/>
		<path d="M627.794,274.154c0-0.847,0.087-1.527,0.261-2.044c0.175-0.516,0.434-0.913,0.777-1.193c0.343-0.28,0.775-0.42,1.296-0.42
			c0.384,0,0.722,0.077,1.011,0.232c0.289,0.154,0.529,0.377,0.718,0.668c0.188,0.292,0.337,0.646,0.444,1.064
			c0.107,0.419,0.161,0.982,0.161,1.692c0,0.84-0.087,1.518-0.259,2.034c-0.172,0.516-0.431,0.914-0.773,1.195
			c-0.344,0.282-0.777,0.423-1.302,0.423c-0.69,0-1.231-0.247-1.626-0.742C628.029,276.469,627.794,275.499,627.794,274.154z
			 M628.697,274.154c0,1.175,0.138,1.957,0.412,2.347c0.275,0.389,0.615,0.583,1.019,0.583s0.743-0.195,1.019-0.586
			c0.274-0.391,0.412-1.172,0.412-2.344c0-1.179-0.138-1.961-0.412-2.349c-0.275-0.388-0.618-0.581-1.028-0.581
			c-0.403,0-0.726,0.171-0.967,0.513C628.849,272.174,628.697,272.979,628.697,274.154z"/>
		<path d="M633.355,274.154c0-0.847,0.087-1.527,0.262-2.044c0.174-0.516,0.433-0.913,0.775-1.193c0.344-0.28,0.775-0.42,1.297-0.42
			c0.385,0,0.721,0.077,1.011,0.232c0.29,0.154,0.528,0.377,0.718,0.668c0.189,0.292,0.337,0.646,0.444,1.064
			c0.107,0.419,0.161,0.982,0.161,1.692c0,0.84-0.086,1.518-0.259,2.034c-0.173,0.516-0.431,0.914-0.774,1.195
			c-0.343,0.282-0.777,0.423-1.301,0.423c-0.689,0-1.232-0.247-1.626-0.742C633.592,276.469,633.355,275.499,633.355,274.154z
			 M634.259,274.154c0,1.175,0.138,1.957,0.413,2.347c0.274,0.389,0.613,0.583,1.018,0.583s0.743-0.195,1.018-0.586
			c0.275-0.391,0.413-1.172,0.413-2.344c0-1.179-0.138-1.961-0.413-2.349c-0.274-0.388-0.617-0.581-1.027-0.581
			c-0.404,0-0.727,0.171-0.967,0.513C634.41,272.174,634.259,272.979,634.259,274.154z"/>
	</g>
	<g enable-background="new    ">
		<path d="M527.467,265.36l-0.699,0.055c-0.063-0.276-0.151-0.477-0.266-0.602c-0.19-0.2-0.425-0.301-0.703-0.301
			c-0.225,0-0.421,0.063-0.59,0.188c-0.222,0.161-0.396,0.397-0.523,0.707c-0.128,0.31-0.194,0.751-0.199,1.324
			c0.169-0.258,0.376-0.449,0.621-0.574c0.244-0.125,0.501-0.188,0.77-0.188c0.469,0,0.867,0.173,1.197,0.518
			c0.329,0.345,0.494,0.791,0.494,1.338c0,0.359-0.078,0.693-0.232,1.002c-0.155,0.309-0.368,0.545-0.639,0.709
			c-0.271,0.164-0.578,0.246-0.922,0.246c-0.586,0-1.064-0.216-1.434-0.646c-0.37-0.431-0.555-1.142-0.555-2.131
			c0-1.106,0.204-1.911,0.613-2.414c0.356-0.438,0.837-0.656,1.441-0.656c0.45,0,0.819,0.126,1.107,0.379
			C527.236,264.566,527.409,264.915,527.467,265.36z M524.596,267.829c0,0.242,0.051,0.474,0.154,0.695
			c0.103,0.222,0.246,0.39,0.432,0.506c0.185,0.116,0.379,0.174,0.582,0.174c0.297,0,0.552-0.12,0.766-0.359
			c0.213-0.239,0.32-0.565,0.32-0.977c0-0.396-0.105-0.708-0.316-0.936s-0.477-0.342-0.797-0.342c-0.318,0-0.588,0.114-0.809,0.342
			C524.706,267.16,524.596,267.459,524.596,267.829z"/>
		<path d="M528.268,268.184l0.738-0.063c0.055,0.359,0.182,0.63,0.381,0.811s0.439,0.271,0.721,0.271
			c0.338,0,0.625-0.128,0.859-0.383s0.352-0.594,0.352-1.016c0-0.401-0.113-0.718-0.338-0.949c-0.226-0.231-0.521-0.348-0.885-0.348
			c-0.227,0-0.432,0.052-0.613,0.154c-0.183,0.103-0.326,0.236-0.43,0.4l-0.66-0.086l0.555-2.941h2.848v0.672h-2.285l-0.309,1.539
			c0.344-0.239,0.704-0.359,1.082-0.359c0.5,0,0.922,0.173,1.266,0.52s0.516,0.792,0.516,1.336c0,0.519-0.151,0.966-0.453,1.344
			c-0.367,0.464-0.869,0.695-1.504,0.695c-0.521,0-0.946-0.146-1.275-0.438C528.502,269.053,528.314,268.666,528.268,268.184z"/>
		<path d="M532.717,266.86c0-0.677,0.069-1.222,0.209-1.635c0.139-0.413,0.346-0.731,0.621-0.955
			c0.274-0.224,0.62-0.336,1.037-0.336c0.307,0,0.576,0.062,0.809,0.186c0.231,0.124,0.423,0.302,0.574,0.535
			c0.15,0.233,0.27,0.517,0.355,0.852s0.129,0.786,0.129,1.354c0,0.672-0.069,1.214-0.207,1.627
			c-0.139,0.413-0.345,0.731-0.619,0.957c-0.275,0.226-0.622,0.338-1.041,0.338c-0.553,0-0.986-0.198-1.301-0.594
			C532.905,268.712,532.717,267.935,532.717,266.86z M533.439,266.86c0,0.94,0.109,1.565,0.33,1.877
			c0.22,0.312,0.491,0.467,0.814,0.467c0.322,0,0.594-0.156,0.814-0.469c0.22-0.313,0.33-0.938,0.33-1.875
			c0-0.942-0.11-1.569-0.33-1.879c-0.221-0.31-0.494-0.465-0.822-0.465c-0.323,0-0.581,0.137-0.773,0.41
			C533.56,265.275,533.439,265.92,533.439,266.86z"/>
	</g>
	<g enable-background="new    ">
		<path d="M723.865,264.708v-0.676h3.707v0.547c-0.365,0.388-0.727,0.903-1.084,1.547c-0.358,0.644-0.635,1.305-0.83,1.984
			c-0.141,0.479-0.23,1.004-0.27,1.574h-0.723c0.008-0.45,0.096-0.995,0.266-1.633c0.169-0.638,0.412-1.253,0.729-1.846
			s0.652-1.092,1.01-1.498H723.865z"/>
		<path d="M728.268,268.184l0.738-0.063c0.055,0.359,0.182,0.63,0.381,0.811s0.439,0.271,0.721,0.271
			c0.338,0,0.625-0.128,0.859-0.383s0.352-0.594,0.352-1.016c0-0.401-0.113-0.718-0.338-0.949c-0.226-0.231-0.521-0.348-0.885-0.348
			c-0.227,0-0.432,0.052-0.613,0.154c-0.183,0.103-0.326,0.236-0.43,0.4l-0.66-0.086l0.555-2.941h2.848v0.672h-2.285l-0.309,1.539
			c0.344-0.239,0.704-0.359,1.082-0.359c0.5,0,0.922,0.173,1.266,0.52s0.516,0.792,0.516,1.336c0,0.519-0.151,0.966-0.453,1.344
			c-0.367,0.464-0.869,0.695-1.504,0.695c-0.521,0-0.946-0.146-1.275-0.438C728.502,269.053,728.314,268.666,728.268,268.184z"/>
		<path d="M732.717,266.86c0-0.677,0.069-1.222,0.209-1.635c0.139-0.413,0.346-0.731,0.621-0.955
			c0.274-0.224,0.62-0.336,1.037-0.336c0.307,0,0.576,0.062,0.809,0.186c0.231,0.124,0.423,0.302,0.574,0.535
			c0.15,0.233,0.27,0.517,0.355,0.852s0.129,0.786,0.129,1.354c0,0.672-0.069,1.214-0.207,1.627
			c-0.139,0.413-0.345,0.731-0.619,0.957c-0.275,0.226-0.622,0.338-1.041,0.338c-0.553,0-0.986-0.198-1.301-0.594
			C732.905,268.712,732.717,267.935,732.717,266.86z M733.439,266.86c0,0.94,0.109,1.565,0.33,1.877
			c0.22,0.312,0.491,0.467,0.814,0.467c0.322,0,0.594-0.156,0.814-0.469c0.22-0.313,0.33-0.938,0.33-1.875
			c0-0.942-0.11-1.569-0.33-1.879c-0.221-0.31-0.494-0.465-0.822-0.465c-0.323,0-0.581,0.137-0.773,0.41
			C733.56,265.275,733.439,265.92,733.439,266.86z"/>
	</g>
	<path id="path3759" fill="none" stroke="#000000" stroke-width="2" d="M16.025,243.362v-128"/>
	<g enable-background="new    ">
		<path d="M9.563,109.396V96.512h1.705v6.39l6.398-6.39h2.312l-5.405,5.221l5.643,7.664h-2.25l-4.588-6.521l-2.109,2.057v4.465
			H9.563z"/>
	</g>
	<path id="path3772" fill="none" stroke="#000000" stroke-width="2" d="M24.025,243.362v-128"/>
	<g enable-background="new    ">
		<path d="M21.189,109.396V96.512h1.705v5.291h6.697v-5.291h1.705v12.885h-1.705v-6.073h-6.697v6.073H21.189z"/>
	</g>
	<path id="path3780" fill="none" stroke="#000000" stroke-width="2" d="M92.025,243.362v-128"/>
	<g enable-background="new    ">
		<path d="M90.665,104.343v-1.512l5.458-0.009v4.781c-0.838,0.668-1.702,1.171-2.593,1.508c-0.891,0.336-1.805,0.505-2.742,0.505
			c-1.266,0-2.416-0.271-3.45-0.813c-1.034-0.541-1.815-1.325-2.342-2.351s-0.791-2.171-0.791-3.437
			c0-1.254,0.262-2.424,0.787-3.512c0.524-1.086,1.279-1.894,2.263-2.421s2.118-0.791,3.401-0.791c0.932,0,1.774,0.151,2.527,0.452
			c0.753,0.303,1.343,0.723,1.771,1.262s0.753,1.242,0.976,2.109l-1.538,0.422c-0.193-0.656-0.434-1.172-0.721-1.547
			s-0.697-0.675-1.23-0.9s-1.125-0.339-1.775-0.339c-0.779,0-1.453,0.118-2.021,0.356c-0.568,0.236-1.027,0.549-1.375,0.936
			s-0.62,0.812-0.813,1.274c-0.328,0.797-0.492,1.661-0.492,2.593c0,1.148,0.198,2.109,0.593,2.883s0.971,1.348,1.727,1.723
			s1.559,0.563,2.408,0.563c0.738,0,1.459-0.142,2.162-0.426s1.236-0.588,1.6-0.91v-2.399H90.665z"/>
	</g>
	<path id="path3788" fill="none" stroke="#000000" stroke-width="2" d="M202.025,243.362v-128"/>
	<g enable-background="new    ">
		<path d="M197.037,109.396V96.512h8.692v1.521h-6.987v3.99h6.047v1.521h-6.047v5.854H197.037z"/>
	</g>
	<path id="path3796" fill="none" stroke="#000000" stroke-width="2" d="M284.025,243.362v-128"/>
	<g enable-background="new    ">
		<path d="M278.478,109.396V96.512h9.316v1.521h-7.611v3.946h7.128v1.512h-7.128v4.386h7.91v1.521H278.478z"/>
	</g>
	<path id="path3804" fill="none" stroke="#000000" stroke-width="2" d="M406.025,243.362v-128"/>
	<path id="path3812" fill="none" stroke="#000000" stroke-width="2" d="M410.025,243.362v-128"/>
	<g enable-background="new    ">
		<path d="M403.137,106.557V93.673h4.438c1.002,0,1.767,0.062,2.294,0.185c0.738,0.17,1.368,0.478,1.89,0.923
			c0.68,0.574,1.188,1.309,1.524,2.201c0.338,0.895,0.506,1.915,0.506,3.063c0,0.979-0.114,1.846-0.343,2.602
			s-0.521,1.382-0.879,1.876c-0.357,0.496-0.749,0.886-1.173,1.17c-0.426,0.284-0.938,0.499-1.539,0.646
			c-0.6,0.146-1.29,0.22-2.069,0.22H403.137z M404.842,105.037h2.751c0.85,0,1.517-0.079,1.999-0.237
			c0.484-0.158,0.869-0.381,1.156-0.668c0.404-0.404,0.719-0.947,0.945-1.631c0.225-0.682,0.338-1.51,0.338-2.482
			c0-1.348-0.221-2.383-0.664-3.107c-0.441-0.723-0.979-1.208-1.612-1.454c-0.457-0.176-1.192-0.264-2.206-0.264h-2.707V105.037z"/>
	</g>
	<path id="path3820" fill="none" stroke="#000000" stroke-width="2" d="M544.025,243.362v-128"/>
	<g enable-background="new    ">
		<path d="M547.95,104.879l1.705,0.431c-0.357,1.4-1.001,2.469-1.929,3.204c-0.93,0.735-2.064,1.103-3.406,1.103
			c-1.389,0-2.518-0.282-3.389-0.849c-0.869-0.564-1.531-1.384-1.986-2.456c-0.453-1.072-0.681-2.224-0.681-3.454
			c0-1.342,0.257-2.512,0.769-3.512c0.514-0.998,1.242-1.758,2.189-2.275c0.945-0.52,1.987-0.778,3.124-0.778
			c1.289,0,2.373,0.328,3.252,0.984s1.491,1.579,1.837,2.769l-1.679,0.396c-0.299-0.938-0.732-1.62-1.301-2.048
			s-1.283-0.642-2.145-0.642c-0.99,0-1.817,0.237-2.483,0.712c-0.664,0.475-1.132,1.111-1.401,1.912
			c-0.27,0.799-0.404,1.624-0.404,2.474c0,1.096,0.159,2.052,0.479,2.87c0.318,0.816,0.815,1.428,1.489,1.832
			s1.403,0.606,2.188,0.606c0.955,0,1.764-0.275,2.426-0.826S547.716,105.963,547.95,104.879z"/>
	</g>
	<path id="path3828" fill="none" stroke="#000000" stroke-width="2" d="M604.025,243.362v-128"/>
	<g enable-background="new    ">
		<path d="M598.373,109.396V96.512h4.834c0.984,0,1.773,0.131,2.369,0.391c0.594,0.262,1.061,0.663,1.396,1.205
			c0.338,0.542,0.506,1.108,0.506,1.7c0,0.551-0.149,1.069-0.448,1.556s-0.75,0.879-1.354,1.178
			c0.779,0.229,1.378,0.618,1.798,1.169c0.418,0.551,0.628,1.201,0.628,1.951c0,0.604-0.128,1.165-0.382,1.683
			c-0.256,0.52-0.57,0.919-0.945,1.2s-0.846,0.494-1.41,0.638c-0.566,0.144-1.259,0.215-2.079,0.215H598.373z M600.078,101.926
			h2.786c0.756,0,1.298-0.05,1.626-0.149c0.434-0.129,0.76-0.343,0.98-0.642c0.219-0.299,0.329-0.674,0.329-1.125
			c0-0.428-0.103-0.805-0.308-1.129c-0.205-0.326-0.498-0.548-0.879-0.668s-1.034-0.181-1.96-0.181h-2.575V101.926z
			 M600.078,107.876h3.208c0.551,0,0.938-0.021,1.16-0.062c0.393-0.07,0.721-0.188,0.984-0.352s0.48-0.402,0.65-0.717
			c0.17-0.313,0.255-0.675,0.255-1.085c0-0.48-0.123-0.897-0.369-1.253c-0.246-0.354-0.588-0.603-1.023-0.746
			c-0.438-0.144-1.065-0.216-1.886-0.216h-2.979V107.876z"/>
	</g>
	<path id="path3836" fill="none" stroke="#000000" stroke-width="2" d="M750.025,243.362v-128"/>
	<g enable-background="new    ">
		<path d="M743.028,109.396l4.948-12.885h1.837l5.273,12.885h-1.942l-1.503-3.902h-5.388l-1.415,3.902H743.028z M746.746,104.105
			h4.368l-1.345-3.568c-0.41-1.084-0.715-1.975-0.914-2.672c-0.164,0.826-0.396,1.646-0.694,2.461L746.746,104.105z"/>
	</g>
	<g enable-background="new    ">
		<path d="M313.339,298.711l-2.856-9.334h1.635l1.485,5.388l0.554,2.004c0.023-0.1,0.185-0.741,0.483-1.925l1.485-5.467h1.626
			l1.397,5.414l0.466,1.784l0.536-1.802l1.6-5.396h1.538l-2.918,9.334h-1.644l-1.485-5.59l-0.36-1.591l-1.89,7.181H313.339z"/>
		<path d="M330.706,297.559c-0.586,0.498-1.15,0.85-1.692,1.055s-1.124,0.308-1.745,0.308c-1.025,0-1.813-0.25-2.364-0.752
			c-0.551-0.5-0.826-1.141-0.826-1.92c0-0.457,0.104-0.875,0.312-1.252c0.208-0.379,0.48-0.682,0.817-0.91s0.716-0.401,1.138-0.519
			c0.311-0.082,0.779-0.161,1.406-0.237c1.277-0.152,2.218-0.334,2.821-0.545c0.006-0.217,0.009-0.354,0.009-0.413
			c0-0.645-0.149-1.099-0.448-1.362c-0.404-0.357-1.005-0.536-1.802-0.536c-0.744,0-1.293,0.131-1.648,0.392
			s-0.617,0.722-0.787,1.384l-1.547-0.211c0.141-0.662,0.372-1.196,0.694-1.604c0.322-0.406,0.788-0.721,1.397-0.939
			c0.609-0.221,1.315-0.33,2.118-0.33c0.797,0,1.444,0.094,1.942,0.281s0.864,0.424,1.099,0.707
			c0.234,0.285,0.398,0.644,0.492,1.077c0.053,0.27,0.079,0.756,0.079,1.459v2.109c0,1.471,0.034,2.401,0.101,2.79
			c0.067,0.391,0.201,0.764,0.4,1.121h-1.652C330.859,298.383,330.753,297.999,330.706,297.559z M330.575,294.026
			c-0.574,0.234-1.436,0.434-2.584,0.598c-0.65,0.094-1.11,0.199-1.38,0.316s-0.478,0.289-0.624,0.515s-0.22,0.476-0.22,0.751
			c0,0.422,0.16,0.773,0.479,1.055s0.787,0.422,1.402,0.422c0.609,0,1.151-0.133,1.626-0.399s0.823-0.632,1.046-1.095
			c0.17-0.357,0.255-0.885,0.255-1.582V294.026z"/>
		<path d="M337.219,298.711l-3.551-9.334h1.67l2.004,5.59c0.217,0.604,0.416,1.23,0.598,1.881c0.141-0.492,0.337-1.084,0.589-1.775
			l2.074-5.695h1.626l-3.533,9.334H337.219z"/>
		<path d="M350.016,295.705l1.635,0.202c-0.258,0.955-0.735,1.696-1.433,2.224s-1.588,0.791-2.672,0.791
			c-1.365,0-2.448-0.42-3.248-1.262c-0.8-0.84-1.2-2.02-1.2-3.537c0-1.57,0.404-2.789,1.213-3.656s1.857-1.301,3.146-1.301
			c1.248,0,2.268,0.425,3.059,1.274s1.187,2.045,1.187,3.586c0,0.094-0.003,0.234-0.009,0.422h-6.961
			c0.059,1.025,0.349,1.811,0.87,2.355s1.172,0.817,1.951,0.817c0.58,0,1.075-0.152,1.485-0.457S349.776,296.373,350.016,295.705z
			 M344.822,293.147h5.212c-0.07-0.785-0.27-1.374-0.598-1.767c-0.504-0.609-1.157-0.914-1.96-0.914
			c-0.727,0-1.337,0.243-1.833,0.729S344.874,292.333,344.822,293.147z"/>
		<path d="M353.602,298.711v-12.885h1.582v12.885H353.602z"/>
		<path d="M364.026,295.705l1.635,0.202c-0.258,0.955-0.735,1.696-1.433,2.224s-1.588,0.791-2.672,0.791
			c-1.365,0-2.448-0.42-3.248-1.262c-0.8-0.84-1.2-2.02-1.2-3.537c0-1.57,0.404-2.789,1.213-3.656s1.857-1.301,3.146-1.301
			c1.248,0,2.268,0.425,3.059,1.274s1.187,2.045,1.187,3.586c0,0.094-0.003,0.234-0.009,0.422h-6.961
			c0.059,1.025,0.349,1.811,0.87,2.355s1.172,0.817,1.951,0.817c0.58,0,1.075-0.152,1.485-0.457S363.786,296.373,364.026,295.705z
			 M358.831,293.147h5.212c-0.07-0.785-0.27-1.374-0.598-1.767c-0.504-0.609-1.157-0.914-1.96-0.914
			c-0.727,0-1.337,0.243-1.833,0.729S358.884,292.333,358.831,293.147z"/>
		<path d="M367.647,298.711v-9.334h1.424v1.327c0.686-1.025,1.676-1.538,2.971-1.538c0.563,0,1.08,0.102,1.551,0.303
			c0.472,0.203,0.825,0.468,1.059,0.796s0.398,0.718,0.492,1.169c0.059,0.293,0.088,0.806,0.088,1.538v5.739h-1.582v-5.678
			c0-0.645-0.062-1.126-0.185-1.445s-0.341-0.574-0.655-0.766c-0.313-0.189-0.681-0.285-1.103-0.285
			c-0.674,0-1.255,0.214-1.745,0.642s-0.734,1.239-0.734,2.435v5.098H367.647z"/>
		<path d="M377.368,299.484l1.538,0.229c0.064,0.475,0.243,0.82,0.536,1.037c0.393,0.293,0.929,0.439,1.609,0.439
			c0.732,0,1.297-0.146,1.695-0.439s0.668-0.703,0.809-1.23c0.082-0.322,0.121-0.999,0.115-2.03
			c-0.691,0.814-1.553,1.222-2.584,1.222c-1.284,0-2.277-0.463-2.98-1.389s-1.055-2.036-1.055-3.331
			c0-0.891,0.161-1.712,0.483-2.466c0.322-0.752,0.79-1.334,1.402-1.744s1.332-0.615,2.157-0.615c1.102,0,2.01,0.445,2.725,1.336
			v-1.125h1.459v8.068c0,1.453-0.147,2.482-0.443,3.09c-0.296,0.605-0.765,1.085-1.406,1.437s-1.432,0.527-2.369,0.527
			c-1.113,0-2.012-0.251-2.698-0.751C377.675,301.246,377.344,300.492,377.368,299.484z M378.677,293.877
			c0,1.225,0.243,2.118,0.729,2.681s1.095,0.844,1.828,0.844c0.727,0,1.336-0.279,1.828-0.839s0.738-1.438,0.738-2.633
			c0-1.143-0.253-2.004-0.76-2.584s-1.117-0.87-1.832-0.87c-0.703,0-1.301,0.286-1.793,0.856
			C378.923,291.904,378.677,292.752,378.677,293.877z"/>
		<path d="M391.123,297.296l0.229,1.397c-0.445,0.094-0.844,0.141-1.195,0.141c-0.574,0-1.02-0.091-1.336-0.272
			s-0.539-0.42-0.668-0.716s-0.193-0.919-0.193-1.868v-5.37h-1.16v-1.23h1.16v-2.312l1.572-0.949v3.261h1.592v1.23h-1.592v5.458
			c0,0.451,0.028,0.741,0.084,0.87s0.146,0.231,0.272,0.308s0.306,0.114,0.54,0.114
			C390.603,297.357,390.836,297.337,391.123,297.296z"/>
		<path d="M392.67,298.711v-12.885h1.582v4.623c0.738-0.855,1.67-1.283,2.795-1.283c0.691,0,1.291,0.137,1.801,0.408
			c0.51,0.273,0.875,0.649,1.095,1.13s0.329,1.178,0.329,2.092v5.915h-1.582v-5.915c0-0.791-0.171-1.366-0.514-1.728
			c-0.343-0.359-0.828-0.54-1.455-0.54c-0.469,0-0.909,0.122-1.322,0.364c-0.413,0.244-0.707,0.573-0.883,0.989
			s-0.264,0.99-0.264,1.723v5.106H392.67z"/>
		<path d="M407.689,287.645v-1.819h1.582v1.819H407.689z M407.689,298.711v-9.334h1.582v9.334H407.689z"/>
		<path d="M411.68,298.711v-9.334h1.424v1.327c0.686-1.025,1.676-1.538,2.971-1.538c0.563,0,1.08,0.102,1.552,0.303
			c0.472,0.203,0.825,0.468,1.06,0.796s0.398,0.718,0.492,1.169c0.059,0.293,0.088,0.806,0.088,1.538v5.739h-1.582v-5.678
			c0-0.645-0.063-1.126-0.186-1.445s-0.341-0.574-0.654-0.766c-0.313-0.189-0.682-0.285-1.104-0.285
			c-0.674,0-1.255,0.214-1.744,0.642s-0.734,1.239-0.734,2.435v5.098H411.68z"/>
		<path d="M426.691,298.711v-9.334h1.424v1.327c0.686-1.025,1.676-1.538,2.971-1.538c0.563,0,1.08,0.102,1.552,0.303
			c0.472,0.203,0.825,0.468,1.06,0.796s0.398,0.718,0.492,1.169c0.059,0.293,0.088,0.806,0.088,1.538v5.739h-1.582v-5.678
			c0-0.645-0.063-1.126-0.186-1.445s-0.341-0.574-0.654-0.766c-0.313-0.189-0.682-0.285-1.104-0.285
			c-0.674,0-1.255,0.214-1.744,0.642s-0.734,1.239-0.734,2.435v5.098H426.691z"/>
		<path d="M436.703,298.711v-9.334h1.414v1.31c0.293-0.457,0.684-0.824,1.17-1.103s1.039-0.418,1.66-0.418
			c0.691,0,1.259,0.144,1.701,0.431s0.754,0.688,0.936,1.204c0.738-1.09,1.699-1.635,2.883-1.635c0.926,0,1.639,0.257,2.137,0.77
			s0.746,1.302,0.746,2.368v6.407h-1.572v-5.88c0-0.633-0.052-1.088-0.154-1.366s-0.289-0.503-0.559-0.673s-0.586-0.255-0.949-0.255
			c-0.656,0-1.201,0.219-1.635,0.654c-0.434,0.438-0.65,1.136-0.65,2.097v5.423h-1.582v-6.064c0-0.703-0.129-1.23-0.387-1.582
			s-0.68-0.527-1.266-0.527c-0.445,0-0.856,0.117-1.234,0.352s-0.652,0.577-0.822,1.028s-0.254,1.102-0.254,1.951v4.843H436.703z"/>
	</g>
	<path id="path3916" fill="none" stroke="#000000" stroke-width="0.75" d="M6.025,243.987V119.715"/>
	<path id="path3918" fill="none" stroke="#000000" stroke-width="0.75" d="M51.116,243.987V119.715"/>
	<g enable-background="new    ">
		<path d="M48.896,116.628v-7.158h0.879v2.568c0.41-0.476,0.928-0.713,1.553-0.713c0.384,0,0.718,0.076,1.001,0.227
			c0.283,0.152,0.486,0.361,0.608,0.628s0.183,0.654,0.183,1.162v3.286h-0.879v-3.286c0-0.439-0.095-0.759-0.286-0.96
			c-0.19-0.199-0.46-0.3-0.808-0.3c-0.26,0-0.505,0.067-0.735,0.202c-0.229,0.136-0.393,0.318-0.491,0.55s-0.146,0.55-0.146,0.957
			v2.837H48.896z"/>
	</g>
	<path id="path3924" fill="none" stroke="#000000" stroke-width="0.75" d="M73.116,243.987V119.715"/>
	<g enable-background="new    ">
		<path d="M70.735,117.057l0.854,0.127c0.036,0.264,0.135,0.456,0.298,0.576c0.218,0.163,0.516,0.244,0.894,0.244
			c0.407,0,0.721-0.081,0.942-0.244s0.371-0.391,0.449-0.684c0.045-0.179,0.067-0.555,0.063-1.128
			c-0.384,0.452-0.863,0.679-1.436,0.679c-0.713,0-1.265-0.257-1.655-0.771s-0.586-1.131-0.586-1.851
			c0-0.495,0.089-0.951,0.269-1.37c0.179-0.418,0.438-0.741,0.779-0.969s0.74-0.342,1.199-0.342c0.612,0,1.117,0.247,1.514,0.742
			v-0.625h0.811v4.482c0,0.808-0.082,1.379-0.247,1.717c-0.165,0.336-0.425,0.603-0.781,0.798s-0.795,0.293-1.316,0.293
			c-0.619,0-1.118-0.14-1.499-0.417C70.906,118.036,70.722,117.617,70.735,117.057z M71.463,113.942
			c0,0.681,0.135,1.177,0.405,1.489s0.609,0.469,1.016,0.469c0.404,0,0.742-0.155,1.016-0.466c0.273-0.312,0.41-0.799,0.41-1.463
			c0-0.635-0.141-1.113-0.422-1.436s-0.621-0.483-1.018-0.483c-0.391,0-0.723,0.159-0.996,0.476
			C71.6,112.846,71.463,113.317,71.463,113.942z"/>
	</g>
	<path id="path3930" fill="none" stroke="#000000" stroke-width="0.75" d="M98.479,243.987V119.715"/>
	<g enable-background="new    ">
		<path d="M97.862,116.628v-4.502h-0.776v-0.684h0.776v-0.552c0-0.349,0.031-0.607,0.093-0.776c0.084-0.228,0.233-0.412,0.447-0.555
			c0.213-0.141,0.512-0.212,0.896-0.212c0.248,0,0.521,0.029,0.82,0.088l-0.132,0.767c-0.182-0.032-0.355-0.049-0.518-0.049
			c-0.267,0-0.456,0.057-0.566,0.171s-0.166,0.327-0.166,0.64v0.479h1.011v0.684h-1.011v4.502H97.862z"/>
	</g>
	<path id="path3936" fill="none" stroke="#000000" stroke-width="0.75" d="M106.935,243.987V119.715"/>
	<g enable-background="new    ">
		<path d="M108.265,114.958l0.908,0.112c-0.143,0.53-0.409,0.942-0.796,1.235s-0.882,0.439-1.484,0.439
			c-0.758,0-1.36-0.233-1.804-0.701c-0.444-0.467-0.667-1.122-0.667-1.965c0-0.872,0.225-1.55,0.674-2.031s1.032-0.723,1.748-0.723
			c0.693,0,1.26,0.236,1.699,0.708s0.659,1.136,0.659,1.992c0,0.052-0.001,0.13-0.005,0.234h-3.867
			c0.033,0.569,0.194,1.006,0.483,1.309s0.651,0.454,1.084,0.454c0.322,0,0.597-0.085,0.825-0.254S108.132,115.329,108.265,114.958z
			 M105.379,113.537h2.896c-0.039-0.437-0.15-0.764-0.332-0.981c-0.28-0.339-0.643-0.508-1.089-0.508
			c-0.404,0-0.743,0.135-1.018,0.405S105.409,113.085,105.379,113.537z"/>
	</g>
	<path id="path3942" fill="none" stroke="#000000" stroke-width="0.75" d="M162.479,243.987V119.715"/>
	<g enable-background="new    ">
		<path d="M163.625,116.628v-0.654c-0.329,0.515-0.812,0.771-1.45,0.771c-0.414,0-0.793-0.114-1.14-0.342s-0.615-0.546-0.806-0.955
			c-0.19-0.408-0.286-0.878-0.286-1.408c0-0.518,0.086-0.987,0.259-1.408c0.172-0.422,0.431-0.745,0.776-0.97
			s0.731-0.337,1.157-0.337c0.313,0,0.591,0.066,0.835,0.197c0.244,0.133,0.443,0.304,0.596,0.516v-2.568h0.874v7.158H163.625z
			 M160.847,114.04c0,0.664,0.14,1.16,0.42,1.489s0.61,0.493,0.991,0.493c0.384,0,0.71-0.157,0.979-0.471
			c0.269-0.314,0.403-0.794,0.403-1.438c0-0.71-0.137-1.23-0.41-1.563s-0.61-0.498-1.011-0.498c-0.391,0-0.717,0.159-0.979,0.479
			S160.847,113.353,160.847,114.04z"/>
	</g>
	<path id="path3948" fill="none" stroke="#000000" stroke-width="0.75" d="M182.479,243.987V119.715"/>
	<g enable-background="new    ">
		<path d="M180.261,116.628v-7.158h0.879v2.568c0.41-0.476,0.928-0.713,1.553-0.713c0.384,0,0.718,0.076,1.001,0.227
			c0.283,0.152,0.486,0.361,0.608,0.628s0.183,0.654,0.183,1.162v3.286h-0.879v-3.286c0-0.439-0.095-0.759-0.286-0.96
			c-0.19-0.199-0.46-0.3-0.808-0.3c-0.26,0-0.505,0.067-0.735,0.202c-0.229,0.136-0.393,0.318-0.491,0.55s-0.146,0.55-0.146,0.957
			v2.837H180.261z"/>
	</g>
	<path id="path3954" fill="none" stroke="#000000" stroke-width="0.75" d="M221.162,243.987V119.715"/>
	<g enable-background="new    ">
		<path d="M222.607,114.728l0.864,0.112c-0.094,0.596-0.336,1.063-0.725,1.398c-0.389,0.338-0.867,0.506-1.433,0.506
			c-0.709,0-1.28-0.232-1.711-0.695c-0.431-0.465-0.647-1.129-0.647-1.995c0-0.56,0.093-1.05,0.278-1.47s0.468-0.734,0.847-0.945
			c0.379-0.209,0.792-0.314,1.238-0.314c0.563,0,1.024,0.143,1.382,0.428c0.358,0.284,0.587,0.688,0.688,1.213l-0.854,0.132
			c-0.082-0.349-0.226-0.61-0.432-0.786s-0.457-0.264-0.75-0.264c-0.443,0-0.802,0.158-1.079,0.477
			c-0.277,0.316-0.415,0.819-0.415,1.506c0,0.696,0.133,1.203,0.4,1.519s0.615,0.474,1.045,0.474c0.345,0,0.633-0.105,0.864-0.317
			S222.545,115.168,222.607,114.728z"/>
	</g>
	<path id="path3960" fill="none" stroke="#000000" stroke-width="0.75" d="M246.071,243.987V119.715"/>
	<g enable-background="new    ">
		<path d="M243.852,116.628v-7.158h0.879v2.568c0.41-0.476,0.928-0.713,1.553-0.713c0.384,0,0.718,0.076,1.001,0.227
			c0.283,0.152,0.486,0.361,0.608,0.628s0.183,0.654,0.183,1.162v3.286h-0.879v-3.286c0-0.439-0.095-0.759-0.286-0.96
			c-0.19-0.199-0.46-0.3-0.808-0.3c-0.26,0-0.505,0.067-0.735,0.202c-0.229,0.136-0.393,0.318-0.491,0.55s-0.146,0.55-0.146,0.957
			v2.837H243.852z"/>
	</g>
	<path id="path3966" fill="none" stroke="#000000" stroke-width="0.75" d="M264.298,243.987V119.715"/>
	<g enable-background="new    ">
		<path d="M264.027,110.591h-0.815v-7.158h0.879v2.554c0.371-0.466,0.845-0.698,1.421-0.698c0.319,0,0.621,0.064,0.906,0.193
			c0.285,0.128,0.519,0.309,0.703,0.541c0.184,0.233,0.328,0.514,0.432,0.843s0.156,0.681,0.156,1.055
			c0,0.889-0.22,1.575-0.659,2.061s-0.967,0.728-1.582,0.728c-0.612,0-1.092-0.256-1.44-0.767V110.591z M264.017,107.959
			c0,0.622,0.084,1.071,0.254,1.348c0.277,0.452,0.651,0.679,1.123,0.679c0.384,0,0.716-0.167,0.996-0.5
			c0.28-0.334,0.42-0.831,0.42-1.492c0-0.677-0.134-1.177-0.403-1.499s-0.593-0.483-0.974-0.483c-0.384,0-0.716,0.167-0.996,0.5
			C264.157,106.845,264.017,107.327,264.017,107.959z"/>
	</g>
	<path id="path3972" fill="none" stroke="#000000" stroke-width="0.75" d="M266.526,243.987V119.715"/>
	<path id="path3978" fill="none" stroke="#000000" stroke-width="0.75" d="M304.525,243.987V119.715"/>
	<path id="path3984" fill="none" stroke="#000000" stroke-width="0.75" d="M329.844,243.987V119.715"/>
	<path id="path3990" fill="none" stroke="#000000" stroke-width="0.75" d="M338.299,243.987V119.715"/>
	<path id="path3996" fill="none" stroke="#000000" stroke-width="0.75" d="M384.525,243.987V119.715"/>
	<path id="path4002" fill="none" stroke="#000000" stroke-width="0.75" d="M484.525,243.987V119.715"/>
	<g enable-background="new    ">
		<path d="M485.69,115.988c-0.325,0.276-0.639,0.472-0.94,0.586c-0.301,0.114-0.623,0.171-0.969,0.171
			c-0.57,0-1.008-0.139-1.313-0.418c-0.306-0.277-0.459-0.634-0.459-1.066c0-0.254,0.058-0.486,0.173-0.695
			c0.116-0.211,0.268-0.379,0.455-0.506c0.187-0.127,0.397-0.223,0.632-0.288c0.173-0.046,0.433-0.09,0.781-0.132
			c0.71-0.085,1.231-0.186,1.567-0.303c0.004-0.12,0.005-0.197,0.005-0.229c0-0.358-0.083-0.61-0.249-0.757
			c-0.225-0.198-0.559-0.298-1.001-0.298c-0.413,0-0.719,0.072-0.915,0.218c-0.197,0.145-0.344,0.4-0.438,0.769l-0.859-0.117
			c0.078-0.368,0.207-0.665,0.386-0.892c0.179-0.226,0.438-0.4,0.776-0.521c0.338-0.123,0.73-0.184,1.177-0.184
			c0.442,0,0.802,0.052,1.079,0.156s0.48,0.235,0.61,0.393c0.13,0.158,0.222,0.357,0.273,0.599c0.029,0.149,0.044,0.42,0.044,0.811
			v1.172c0,0.817,0.019,1.334,0.057,1.55c0.037,0.217,0.111,0.425,0.222,0.623h-0.918
			C485.775,116.445,485.717,116.232,485.69,115.988z M485.617,114.025c-0.318,0.13-0.797,0.241-1.436,0.332
			c-0.361,0.052-0.617,0.11-0.767,0.176s-0.265,0.16-0.347,0.286c-0.082,0.125-0.122,0.264-0.122,0.417
			c0,0.234,0.089,0.43,0.267,0.586c0.177,0.156,0.437,0.234,0.778,0.234c0.339,0,0.64-0.074,0.903-0.222
			c0.264-0.148,0.457-0.352,0.581-0.608c0.095-0.198,0.142-0.491,0.142-0.879V114.025z"/>
	</g>
	<path id="path4008" fill="none" stroke="#000000" stroke-width="0.75" d="M521.208,243.987V119.715"/>
	<path id="path4014" fill="none" stroke="#000000" stroke-width="0.75" d="M550.572,243.987V119.715"/>
	<path id="path4020" fill="none" stroke="#000000" stroke-width="0.75" d="M566.572,243.987V119.715"/>
	<path id="path4026" fill="none" stroke="#000000" stroke-width="0.75" d="M610.345,243.987V119.715"/>
	<path id="path4032" fill="none" stroke="#000000" stroke-width="0.75" d="M663.663,243.987V119.715"/>
	<path id="path4038" fill="none" stroke="#000000" stroke-width="0.75" d="M694.572,243.987V119.715"/>
	<g enable-background="new    ">
		<path d="M263.168,117.399v-1.028h-1.863v-0.483l1.96-2.783h0.431v2.783h0.58v0.483h-0.58v1.028H263.168z M263.168,115.888v-1.937
			l-1.345,1.937H263.168z"/>
		<path d="M264.756,116.11v-0.53h1.62v0.53H264.756z"/>
		<path d="M268.799,117.399h-0.527v-3.36c-0.127,0.121-0.293,0.242-0.5,0.363s-0.391,0.212-0.555,0.272v-0.51
			c0.295-0.139,0.553-0.307,0.773-0.504s0.377-0.389,0.469-0.574h0.34V117.399z"/>
	</g>
	<g enable-background="new    ">
		<path d="M403.982,112.142l0.527-0.07c0.061,0.299,0.163,0.515,0.309,0.646c0.146,0.133,0.322,0.198,0.531,0.198
			c0.248,0,0.458-0.086,0.629-0.258s0.256-0.385,0.256-0.639c0-0.242-0.078-0.441-0.236-0.599s-0.359-0.236-0.604-0.236
			c-0.1,0-0.225,0.02-0.373,0.059l0.059-0.463c0.035,0.004,0.064,0.006,0.086,0.006c0.225,0,0.426-0.059,0.605-0.176
			s0.27-0.298,0.27-0.542c0-0.193-0.064-0.354-0.195-0.48s-0.301-0.19-0.508-0.19c-0.205,0-0.375,0.064-0.512,0.193
			s-0.225,0.322-0.264,0.58l-0.527-0.094c0.064-0.354,0.211-0.627,0.439-0.822c0.229-0.193,0.512-0.291,0.852-0.291
			c0.234,0,0.451,0.051,0.648,0.15c0.197,0.102,0.348,0.238,0.452,0.412s0.157,0.358,0.157,0.554c0,0.186-0.051,0.354-0.15,0.507
			s-0.246,0.273-0.441,0.363c0.254,0.059,0.451,0.18,0.592,0.365c0.141,0.184,0.211,0.415,0.211,0.692
			c0,0.375-0.137,0.692-0.41,0.954c-0.273,0.26-0.619,0.391-1.037,0.391c-0.377,0-0.69-0.112-0.939-0.337
			S404.018,112.5,403.982,112.142z"/>
		<path d="M407.258,111.987v-0.53h1.619v0.53H407.258z"/>
		<path d="M411.301,113.276h-0.527v-3.36c-0.127,0.121-0.294,0.242-0.5,0.363s-0.391,0.212-0.555,0.272v-0.51
			c0.295-0.139,0.553-0.307,0.773-0.504s0.377-0.389,0.469-0.574h0.34V113.276z"/>
	</g>
</g>
</svg>
