<?xml version="1.0" encoding="UTF-8" standalone="no"?>
<!-- Generator: Adobe Illustrator 15.0.2, SVG Export Plug-In . SVG Version: 6.00 Build 0)  -->

<svg
   xmlns:dc="http://purl.org/dc/elements/1.1/"
   xmlns:cc="http://creativecommons.org/ns#"
   xmlns:rdf="http://www.w3.org/1999/02/22-rdf-syntax-ns#"
   xmlns:svg="http://www.w3.org/2000/svg"
   xmlns="http://www.w3.org/2000/svg"
   xmlns:sodipodi="http://sodipodi.sourceforge.net/DTD/sodipodi-0.dtd"
   xmlns:inkscape="http://www.inkscape.org/namespaces/inkscape"
   version="1.1"
   id="svg2"
   sodipodi:docname="fraunhofer.svg"
   inkscape:version="0.48.5 r10040"
   sodipodi:version="0.32"
   inkscape:output_extension="org.inkscape.output.svg.inkscape"
   x="0px"
   y="0px"
   width="766"
   height="208.827"
   viewBox="0 0 766 208.827"
   enable-background="new 0 0 768 225"
   xml:space="preserve"><metadata
     id="metadata3723"><rdf:RDF><cc:Work
         rdf:about=""><dc:format>image/svg+xml</dc:format><dc:type
           rdf:resource="http://purl.org/dc/dcmitype/StillImage" /></cc:Work></rdf:RDF></metadata><defs
     id="defs3721" /><sodipodi:namedview
     id="base"
     inkscape:pageshadow="2"
     inkscape:pageopacity="0.0"
     showguides="true"
     showgrid="false"
     inkscape:cy="104.55534"
     inkscape:cx="292.89598"
     inkscape:zoom="1.535248"
     borderopacity="1.0"
     bordercolor="#666666"
     pagecolor="#ffffff"
     inkscape:guide-bbox="true"
     inkscape:window-y="27"
     inkscape:window-x="0"
     inkscape:window-height="930"
     inkscape:window-width="1272"
     inkscape:current-layer="layer1"
     inkscape:document-units="px"
     inkscape:window-maximized="0" /><g
     id="layer2"
     inkscape:label="bitmap"
     inkscape:groupmode="layer"
     transform="translate(-1.0000525,-9.810856)" /><g
     id="layer1"
     transform="translate(3,-93.673)"
     inkscape:label="Ebene 1"
     inkscape:groupmode="layer"><linearGradient
       id="rect2160_1_"
       gradientUnits="userSpaceOnUse"
       x1="51.133701"
       y1="-619.40839"
       x2="693.99127"
       y2="-619.40839"
       gradientTransform="matrix(1.0104,0,0,-0.3717,-50.6671,-46.3661)"><stop
         offset="0"
         style="stop-color:#00121F"
         id="stop3082" /><stop
         offset="0.006"
         style="stop-color:#00121F"
         id="stop3084" /><stop
         offset="0.012"
         style="stop-color:#00121F"
         id="stop3086" /><stop
         offset="0.0181"
         style="stop-color:#00121F"
         id="stop3088" /><stop
         offset="0.0241"
         style="stop-color:#00121F"
         id="stop3090" /><stop
         offset="0.0301"
         style="stop-color:#001930"
         id="stop3092" /><stop
         offset="0.0361"
         style="stop-color:#001930"
         id="stop3094" /><stop
         offset="0.0422"
         style="stop-color:#240036"
         id="stop3096" /><stop
         offset="0.0482"
         style="stop-color:#24003E"
         id="stop3098" /><stop
         offset="0.0542"
         style="stop-color:#1F0043"
         id="stop3100" /><stop
         offset="0.0602"
         style="stop-color:#190048"
         id="stop3102" /><stop
         offset="0.0663"
         style="stop-color:#330052"
         id="stop3104" /><stop
         offset="0.0723"
         style="stop-color:#2C0059"
         id="stop3106" /><stop
         offset="0.0783"
         style="stop-color:#240061"
         id="stop3108" /><stop
         offset="0.0843"
         style="stop-color:#1F006A"
         id="stop3110" /><stop
         offset="0.0904"
         style="stop-color:#2C0078"
         id="stop3112" /><stop
         offset="0.0964"
         style="stop-color:#360087"
         id="stop3114" /><stop
         offset="0.1024"
         style="stop-color:#390096"
         id="stop3116" /><stop
         offset="0.1084"
         style="stop-color:#4C00A8"
         id="stop3118" /><stop
         offset="0.1145"
         style="stop-color:#5500BC"
         id="stop3120" /><stop
         offset="0.1205"
         style="stop-color:#5200CD"
         id="stop3122" /><stop
         offset="0.1265"
         style="stop-color:#6100E2"
         id="stop3124" /><stop
         offset="0.1325"
         style="stop-color:#6B00F8"
         id="stop3126" /><stop
         offset="0.1386"
         style="stop-color:#6E00FF"
         id="stop3128" /><stop
         offset="0.1446"
         style="stop-color:#7000FF"
         id="stop3130" /><stop
         offset="0.1506"
         style="stop-color:#6E00FF"
         id="stop3132" /><stop
         offset="0.1566"
         style="stop-color:#6C00FF"
         id="stop3134" /><stop
         offset="0.1627"
         style="stop-color:#6E00FF"
         id="stop3136" /><stop
         offset="0.1687"
         style="stop-color:#7000FF"
         id="stop3138" /><stop
         offset="0.1747"
         style="stop-color:#6F00FF"
         id="stop3140" /><stop
         offset="0.1807"
         style="stop-color:#6C00FF"
         id="stop3142" /><stop
         offset="0.1867"
         style="stop-color:#6A00FF"
         id="stop3144" /><stop
         offset="0.1928"
         style="stop-color:#6700FF"
         id="stop3146" /><stop
         offset="0.1988"
         style="stop-color:#6700FF"
         id="stop3148" /><stop
         offset="0.2048"
         style="stop-color:#6100FF"
         id="stop3150" /><stop
         offset="0.2108"
         style="stop-color:#5C00FF"
         id="stop3152" /><stop
         offset="0.2169"
         style="stop-color:#5700FF"
         id="stop3154" /><stop
         offset="0.2229"
         style="stop-color:#5900FF"
         id="stop3156" /><stop
         offset="0.2289"
         style="stop-color:#5400FF"
         id="stop3158" /><stop
         offset="0.2349"
         style="stop-color:#4E00FF"
         id="stop3160" /><stop
         offset="0.241"
         style="stop-color:#4300FF"
         id="stop3162" /><stop
         offset="0.247"
         style="stop-color:#3300FF"
         id="stop3164" /><stop
         offset="0.253"
         style="stop-color:#1F00FF"
         id="stop3166" /><stop
         offset="0.259"
         style="stop-color:#0019FF"
         id="stop3168" /><stop
         offset="0.2651"
         style="stop-color:#003CFF"
         id="stop3170" /><stop
         offset="0.2711"
         style="stop-color:#0050FF"
         id="stop3172" /><stop
         offset="0.2771"
         style="stop-color:#0061FF"
         id="stop3174" /><stop
         offset="0.2831"
         style="stop-color:#0070FF"
         id="stop3176" /><stop
         offset="0.2892"
         style="stop-color:#007FFF"
         id="stop3178" /><stop
         offset="0.2952"
         style="stop-color:#008DFF"
         id="stop3180" /><stop
         offset="0.3012"
         style="stop-color:#009DFF"
         id="stop3182" /><stop
         offset="0.3072"
         style="stop-color:#00A3FA"
         id="stop3184" /><stop
         offset="0.3133"
         style="stop-color:#00B1F5"
         id="stop3186" /><stop
         offset="0.3193"
         style="stop-color:#00B6ED"
         id="stop3188" /><stop
         offset="0.3253"
         style="stop-color:#00BBE6"
         id="stop3190" /><stop
         offset="0.3313"
         style="stop-color:#00C4E1"
         id="stop3192" /><stop
         offset="0.3373"
         style="stop-color:#00CDDD"
         id="stop3194" /><stop
         offset="0.3434"
         style="stop-color:#00D6DA"
         id="stop3196" /><stop
         offset="0.3494"
         style="stop-color:#00DFD8"
         id="stop3198" /><stop
         offset="0.3554"
         style="stop-color:#00E3D5"
         id="stop3200" /><stop
         offset="0.3614"
         style="stop-color:#00EBD4"
         id="stop3202" /><stop
         offset="0.3675"
         style="stop-color:#00F6D5"
         id="stop3204" /><stop
         offset="0.3735"
         style="stop-color:#00FDD4"
         id="stop3206" /><stop
         offset="0.3795"
         style="stop-color:#00FFCF"
         id="stop3208" /><stop
         offset="0.3855"
         style="stop-color:#00FFCA"
         id="stop3210" /><stop
         offset="0.3916"
         style="stop-color:#00FFC4"
         id="stop3212" /><stop
         offset="0.3976"
         style="stop-color:#00FFBF"
         id="stop3214" /><stop
         offset="0.4036"
         style="stop-color:#00FFBA"
         id="stop3216" /><stop
         offset="0.4096"
         style="stop-color:#00FFB5"
         id="stop3218" /><stop
         offset="0.4157"
         style="stop-color:#00FFB2"
         id="stop3220" /><stop
         offset="0.4217"
         style="stop-color:#00FFAD"
         id="stop3222" /><stop
         offset="0.4277"
         style="stop-color:#00FFAA"
         id="stop3224" /><stop
         offset="0.4337"
         style="stop-color:#00FFA6"
         id="stop3226" /><stop
         offset="0.4398"
         style="stop-color:#00FFA4"
         id="stop3228" /><stop
         offset="0.4458"
         style="stop-color:#00FFA0"
         id="stop3230" /><stop
         offset="0.4518"
         style="stop-color:#00FF9C"
         id="stop3232" /><stop
         offset="0.4578"
         style="stop-color:#00FF97"
         id="stop3234" /><stop
         offset="0.4639"
         style="stop-color:#00FF94"
         id="stop3236" /><stop
         offset="0.4699"
         style="stop-color:#00FF8E"
         id="stop3238" /><stop
         offset="0.4759"
         style="stop-color:#00FF8B"
         id="stop3240" /><stop
         offset="0.4819"
         style="stop-color:#00FF82"
         id="stop3242" /><stop
         offset="0.488"
         style="stop-color:#00FF7E"
         id="stop3244" /><stop
         offset="0.494"
         style="stop-color:#00FF76"
         id="stop3246" /><stop
         offset="0.5"
         style="stop-color:#00FF6A"
         id="stop3248" /><stop
         offset="0.506"
         style="stop-color:#00FF5C"
         id="stop3250" /><stop
         offset="0.512"
         style="stop-color:#00FF46"
         id="stop3252" /><stop
         offset="0.5181"
         style="stop-color:#00FF24"
         id="stop3254" /><stop
         offset="0.5241"
         style="stop-color:#39FF00"
         id="stop3256" /><stop
         offset="0.5301"
         style="stop-color:#59FF00"
         id="stop3258" /><stop
         offset="0.5361"
         style="stop-color:#73FF00"
         id="stop3260" /><stop
         offset="0.5422"
         style="stop-color:#8AFF00"
         id="stop3262" /><stop
         offset="0.5482"
         style="stop-color:#9DFF00"
         id="stop3264" /><stop
         offset="0.5542"
         style="stop-color:#ABFF00"
         id="stop3266" /><stop
         offset="0.5602"
         style="stop-color:#BBFA00"
         id="stop3268" /><stop
         offset="0.5663"
         style="stop-color:#C7F600"
         id="stop3270" /><stop
         offset="0.5723"
         style="stop-color:#D5F100"
         id="stop3272" /><stop
         offset="0.5783"
         style="stop-color:#DFEC00"
         id="stop3274" /><stop
         offset="0.5843"
         style="stop-color:#EAE600"
         id="stop3276" /><stop
         offset="0.5904"
         style="stop-color:#F3E100"
         id="stop3278" /><stop
         offset="0.5964"
         style="stop-color:#FDDA00"
         id="stop3280" /><stop
         offset="0.6024"
         style="stop-color:#FFCE00"
         id="stop3282" /><stop
         offset="0.6084"
         style="stop-color:#FFC000"
         id="stop3284" /><stop
         offset="0.6145"
         style="stop-color:#FFB300"
         id="stop3286" /><stop
         offset="0.6205"
         style="stop-color:#FFA800"
         id="stop3288" /><stop
         offset="0.6265"
         style="stop-color:#FF9C00"
         id="stop3290" /><stop
         offset="0.6325"
         style="stop-color:#FF9100"
         id="stop3292" /><stop
         offset="0.6386"
         style="stop-color:#FF8700"
         id="stop3294" /><stop
         offset="0.6446"
         style="stop-color:#FF7C00"
         id="stop3296" /><stop
         offset="0.6506"
         style="stop-color:#FF7000"
         id="stop3298" /><stop
         offset="0.6566"
         style="stop-color:#FF6A00"
         id="stop3300" /><stop
         offset="0.6627"
         style="stop-color:#FF5E00"
         id="stop3302" /><stop
         offset="0.6687"
         style="stop-color:#FF5500"
         id="stop3304" /><stop
         offset="0.6747"
         style="stop-color:#FF4800"
         id="stop3306" /><stop
         offset="0.6807"
         style="stop-color:#FF4100"
         id="stop3308" /><stop
         offset="0.6867"
         style="stop-color:#FF3300"
         id="stop3310" /><stop
         offset="0.6928"
         style="stop-color:#FF2C00"
         id="stop3312" /><stop
         offset="0.6988"
         style="stop-color:#FF1200"
         id="stop3314" /><stop
         offset="0.7048"
         style="stop-color:#FF0012"
         id="stop3316" /><stop
         offset="0.7108"
         style="stop-color:#FF0028"
         id="stop3318" /><stop
         offset="0.7169"
         style="stop-color:#FF002C"
         id="stop3320" /><stop
         offset="0.7229"
         style="stop-color:#FF0036"
         id="stop3322" /><stop
         offset="0.7289"
         style="stop-color:#FF003C"
         id="stop3324" /><stop
         offset="0.7349"
         style="stop-color:#FF0041"
         id="stop3326" /><stop
         offset="0.741"
         style="stop-color:#FF0041"
         id="stop3328" /><stop
         offset="0.747"
         style="stop-color:#FF0043"
         id="stop3330" /><stop
         offset="0.753"
         style="stop-color:#FF0043"
         id="stop3332" /><stop
         offset="0.759"
         style="stop-color:#FF004C"
         id="stop3334" /><stop
         offset="0.7651"
         style="stop-color:#FF0048"
         id="stop3336" /><stop
         offset="0.7711"
         style="stop-color:#FF004A"
         id="stop3338" /><stop
         offset="0.7771"
         style="stop-color:#F7004A"
         id="stop3340" /><stop
         offset="0.7831"
         style="stop-color:#F3004E"
         id="stop3342" /><stop
         offset="0.7892"
         style="stop-color:#E80046"
         id="stop3344" /><stop
         offset="0.7952"
         style="stop-color:#E00046"
         id="stop3346" /><stop
         offset="0.8012"
         style="stop-color:#D70043"
         id="stop3348" /><stop
         offset="0.8072"
         style="stop-color:#CF003E"
         id="stop3350" /><stop
         offset="0.8133"
         style="stop-color:#C90043"
         id="stop3352" /><stop
         offset="0.8193"
         style="stop-color:#BF003E"
         id="stop3354" /><stop
         offset="0.8253"
         style="stop-color:#B50039"
         id="stop3356" /><stop
         offset="0.8313"
         style="stop-color:#AF0039"
         id="stop3358" /><stop
         offset="0.8373"
         style="stop-color:#A9003C"
         id="stop3360" /><stop
         offset="0.8434"
         style="stop-color:#9D0036"
         id="stop3362" /><stop
         offset="0.8494"
         style="stop-color:#970030"
         id="stop3364" /><stop
         offset="0.8554"
         style="stop-color:#8F0030"
         id="stop3366" /><stop
         offset="0.8614"
         style="stop-color:#880030"
         id="stop3368" /><stop
         offset="0.8675"
         style="stop-color:#800028"
         id="stop3370" /><stop
         offset="0.8735"
         style="stop-color:#760028"
         id="stop3372" /><stop
         offset="0.8795"
         style="stop-color:#6E001F"
         id="stop3374" /><stop
         offset="0.8855"
         style="stop-color:#640019"
         id="stop3376" /><stop
         offset="0.8916"
         style="stop-color:#620024"
         id="stop3378" /><stop
         offset="0.8976"
         style="stop-color:#620024"
         id="stop3380" /><stop
         offset="0.9036"
         style="stop-color:#570019"
         id="stop3382" /><stop
         offset="0.9096"
         style="stop-color:#4A0000"
         id="stop3384" /><stop
         offset="0.9157"
         style="stop-color:#550024"
         id="stop3386" /><stop
         offset="0.9217"
         style="stop-color:#460019"
         id="stop3388" /><stop
         offset="0.9277"
         style="stop-color:#460019"
         id="stop3390" /><stop
         offset="0.9337"
         style="stop-color:#330000"
         id="stop3392" /><stop
         offset="0.9398"
         style="stop-color:#330000"
         id="stop3394" /><stop
         offset="0.9458"
         style="stop-color:#330000"
         id="stop3396" /><stop
         offset="0.9518"
         style="stop-color:#330000"
         id="stop3398" /><stop
         offset="0.9578"
         style="stop-color:#300019"
         id="stop3400" /><stop
         offset="0.9639"
         style="stop-color:#300019"
         id="stop3402" /><stop
         offset="0.9699"
         style="stop-color:#300019"
         id="stop3404" /><stop
         offset="0.9759"
         style="stop-color:#300019"
         id="stop3406" /><stop
         offset="0.9819"
         style="stop-color:#300019"
         id="stop3408" /><stop
         offset="0.988"
         style="stop-color:#300019"
         id="stop3410" /><stop
         offset="0.994"
         style="stop-color:#300019"
         id="stop3412" /><stop
         offset="1"
         style="stop-color:#300019"
         id="stop3414" /></linearGradient><path
       id="rect2160"
       d="m -3,123.862 v 120 h 0.75 0.031 3.216 0.999 644.059 4.466 H 763 v -120 H 650.52 646.054 1.996 0.997 -2.219 -2.25 -3 z"
       inkscape:connector-curvature="0"
       style="fill:url(#rect2160_1_)" /><g
       id="g3640"
       transform="translate(0,-14)"><path
         id="path3356"
         d="m 30.094,262.96 v 19"
         inkscape:connector-curvature="0"
         style="fill:none;stroke:#000000;stroke-width:1.5" /><path
         id="path3358"
         d="m 20.242,262.71 v 9"
         inkscape:connector-curvature="0"
         style="fill:none;stroke:#000000;stroke-width:1" /><path
         id="path3360"
         d="m 10.39,262.71 v 12"
         inkscape:connector-curvature="0"
         style="fill:none;stroke:#000000;stroke-width:1" /><path
         id="path3362"
         d="m 0.539,262.71 v 9"
         inkscape:connector-curvature="0"
         style="fill:none;stroke:#000000;stroke-width:1" /><path
         id="path3372"
         d="m 70.094,262.96 v 19"
         inkscape:connector-curvature="0"
         style="fill:none;stroke:#000000;stroke-width:1.5" /><path
         id="path3374"
         d="m 60.242,262.71 v 9"
         inkscape:connector-curvature="0"
         style="fill:none;stroke:#000000;stroke-width:1" /><path
         id="path3376"
         d="m 50.39,262.71 v 12"
         inkscape:connector-curvature="0"
         style="fill:none;stroke:#000000;stroke-width:1" /><path
         id="path3378"
         d="m 40.539,262.71 v 9"
         inkscape:connector-curvature="0"
         style="fill:none;stroke:#000000;stroke-width:1" /><path
         id="path3382"
         d="m 110.094,262.96 v 19"
         inkscape:connector-curvature="0"
         style="fill:none;stroke:#000000;stroke-width:1.5" /><path
         id="path3384"
         d="m 100.242,262.71 v 9"
         inkscape:connector-curvature="0"
         style="fill:none;stroke:#000000;stroke-width:1" /><path
         id="path3386"
         d="m 90.39,262.71 v 12"
         inkscape:connector-curvature="0"
         style="fill:none;stroke:#000000;stroke-width:1" /><path
         id="path3388"
         d="m 80.539,262.71 v 9"
         inkscape:connector-curvature="0"
         style="fill:none;stroke:#000000;stroke-width:1" /><path
         id="path3392"
         d="m 150.094,262.96 v 19"
         inkscape:connector-curvature="0"
         style="fill:none;stroke:#000000;stroke-width:1.5" /><path
         id="path3394"
         d="m 140.242,262.71 v 9"
         inkscape:connector-curvature="0"
         style="fill:none;stroke:#000000;stroke-width:1" /><path
         id="path3396"
         d="m 130.39,262.71 v 12"
         inkscape:connector-curvature="0"
         style="fill:none;stroke:#000000;stroke-width:1" /><path
         id="path3398"
         d="m 120.539,262.71 v 9"
         inkscape:connector-curvature="0"
         style="fill:none;stroke:#000000;stroke-width:1" /><path
         id="path3402"
         d="m 190.094,262.96 v 19"
         inkscape:connector-curvature="0"
         style="fill:none;stroke:#000000;stroke-width:1.5" /><path
         id="path3404"
         d="m 180.242,262.71 v 9"
         inkscape:connector-curvature="0"
         style="fill:none;stroke:#000000;stroke-width:1" /><path
         id="path3406"
         d="m 170.39,262.71 v 12"
         inkscape:connector-curvature="0"
         style="fill:none;stroke:#000000;stroke-width:1" /><path
         id="path3408"
         d="m 160.539,262.71 v 9"
         inkscape:connector-curvature="0"
         style="fill:none;stroke:#000000;stroke-width:1" /><path
         id="path3412"
         d="m 230.094,262.96 v 19"
         inkscape:connector-curvature="0"
         style="fill:none;stroke:#000000;stroke-width:1.5" /><path
         id="path3414"
         d="m 220.242,262.71 v 9"
         inkscape:connector-curvature="0"
         style="fill:none;stroke:#000000;stroke-width:1" /><path
         id="path3416"
         d="m 210.39,262.71 v 12"
         inkscape:connector-curvature="0"
         style="fill:none;stroke:#000000;stroke-width:1" /><path
         id="path3418"
         d="m 200.539,262.71 v 9"
         inkscape:connector-curvature="0"
         style="fill:none;stroke:#000000;stroke-width:1" /><path
         id="path3422"
         d="m 270.094,262.96 v 19"
         inkscape:connector-curvature="0"
         style="fill:none;stroke:#000000;stroke-width:1.5" /><path
         id="path3424"
         d="m 260.242,262.71 v 9"
         inkscape:connector-curvature="0"
         style="fill:none;stroke:#000000;stroke-width:1" /><path
         id="path3426"
         d="m 250.39,262.71 v 12"
         inkscape:connector-curvature="0"
         style="fill:none;stroke:#000000;stroke-width:1" /><path
         id="path3428"
         d="m 240.539,262.71 v 9"
         inkscape:connector-curvature="0"
         style="fill:none;stroke:#000000;stroke-width:1" /><path
         id="path3432"
         d="m 310.094,262.96 v 19"
         inkscape:connector-curvature="0"
         style="fill:none;stroke:#000000;stroke-width:1.5" /><path
         id="path3434"
         d="m 300.242,262.71 v 9"
         inkscape:connector-curvature="0"
         style="fill:none;stroke:#000000;stroke-width:1" /><path
         id="path3436"
         d="m 290.39,262.71 v 12"
         inkscape:connector-curvature="0"
         style="fill:none;stroke:#000000;stroke-width:1" /><path
         id="path3438"
         d="m 280.539,262.71 v 9"
         inkscape:connector-curvature="0"
         style="fill:none;stroke:#000000;stroke-width:1" /><path
         id="path3442"
         d="m 350.094,262.96 v 19"
         inkscape:connector-curvature="0"
         style="fill:none;stroke:#000000;stroke-width:1.5" /><path
         id="path3444"
         d="m 340.242,262.71 v 9"
         inkscape:connector-curvature="0"
         style="fill:none;stroke:#000000;stroke-width:1" /><path
         id="path3446"
         d="m 330.391,262.71 v 12"
         inkscape:connector-curvature="0"
         style="fill:none;stroke:#000000;stroke-width:1" /><path
         id="path3448"
         d="m 320.539,262.71 v 9"
         inkscape:connector-curvature="0"
         style="fill:none;stroke:#000000;stroke-width:1" /><path
         id="path3452"
         d="m 390.094,262.96 v 19"
         inkscape:connector-curvature="0"
         style="fill:none;stroke:#000000;stroke-width:1.5" /><path
         id="path3454"
         d="m 380.242,262.71 v 9"
         inkscape:connector-curvature="0"
         style="fill:none;stroke:#000000;stroke-width:1" /><path
         id="path3456"
         d="m 370.391,262.71 v 12"
         inkscape:connector-curvature="0"
         style="fill:none;stroke:#000000;stroke-width:1" /><path
         id="path3458"
         d="m 360.539,262.71 v 9"
         inkscape:connector-curvature="0"
         style="fill:none;stroke:#000000;stroke-width:1" /><path
         id="path3462"
         d="m 430.094,262.96 v 19"
         inkscape:connector-curvature="0"
         style="fill:none;stroke:#000000;stroke-width:1.5" /><path
         id="path3464"
         d="m 420.242,262.71 v 9"
         inkscape:connector-curvature="0"
         style="fill:none;stroke:#000000;stroke-width:1" /><path
         id="path3466"
         d="m 410.391,262.71 v 12"
         inkscape:connector-curvature="0"
         style="fill:none;stroke:#000000;stroke-width:1" /><path
         id="path3468"
         d="m 400.539,262.71 v 9"
         inkscape:connector-curvature="0"
         style="fill:none;stroke:#000000;stroke-width:1" /><path
         id="path3472"
         d="m 470.094,262.96 v 19"
         inkscape:connector-curvature="0"
         style="fill:none;stroke:#000000;stroke-width:1.5" /><path
         id="path3474"
         d="m 460.242,262.71 v 9"
         inkscape:connector-curvature="0"
         style="fill:none;stroke:#000000;stroke-width:1" /><path
         id="path3476"
         d="m 450.391,262.71 v 12"
         inkscape:connector-curvature="0"
         style="fill:none;stroke:#000000;stroke-width:1" /><path
         id="path3478"
         d="m 440.539,262.71 v 9"
         inkscape:connector-curvature="0"
         style="fill:none;stroke:#000000;stroke-width:1" /><path
         id="path3482"
         d="m 510.094,262.96 v 19"
         inkscape:connector-curvature="0"
         style="fill:none;stroke:#000000;stroke-width:1.5" /><path
         id="path3484"
         d="m 500.242,262.71 v 9"
         inkscape:connector-curvature="0"
         style="fill:none;stroke:#000000;stroke-width:1" /><path
         id="path3486"
         d="m 490.391,262.71 v 12"
         inkscape:connector-curvature="0"
         style="fill:none;stroke:#000000;stroke-width:1" /><path
         id="path3488"
         d="m 480.539,262.71 v 9"
         inkscape:connector-curvature="0"
         style="fill:none;stroke:#000000;stroke-width:1" /><path
         id="path3492"
         d="m 550.094,262.96 v 19"
         inkscape:connector-curvature="0"
         style="fill:none;stroke:#000000;stroke-width:1.5" /><path
         id="path3494"
         d="m 540.242,262.71 v 9"
         inkscape:connector-curvature="0"
         style="fill:none;stroke:#000000;stroke-width:1" /><path
         id="path3496"
         d="m 530.391,262.71 v 12"
         inkscape:connector-curvature="0"
         style="fill:none;stroke:#000000;stroke-width:1" /><path
         id="path3498"
         d="m 520.539,262.71 v 9"
         inkscape:connector-curvature="0"
         style="fill:none;stroke:#000000;stroke-width:1" /><path
         id="path3502"
         d="m 590.094,262.96 v 19"
         inkscape:connector-curvature="0"
         style="fill:none;stroke:#000000;stroke-width:1.5" /><path
         id="path3504"
         d="m 580.242,262.71 v 9"
         inkscape:connector-curvature="0"
         style="fill:none;stroke:#000000;stroke-width:1" /><path
         id="path3506"
         d="m 570.391,262.71 v 12"
         inkscape:connector-curvature="0"
         style="fill:none;stroke:#000000;stroke-width:1" /><path
         id="path3508"
         d="m 560.539,262.71 v 9"
         inkscape:connector-curvature="0"
         style="fill:none;stroke:#000000;stroke-width:1" /><path
         id="path3512"
         d="m 630.094,262.96 v 19"
         inkscape:connector-curvature="0"
         style="fill:none;stroke:#000000;stroke-width:1.5" /><path
         id="path3514"
         d="m 620.242,262.71 v 9"
         inkscape:connector-curvature="0"
         style="fill:none;stroke:#000000;stroke-width:1" /><path
         id="path3516"
         d="m 610.391,262.71 v 12"
         inkscape:connector-curvature="0"
         style="fill:none;stroke:#000000;stroke-width:1" /><path
         id="path3518"
         d="m 600.539,262.71 v 9"
         inkscape:connector-curvature="0"
         style="fill:none;stroke:#000000;stroke-width:1" /><path
         id="path3522"
         d="m 670.094,262.96 v 19"
         inkscape:connector-curvature="0"
         style="fill:none;stroke:#000000;stroke-width:1.5" /><path
         id="path3524"
         d="m 660.242,262.71 v 9"
         inkscape:connector-curvature="0"
         style="fill:none;stroke:#000000;stroke-width:1" /><path
         id="path3526"
         d="m 650.391,262.71 v 12"
         inkscape:connector-curvature="0"
         style="fill:none;stroke:#000000;stroke-width:1" /><path
         id="path3528"
         d="m 640.539,262.71 v 9"
         inkscape:connector-curvature="0"
         style="fill:none;stroke:#000000;stroke-width:1" /><path
         id="path3532"
         d="m 710.094,262.96 v 19"
         inkscape:connector-curvature="0"
         style="fill:none;stroke:#000000;stroke-width:1.5" /><path
         id="path3534"
         d="m 700.242,262.71 v 9"
         inkscape:connector-curvature="0"
         style="fill:none;stroke:#000000;stroke-width:1" /><path
         id="path3536"
         d="m 690.391,262.71 v 12"
         inkscape:connector-curvature="0"
         style="fill:none;stroke:#000000;stroke-width:1" /><path
         id="path3538"
         d="m 680.539,262.71 v 9"
         inkscape:connector-curvature="0"
         style="fill:none;stroke:#000000;stroke-width:1" /><path
         id="path3542"
         d="m 750.094,262.96 v 19"
         inkscape:connector-curvature="0"
         style="fill:none;stroke:#000000;stroke-width:1.5" /><path
         id="path3544"
         d="m 740.242,262.71 v 9"
         inkscape:connector-curvature="0"
         style="fill:none;stroke:#000000;stroke-width:1" /><path
         id="path3546"
         d="m 730.391,262.71 v 12"
         inkscape:connector-curvature="0"
         style="fill:none;stroke:#000000;stroke-width:1" /><path
         id="path3548"
         d="m 720.539,262.71 v 9"
         inkscape:connector-curvature="0"
         style="fill:none;stroke:#000000;stroke-width:1" /><path
         id="path3558"
         d="m 760.539,262.71 v 9"
         inkscape:connector-curvature="0"
         style="fill:none;stroke:#000000;stroke-width:1" /></g><g
       enable-background="new    "
       id="g3495"><path
         d="m 5.492,265.188 0.527,-0.07 c 0.061,0.299 0.164,0.515 0.309,0.646 0.146,0.133 0.323,0.198 0.532,0.198 0.248,0 0.458,-0.086 0.628,-0.258 0.17,-0.172 0.256,-0.385 0.256,-0.639 0,-0.242 -0.079,-0.441 -0.237,-0.599 -0.158,-0.158 -0.359,-0.236 -0.604,-0.236 -0.1,0 -0.224,0.02 -0.372,0.059 l 0.059,-0.463 c 0.035,0.004 0.063,0.006 0.085,0.006 0.225,0 0.427,-0.059 0.606,-0.176 0.179,-0.117 0.27,-0.298 0.27,-0.542 0,-0.193 -0.065,-0.354 -0.196,-0.48 -0.131,-0.126 -0.3,-0.19 -0.507,-0.19 -0.205,0 -0.376,0.064 -0.513,0.193 -0.137,0.129 -0.225,0.322 -0.264,0.58 l -0.527,-0.094 c 0.064,-0.354 0.211,-0.627 0.439,-0.822 0.229,-0.193 0.513,-0.291 0.853,-0.291 0.234,0 0.45,0.051 0.647,0.15 0.197,0.102 0.348,0.238 0.453,0.412 0.105,0.174 0.157,0.358 0.157,0.554 0,0.186 -0.05,0.354 -0.149,0.507 -0.099,0.153 -0.247,0.273 -0.442,0.363 0.254,0.059 0.451,0.18 0.592,0.365 0.141,0.184 0.211,0.415 0.211,0.692 0,0.375 -0.137,0.692 -0.41,0.954 -0.273,0.26 -0.619,0.391 -1.037,0.391 -0.377,0 -0.69,-0.112 -0.939,-0.337 -0.249,-0.225 -0.392,-0.515 -0.427,-0.873 z"
         id="path3497"
         inkscape:connector-curvature="0" /><path
         d="m 8.905,265.329 0.507,-0.047 c 0.043,0.238 0.125,0.411 0.246,0.519 0.121,0.108 0.276,0.161 0.466,0.161 0.162,0 0.304,-0.037 0.426,-0.111 0.122,-0.074 0.222,-0.173 0.3,-0.298 0.078,-0.123 0.144,-0.291 0.196,-0.502 0.052,-0.211 0.079,-0.426 0.079,-0.645 0,-0.023 -10e-4,-0.059 -0.003,-0.105 -0.105,0.168 -0.25,0.305 -0.432,0.408 -0.183,0.105 -0.38,0.157 -0.593,0.157 -0.355,0 -0.656,-0.129 -0.902,-0.387 -0.246,-0.258 -0.369,-0.598 -0.369,-1.02 0,-0.436 0.128,-0.786 0.385,-1.052 0.257,-0.266 0.579,-0.398 0.965,-0.398 0.279,0 0.535,0.075 0.766,0.226 0.231,0.151 0.407,0.364 0.527,0.644 0.12,0.277 0.18,0.681 0.18,1.208 0,0.549 -0.06,0.985 -0.179,1.312 -0.119,0.324 -0.296,0.572 -0.532,0.742 -0.236,0.17 -0.511,0.255 -0.828,0.255 -0.336,0 -0.61,-0.093 -0.823,-0.28 -0.211,-0.186 -0.339,-0.449 -0.382,-0.787 z m 2.159,-1.896 c 0,-0.303 -0.081,-0.543 -0.242,-0.721 -0.161,-0.178 -0.355,-0.267 -0.582,-0.267 -0.234,0 -0.438,0.096 -0.612,0.287 -0.174,0.191 -0.261,0.439 -0.261,0.744 0,0.273 0.083,0.496 0.248,0.667 0.165,0.171 0.369,0.256 0.611,0.256 0.244,0 0.445,-0.085 0.602,-0.256 0.157,-0.171 0.236,-0.407 0.236,-0.71 z"
         id="path3499"
         inkscape:connector-curvature="0" /><path
         d="m 12.163,264.204 c 0,-0.508 0.052,-0.916 0.157,-1.226 0.105,-0.31 0.26,-0.549 0.466,-0.717 0.206,-0.168 0.465,-0.252 0.778,-0.252 0.23,0 0.433,0.047 0.606,0.139 0.174,0.094 0.317,0.228 0.431,0.402 0.114,0.174 0.202,0.388 0.267,0.639 0.065,0.251 0.097,0.589 0.097,1.015 0,0.504 -0.052,0.911 -0.155,1.22 -0.104,0.311 -0.258,0.55 -0.464,0.719 -0.206,0.169 -0.466,0.253 -0.781,0.253 -0.414,0 -0.739,-0.148 -0.976,-0.445 -0.284,-0.358 -0.426,-0.94 -0.426,-1.747 z m 0.542,0 c 0,0.705 0.083,1.175 0.248,1.407 0.165,0.234 0.369,0.351 0.611,0.351 0.242,0 0.446,-0.117 0.611,-0.352 0.165,-0.235 0.248,-0.703 0.248,-1.406 0,-0.707 -0.083,-1.177 -0.248,-1.409 -0.165,-0.232 -0.371,-0.349 -0.617,-0.349 -0.242,0 -0.436,0.103 -0.58,0.308 -0.182,0.261 -0.273,0.745 -0.273,1.45 z"
         id="path3501"
         inkscape:connector-curvature="0" /></g><g
       enable-background="new    "
       id="g3503"><path
         d="m 24.46,277.684 v -1.714 h -3.105 v -0.806 l 3.267,-4.639 h 0.718 v 4.639 h 0.967 v 0.806 H 25.34 v 1.714 h -0.88 z m 0,-2.519 v -3.228 l -2.241,3.228 h 2.241 z"
         id="path3505"
         inkscape:connector-curvature="0" /><path
         d="m 27.205,274.154 c 0,-0.847 0.087,-1.527 0.261,-2.044 0.174,-0.516 0.433,-0.913 0.776,-1.193 0.343,-0.28 0.775,-0.42 1.296,-0.42 0.384,0 0.721,0.077 1.011,0.232 0.29,0.154 0.529,0.377 0.718,0.668 0.189,0.292 0.337,0.646 0.444,1.064 0.107,0.419 0.161,0.982 0.161,1.692 0,0.84 -0.086,1.518 -0.259,2.034 -0.172,0.516 -0.431,0.914 -0.774,1.195 -0.343,0.282 -0.777,0.423 -1.301,0.423 -0.69,0 -1.232,-0.247 -1.626,-0.742 -0.472,-0.594 -0.707,-1.564 -0.707,-2.909 z m 0.903,0 c 0,1.175 0.138,1.957 0.413,2.347 0.275,0.389 0.614,0.583 1.018,0.583 0.404,0 0.743,-0.195 1.018,-0.586 0.275,-0.391 0.413,-1.172 0.413,-2.344 0,-1.179 -0.138,-1.961 -0.413,-2.349 -0.275,-0.388 -0.618,-0.581 -1.028,-0.581 -0.404,0 -0.726,0.171 -0.967,0.513 -0.303,0.437 -0.454,1.242 -0.454,2.417 z"
         id="path3507"
         inkscape:connector-curvature="0" /><path
         d="m 32.766,274.154 c 0,-0.847 0.087,-1.527 0.261,-2.044 0.174,-0.516 0.433,-0.913 0.776,-1.193 0.343,-0.28 0.775,-0.42 1.296,-0.42 0.384,0 0.721,0.077 1.011,0.232 0.29,0.154 0.529,0.377 0.718,0.668 0.189,0.292 0.337,0.646 0.444,1.064 0.107,0.419 0.161,0.982 0.161,1.692 0,0.84 -0.086,1.518 -0.259,2.034 -0.172,0.516 -0.431,0.914 -0.774,1.195 -0.343,0.282 -0.777,0.423 -1.301,0.423 -0.69,0 -1.232,-0.247 -1.626,-0.742 -0.471,-0.594 -0.707,-1.564 -0.707,-2.909 z m 0.903,0 c 0,1.175 0.138,1.957 0.413,2.347 0.275,0.389 0.614,0.583 1.018,0.583 0.404,0 0.743,-0.195 1.018,-0.586 0.275,-0.391 0.413,-1.172 0.413,-2.344 0,-1.179 -0.138,-1.961 -0.413,-2.349 -0.275,-0.388 -0.618,-0.581 -1.028,-0.581 -0.404,0 -0.726,0.171 -0.967,0.513 -0.302,0.437 -0.454,1.242 -0.454,2.417 z"
         id="path3509"
         inkscape:connector-curvature="0" /></g><g
       enable-background="new    "
       id="g3511"><path
         d="m 222.232,275.809 0.923,-0.078 c 0.068,0.449 0.227,0.787 0.476,1.014 0.249,0.226 0.549,0.339 0.901,0.339 0.423,0 0.781,-0.159 1.074,-0.479 0.293,-0.32 0.439,-0.742 0.439,-1.27 0,-0.501 -0.141,-0.896 -0.422,-1.187 -0.281,-0.291 -0.65,-0.435 -1.106,-0.435 -0.283,0 -0.539,0.064 -0.767,0.192 -0.228,0.129 -0.407,0.296 -0.537,0.501 l -0.825,-0.107 0.693,-3.677 h 3.56 v 0.84 h -2.856 l -0.386,1.924 c 0.43,-0.3 0.88,-0.449 1.353,-0.449 0.625,0 1.152,0.217 1.582,0.649 0.43,0.432 0.645,0.989 0.645,1.67 0,0.647 -0.189,1.208 -0.566,1.68 -0.459,0.579 -1.085,0.869 -1.88,0.869 -0.651,0 -1.183,-0.183 -1.594,-0.547 -0.411,-0.364 -0.648,-0.846 -0.707,-1.449 z"
         id="path3513"
         inkscape:connector-curvature="0" /><path
         d="m 227.794,274.154 c 0,-0.847 0.087,-1.527 0.261,-2.044 0.174,-0.516 0.433,-0.913 0.776,-1.193 0.343,-0.28 0.775,-0.42 1.296,-0.42 0.384,0 0.721,0.077 1.011,0.232 0.29,0.154 0.529,0.377 0.718,0.668 0.189,0.292 0.337,0.646 0.444,1.064 0.107,0.419 0.161,0.982 0.161,1.692 0,0.84 -0.086,1.518 -0.259,2.034 -0.172,0.516 -0.431,0.914 -0.774,1.195 -0.343,0.282 -0.777,0.423 -1.301,0.423 -0.69,0 -1.232,-0.247 -1.626,-0.742 -0.471,-0.594 -0.707,-1.564 -0.707,-2.909 z m 0.903,0 c 0,1.175 0.138,1.957 0.413,2.347 0.275,0.389 0.614,0.583 1.018,0.583 0.404,0 0.743,-0.195 1.018,-0.586 0.275,-0.391 0.413,-1.172 0.413,-2.344 0,-1.179 -0.138,-1.961 -0.413,-2.349 -0.275,-0.388 -0.618,-0.581 -1.028,-0.581 -0.404,0 -0.726,0.171 -0.967,0.513 -0.302,0.437 -0.454,1.242 -0.454,2.417 z"
         id="path3515"
         inkscape:connector-curvature="0" /><path
         d="m 233.355,274.154 c 0,-0.847 0.087,-1.527 0.261,-2.044 0.174,-0.516 0.433,-0.913 0.776,-1.193 0.343,-0.28 0.775,-0.42 1.296,-0.42 0.384,0 0.721,0.077 1.011,0.232 0.29,0.154 0.529,0.377 0.718,0.668 0.189,0.292 0.337,0.646 0.444,1.064 0.107,0.419 0.161,0.982 0.161,1.692 0,0.84 -0.086,1.518 -0.259,2.034 -0.172,0.516 -0.431,0.914 -0.774,1.195 -0.343,0.282 -0.777,0.423 -1.301,0.423 -0.69,0 -1.232,-0.247 -1.626,-0.742 -0.471,-0.594 -0.707,-1.564 -0.707,-2.909 z m 0.904,0 c 0,1.175 0.138,1.957 0.413,2.347 0.275,0.389 0.614,0.583 1.018,0.583 0.404,0 0.743,-0.195 1.018,-0.586 0.275,-0.391 0.413,-1.172 0.413,-2.344 0,-1.179 -0.138,-1.961 -0.413,-2.349 -0.275,-0.388 -0.618,-0.581 -1.028,-0.581 -0.404,0 -0.726,0.171 -0.967,0.513 -0.303,0.437 -0.454,1.242 -0.454,2.417 z"
         id="path3517"
         inkscape:connector-curvature="0" /></g><g
       enable-background="new    "
       id="g3519"><path
         d="m 126.072,269.684 v -1.371 h -2.484 v -0.645 l 2.613,-3.711 h 0.574 v 3.711 h 0.773 v 0.645 h -0.773 v 1.371 h -0.703 z m 0,-2.015 v -2.582 l -1.793,2.582 h 1.793 z"
         id="path3521"
         inkscape:connector-curvature="0" /><path
         d="m 128.267,268.184 0.738,-0.063 c 0.055,0.359 0.182,0.63 0.381,0.811 0.199,0.181 0.439,0.271 0.721,0.271 0.338,0 0.625,-0.128 0.859,-0.383 0.234,-0.255 0.352,-0.594 0.352,-1.016 0,-0.401 -0.113,-0.718 -0.338,-0.949 -0.225,-0.231 -0.52,-0.348 -0.885,-0.348 -0.227,0 -0.431,0.052 -0.613,0.154 -0.182,0.102 -0.326,0.236 -0.43,0.4 l -0.66,-0.086 0.555,-2.941 h 2.848 v 0.672 h -2.285 l -0.309,1.539 c 0.344,-0.239 0.705,-0.359 1.082,-0.359 0.5,0 0.922,0.173 1.266,0.52 0.344,0.347 0.516,0.792 0.516,1.336 0,0.519 -0.151,0.966 -0.453,1.344 -0.367,0.464 -0.869,0.695 -1.504,0.695 -0.521,0 -0.946,-0.146 -1.275,-0.438 -0.329,-0.292 -0.519,-0.677 -0.566,-1.159 z"
         id="path3523"
         inkscape:connector-curvature="0" /><path
         d="m 132.716,266.86 c 0,-0.677 0.07,-1.222 0.209,-1.635 0.139,-0.413 0.346,-0.731 0.621,-0.955 0.275,-0.224 0.621,-0.336 1.037,-0.336 0.307,0 0.577,0.062 0.809,0.186 0.232,0.124 0.423,0.302 0.574,0.535 0.151,0.233 0.27,0.517 0.355,0.852 0.085,0.335 0.129,0.786 0.129,1.354 0,0.672 -0.069,1.214 -0.207,1.627 -0.138,0.413 -0.344,0.731 -0.619,0.957 -0.275,0.226 -0.622,0.338 -1.041,0.338 -0.552,0 -0.986,-0.198 -1.301,-0.594 -0.377,-0.477 -0.566,-1.254 -0.566,-2.329 z m 0.723,0 c 0,0.94 0.11,1.565 0.33,1.877 0.22,0.312 0.492,0.467 0.814,0.467 0.322,0 0.594,-0.156 0.814,-0.469 0.22,-0.313 0.33,-0.938 0.33,-1.875 0,-0.942 -0.11,-1.569 -0.33,-1.879 -0.22,-0.31 -0.494,-0.465 -0.822,-0.465 -0.323,0 -0.581,0.137 -0.773,0.41 -0.242,0.349 -0.363,0.994 -0.363,1.934 z"
         id="path3525"
         inkscape:connector-curvature="0" /></g><g
       enable-background="new    "
       id="g3527"><path
         d="m 426.793,272.279 -0.874,0.068 c -0.078,-0.345 -0.188,-0.596 -0.332,-0.752 -0.237,-0.251 -0.53,-0.376 -0.879,-0.376 -0.28,0 -0.526,0.078 -0.737,0.234 -0.277,0.202 -0.494,0.496 -0.654,0.884 -0.16,0.388 -0.242,0.939 -0.249,1.655 0.212,-0.322 0.47,-0.562 0.776,-0.718 0.306,-0.156 0.627,-0.234 0.962,-0.234 0.586,0 1.085,0.216 1.497,0.647 0.411,0.431 0.617,0.988 0.617,1.672 0,0.449 -0.097,0.867 -0.291,1.252 -0.193,0.387 -0.459,0.682 -0.798,0.887 -0.339,0.205 -0.723,0.308 -1.152,0.308 -0.732,0 -1.329,-0.27 -1.792,-0.808 -0.463,-0.539 -0.693,-1.427 -0.693,-2.664 0,-1.384 0.256,-2.39 0.767,-3.018 0.446,-0.547 1.046,-0.82 1.802,-0.82 0.563,0 1.024,0.158 1.385,0.474 0.358,0.316 0.573,0.752 0.645,1.309 z m -3.589,3.086 c 0,0.303 0.064,0.593 0.192,0.869 0.129,0.276 0.309,0.487 0.54,0.632 0.231,0.146 0.474,0.218 0.728,0.218 0.371,0 0.689,-0.149 0.957,-0.449 0.268,-0.3 0.4,-0.706 0.4,-1.221 0,-0.495 -0.132,-0.885 -0.396,-1.169 -0.264,-0.285 -0.596,-0.428 -0.996,-0.428 -0.397,0 -0.733,0.143 -1.011,0.428 -0.276,0.284 -0.414,0.658 -0.414,1.12 z"
         id="path3529"
         inkscape:connector-curvature="0" /><path
         d="m 427.794,274.154 c 0,-0.847 0.087,-1.527 0.261,-2.044 0.175,-0.516 0.434,-0.913 0.777,-1.193 0.343,-0.28 0.775,-0.42 1.296,-0.42 0.384,0 0.722,0.077 1.011,0.232 0.289,0.154 0.529,0.377 0.718,0.668 0.188,0.292 0.337,0.646 0.444,1.064 0.107,0.419 0.161,0.982 0.161,1.692 0,0.84 -0.087,1.518 -0.259,2.034 -0.172,0.516 -0.431,0.914 -0.773,1.195 -0.344,0.282 -0.777,0.423 -1.302,0.423 -0.69,0 -1.231,-0.247 -1.626,-0.742 -0.473,-0.594 -0.708,-1.564 -0.708,-2.909 z m 0.903,0 c 0,1.175 0.138,1.957 0.412,2.347 0.275,0.389 0.615,0.583 1.019,0.583 0.404,0 0.743,-0.195 1.019,-0.586 0.274,-0.391 0.412,-1.172 0.412,-2.344 0,-1.179 -0.138,-1.961 -0.412,-2.349 -0.275,-0.388 -0.618,-0.581 -1.028,-0.581 -0.403,0 -0.726,0.171 -0.967,0.513 -0.303,0.437 -0.455,1.242 -0.455,2.417 z"
         id="path3531"
         inkscape:connector-curvature="0" /><path
         d="m 433.355,274.154 c 0,-0.847 0.087,-1.527 0.262,-2.044 0.174,-0.516 0.433,-0.913 0.775,-1.193 0.344,-0.28 0.775,-0.42 1.297,-0.42 0.385,0 0.721,0.077 1.011,0.232 0.29,0.154 0.528,0.377 0.718,0.668 0.189,0.292 0.337,0.646 0.444,1.064 0.107,0.419 0.161,0.982 0.161,1.692 0,0.84 -0.086,1.518 -0.259,2.034 -0.173,0.516 -0.431,0.914 -0.774,1.195 -0.343,0.282 -0.777,0.423 -1.301,0.423 -0.689,0 -1.232,-0.247 -1.626,-0.742 -0.471,-0.594 -0.708,-1.564 -0.708,-2.909 z m 0.904,0 c 0,1.175 0.138,1.957 0.413,2.347 0.274,0.389 0.613,0.583 1.018,0.583 0.405,0 0.743,-0.195 1.018,-0.586 0.275,-0.391 0.413,-1.172 0.413,-2.344 0,-1.179 -0.138,-1.961 -0.413,-2.349 -0.274,-0.388 -0.617,-0.581 -1.027,-0.581 -0.404,0 -0.727,0.171 -0.967,0.513 -0.304,0.437 -0.455,1.242 -0.455,2.417 z"
         id="path3533"
         inkscape:connector-curvature="0" /></g><g
       enable-background="new    "
       id="g3535"><path
         d="m 323.818,268.184 0.738,-0.063 c 0.055,0.359 0.182,0.63 0.381,0.811 0.199,0.181 0.439,0.271 0.721,0.271 0.338,0 0.625,-0.128 0.859,-0.383 0.234,-0.255 0.352,-0.594 0.352,-1.016 0,-0.401 -0.113,-0.718 -0.338,-0.949 -0.225,-0.231 -0.52,-0.348 -0.885,-0.348 -0.227,0 -0.431,0.052 -0.613,0.154 -0.182,0.102 -0.326,0.236 -0.43,0.4 l -0.66,-0.086 0.555,-2.941 h 2.848 v 0.672 h -2.285 l -0.309,1.539 c 0.344,-0.239 0.705,-0.359 1.082,-0.359 0.5,0 0.922,0.173 1.266,0.52 0.344,0.347 0.516,0.792 0.516,1.336 0,0.519 -0.151,0.966 -0.453,1.344 -0.367,0.464 -0.869,0.695 -1.504,0.695 -0.521,0 -0.946,-0.146 -1.275,-0.438 -0.329,-0.292 -0.519,-0.677 -0.566,-1.159 z"
         id="path3537"
         inkscape:connector-curvature="0" /><path
         d="m 328.267,268.184 0.738,-0.063 c 0.055,0.359 0.182,0.63 0.381,0.811 0.199,0.181 0.439,0.271 0.721,0.271 0.338,0 0.625,-0.128 0.859,-0.383 0.234,-0.255 0.352,-0.594 0.352,-1.016 0,-0.401 -0.113,-0.718 -0.338,-0.949 -0.225,-0.231 -0.52,-0.348 -0.885,-0.348 -0.227,0 -0.431,0.052 -0.613,0.154 -0.182,0.102 -0.326,0.236 -0.43,0.4 l -0.66,-0.086 0.555,-2.941 h 2.848 v 0.672 h -2.285 l -0.309,1.539 c 0.344,-0.239 0.705,-0.359 1.082,-0.359 0.5,0 0.922,0.173 1.266,0.52 0.344,0.347 0.516,0.792 0.516,1.336 0,0.519 -0.151,0.966 -0.453,1.344 -0.367,0.464 -0.869,0.695 -1.504,0.695 -0.521,0 -0.946,-0.146 -1.275,-0.438 -0.329,-0.292 -0.519,-0.677 -0.566,-1.159 z"
         id="path3539"
         inkscape:connector-curvature="0" /><path
         d="m 332.716,266.86 c 0,-0.677 0.07,-1.222 0.209,-1.635 0.139,-0.413 0.346,-0.731 0.621,-0.955 0.275,-0.224 0.621,-0.336 1.037,-0.336 0.307,0 0.577,0.062 0.809,0.186 0.232,0.124 0.423,0.302 0.574,0.535 0.151,0.233 0.27,0.517 0.355,0.852 0.085,0.335 0.129,0.786 0.129,1.354 0,0.672 -0.069,1.214 -0.207,1.627 -0.138,0.413 -0.344,0.731 -0.619,0.957 -0.275,0.226 -0.622,0.338 -1.041,0.338 -0.552,0 -0.986,-0.198 -1.301,-0.594 -0.377,-0.477 -0.566,-1.254 -0.566,-2.329 z m 0.723,0 c 0,0.94 0.11,1.565 0.33,1.877 0.22,0.312 0.492,0.467 0.814,0.467 0.322,0 0.594,-0.156 0.814,-0.469 0.22,-0.313 0.33,-0.938 0.33,-1.875 0,-0.942 -0.11,-1.569 -0.33,-1.879 -0.22,-0.31 -0.494,-0.465 -0.822,-0.465 -0.323,0 -0.581,0.137 -0.773,0.41 -0.242,0.349 -0.363,0.994 -0.363,1.934 z"
         id="path3541"
         inkscape:connector-curvature="0" /></g><g
       enable-background="new    "
       id="g3543"><path
         d="m 622.291,271.464 v -0.845 h 4.634 v 0.684 c -0.456,0.485 -0.907,1.13 -1.354,1.934 -0.448,0.804 -0.794,1.631 -1.038,2.48 -0.176,0.599 -0.288,1.255 -0.337,1.968 h -0.903 c 0.01,-0.563 0.12,-1.243 0.332,-2.041 0.212,-0.798 0.515,-1.566 0.911,-2.307 0.395,-0.741 0.816,-1.365 1.262,-1.873 h -3.507 z"
         id="path3545"
         inkscape:connector-curvature="0" /><path
         d="m 627.794,274.154 c 0,-0.847 0.087,-1.527 0.261,-2.044 0.175,-0.516 0.434,-0.913 0.777,-1.193 0.343,-0.28 0.775,-0.42 1.296,-0.42 0.384,0 0.722,0.077 1.011,0.232 0.289,0.154 0.529,0.377 0.718,0.668 0.188,0.292 0.337,0.646 0.444,1.064 0.107,0.419 0.161,0.982 0.161,1.692 0,0.84 -0.087,1.518 -0.259,2.034 -0.172,0.516 -0.431,0.914 -0.773,1.195 -0.344,0.282 -0.777,0.423 -1.302,0.423 -0.69,0 -1.231,-0.247 -1.626,-0.742 -0.473,-0.594 -0.708,-1.564 -0.708,-2.909 z m 0.903,0 c 0,1.175 0.138,1.957 0.412,2.347 0.275,0.389 0.615,0.583 1.019,0.583 0.404,0 0.743,-0.195 1.019,-0.586 0.274,-0.391 0.412,-1.172 0.412,-2.344 0,-1.179 -0.138,-1.961 -0.412,-2.349 -0.275,-0.388 -0.618,-0.581 -1.028,-0.581 -0.403,0 -0.726,0.171 -0.967,0.513 -0.303,0.437 -0.455,1.242 -0.455,2.417 z"
         id="path3547"
         inkscape:connector-curvature="0" /><path
         d="m 633.355,274.154 c 0,-0.847 0.087,-1.527 0.262,-2.044 0.174,-0.516 0.433,-0.913 0.775,-1.193 0.344,-0.28 0.775,-0.42 1.297,-0.42 0.385,0 0.721,0.077 1.011,0.232 0.29,0.154 0.528,0.377 0.718,0.668 0.189,0.292 0.337,0.646 0.444,1.064 0.107,0.419 0.161,0.982 0.161,1.692 0,0.84 -0.086,1.518 -0.259,2.034 -0.173,0.516 -0.431,0.914 -0.774,1.195 -0.343,0.282 -0.777,0.423 -1.301,0.423 -0.689,0 -1.232,-0.247 -1.626,-0.742 -0.471,-0.594 -0.708,-1.564 -0.708,-2.909 z m 0.904,0 c 0,1.175 0.138,1.957 0.413,2.347 0.274,0.389 0.613,0.583 1.018,0.583 0.405,0 0.743,-0.195 1.018,-0.586 0.275,-0.391 0.413,-1.172 0.413,-2.344 0,-1.179 -0.138,-1.961 -0.413,-2.349 -0.274,-0.388 -0.617,-0.581 -1.027,-0.581 -0.404,0 -0.727,0.171 -0.967,0.513 -0.304,0.437 -0.455,1.242 -0.455,2.417 z"
         id="path3549"
         inkscape:connector-curvature="0" /></g><g
       enable-background="new    "
       id="g3551"><path
         d="m 527.467,265.36 -0.699,0.055 c -0.063,-0.276 -0.151,-0.477 -0.266,-0.602 -0.19,-0.2 -0.425,-0.301 -0.703,-0.301 -0.225,0 -0.421,0.063 -0.59,0.188 -0.222,0.161 -0.396,0.397 -0.523,0.707 -0.128,0.31 -0.194,0.751 -0.199,1.324 0.169,-0.258 0.376,-0.449 0.621,-0.574 0.244,-0.125 0.501,-0.188 0.77,-0.188 0.469,0 0.867,0.173 1.197,0.518 0.329,0.345 0.494,0.791 0.494,1.338 0,0.359 -0.078,0.693 -0.232,1.002 -0.155,0.309 -0.368,0.545 -0.639,0.709 -0.271,0.164 -0.578,0.246 -0.922,0.246 -0.586,0 -1.064,-0.216 -1.434,-0.646 -0.37,-0.431 -0.555,-1.142 -0.555,-2.131 0,-1.106 0.204,-1.911 0.613,-2.414 0.356,-0.438 0.837,-0.656 1.441,-0.656 0.45,0 0.819,0.126 1.107,0.379 0.288,0.252 0.461,0.601 0.519,1.046 z m -2.871,2.469 c 0,0.242 0.051,0.474 0.154,0.695 0.103,0.222 0.246,0.39 0.432,0.506 0.185,0.116 0.379,0.174 0.582,0.174 0.297,0 0.552,-0.12 0.766,-0.359 0.213,-0.239 0.32,-0.565 0.32,-0.977 0,-0.396 -0.105,-0.708 -0.316,-0.936 -0.211,-0.228 -0.477,-0.342 -0.797,-0.342 -0.318,0 -0.588,0.114 -0.809,0.342 -0.222,0.228 -0.332,0.527 -0.332,0.897 z"
         id="path3553"
         inkscape:connector-curvature="0" /><path
         d="m 528.268,268.184 0.738,-0.063 c 0.055,0.359 0.182,0.63 0.381,0.811 0.199,0.181 0.439,0.271 0.721,0.271 0.338,0 0.625,-0.128 0.859,-0.383 0.234,-0.255 0.352,-0.594 0.352,-1.016 0,-0.401 -0.113,-0.718 -0.338,-0.949 -0.226,-0.231 -0.521,-0.348 -0.885,-0.348 -0.227,0 -0.432,0.052 -0.613,0.154 -0.183,0.103 -0.326,0.236 -0.43,0.4 l -0.66,-0.086 0.555,-2.941 h 2.848 v 0.672 h -2.285 l -0.309,1.539 c 0.344,-0.239 0.704,-0.359 1.082,-0.359 0.5,0 0.922,0.173 1.266,0.52 0.344,0.347 0.516,0.792 0.516,1.336 0,0.519 -0.151,0.966 -0.453,1.344 -0.367,0.464 -0.869,0.695 -1.504,0.695 -0.521,0 -0.946,-0.146 -1.275,-0.438 -0.332,-0.29 -0.52,-0.677 -0.566,-1.159 z"
         id="path3555"
         inkscape:connector-curvature="0" /><path
         d="m 532.717,266.86 c 0,-0.677 0.069,-1.222 0.209,-1.635 0.139,-0.413 0.346,-0.731 0.621,-0.955 0.274,-0.224 0.62,-0.336 1.037,-0.336 0.307,0 0.576,0.062 0.809,0.186 0.231,0.124 0.423,0.302 0.574,0.535 0.15,0.233 0.27,0.517 0.355,0.852 0.085,0.335 0.129,0.786 0.129,1.354 0,0.672 -0.069,1.214 -0.207,1.627 -0.139,0.413 -0.345,0.731 -0.619,0.957 -0.275,0.226 -0.622,0.338 -1.041,0.338 -0.553,0 -0.986,-0.198 -1.301,-0.594 -0.378,-0.477 -0.566,-1.254 -0.566,-2.329 z m 0.722,0 c 0,0.94 0.109,1.565 0.33,1.877 0.22,0.312 0.491,0.467 0.814,0.467 0.322,0 0.594,-0.156 0.814,-0.469 0.22,-0.313 0.33,-0.938 0.33,-1.875 0,-0.942 -0.11,-1.569 -0.33,-1.879 -0.221,-0.31 -0.494,-0.465 -0.822,-0.465 -0.323,0 -0.581,0.137 -0.773,0.41 -0.242,0.349 -0.363,0.994 -0.363,1.934 z"
         id="path3557"
         inkscape:connector-curvature="0" /></g><g
       enable-background="new    "
       id="g3559"><path
         d="m 723.865,264.708 v -0.676 h 3.707 v 0.547 c -0.365,0.388 -0.727,0.903 -1.084,1.547 -0.358,0.644 -0.635,1.305 -0.83,1.984 -0.141,0.479 -0.23,1.004 -0.27,1.574 h -0.723 c 0.008,-0.45 0.096,-0.995 0.266,-1.633 0.169,-0.638 0.412,-1.253 0.729,-1.846 0.317,-0.593 0.652,-1.092 1.01,-1.498 h -2.805 z"
         id="path3561"
         inkscape:connector-curvature="0" /><path
         d="m 728.268,268.184 0.738,-0.063 c 0.055,0.359 0.182,0.63 0.381,0.811 0.199,0.181 0.439,0.271 0.721,0.271 0.338,0 0.625,-0.128 0.859,-0.383 0.234,-0.255 0.352,-0.594 0.352,-1.016 0,-0.401 -0.113,-0.718 -0.338,-0.949 -0.226,-0.231 -0.521,-0.348 -0.885,-0.348 -0.227,0 -0.432,0.052 -0.613,0.154 -0.183,0.103 -0.326,0.236 -0.43,0.4 l -0.66,-0.086 0.555,-2.941 h 2.848 v 0.672 h -2.285 l -0.309,1.539 c 0.344,-0.239 0.704,-0.359 1.082,-0.359 0.5,0 0.922,0.173 1.266,0.52 0.344,0.347 0.516,0.792 0.516,1.336 0,0.519 -0.151,0.966 -0.453,1.344 -0.367,0.464 -0.869,0.695 -1.504,0.695 -0.521,0 -0.946,-0.146 -1.275,-0.438 -0.332,-0.29 -0.52,-0.677 -0.566,-1.159 z"
         id="path3563"
         inkscape:connector-curvature="0" /><path
         d="m 732.717,266.86 c 0,-0.677 0.069,-1.222 0.209,-1.635 0.139,-0.413 0.346,-0.731 0.621,-0.955 0.274,-0.224 0.62,-0.336 1.037,-0.336 0.307,0 0.576,0.062 0.809,0.186 0.231,0.124 0.423,0.302 0.574,0.535 0.15,0.233 0.27,0.517 0.355,0.852 0.085,0.335 0.129,0.786 0.129,1.354 0,0.672 -0.069,1.214 -0.207,1.627 -0.139,0.413 -0.345,0.731 -0.619,0.957 -0.275,0.226 -0.622,0.338 -1.041,0.338 -0.553,0 -0.986,-0.198 -1.301,-0.594 -0.378,-0.477 -0.566,-1.254 -0.566,-2.329 z m 0.722,0 c 0,0.94 0.109,1.565 0.33,1.877 0.22,0.312 0.491,0.467 0.814,0.467 0.322,0 0.594,-0.156 0.814,-0.469 0.22,-0.313 0.33,-0.938 0.33,-1.875 0,-0.942 -0.11,-1.569 -0.33,-1.879 -0.221,-0.31 -0.494,-0.465 -0.822,-0.465 -0.323,0 -0.581,0.137 -0.773,0.41 -0.242,0.349 -0.363,0.994 -0.363,1.934 z"
         id="path3565"
         inkscape:connector-curvature="0" /></g><path
       id="path3759"
       d="m 16.025,243.362 v -128"
       inkscape:connector-curvature="0"
       style="fill:none;stroke:#000000;stroke-width:2" /><g
       enable-background="new    "
       id="g3568"><path
         d="M 9.563,109.396 V 96.512 h 1.705 v 6.39 l 6.398,-6.39 h 2.312 l -5.405,5.221 5.643,7.664 h -2.25 l -4.588,-6.521 -2.109,2.057 v 4.465 H 9.563 z"
         id="path3570"
         inkscape:connector-curvature="0" /></g><path
       id="path3772"
       d="m 24.025,243.362 v -128"
       inkscape:connector-curvature="0"
       style="fill:none;stroke:#000000;stroke-width:2" /><g
       enable-background="new    "
       id="g3573"><path
         d="M 21.189,109.396 V 96.512 h 1.705 v 5.291 h 6.697 v -5.291 h 1.705 v 12.885 h -1.705 v -6.073 h -6.697 v 6.073 h -1.705 z"
         id="path3575"
         inkscape:connector-curvature="0" /></g><path
       id="path3780"
       d="m 92.025,243.362 v -128"
       inkscape:connector-curvature="0"
       style="fill:none;stroke:#000000;stroke-width:2" /><g
       enable-background="new    "
       id="g3578"><path
         d="m 90.665,104.343 v -1.512 l 5.458,-0.009 v 4.781 c -0.838,0.668 -1.702,1.171 -2.593,1.508 -0.891,0.336 -1.805,0.505 -2.742,0.505 -1.266,0 -2.416,-0.271 -3.45,-0.813 -1.034,-0.541 -1.815,-1.325 -2.342,-2.351 -0.527,-1.026 -0.791,-2.171 -0.791,-3.437 0,-1.254 0.262,-2.424 0.787,-3.512 0.524,-1.086 1.279,-1.894 2.263,-2.421 0.984,-0.527 2.118,-0.791 3.401,-0.791 0.932,0 1.774,0.151 2.527,0.452 0.753,0.303 1.343,0.723 1.771,1.262 0.428,0.539 0.753,1.242 0.976,2.109 l -1.538,0.422 c -0.193,-0.656 -0.434,-1.172 -0.721,-1.547 -0.287,-0.375 -0.697,-0.675 -1.23,-0.9 -0.533,-0.225 -1.125,-0.339 -1.775,-0.339 -0.779,0 -1.453,0.118 -2.021,0.356 -0.568,0.236 -1.027,0.549 -1.375,0.936 -0.348,0.387 -0.62,0.812 -0.813,1.274 -0.328,0.797 -0.492,1.661 -0.492,2.593 0,1.148 0.198,2.109 0.593,2.883 0.395,0.774 0.971,1.348 1.727,1.723 0.756,0.375 1.559,0.563 2.408,0.563 0.738,0 1.459,-0.142 2.162,-0.426 0.703,-0.284 1.236,-0.588 1.6,-0.91 v -2.399 h -3.79 z"
         id="path3580"
         inkscape:connector-curvature="0" /></g><path
       id="path3788"
       d="m 202.025,243.362 v -128"
       inkscape:connector-curvature="0"
       style="fill:none;stroke:#000000;stroke-width:2" /><g
       enable-background="new    "
       id="g3583"><path
         d="M 197.037,109.396 V 96.512 h 8.692 v 1.521 h -6.987 v 3.99 h 6.047 v 1.521 h -6.047 v 5.854 h -1.705 z"
         id="path3585"
         inkscape:connector-curvature="0" /></g><path
       id="path3796"
       d="m 284.025,243.362 v -128"
       inkscape:connector-curvature="0"
       style="fill:none;stroke:#000000;stroke-width:2" /><g
       enable-background="new    "
       id="g3588"><path
         d="M 278.478,109.396 V 96.512 h 9.316 v 1.521 h -7.611 v 3.946 h 7.128 v 1.512 h -7.128 v 4.386 h 7.91 v 1.521 h -9.615 z"
         id="path3590"
         inkscape:connector-curvature="0" /></g><path
       id="path3804"
       d="m 406.025,243.362 v -128"
       inkscape:connector-curvature="0"
       style="fill:none;stroke:#000000;stroke-width:2" /><path
       id="path3812"
       d="m 410.025,243.362 v -128"
       inkscape:connector-curvature="0"
       style="fill:none;stroke:#000000;stroke-width:2" /><g
       enable-background="new    "
       id="g3594"><path
         d="M 403.137,106.557 V 93.673 h 4.438 c 1.002,0 1.767,0.062 2.294,0.185 0.738,0.17 1.368,0.478 1.89,0.923 0.68,0.574 1.188,1.309 1.524,2.201 0.338,0.895 0.506,1.915 0.506,3.063 0,0.979 -0.114,1.846 -0.343,2.602 -0.229,0.756 -0.521,1.382 -0.879,1.876 -0.357,0.496 -0.749,0.886 -1.173,1.17 -0.426,0.284 -0.938,0.499 -1.539,0.646 -0.6,0.146 -1.29,0.22 -2.069,0.22 h -4.649 z m 1.705,-1.52 h 2.751 c 0.85,0 1.517,-0.079 1.999,-0.237 0.484,-0.158 0.869,-0.381 1.156,-0.668 0.404,-0.404 0.719,-0.947 0.945,-1.631 0.225,-0.682 0.338,-1.51 0.338,-2.482 0,-1.348 -0.221,-2.383 -0.664,-3.107 -0.441,-0.723 -0.979,-1.208 -1.612,-1.454 -0.457,-0.176 -1.192,-0.264 -2.206,-0.264 h -2.707 v 9.843 z"
         id="path3596"
         inkscape:connector-curvature="0" /></g><path
       id="path3820"
       d="m 544.025,243.362 v -128"
       inkscape:connector-curvature="0"
       style="fill:none;stroke:#000000;stroke-width:2" /><g
       enable-background="new    "
       id="g3599"><path
         d="m 547.95,104.879 1.705,0.431 c -0.357,1.4 -1.001,2.469 -1.929,3.204 -0.93,0.735 -2.064,1.103 -3.406,1.103 -1.389,0 -2.518,-0.282 -3.389,-0.849 -0.869,-0.564 -1.531,-1.384 -1.986,-2.456 -0.453,-1.072 -0.681,-2.224 -0.681,-3.454 0,-1.342 0.257,-2.512 0.769,-3.512 0.514,-0.998 1.242,-1.758 2.189,-2.275 0.945,-0.52 1.987,-0.778 3.124,-0.778 1.289,0 2.373,0.328 3.252,0.984 0.879,0.656 1.491,1.579 1.837,2.769 l -1.679,0.396 c -0.299,-0.938 -0.732,-1.62 -1.301,-2.048 -0.569,-0.428 -1.283,-0.642 -2.145,-0.642 -0.99,0 -1.817,0.237 -2.483,0.712 -0.664,0.475 -1.132,1.111 -1.401,1.912 -0.27,0.799 -0.404,1.624 -0.404,2.474 0,1.096 0.159,2.052 0.479,2.87 0.318,0.816 0.815,1.428 1.489,1.832 0.674,0.404 1.403,0.606 2.188,0.606 0.955,0 1.764,-0.275 2.426,-0.826 0.662,-0.551 1.112,-1.369 1.346,-2.453 z"
         id="path3601"
         inkscape:connector-curvature="0" /></g><path
       id="path3828"
       d="m 604.025,243.362 v -128"
       inkscape:connector-curvature="0"
       style="fill:none;stroke:#000000;stroke-width:2" /><g
       enable-background="new    "
       id="g3604"><path
         d="M 598.373,109.396 V 96.512 h 4.834 c 0.984,0 1.773,0.131 2.369,0.391 0.594,0.262 1.061,0.663 1.396,1.205 0.338,0.542 0.506,1.108 0.506,1.7 0,0.551 -0.149,1.069 -0.448,1.556 -0.299,0.487 -0.75,0.879 -1.354,1.178 0.779,0.229 1.378,0.618 1.798,1.169 0.418,0.551 0.628,1.201 0.628,1.951 0,0.604 -0.128,1.165 -0.382,1.683 -0.256,0.52 -0.57,0.919 -0.945,1.2 -0.375,0.281 -0.846,0.494 -1.41,0.638 -0.566,0.144 -1.259,0.215 -2.079,0.215 h -4.913 z m 1.705,-7.47 h 2.786 c 0.756,0 1.298,-0.05 1.626,-0.149 0.434,-0.129 0.76,-0.343 0.98,-0.642 0.219,-0.299 0.329,-0.674 0.329,-1.125 0,-0.428 -0.103,-0.805 -0.308,-1.129 -0.205,-0.326 -0.498,-0.548 -0.879,-0.668 -0.381,-0.12 -1.034,-0.181 -1.96,-0.181 h -2.575 v 3.894 z m 0,5.95 h 3.208 c 0.551,0 0.938,-0.021 1.16,-0.062 0.393,-0.07 0.721,-0.188 0.984,-0.352 0.263,-0.164 0.48,-0.402 0.65,-0.717 0.17,-0.313 0.255,-0.675 0.255,-1.085 0,-0.48 -0.123,-0.897 -0.369,-1.253 -0.246,-0.354 -0.588,-0.603 -1.023,-0.746 -0.438,-0.144 -1.065,-0.216 -1.886,-0.216 h -2.979 v 4.431 z"
         id="path3606"
         inkscape:connector-curvature="0" /></g><path
       id="path3836"
       d="m 750.025,243.362 v -128"
       inkscape:connector-curvature="0"
       style="fill:none;stroke:#000000;stroke-width:2" /><g
       enable-background="new    "
       id="g3609"><path
         d="m 743.028,109.396 4.948,-12.885 h 1.837 l 5.273,12.885 h -1.942 l -1.503,-3.902 h -5.388 l -1.415,3.902 h -1.81 z m 3.718,-5.291 h 4.368 l -1.345,-3.568 c -0.41,-1.084 -0.715,-1.975 -0.914,-2.672 -0.164,0.826 -0.396,1.646 -0.694,2.461 l -1.415,3.779 z"
         id="path3611"
         inkscape:connector-curvature="0" /></g><g
       enable-background="new    "
       id="g3613"><path
         d="m 313.339,298.711 -2.856,-9.334 h 1.635 l 1.485,5.388 0.554,2.004 c 0.023,-0.1 0.185,-0.741 0.483,-1.925 l 1.485,-5.467 h 1.626 l 1.397,5.414 0.466,1.784 0.536,-1.802 1.6,-5.396 h 1.538 l -2.918,9.334 h -1.644 l -1.485,-5.59 -0.36,-1.591 -1.89,7.181 h -1.652 z"
         id="path3615"
         inkscape:connector-curvature="0" /><path
         d="m 330.706,297.559 c -0.586,0.498 -1.15,0.85 -1.692,1.055 -0.542,0.205 -1.124,0.308 -1.745,0.308 -1.025,0 -1.813,-0.25 -2.364,-0.752 -0.551,-0.5 -0.826,-1.141 -0.826,-1.92 0,-0.457 0.104,-0.875 0.312,-1.252 0.208,-0.379 0.48,-0.682 0.817,-0.91 0.337,-0.228 0.716,-0.401 1.138,-0.519 0.311,-0.082 0.779,-0.161 1.406,-0.237 1.277,-0.152 2.218,-0.334 2.821,-0.545 0.006,-0.217 0.009,-0.354 0.009,-0.413 0,-0.645 -0.149,-1.099 -0.448,-1.362 -0.404,-0.357 -1.005,-0.536 -1.802,-0.536 -0.744,0 -1.293,0.131 -1.648,0.392 -0.355,0.261 -0.617,0.722 -0.787,1.384 l -1.547,-0.211 c 0.141,-0.662 0.372,-1.196 0.694,-1.604 0.322,-0.406 0.788,-0.721 1.397,-0.939 0.609,-0.221 1.315,-0.33 2.118,-0.33 0.797,0 1.444,0.094 1.942,0.281 0.498,0.187 0.864,0.424 1.099,0.707 0.234,0.285 0.398,0.644 0.492,1.077 0.053,0.27 0.079,0.756 0.079,1.459 v 2.109 c 0,1.471 0.034,2.401 0.101,2.79 0.067,0.391 0.201,0.764 0.4,1.121 h -1.652 c -0.161,-0.329 -0.267,-0.713 -0.314,-1.153 z m -0.131,-3.533 c -0.574,0.234 -1.436,0.434 -2.584,0.598 -0.65,0.094 -1.11,0.199 -1.38,0.316 -0.27,0.117 -0.478,0.289 -0.624,0.515 -0.146,0.226 -0.22,0.476 -0.22,0.751 0,0.422 0.16,0.773 0.479,1.055 0.319,0.282 0.787,0.422 1.402,0.422 0.609,0 1.151,-0.133 1.626,-0.399 0.475,-0.266 0.823,-0.632 1.046,-1.095 0.17,-0.357 0.255,-0.885 0.255,-1.582 v -0.581 z"
         id="path3617"
         inkscape:connector-curvature="0" /><path
         d="m 337.219,298.711 -3.551,-9.334 h 1.67 l 2.004,5.59 c 0.217,0.604 0.416,1.23 0.598,1.881 0.141,-0.492 0.337,-1.084 0.589,-1.775 l 2.074,-5.695 h 1.626 l -3.533,9.334 h -1.477 z"
         id="path3619"
         inkscape:connector-curvature="0" /><path
         d="m 350.016,295.705 1.635,0.202 c -0.258,0.955 -0.735,1.696 -1.433,2.224 -0.698,0.528 -1.588,0.791 -2.672,0.791 -1.365,0 -2.448,-0.42 -3.248,-1.262 -0.8,-0.84 -1.2,-2.02 -1.2,-3.537 0,-1.57 0.404,-2.789 1.213,-3.656 0.809,-0.867 1.857,-1.301 3.146,-1.301 1.248,0 2.268,0.425 3.059,1.274 0.791,0.849 1.187,2.045 1.187,3.586 0,0.094 -0.003,0.234 -0.009,0.422 h -6.961 c 0.059,1.025 0.349,1.811 0.87,2.355 0.521,0.544 1.172,0.817 1.951,0.817 0.58,0 1.075,-0.152 1.485,-0.457 0.41,-0.305 0.737,-0.79 0.977,-1.458 z m -5.194,-2.558 h 5.212 c -0.07,-0.785 -0.27,-1.374 -0.598,-1.767 -0.504,-0.609 -1.157,-0.914 -1.96,-0.914 -0.727,0 -1.337,0.243 -1.833,0.729 -0.496,0.486 -0.769,1.138 -0.821,1.952 z"
         id="path3621"
         inkscape:connector-curvature="0" /><path
         d="m 353.602,298.711 v -12.885 h 1.582 v 12.885 h -1.582 z"
         id="path3623"
         inkscape:connector-curvature="0" /><path
         d="m 364.026,295.705 1.635,0.202 c -0.258,0.955 -0.735,1.696 -1.433,2.224 -0.698,0.528 -1.588,0.791 -2.672,0.791 -1.365,0 -2.448,-0.42 -3.248,-1.262 -0.8,-0.84 -1.2,-2.02 -1.2,-3.537 0,-1.57 0.404,-2.789 1.213,-3.656 0.809,-0.867 1.857,-1.301 3.146,-1.301 1.248,0 2.268,0.425 3.059,1.274 0.791,0.849 1.187,2.045 1.187,3.586 0,0.094 -0.003,0.234 -0.009,0.422 h -6.961 c 0.059,1.025 0.349,1.811 0.87,2.355 0.521,0.544 1.172,0.817 1.951,0.817 0.58,0 1.075,-0.152 1.485,-0.457 0.41,-0.305 0.737,-0.79 0.977,-1.458 z m -5.195,-2.558 h 5.212 c -0.07,-0.785 -0.27,-1.374 -0.598,-1.767 -0.504,-0.609 -1.157,-0.914 -1.96,-0.914 -0.727,0 -1.337,0.243 -1.833,0.729 -0.496,0.486 -0.768,1.138 -0.821,1.952 z"
         id="path3625"
         inkscape:connector-curvature="0" /><path
         d="m 367.647,298.711 v -9.334 h 1.424 v 1.327 c 0.686,-1.025 1.676,-1.538 2.971,-1.538 0.563,0 1.08,0.102 1.551,0.303 0.472,0.203 0.825,0.468 1.059,0.796 0.234,0.328 0.398,0.718 0.492,1.169 0.059,0.293 0.088,0.806 0.088,1.538 v 5.739 h -1.582 v -5.678 c 0,-0.645 -0.062,-1.126 -0.185,-1.445 -0.123,-0.319 -0.341,-0.574 -0.655,-0.766 -0.313,-0.189 -0.681,-0.285 -1.103,-0.285 -0.674,0 -1.255,0.214 -1.745,0.642 -0.49,0.428 -0.734,1.239 -0.734,2.435 v 5.098 h -1.581 z"
         id="path3627"
         inkscape:connector-curvature="0" /><path
         d="m 377.368,299.484 1.538,0.229 c 0.064,0.475 0.243,0.82 0.536,1.037 0.393,0.293 0.929,0.439 1.609,0.439 0.732,0 1.297,-0.146 1.695,-0.439 0.398,-0.293 0.668,-0.703 0.809,-1.23 0.082,-0.322 0.121,-0.999 0.115,-2.03 -0.691,0.814 -1.553,1.222 -2.584,1.222 -1.284,0 -2.277,-0.463 -2.98,-1.389 -0.703,-0.926 -1.055,-2.036 -1.055,-3.331 0,-0.891 0.161,-1.712 0.483,-2.466 0.322,-0.752 0.79,-1.334 1.402,-1.744 0.612,-0.41 1.332,-0.615 2.157,-0.615 1.102,0 2.01,0.445 2.725,1.336 v -1.125 h 1.459 v 8.068 c 0,1.453 -0.147,2.482 -0.443,3.09 -0.296,0.605 -0.765,1.085 -1.406,1.437 -0.641,0.352 -1.432,0.527 -2.369,0.527 -1.113,0 -2.012,-0.251 -2.698,-0.751 -0.686,-0.503 -1.017,-1.257 -0.993,-2.265 z m 1.309,-5.607 c 0,1.225 0.243,2.118 0.729,2.681 0.486,0.563 1.095,0.844 1.828,0.844 0.727,0 1.336,-0.279 1.828,-0.839 0.492,-0.56 0.738,-1.438 0.738,-2.633 0,-1.143 -0.253,-2.004 -0.76,-2.584 -0.507,-0.58 -1.117,-0.87 -1.832,-0.87 -0.703,0 -1.301,0.286 -1.793,0.856 -0.492,0.572 -0.738,1.42 -0.738,2.545 z"
         id="path3629"
         inkscape:connector-curvature="0" /><path
         d="m 391.123,297.296 0.229,1.397 c -0.445,0.094 -0.844,0.141 -1.195,0.141 -0.574,0 -1.02,-0.091 -1.336,-0.272 -0.316,-0.181 -0.539,-0.42 -0.668,-0.716 -0.129,-0.296 -0.193,-0.919 -0.193,-1.868 v -5.37 h -1.16 v -1.23 h 1.16 v -2.312 l 1.572,-0.949 v 3.261 h 1.592 v 1.23 h -1.592 v 5.458 c 0,0.451 0.028,0.741 0.084,0.87 0.056,0.129 0.146,0.231 0.272,0.308 0.126,0.077 0.306,0.114 0.54,0.114 0.175,-10e-4 0.408,-0.021 0.695,-0.062 z"
         id="path3631"
         inkscape:connector-curvature="0" /><path
         d="m 392.67,298.711 v -12.885 h 1.582 v 4.623 c 0.738,-0.855 1.67,-1.283 2.795,-1.283 0.691,0 1.291,0.137 1.801,0.408 0.51,0.273 0.875,0.649 1.095,1.13 0.22,0.481 0.329,1.178 0.329,2.092 v 5.915 h -1.582 v -5.915 c 0,-0.791 -0.171,-1.366 -0.514,-1.728 -0.343,-0.359 -0.828,-0.54 -1.455,-0.54 -0.469,0 -0.909,0.122 -1.322,0.364 -0.413,0.244 -0.707,0.573 -0.883,0.989 -0.176,0.416 -0.264,0.99 -0.264,1.723 v 5.106 h -1.582 z"
         id="path3633"
         inkscape:connector-curvature="0" /><path
         d="m 407.689,287.645 v -1.819 h 1.582 v 1.819 h -1.582 z m 0,11.066 v -9.334 h 1.582 v 9.334 h -1.582 z"
         id="path3635"
         inkscape:connector-curvature="0" /><path
         d="m 411.68,298.711 v -9.334 h 1.424 v 1.327 c 0.686,-1.025 1.676,-1.538 2.971,-1.538 0.563,0 1.08,0.102 1.552,0.303 0.472,0.203 0.825,0.468 1.06,0.796 0.235,0.328 0.398,0.718 0.492,1.169 0.059,0.293 0.088,0.806 0.088,1.538 v 5.739 h -1.582 v -5.678 c 0,-0.645 -0.063,-1.126 -0.186,-1.445 -0.123,-0.319 -0.341,-0.574 -0.654,-0.766 -0.313,-0.189 -0.682,-0.285 -1.104,-0.285 -0.674,0 -1.255,0.214 -1.744,0.642 -0.489,0.428 -0.734,1.239 -0.734,2.435 v 5.098 h -1.583 z"
         id="path3637"
         inkscape:connector-curvature="0" /><path
         d="m 426.691,298.711 v -9.334 h 1.424 v 1.327 c 0.686,-1.025 1.676,-1.538 2.971,-1.538 0.563,0 1.08,0.102 1.552,0.303 0.472,0.203 0.825,0.468 1.06,0.796 0.235,0.328 0.398,0.718 0.492,1.169 0.059,0.293 0.088,0.806 0.088,1.538 v 5.739 h -1.582 v -5.678 c 0,-0.645 -0.063,-1.126 -0.186,-1.445 -0.123,-0.319 -0.341,-0.574 -0.654,-0.766 -0.313,-0.189 -0.682,-0.285 -1.104,-0.285 -0.674,0 -1.255,0.214 -1.744,0.642 -0.489,0.428 -0.734,1.239 -0.734,2.435 v 5.098 h -1.583 z"
         id="path3639"
         inkscape:connector-curvature="0" /><path
         d="m 436.703,298.711 v -9.334 h 1.414 v 1.31 c 0.293,-0.457 0.684,-0.824 1.17,-1.103 0.486,-0.279 1.039,-0.418 1.66,-0.418 0.691,0 1.259,0.144 1.701,0.431 0.442,0.287 0.754,0.688 0.936,1.204 0.738,-1.09 1.699,-1.635 2.883,-1.635 0.926,0 1.639,0.257 2.137,0.77 0.498,0.513 0.746,1.302 0.746,2.368 v 6.407 h -1.572 v -5.88 c 0,-0.633 -0.052,-1.088 -0.154,-1.366 -0.102,-0.278 -0.289,-0.503 -0.559,-0.673 -0.27,-0.17 -0.586,-0.255 -0.949,-0.255 -0.656,0 -1.201,0.219 -1.635,0.654 -0.434,0.438 -0.65,1.136 -0.65,2.097 v 5.423 h -1.582 v -6.064 c 0,-0.703 -0.129,-1.23 -0.387,-1.582 -0.258,-0.352 -0.68,-0.527 -1.266,-0.527 -0.445,0 -0.856,0.117 -1.234,0.352 -0.378,0.235 -0.652,0.577 -0.822,1.028 -0.17,0.451 -0.254,1.102 -0.254,1.951 v 4.843 h -1.583 z"
         id="path3641"
         inkscape:connector-curvature="0" /></g><path
       id="path3916"
       d="M 6.025,243.987 V 119.715"
       inkscape:connector-curvature="0"
       style="fill:none;stroke:#000000;stroke-width:0.75" /><path
       id="path3918"
       d="M 51.116,243.987 V 119.715"
       inkscape:connector-curvature="0"
       style="fill:none;stroke:#000000;stroke-width:0.75" /><g
       enable-background="new    "
       id="g3645"><path
         d="m 48.896,116.628 v -7.158 h 0.879 v 2.568 c 0.41,-0.476 0.928,-0.713 1.553,-0.713 0.384,0 0.718,0.076 1.001,0.227 0.283,0.152 0.486,0.361 0.608,0.628 0.122,0.267 0.183,0.654 0.183,1.162 v 3.286 h -0.879 v -3.286 c 0,-0.439 -0.095,-0.759 -0.286,-0.96 -0.19,-0.199 -0.46,-0.3 -0.808,-0.3 -0.26,0 -0.505,0.067 -0.735,0.202 -0.229,0.136 -0.393,0.318 -0.491,0.55 -0.098,0.232 -0.146,0.55 -0.146,0.957 v 2.837 h -0.879 z"
         id="path3647"
         inkscape:connector-curvature="0" /></g><path
       id="path3924"
       d="M 73.116,243.987 V 119.715"
       inkscape:connector-curvature="0"
       style="fill:none;stroke:#000000;stroke-width:0.75" /><g
       enable-background="new    "
       id="g3650"><path
         d="m 70.735,117.057 0.854,0.127 c 0.036,0.264 0.135,0.456 0.298,0.576 0.218,0.163 0.516,0.244 0.894,0.244 0.407,0 0.721,-0.081 0.942,-0.244 0.221,-0.163 0.371,-0.391 0.449,-0.684 0.045,-0.179 0.067,-0.555 0.063,-1.128 -0.384,0.452 -0.863,0.679 -1.436,0.679 -0.713,0 -1.265,-0.257 -1.655,-0.771 -0.39,-0.514 -0.586,-1.131 -0.586,-1.851 0,-0.495 0.089,-0.951 0.269,-1.37 0.179,-0.418 0.438,-0.741 0.779,-0.969 0.341,-0.228 0.74,-0.342 1.199,-0.342 0.612,0 1.117,0.247 1.514,0.742 v -0.625 h 0.811 v 4.482 c 0,0.808 -0.082,1.379 -0.247,1.717 -0.165,0.336 -0.425,0.603 -0.781,0.798 -0.356,0.195 -0.795,0.293 -1.316,0.293 -0.619,0 -1.118,-0.14 -1.499,-0.417 -0.381,-0.278 -0.565,-0.697 -0.552,-1.257 z m 0.728,-3.115 c 0,0.681 0.135,1.177 0.405,1.489 0.27,0.312 0.609,0.469 1.016,0.469 0.404,0 0.742,-0.155 1.016,-0.466 0.273,-0.312 0.41,-0.799 0.41,-1.463 0,-0.635 -0.141,-1.113 -0.422,-1.436 -0.281,-0.323 -0.621,-0.483 -1.018,-0.483 -0.391,0 -0.723,0.159 -0.996,0.476 -0.274,0.318 -0.411,0.789 -0.411,1.414 z"
         id="path3652"
         inkscape:connector-curvature="0" /></g><path
       id="path3930"
       d="M 98.479,243.987 V 119.715"
       inkscape:connector-curvature="0"
       style="fill:none;stroke:#000000;stroke-width:0.75" /><g
       enable-background="new    "
       id="g3655"><path
         d="m 97.862,116.628 v -4.502 h -0.776 v -0.684 h 0.776 v -0.552 c 0,-0.349 0.031,-0.607 0.093,-0.776 0.084,-0.228 0.233,-0.412 0.447,-0.555 0.213,-0.141 0.512,-0.212 0.896,-0.212 0.248,0 0.521,0.029 0.82,0.088 l -0.132,0.767 c -0.182,-0.032 -0.355,-0.049 -0.518,-0.049 -0.267,0 -0.456,0.057 -0.566,0.171 -0.11,0.114 -0.166,0.327 -0.166,0.64 v 0.479 h 1.011 v 0.684 h -1.011 v 4.502 h -0.874 z"
         id="path3657"
         inkscape:connector-curvature="0" /></g><path
       id="path3936"
       d="M 106.935,243.987 V 119.715"
       inkscape:connector-curvature="0"
       style="fill:none;stroke:#000000;stroke-width:0.75" /><g
       enable-background="new    "
       id="g3660"><path
         d="m 108.265,114.958 0.908,0.112 c -0.143,0.53 -0.409,0.942 -0.796,1.235 -0.387,0.293 -0.882,0.439 -1.484,0.439 -0.758,0 -1.36,-0.233 -1.804,-0.701 -0.444,-0.467 -0.667,-1.122 -0.667,-1.965 0,-0.872 0.225,-1.55 0.674,-2.031 0.449,-0.481 1.032,-0.723 1.748,-0.723 0.693,0 1.26,0.236 1.699,0.708 0.439,0.472 0.659,1.136 0.659,1.992 0,0.052 -0.001,0.13 -0.005,0.234 h -3.867 c 0.033,0.569 0.194,1.006 0.483,1.309 0.289,0.303 0.651,0.454 1.084,0.454 0.322,0 0.597,-0.085 0.825,-0.254 0.228,-0.169 0.41,-0.438 0.543,-0.809 z m -2.886,-1.421 h 2.896 c -0.039,-0.437 -0.15,-0.764 -0.332,-0.981 -0.28,-0.339 -0.643,-0.508 -1.089,-0.508 -0.404,0 -0.743,0.135 -1.018,0.405 -0.275,0.27 -0.427,0.632 -0.457,1.084 z"
         id="path3662"
         inkscape:connector-curvature="0" /></g><path
       id="path3942"
       d="M 162.479,243.987 V 119.715"
       inkscape:connector-curvature="0"
       style="fill:none;stroke:#000000;stroke-width:0.75" /><g
       enable-background="new    "
       id="g3665"><path
         d="m 163.625,116.628 v -0.654 c -0.329,0.515 -0.812,0.771 -1.45,0.771 -0.414,0 -0.793,-0.114 -1.14,-0.342 -0.347,-0.228 -0.615,-0.546 -0.806,-0.955 -0.19,-0.408 -0.286,-0.878 -0.286,-1.408 0,-0.518 0.086,-0.987 0.259,-1.408 0.172,-0.422 0.431,-0.745 0.776,-0.97 0.345,-0.225 0.731,-0.337 1.157,-0.337 0.313,0 0.591,0.066 0.835,0.197 0.244,0.133 0.443,0.304 0.596,0.516 v -2.568 h 0.874 v 7.158 h -0.815 z m -2.778,-2.588 c 0,0.664 0.14,1.16 0.42,1.489 0.28,0.329 0.61,0.493 0.991,0.493 0.384,0 0.71,-0.157 0.979,-0.471 0.269,-0.314 0.403,-0.794 0.403,-1.438 0,-0.71 -0.137,-1.23 -0.41,-1.563 -0.273,-0.333 -0.61,-0.498 -1.011,-0.498 -0.391,0 -0.717,0.159 -0.979,0.479 -0.262,0.32 -0.393,0.822 -0.393,1.509 z"
         id="path3667"
         inkscape:connector-curvature="0" /></g><path
       id="path3948"
       d="M 182.479,243.987 V 119.715"
       inkscape:connector-curvature="0"
       style="fill:none;stroke:#000000;stroke-width:0.75" /><g
       enable-background="new    "
       id="g3670"><path
         d="m 180.261,116.628 v -7.158 h 0.879 v 2.568 c 0.41,-0.476 0.928,-0.713 1.553,-0.713 0.384,0 0.718,0.076 1.001,0.227 0.283,0.152 0.486,0.361 0.608,0.628 0.122,0.267 0.183,0.654 0.183,1.162 v 3.286 h -0.879 v -3.286 c 0,-0.439 -0.095,-0.759 -0.286,-0.96 -0.19,-0.199 -0.46,-0.3 -0.808,-0.3 -0.26,0 -0.505,0.067 -0.735,0.202 -0.229,0.136 -0.393,0.318 -0.491,0.55 -0.098,0.232 -0.146,0.55 -0.146,0.957 v 2.837 h -0.879 z"
         id="path3672"
         inkscape:connector-curvature="0" /></g><path
       id="path3954"
       d="M 221.162,243.987 V 119.715"
       inkscape:connector-curvature="0"
       style="fill:none;stroke:#000000;stroke-width:0.75" /><g
       enable-background="new    "
       id="g3675"><path
         d="m 222.607,114.728 0.864,0.112 c -0.094,0.596 -0.336,1.063 -0.725,1.398 -0.389,0.338 -0.867,0.506 -1.433,0.506 -0.709,0 -1.28,-0.232 -1.711,-0.695 -0.431,-0.465 -0.647,-1.129 -0.647,-1.995 0,-0.56 0.093,-1.05 0.278,-1.47 0.185,-0.42 0.468,-0.734 0.847,-0.945 0.379,-0.209 0.792,-0.314 1.238,-0.314 0.563,0 1.024,0.143 1.382,0.428 0.358,0.284 0.587,0.688 0.688,1.213 l -0.854,0.132 c -0.082,-0.349 -0.226,-0.61 -0.432,-0.786 -0.206,-0.176 -0.457,-0.264 -0.75,-0.264 -0.443,0 -0.802,0.158 -1.079,0.477 -0.277,0.316 -0.415,0.819 -0.415,1.506 0,0.696 0.133,1.203 0.4,1.519 0.267,0.316 0.615,0.474 1.045,0.474 0.345,0 0.633,-0.105 0.864,-0.317 0.231,-0.212 0.378,-0.539 0.44,-0.979 z"
         id="path3677"
         inkscape:connector-curvature="0" /></g><path
       id="path3960"
       d="M 246.071,243.987 V 119.715"
       inkscape:connector-curvature="0"
       style="fill:none;stroke:#000000;stroke-width:0.75" /><g
       enable-background="new    "
       id="g3680"><path
         d="m 243.852,116.628 v -7.158 h 0.879 v 2.568 c 0.41,-0.476 0.928,-0.713 1.553,-0.713 0.384,0 0.718,0.076 1.001,0.227 0.283,0.152 0.486,0.361 0.608,0.628 0.122,0.267 0.183,0.654 0.183,1.162 v 3.286 h -0.879 v -3.286 c 0,-0.439 -0.095,-0.759 -0.286,-0.96 -0.19,-0.199 -0.46,-0.3 -0.808,-0.3 -0.26,0 -0.505,0.067 -0.735,0.202 -0.229,0.136 -0.393,0.318 -0.491,0.55 -0.098,0.232 -0.146,0.55 -0.146,0.957 v 2.837 h -0.879 z"
         id="path3682"
         inkscape:connector-curvature="0" /></g><path
       id="path3966"
       d="M 264.298,243.987 V 119.715"
       inkscape:connector-curvature="0"
       style="fill:none;stroke:#000000;stroke-width:0.75" /><g
       enable-background="new    "
       id="g3685"><path
         d="m 264.027,110.591 h -0.815 v -7.158 h 0.879 v 2.554 c 0.371,-0.466 0.845,-0.698 1.421,-0.698 0.319,0 0.621,0.064 0.906,0.193 0.285,0.128 0.519,0.309 0.703,0.541 0.184,0.233 0.328,0.514 0.432,0.843 0.104,0.329 0.156,0.681 0.156,1.055 0,0.889 -0.22,1.575 -0.659,2.061 -0.439,0.486 -0.967,0.728 -1.582,0.728 -0.612,0 -1.092,-0.256 -1.44,-0.767 v 0.648 z m -0.01,-2.632 c 0,0.622 0.084,1.071 0.254,1.348 0.277,0.452 0.651,0.679 1.123,0.679 0.384,0 0.716,-0.167 0.996,-0.5 0.28,-0.334 0.42,-0.831 0.42,-1.492 0,-0.677 -0.134,-1.177 -0.403,-1.499 -0.269,-0.322 -0.593,-0.483 -0.974,-0.483 -0.384,0 -0.716,0.167 -0.996,0.5 -0.28,0.333 -0.42,0.815 -0.42,1.447 z"
         id="path3687"
         inkscape:connector-curvature="0" /></g><path
       id="path3972"
       d="M 266.526,243.987 V 119.715"
       inkscape:connector-curvature="0"
       style="fill:none;stroke:#000000;stroke-width:0.75" /><path
       id="path3978"
       d="M 304.525,243.987 V 119.715"
       inkscape:connector-curvature="0"
       style="fill:none;stroke:#000000;stroke-width:0.75" /><path
       id="path3984"
       d="M 329.844,243.987 V 119.715"
       inkscape:connector-curvature="0"
       style="fill:none;stroke:#000000;stroke-width:0.75" /><path
       id="path3990"
       d="M 338.299,243.987 V 119.715"
       inkscape:connector-curvature="0"
       style="fill:none;stroke:#000000;stroke-width:0.75" /><path
       id="path3996"
       d="M 384.525,243.987 V 119.715"
       inkscape:connector-curvature="0"
       style="fill:none;stroke:#000000;stroke-width:0.75" /><path
       id="path4002"
       d="M 484.525,243.987 V 119.715"
       inkscape:connector-curvature="0"
       style="fill:none;stroke:#000000;stroke-width:0.75" /><g
       enable-background="new    "
       id="g3695"><path
         d="m 485.69,115.988 c -0.325,0.276 -0.639,0.472 -0.94,0.586 -0.301,0.114 -0.623,0.171 -0.969,0.171 -0.57,0 -1.008,-0.139 -1.313,-0.418 -0.306,-0.277 -0.459,-0.634 -0.459,-1.066 0,-0.254 0.058,-0.486 0.173,-0.695 0.116,-0.211 0.268,-0.379 0.455,-0.506 0.187,-0.127 0.397,-0.223 0.632,-0.288 0.173,-0.046 0.433,-0.09 0.781,-0.132 0.71,-0.085 1.231,-0.186 1.567,-0.303 0.004,-0.12 0.005,-0.197 0.005,-0.229 0,-0.358 -0.083,-0.61 -0.249,-0.757 -0.225,-0.198 -0.559,-0.298 -1.001,-0.298 -0.413,0 -0.719,0.072 -0.915,0.218 -0.197,0.145 -0.344,0.4 -0.438,0.769 l -0.859,-0.117 c 0.078,-0.368 0.207,-0.665 0.386,-0.892 0.179,-0.226 0.438,-0.4 0.776,-0.521 0.338,-0.123 0.73,-0.184 1.177,-0.184 0.442,0 0.802,0.052 1.079,0.156 0.277,0.104 0.48,0.235 0.61,0.393 0.13,0.158 0.222,0.357 0.273,0.599 0.029,0.149 0.044,0.42 0.044,0.811 v 1.172 c 0,0.817 0.019,1.334 0.057,1.55 0.037,0.217 0.111,0.425 0.222,0.623 h -0.918 c -0.091,-0.185 -0.149,-0.398 -0.176,-0.642 z m -0.073,-1.963 c -0.318,0.13 -0.797,0.241 -1.436,0.332 -0.361,0.052 -0.617,0.11 -0.767,0.176 -0.15,0.066 -0.265,0.16 -0.347,0.286 -0.082,0.125 -0.122,0.264 -0.122,0.417 0,0.234 0.089,0.43 0.267,0.586 0.177,0.156 0.437,0.234 0.778,0.234 0.339,0 0.64,-0.074 0.903,-0.222 0.264,-0.148 0.457,-0.352 0.581,-0.608 0.095,-0.198 0.142,-0.491 0.142,-0.879 v -0.322 z"
         id="path3697"
         inkscape:connector-curvature="0" /></g><path
       id="path4008"
       d="M 521.208,243.987 V 119.715"
       inkscape:connector-curvature="0"
       style="fill:none;stroke:#000000;stroke-width:0.75" /><path
       id="path4014"
       d="M 550.572,243.987 V 119.715"
       inkscape:connector-curvature="0"
       style="fill:none;stroke:#000000;stroke-width:0.75" /><path
       id="path4020"
       d="M 566.572,243.987 V 119.715"
       inkscape:connector-curvature="0"
       style="fill:none;stroke:#000000;stroke-width:0.75" /><path
       id="path4026"
       d="M 610.345,243.987 V 119.715"
       inkscape:connector-curvature="0"
       style="fill:none;stroke:#000000;stroke-width:0.75" /><path
       id="path4032"
       d="M 663.663,243.987 V 119.715"
       inkscape:connector-curvature="0"
       style="fill:none;stroke:#000000;stroke-width:0.75" /><path
       id="path4038"
       d="M 694.572,243.987 V 119.715"
       inkscape:connector-curvature="0"
       style="fill:none;stroke:#000000;stroke-width:0.75" /><g
       enable-background="new    "
       id="g3705"><path
         d="m 263.168,117.399 v -1.028 h -1.863 v -0.483 l 1.96,-2.783 h 0.431 v 2.783 h 0.58 v 0.483 h -0.58 v 1.028 h -0.528 z m 0,-1.511 v -1.937 l -1.345,1.937 h 1.345 z"
         id="path3707"
         inkscape:connector-curvature="0" /><path
         d="m 264.756,116.11 v -0.53 h 1.62 v 0.53 h -1.62 z"
         id="path3709"
         inkscape:connector-curvature="0" /><path
         d="m 268.799,117.399 h -0.527 v -3.36 c -0.127,0.121 -0.293,0.242 -0.5,0.363 -0.207,0.121 -0.391,0.212 -0.555,0.272 v -0.51 c 0.295,-0.139 0.553,-0.307 0.773,-0.504 0.22,-0.197 0.377,-0.389 0.469,-0.574 h 0.34 v 4.313 z"
         id="path3711"
         inkscape:connector-curvature="0" /></g><g
       enable-background="new    "
       id="g3713"><path
         d="m 403.982,112.142 0.527,-0.07 c 0.061,0.299 0.163,0.515 0.309,0.646 0.146,0.133 0.322,0.198 0.531,0.198 0.248,0 0.458,-0.086 0.629,-0.258 0.171,-0.172 0.256,-0.385 0.256,-0.639 0,-0.242 -0.078,-0.441 -0.236,-0.599 -0.158,-0.158 -0.359,-0.236 -0.604,-0.236 -0.1,0 -0.225,0.02 -0.373,0.059 l 0.059,-0.463 c 0.035,0.004 0.064,0.006 0.086,0.006 0.225,0 0.426,-0.059 0.605,-0.176 0.179,-0.117 0.27,-0.298 0.27,-0.542 0,-0.193 -0.064,-0.354 -0.195,-0.48 -0.131,-0.126 -0.301,-0.19 -0.508,-0.19 -0.205,0 -0.375,0.064 -0.512,0.193 -0.137,0.129 -0.225,0.322 -0.264,0.58 l -0.527,-0.094 c 0.064,-0.354 0.211,-0.627 0.439,-0.822 0.229,-0.193 0.512,-0.291 0.852,-0.291 0.234,0 0.451,0.051 0.648,0.15 0.197,0.102 0.348,0.238 0.452,0.412 0.104,0.174 0.157,0.358 0.157,0.554 0,0.186 -0.051,0.354 -0.15,0.507 -0.099,0.153 -0.246,0.273 -0.441,0.363 0.254,0.059 0.451,0.18 0.592,0.365 0.141,0.184 0.211,0.415 0.211,0.692 0,0.375 -0.137,0.692 -0.41,0.954 -0.273,0.26 -0.619,0.391 -1.037,0.391 -0.377,0 -0.69,-0.112 -0.939,-0.337 -0.249,-0.225 -0.391,-0.515 -0.427,-0.873 z"
         id="path3715"
         inkscape:connector-curvature="0" /><path
         d="m 407.258,111.987 v -0.53 h 1.619 v 0.53 h -1.619 z"
         id="path3717"
         inkscape:connector-curvature="0" /><path
         d="m 411.301,113.276 h -0.527 v -3.36 c -0.127,0.121 -0.294,0.242 -0.5,0.363 -0.206,0.121 -0.391,0.212 -0.555,0.272 v -0.51 c 0.295,-0.139 0.553,-0.307 0.773,-0.504 0.22,-0.197 0.377,-0.389 0.469,-0.574 h 0.34 v 4.313 z"
         id="path3719"
         inkscape:connector-curvature="0" /></g></g></svg>