<?xml version="1.0" encoding="UTF-8" standalone="no"?>
<!-- Created with Inkscape (http://www.inkscape.org/) -->

<svg
   xmlns:dc="http://purl.org/dc/elements/1.1/"
   xmlns:cc="http://creativecommons.org/ns#"
   xmlns:rdf="http://www.w3.org/1999/02/22-rdf-syntax-ns#"
   xmlns:svg="http://www.w3.org/2000/svg"
   xmlns="http://www.w3.org/2000/svg"
   version="1.2"
   width="144.08032"
   height="78.827271"
   id="svg2">
  <defs
     id="defs4">
    <marker
       refX="0"
       refY="0"
       orient="auto"
       id="TriangleInS"
       style="overflow:visible">
      <path
         d="m 5.77,0 -8.65,5 0,-10 8.65,5 z"
         transform="scale(-0.2,-0.2)"
         id="path4135"
         style="fill-rule:evenodd;stroke:#000000;stroke-width:1pt" />
    </marker>
    <marker
       refX="0"
       refY="0"
       orient="auto"
       id="Arrow2Mstart"
       style="overflow:visible">
      <path
         d="M 8.7185878,4.0337352 -2.2072895,0.01601326 8.7185884,-4.0017078 c -1.7454984,2.3720609 -1.7354408,5.6174519 -6e-7,8.035443 z"
         transform="scale(0.6,0.6)"
         id="path4020"
         style="fill-rule:evenodd;stroke-width:0.625;stroke-linejoin:round" />
    </marker>
    <marker
       refX="0"
       refY="0"
       orient="auto"
       id="TriangleInL"
       style="overflow:visible">
      <path
         d="m 5.77,0 -8.65,5 0,-10 8.65,5 z"
         transform="scale(-0.8,-0.8)"
         id="path4129"
         style="fill-rule:evenodd;stroke:#000000;stroke-width:1pt" />
    </marker>
    <marker
       refX="0"
       refY="0"
       orient="auto"
       id="TriangleInM"
       style="overflow:visible">
      <path
         d="m 5.77,0 -8.65,5 0,-10 8.65,5 z"
         transform="scale(-0.4,-0.4)"
         id="path4132"
         style="fill-rule:evenodd;stroke:#000000;stroke-width:1pt" />
    </marker>
    <marker
       refX="0"
       refY="0"
       orient="auto"
       id="DiamondSend"
       style="overflow:visible">
      <path
         d="M 0,-7.0710768 -7.0710894,0 0,7.0710589 7.0710462,0 0,-7.0710768 z"
         transform="matrix(0.2,0,0,0.2,-1.2,0)"
         id="path4099"
         style="fill-rule:evenodd;stroke:#000000;stroke-width:1pt" />
    </marker>
    <marker
       refX="0"
       refY="0"
       orient="auto"
       id="Tail"
       style="overflow:visible">
      <g
         transform="scale(-1.2,-1.2)"
         id="g4032">
        <path
           d="M -3.8048674,-3.9585227 0.54352094,0"
           id="path4034"
           style="fill:none;stroke:#000000;stroke-width:0.80000001;stroke-linecap:round" />
        <path
           d="M -1.2866832,-3.9585227 3.0617053,0"
           id="path4036"
           style="fill:none;stroke:#000000;stroke-width:0.80000001;stroke-linecap:round" />
        <path
           d="M 1.3053582,-3.9585227 5.6537466,0"
           id="path4038"
           style="fill:none;stroke:#000000;stroke-width:0.80000001;stroke-linecap:round" />
        <path
           d="M -3.8048674,4.1775838 0.54352094,0.21974226"
           id="path4040"
           style="fill:none;stroke:#000000;stroke-width:0.80000001;stroke-linecap:round" />
        <path
           d="M -1.2866832,4.1775838 3.0617053,0.21974226"
           id="path4042"
           style="fill:none;stroke:#000000;stroke-width:0.80000001;stroke-linecap:round" />
        <path
           d="M 1.3053582,4.1775838 5.6537466,0.21974226"
           id="path4044"
           style="fill:none;stroke:#000000;stroke-width:0.80000001;stroke-linecap:round" />
      </g>
    </marker>
    <marker
       refX="0"
       refY="0"
       orient="auto"
       id="Arrow1Mend"
       style="overflow:visible">
      <path
         d="M 0,0 5,-5 -12.5,0 5,5 0,0 z"
         transform="matrix(-0.4,0,0,-0.4,-4,0)"
         id="path4005"
         style="fill-rule:evenodd;stroke:#000000;stroke-width:1pt" />
    </marker>
    <marker
       refX="0"
       refY="0"
       orient="auto"
       id="Arrow1Mstart"
       style="overflow:visible">
      <path
         d="M 0,0 5,-5 -12.5,0 5,5 0,0 z"
         transform="matrix(0.4,0,0,0.4,4,0)"
         id="path4002"
         style="fill-rule:evenodd;stroke:#000000;stroke-width:1pt" />
    </marker>
    <marker
       refX="0"
       refY="0"
       orient="auto"
       id="Arrow2Lend"
       style="overflow:visible">
      <path
         d="M 8.7185878,4.0337352 -2.2072895,0.01601326 8.7185884,-4.0017078 c -1.7454984,2.3720609 -1.7354408,5.6174519 -6e-7,8.035443 z"
         transform="matrix(-1.1,0,0,-1.1,-1.1,0)"
         id="path4017"
         style="fill-rule:evenodd;stroke-width:0.625;stroke-linejoin:round" />
    </marker>
    <marker
       refX="0"
       refY="0"
       orient="auto"
       id="Arrow1Sstart"
       style="overflow:visible">
      <path
         d="M 0,0 5,-5 -12.5,0 5,5 0,0 z"
         transform="matrix(0.2,0,0,0.2,1.2,0)"
         id="path4008"
         style="fill-rule:evenodd;stroke:#000000;stroke-width:1pt" />
    </marker>
    <marker
       refX="0"
       refY="0"
       orient="auto"
       id="Arrow1Lstart"
       style="overflow:visible">
      <path
         d="M 0,0 5,-5 -12.5,0 5,5 0,0 z"
         transform="matrix(0.8,0,0,0.8,10,0)"
         id="path3996"
         style="fill-rule:evenodd;stroke:#000000;stroke-width:1pt" />
    </marker>
    <marker
       refX="0"
       refY="0"
       orient="auto"
       id="Arrow1Mend-7"
       style="overflow:visible">
      <path
         d="M 0,0 5,-5 -12.5,0 5,5 0,0 z"
         transform="matrix(-0.4,0,0,-0.4,-4,0)"
         id="path4005-0"
         style="fill-rule:evenodd;stroke:#000000;stroke-width:1pt" />
    </marker>
    <marker
       refX="0"
       refY="0"
       orient="auto"
       id="Arrow1Mend-1"
       style="overflow:visible">
      <path
         d="M 0,0 5,-5 -12.5,0 5,5 0,0 z"
         transform="matrix(-0.4,0,0,-0.4,-4,0)"
         id="path4005-9"
         style="fill-rule:evenodd;stroke:#000000;stroke-width:1pt" />
    </marker>
    <marker
       refX="0"
       refY="0"
       orient="auto"
       id="Arrow1Mend-3"
       style="overflow:visible">
      <path
         d="M 0,0 5,-5 -12.5,0 5,5 0,0 z"
         transform="matrix(-0.4,0,0,-0.4,-4,0)"
         id="path4005-5"
         style="fill-rule:evenodd;stroke:#000000;stroke-width:1pt" />
    </marker>
  </defs>
  <metadata
     id="metadata7">
    <rdf:RDF>
      <cc:Work
         rdf:about="">
        <dc:format>image/svg+xml</dc:format>
        <dc:type
           rdf:resource="http://purl.org/dc/dcmitype/StillImage" />
        <dc:title></dc:title>
      </cc:Work>
    </rdf:RDF>
  </metadata>
  <g
     transform="translate(-164.19923,-46.703624)"
     id="layer2"
     style="display:inline" />
  <g
     transform="translate(-164.19923,-46.703624)"
     id="layer1"
     style="display:inline">
    <path
       d=""
       transform="translate(79.194989,91.599921)"
       id="path3838"
       style="opacity:0.97000002;fill:#000000;fill-opacity:1;fill-rule:nonzero;stroke:none;stroke-width:1;marker:none;visibility:visible;display:inline;overflow:visible;enable-background:accumulate" />
    <flowRoot
       transform="translate(78.398657,91.072288)"
       id="flowRoot4229"
       xml:space="preserve"
       style="font-size:18px;font-style:normal;font-variant:normal;font-weight:bold;font-stretch:normal;line-height:125%;letter-spacing:0px;word-spacing:0px;fill:#000000;fill-opacity:1;stroke:none;font-family:Arial Rounded MT Bold;-inkscape-font-specification:Arial Rounded MT Bold"><flowRegion
         id="flowRegion4231"><rect
           width="63"
           height="31"
           x="-89.5"
           y="43.854904"
           id="rect4233"
           style="font-style:normal;font-variant:normal;font-weight:bold;font-stretch:normal;font-family:Arial Rounded MT Bold;-inkscape-font-specification:Arial Rounded MT Bold" /></flowRegion><flowPara
         id="flowPara4235">PHYSICS</flowPara></flowRoot>    <flowRoot
       transform="translate(78.398657,91.072288)"
       id="flowRoot4237"
       xml:space="preserve"
       style="font-size:18px;font-style:normal;font-variant:normal;font-weight:normal;font-stretch:normal;line-height:125%;letter-spacing:0px;word-spacing:0px;fill:#000000;fill-opacity:1;stroke:none;font-family:Batang;-inkscape-font-specification:Batang"><flowRegion
         id="flowRegion4239"><rect
           width="95.5"
           height="48.5"
           x="-104.5"
           y="45.854904"
           id="rect4241"
           style="font-style:normal;font-variant:normal;font-weight:normal;font-stretch:normal;font-family:Batang;-inkscape-font-specification:Batang" /></flowRegion><flowPara
         id="flowPara4243" /></flowRoot>    <text
       x="-67.5"
       y="57.854904"
       transform="translate(78.398657,91.072288)"
       id="text4245"
       xml:space="preserve"
       style="font-size:18px;font-style:normal;font-variant:normal;font-weight:normal;font-stretch:normal;line-height:125%;letter-spacing:0px;word-spacing:0px;fill:#000000;fill-opacity:1;stroke:none;font-family:BatangChe;-inkscape-font-specification:BatangChe"><tspan
         x="-67.5"
         y="57.854904"
         id="tspan4247" /></text>
    <flowRoot
       id="flowRoot3045"
       xml:space="preserve"
       style="font-size:18px;font-style:normal;font-variant:normal;font-weight:normal;font-stretch:normal;line-height:125%;letter-spacing:0px;word-spacing:0px;fill:#000000;fill-opacity:1;stroke:none;font-family:Viner Hand ITC;-inkscape-font-specification:Viner Hand ITC"><flowRegion
         id="flowRegion3047"><rect
           width="27.577164"
           height="20.152544"
           x="-61.518291"
           y="47.177975"
           id="rect3049" /></flowRegion><flowPara
         id="flowPara3051" /></flowRoot>    <flowRoot
       id="flowRoot3053"
       xml:space="preserve"
       style="font-size:18px;font-style:normal;font-variant:normal;font-weight:normal;font-stretch:normal;line-height:125%;letter-spacing:0px;word-spacing:0px;fill:#000000;fill-opacity:1;stroke:none;font-family:Viner Hand ITC;-inkscape-font-specification:Viner Hand ITC"><flowRegion
         id="flowRegion3055"><rect
           width="30.052038"
           height="18.738329"
           x="-51.618793"
           y="56.016808"
           id="rect3057" /></flowRegion><flowPara
         id="flowPara3059" /></flowRoot>    <g
       transform="matrix(0.69926716,0,0,0.69926716,54.051129,-30.7956)"
       id="g4397">
      <path
         d="m 282.80162,183.06439 c -0.29915,0.006 -0.56768,0.021 -0.79263,0.036 -0.6814,0.084 -1.5025,0.1743 -1.68434,0.92774 -0.1053,0.45006 -0.0631,1.19861 -0.0631,2.18874 l 0,3.27861 c 0,1.04014 -0.003,2.12803 0.054,2.6481 0.13653,0.67266 0.28285,0.69411 1.02426,0.74477 0.2862,-0.0305 0.45391,-0.001 0.62532,-0.038 0.32241,-0.0691 0.52075,-0.28024 0.58075,-0.91798 0.0468,-0.49729 0.003,-0.63783 0.003,-1.13084 -0.0191,-0.18003 -0.018,-0.38047 -0.018,-0.63051 -0.01,-0.24003 -0.01,-0.45047 0,-0.6305 0.01,-0.17002 0.0422,-0.28027 0.0901,-0.36028 0.0479,-0.08 0.11588,-0.12312 0.44135,-0.15313 0.15795,-0.02 0.37796,-0.031 0.61249,-0.036 0.23453,-0.005 0.57042,5.7e-4 0.77462,-0.027 1.10948,-0.15023 1.15757,-0.16352 1.86448,-0.61302 0.51941,-0.33027 0.71362,-0.72011 0.90972,-1.19742 0.11143,-0.27122 0.22292,-0.61173 0.26121,-0.98178 0.0479,-0.38005 0.007,-0.78988 -0.11709,-1.17994 -0.11487,-0.39005 -0.32475,-0.73579 -0.6215,-1.03582 -0.30632,-0.30005 -0.68103,-0.55354 -1.19795,-0.69355 l 0,-0.036 c -0.51692,-0.14001 -1.1505,-0.15213 -1.80143,-0.16213 -0.32068,0 -0.64661,-0.006 -0.94576,0 z m 0.2522,1.80144 c 0.10291,-0.002 0.23127,0 0.40532,0 0.4626,0 0.82296,0.0195 0.97277,0.0631 0.4941,0.14366 0.82529,0.57841 0.82866,1.08086 0.004,0.58596 -0.29384,1.01184 -0.78362,1.11688 -0.14371,0.0308 -0.58893,0.0541 -0.99079,0.0541 -0.62152,0 -0.74751,-0.0142 -0.83767,-0.0901 -0.0893,-0.0752 -0.11565,-0.17017 -0.14411,-0.60347 -0.0458,-0.69701 0.0152,-1.35607 0.13511,-1.5042 0.0663,-0.0819 0.10557,-0.11046 0.41433,-0.11709 z"
         id="6-1"
         style="fill:#000000;fill-opacity:1;fill-rule:evenodd;stroke:none;display:inline" />
      <path
         d="m 324.64325,183.05091 c 0.44573,0.0502 0.58578,0.18674 0.69448,0.3072 0.0978,0.12046 0.16653,0.25095 0.1778,0.80505 0.0134,0.66059 0.004,1.58809 0.0147,2.51161 -0.066,1.48811 0.036,2.83115 0.0178,4.2923 -0.0269,0.34421 0.0419,1.04716 -0.13514,1.48175 -0.0964,0.23674 -0.45654,0.40457 -0.58503,0.41383 -0.12849,0.009 -0.79221,0.0245 -0.98402,0.0257 -0.19182,0.001 -0.5321,-0.20347 -0.64207,-0.48545 -0.0981,-0.2516 -0.11732,-0.32183 -0.10227,-0.91711 0.015,-0.59527 -0.0352,-1.8394 -0.007,-2.46239 0.0326,-0.6826 0.022,-1.5397 0.01,-2.32662 -0.001,-1.02353 -0.0707,-2.95553 0.0846,-3.17292 0.15529,-0.2174 0.26667,-0.41887 0.67258,-0.46305 0.35964,-0.0391 0.47479,-0.0219 0.78329,-0.01 z"
         id="10-7"
         style="fill:#000000;fill-opacity:1;fill-rule:evenodd;stroke:none;display:inline" />
      <path
         d="m 332.46253,183.07641 c -0.68923,0.02 -1.4044,0.15132 -2.02662,0.44135 -0.61264,0.29005 -1.13818,0.741 -1.54022,1.35108 -0.40205,0.62008 -0.68733,1.39167 -0.79263,2.25179 -0.11487,0.86012 -0.0569,1.79793 0.14411,2.55803 0.20103,0.76011 0.54932,1.34541 1.00881,1.85548 0.4499,0.51007 1.02323,0.9409 1.84646,1.17093 0.82324,0.22003 1.8958,0.24307 2.73818,0.0631 0.85196,-0.18002 1.48324,-0.52575 1.99058,-1.03582 0.50735,-0.51007 1.05237,-1.14301 1.02991,-1.948 -0.006,-0.46153 -0.91428,-0.58748 -1.53015,-0.4109 -0.30473,0.0874 -0.57824,0.6891 -0.71572,0.83669 -0.26803,0.28003 -0.73904,0.4224 -1.18895,0.52241 -0.44991,0.10001 -1.15393,-0.0411 -1.59427,-0.17112 -0.43076,-0.13002 -0.73289,-0.37649 -0.98178,-0.66653 -0.23931,-0.28004 -0.41712,-0.60577 -0.52241,-1.03582 -0.1053,-0.43006 -0.1385,-0.96108 -0.0811,-1.44115 0.0574,-0.48007 0.20374,-0.92096 0.41433,-1.261 0.2106,-0.35005 0.49362,-0.59658 0.82866,-0.7566 0.32546,-0.16003 0.69909,-0.2422 1.06285,-0.2522 0.36375,-0.01 0.70078,0.0291 1.03582,0.18915 0.32546,0.15002 0.64282,0.40555 0.89171,0.7656 0.24889,0.35005 0.0617,0.003 0.27176,0.46272 0.1816,0.39782 2.11746,0.23063 1.99959,-0.59575 -0.24324,-0.62791 -0.26207,-0.61497 -0.64105,-1.19102 -0.43173,-0.65622 -1.06213,-1.08905 -1.68434,-1.36909 -0.62222,-0.27003 -1.28391,-0.36328 -1.96356,-0.33326 z"
         id="8-1"
         style="fill:#000000;fill-opacity:1;fill-rule:evenodd;stroke:none;display:inline" />
      <path
         d="m 297.11961,183.04343 c -0.3775,0.044 -0.47708,0.24277 -0.6215,0.45937 -0.14441,0.21659 -0.0188,1.9634 -0.0174,2.98318 2.2e-4,0.42234 -0.1658,0.6162 -0.56047,0.58003 -1.08414,0.0211 -1.74135,0.0224 -2.59139,0.0286 -0.25287,-0.0148 -0.37166,-0.0261 -0.72967,-0.0153 -0.42075,-0.004 -0.48734,-0.24953 -0.47186,-0.7084 -0.006,-0.79548 -0.0219,-1.6109 -0.0327,-2.18195 -0.0105,-0.55206 -0.0801,-0.72665 -0.17113,-0.84667 -0.1011,-0.12002 -0.234,-0.25623 -0.64852,-0.30624 -0.28691,-0.012 -0.54796,-0.005 -0.88244,0.0345 -0.37749,0.044 -0.47708,0.24276 -0.62149,0.45936 -0.14441,0.21659 -0.0735,2.18677 -0.0721,3.20655 0.0113,0.78403 0.0213,1.64376 -0.009,2.32385 -0.0267,0.6207 0.0525,1.64975 0.009,2.44995 -0.0183,0.3367 -0.0462,0.61401 0.045,0.86469 0.10227,0.28095 0.33502,0.51456 0.51341,0.5134 0.17838,-0.001 1.07819,-0.0163 1.19768,-0.0255 0.11951,-0.009 0.45079,-0.17846 0.54043,-0.41433 0.16465,-0.43299 0.10111,-1.13422 0.1261,-1.47717 0.007,-0.63455 -0.009,-0.67072 -0.0217,-1.28226 -0.0189,-0.5476 0.26732,-0.58282 0.4777,-0.58625 1.36126,-0.0382 2.1373,-0.004 3.35005,-0.008 0.28851,-8.7e-4 0.52499,0.20224 0.50586,0.63468 -0.0151,0.62753 -0.0298,0.98811 10e-4,1.74472 0.0177,0.42678 -0.0102,0.65003 0.0811,0.90071 0.10227,0.28095 0.38907,0.49655 0.56745,0.4954 0.17839,-0.001 0.99867,0.009 1.11817,0 0.1195,-0.009 0.41475,-0.19648 0.5044,-0.43235 0.16465,-0.43299 0.0831,-1.17025 0.10809,-1.5132 0.0169,-1.45579 -0.0704,-2.79574 -0.009,-4.2784 -0.0101,-0.92013 -0.006,-1.84583 -0.018,-2.50399 -0.0105,-0.55207 -0.0711,-0.68162 -0.16213,-0.80164 -0.1011,-0.12002 -0.23399,-0.25624 -0.64852,-0.30624 -0.25052,-0.0173 -0.64781,-0.004 -0.85687,0.009 z"
         id="10-7-8"
         style="fill:#000000;fill-opacity:1;fill-rule:evenodd;stroke:none;display:inline" />
      <path
         d="m 302.21861,183.01401 c 0.3159,0.0125 0.27373,0.003 0.39159,0.0661 0.11786,0.0627 0.20845,0.0666 0.38815,0.29132 0.1797,0.22474 0.16748,0.25308 0.54445,0.69664 0.36428,0.42863 0.48873,0.58059 0.74086,0.88248 0.25213,0.30189 0.44008,0.49974 0.66465,0.82029 0.22457,0.32055 0.24813,0.34319 0.52744,0.63472 0.43573,-0.53675 0.64374,-0.82583 0.8842,-1.11481 0.38105,-0.45211 0.64442,-0.77374 1.05519,-1.25434 0.41077,-0.4806 0.36068,-0.44048 0.49867,-0.64105 0.18081,-0.24329 0.40863,-0.44262 0.92743,-0.38731 0.32176,-0.0125 0.56071,0.0224 0.92998,0.06 0.62449,0.0758 0.28698,0.79638 0.0462,1.09733 -0.24083,0.30094 -0.43695,0.57131 -0.9356,1.14753 -0.43112,0.59543 -0.53797,0.67928 -0.99429,1.24997 -0.46609,0.58289 -0.63565,0.83922 -0.92781,1.23579 -0.29216,0.39656 -0.31495,1.51779 -0.33893,1.95446 -0.024,0.43667 0.003,0.83545 0.0177,1.4309 0.0109,0.43324 0.0345,1.18065 -0.10319,1.44936 -0.13765,0.26871 -0.38281,0.2446 -0.56431,0.24346 -0.18149,-10e-4 -0.99235,0.0182 -1.11393,0.009 -0.12159,-0.009 -0.3712,-0.0515 -0.53494,-0.41433 -0.0656,-0.76578 -0.0251,-1.05654 -0.0505,-1.40074 -0.006,-0.54027 -0.01,-0.88865 8.6e-4,-1.53737 0.0104,-0.64871 0.0572,-1.29683 -0.26896,-1.70186 -0.32613,-0.40502 -0.48556,-0.56328 -0.83459,-1.0299 -0.34903,-0.46663 -0.90233,-1.19995 -1.39111,-1.78678 -0.59614,-0.71573 -0.57559,-0.69979 -0.85744,-1.0896 -0.24864,-0.36509 -0.16546,-0.77193 0.26466,-0.88425 0.26258,-0.0251 0.71771,-0.0395 1.03361,-0.027 z"
         id="3-8-1-2-1"
         style="fill:#000000;fill-opacity:1;fill-rule:evenodd;stroke:none;display:inline" />
      <path
         d="m 316.04628,183.0025 c -0.68922,0.0176 -1.40439,0.13144 -2.02661,0.38731 -0.61264,0.25587 -1.06611,0.46618 -1.46816,1.0088 -0.40205,0.54263 -0.75959,0.92556 -0.68455,1.84647 0.075,0.92091 0.49074,1.54826 1.19588,1.89806 0.70513,0.34981 1.60139,0.65942 2.72917,0.70307 1.18693,0.0459 1.98204,0.30377 2.35769,0.62295 0.37565,0.31918 0.18923,0.70719 -0.0727,0.99436 -0.26192,0.28718 -0.60601,0.35655 -0.96968,0.47275 -0.36367,0.11619 -0.8414,0.10981 -1.20515,0.11864 -0.36376,0.009 -0.70078,-0.021 -1.03582,-0.16213 -0.32547,-0.13235 -0.64283,-0.35791 -0.89171,-0.67554 -0.24889,-0.30881 -0.005,-0.0121 -0.27923,-0.40532 -0.1816,-0.35095 -2.11746,-0.20661 -1.99959,0.52241 0.24324,0.55394 0.26954,0.54566 0.64852,1.05384 0.43173,0.57891 1.06212,0.95991 1.68434,1.20696 0.62221,0.23822 1.28391,0.31471 1.96356,0.28823 0.68923,-0.0176 1.97006,-0.10549 2.60872,-0.45318 0.63867,-0.3477 0.95457,-0.71183 1.24853,-1.07431 0.29397,-0.36248 0.41791,-0.88093 0.44508,-1.63029 0.0272,-0.74936 -0.50185,-1.38661 -1.15021,-1.80976 -0.76568,-0.4997 -2.07429,-0.86079 -2.97117,-0.85492 -0.89689,0.006 -1.56168,-0.27499 -1.87664,-0.51911 -0.31496,-0.24413 -0.17685,-0.75518 -0.0337,-0.9635 0.14313,-0.20832 0.40354,-0.4111 0.73859,-0.55227 0.32546,-0.14116 0.77114,-0.20734 1.1349,-0.21617 0.36375,-0.009 0.70078,0.093 1.03582,0.23419 0.32546,0.13234 0.64282,0.30695 0.89171,0.62458 0.24889,0.30881 0.0325,0.0248 0.30624,0.40533 0.23079,0.32075 2.08144,0.2066 1.96357,-0.52242 -0.24324,-0.55394 -0.26053,-0.54566 -0.63951,-1.05384 -0.43173,-0.57891 -1.06213,-0.95991 -1.68434,-1.20696 -0.62221,-0.23822 -1.28391,-0.3147 -1.96356,-0.28823 z"
         id="8-1-4"
         style="fill:#000000;fill-opacity:1;fill-rule:evenodd;stroke:none;display:inline" />
      <path
         d="m 343.88055,183.00251 c -0.68923,0.0176 -1.4044,0.13144 -2.02661,0.38731 -0.61265,0.25587 -1.06612,0.46618 -1.46817,1.0088 -0.40205,0.54262 -0.75959,0.92556 -0.68455,1.84647 0.075,0.92091 0.49075,1.54825 1.19588,1.89806 0.70514,0.3498 1.6014,0.65942 2.72917,0.70307 1.18693,0.0459 1.98204,0.30377 2.3577,0.62295 0.37564,0.31917 0.18922,0.70719 -0.0727,0.99436 -0.26192,0.28717 -0.60601,0.35655 -0.96968,0.47274 -0.36367,0.1162 -0.8414,0.10982 -1.20515,0.11864 -0.36376,0.009 -0.70078,-0.0209 -1.03582,-0.16213 -0.32547,-0.13234 -0.64283,-0.3579 -0.89171,-0.67553 -0.24889,-0.30881 -0.005,-0.0121 -0.27922,-0.40533 -0.18161,-0.35095 -2.11746,-0.2066 -1.99959,0.52242 0.24323,0.55394 0.26953,0.54565 0.64851,1.05384 0.43173,0.57891 1.06213,0.95991 1.68434,1.20696 0.62221,0.23822 1.28391,0.3147 1.96356,0.28823 0.68923,-0.0176 1.97006,-0.10549 2.60873,-0.45319 0.63866,-0.34769 0.95456,-0.71182 1.24853,-1.0743 0.29396,-0.36248 0.4179,-0.88094 0.44508,-1.6303 0.0272,-0.74936 -0.50185,-1.3866 -1.15022,-1.80975 -0.76567,-0.49971 -2.07429,-0.86079 -2.97117,-0.85492 -0.89689,0.006 -1.56168,-0.27499 -1.87664,-0.51912 -0.31495,-0.24412 -0.17685,-0.75517 -0.0337,-0.9635 0.14313,-0.20832 0.40355,-0.41109 0.73859,-0.55226 0.32546,-0.14117 0.77115,-0.20735 1.1349,-0.21617 0.36376,-0.009 0.70078,0.093 1.03582,0.23419 0.32547,0.13234 0.64283,0.30695 0.89172,0.62458 0.24888,0.30881 0.0325,0.0248 0.30624,0.40532 0.23078,0.32076 2.08143,0.20661 1.96356,-0.52241 -0.24324,-0.55395 -0.26053,-0.54566 -0.63951,-1.05384 -0.43173,-0.57892 -1.06212,-0.95991 -1.68434,-1.20696 -0.62221,-0.23822 -1.28391,-0.31471 -1.96356,-0.28823 z"
         id="8-1-4-1"
         style="fill:#000000;fill-opacity:1;fill-rule:evenodd;stroke:none;display:inline" />
    </g>
    <g
       transform="translate(144.19923,26.703624)"
       id="g4271">
      <g
         transform="translate(-233.73508,-122.08763)"
         id="layer2-4"
         style="display:inline" />
      <g
         transform="translate(-233.73508,-122.08763)"
         id="layer1-2"
         style="display:inline">
        <path
           d=""
           transform="translate(79.194989,91.599921)"
           id="path3838-6"
           style="opacity:0.97000002;fill:#000000;fill-opacity:1;fill-rule:nonzero;stroke:none;stroke-width:1;marker:none;visibility:visible;display:inline;overflow:visible;enable-background:accumulate" />
        <path
           d="m 275.89761,173.05748 c -2.00935,0.0306 -4.08894,0.18319 -6.28356,0.45923 -2.1946,0.27606 -4.50602,0.65889 -6.61513,1.24165 -2.10911,0.56744 -4.02979,1.32333 -5.3551,2.22817 -1.33957,0.90482 -2.06897,1.93704 -2.45374,3.01057 -0.39902,1.07353 -0.46039,2.17517 -0.13263,3.2487 0.31351,1.07353 0.99373,2.11941 2.20505,2.99357 1.2113,0.8895 2.96676,1.62001 4.99036,2.12611 2.02359,0.50609 4.31583,0.80248 6.68145,0.98652 2.37986,0.18403 4.83733,0.27048 7.04619,0.25514 2.20886,-0.0153 4.17929,-0.13914 5.40484,-0.32318 1.22556,-0.1687 1.7019,-0.41267 2.07241,-0.7654 0.37053,-0.33739 0.63906,-0.79773 0.79581,-1.71789 0.17101,-0.90485 0.25336,-2.263 0.28185,-3.67392 0.0285,-1.41094 0.0261,-2.86362 -0.0166,-4.16719 -0.0427,-1.31891 -0.11084,-2.46989 -0.28185,-3.28272 -0.17102,-0.81281 -0.45352,-1.27844 -0.89528,-1.61584 -0.42753,-0.35273 -1.01963,-0.58137 -2.28795,-0.7654 -1.25406,-0.1687 -3.16105,-0.25347 -5.15615,-0.23812 l -1e-5,0 z m -0.31501,1.75191 c 1.58585,8.2e-4 3.31695,0.0437 5.18932,0.13607 -17.97615,0.17754 -21.29622,4.61813 -23.7747,5.08566 0.7429,-1.31042 3.25546,-5.2305 18.58538,-5.22173 z"
           id="2-5-4-2"
           style="fill:#000000;fill-opacity:1;fill-rule:evenodd;stroke:none;display:inline" />
        <path
           d="m 262.54919,174.12592 c 10.19729,-4.90815 29.57593,-9.0735 37.05175,-10.80368 11.89193,-2.75223 48.47462,-9.38659 98.21446,-11.93722 -45.47919,3.94482 -80.23691,8.88864 -103.78629,14.37252 -11.48939,2.64738 -26.2629,5.88145 -31.47992,8.36838 l 0,0 z"
           id="path3872-5-5"
           style="font-size:medium;font-style:normal;font-variant:normal;font-weight:normal;font-stretch:normal;text-indent:0;text-align:start;text-decoration:none;line-height:normal;letter-spacing:normal;word-spacing:normal;text-transform:none;direction:ltr;block-progression:tb;writing-mode:lr-tb;text-anchor:start;fill:#000000;fill-opacity:1;stroke:none;stroke-width:2;marker:none;visibility:visible;display:inline;overflow:visible;enable-background:accumulate;font-family:Sans;-inkscape-font-specification:Sans" />
        <path
           d="m 257.5028,176.26901 c 8.73824,-10.77496 52.59357,-27.45012 69.58753,-31.79912 -16.35759,5.9179 -55.97519,20.00319 -69.58753,31.79912 z"
           id="path3872-1-6-2"
           style="font-size:medium;font-style:normal;font-variant:normal;font-weight:normal;font-stretch:normal;text-indent:0;text-align:start;text-decoration:none;line-height:normal;letter-spacing:normal;word-spacing:normal;text-transform:none;direction:ltr;block-progression:tb;writing-mode:lr-tb;text-anchor:start;fill:#000000;fill-opacity:1;stroke:none;stroke-width:2;marker:none;visibility:visible;display:inline;overflow:visible;enable-background:accumulate;font-family:Sans;-inkscape-font-specification:Sans" />
        <path
           d="m 262.31455,189.23131 c 10.1973,4.90815 29.57593,9.0735 37.05175,10.80367 11.89194,2.75224 48.47463,9.38661 98.21447,11.93723 -45.47919,-3.94482 -80.23691,-8.88863 -103.7863,-14.37251 -11.48938,-2.64739 -26.26289,-5.88146 -31.47992,-8.36839 l 0,0 z"
           id="path3872-5-5-0"
           style="font-size:medium;font-style:normal;font-variant:normal;font-weight:normal;font-stretch:normal;text-indent:0;text-align:start;text-decoration:none;line-height:normal;letter-spacing:normal;word-spacing:normal;text-transform:none;direction:ltr;block-progression:tb;writing-mode:lr-tb;text-anchor:start;fill:#000000;fill-opacity:1;stroke:none;stroke-width:2;marker:none;visibility:visible;display:inline;overflow:visible;enable-background:accumulate;font-family:Sans;-inkscape-font-specification:Sans" />
        <path
           d="m 253.7351,181.80919 c -0.0243,10.65461 20.42311,30.21049 32.2307,39.10571 -9.7622,-9.24033 -31.84568,-29.50719 -31.8727,-39.08905 -0.027,-9.58186 21.35951,-31.52514 31.62826,-39.73822 -13.26643,8.88232 -31.96198,29.06694 -31.98626,39.72156 z"
           id="path3872-1-7"
           style="font-size:medium;font-style:normal;font-variant:normal;font-weight:normal;font-stretch:normal;text-indent:0;text-align:start;text-decoration:none;line-height:normal;letter-spacing:normal;word-spacing:normal;text-transform:none;direction:ltr;block-progression:tb;writing-mode:lr-tb;text-anchor:start;fill:#000000;fill-opacity:1;stroke:none;stroke-width:2;marker:none;visibility:visible;display:inline;overflow:visible;enable-background:accumulate;font-family:Sans;-inkscape-font-specification:Sans" />
        <path
           d="m 257.67483,187.35024 c 8.73825,10.77496 52.59357,27.45012 69.58754,31.79913 -16.3576,-5.91792 -55.97519,-20.00321 -69.58754,-31.79913 z"
           id="path3872-1-6-2-1"
           style="font-size:medium;font-style:normal;font-variant:normal;font-weight:normal;font-stretch:normal;text-indent:0;text-align:start;text-decoration:none;line-height:normal;letter-spacing:normal;word-spacing:normal;text-transform:none;direction:ltr;block-progression:tb;writing-mode:lr-tb;text-anchor:start;fill:#000000;fill-opacity:1;stroke:none;stroke-width:2;marker:none;visibility:visible;display:inline;overflow:visible;enable-background:accumulate;font-family:Sans;-inkscape-font-specification:Sans" />
        <path
           d="m 306.08774,173.5438 c -0.21004,0 -0.39317,0.009 -0.5625,0.0312 -0.33867,0.0605 -0.52599,0.14511 -0.65625,0.28125 -0.14328,0.15126 -0.22915,0.35455 -0.28125,1.15625 -0.0521,0.80169 -0.0704,2.21725 -0.0312,3.59375 0.0261,1.3765 0.10675,2.69631 0.0937,3.4375 -0.0317,0.61813 0.005,1.21076 -0.625,0.84375 -0.24749,-0.19664 -0.63786,-0.62682 -1.09375,-1.15625 -0.46893,-0.52941 -1.00754,-1.18717 -1.75,-2.125 -0.74247,-0.93783 -1.72108,-2.1398 -2.4375,-3.0625 -0.72943,-0.90758 -1.2212,-1.53009 -1.625,-1.96875 -0.39076,-0.42355 -0.67693,-0.66023 -1.09375,-0.78125 -0.42985,-0.13616 -0.91653,-0.17135 -1.28125,-0.15625 -0.37775,0.0151 -0.56763,0.0654 -0.75,0.15625 -0.19538,0.0908 -0.38277,0.21044 -0.5,0.90625 -0.1042,0.71094 -0.14315,1.97622 -0.15625,3.625 -0.013,1.63364 -0.013,3.66074 0,5.21875 0.013,1.57314 0.0417,2.6792 0.0937,3.375 0.0521,0.68069 0.13797,0.92836 0.28125,1.125 0.14328,0.19664 0.43212,0.33065 0.875,0.40625 0.44287,0.0605 0.89567,0.0605 1.3125,0 0.40379,-0.0454 0.52599,-0.14511 0.65625,-0.28125 0.13026,-0.13614 0.1979,-0.29821 0.25,-0.8125 0.0343,-1.67421 -0.004,-3.88804 -0.0312,-5.5625 -0.0548,-1.8174 -0.0335,-2.43557 1.15625,-1.09375 1.18975,1.34181 2.5995,3.13585 4,4.6875 0.89877,0.95296 1.39568,1.49584 1.8125,1.84375 0.41682,0.33278 0.74463,0.75499 1.1875,0.90625 0.44287,0.13612 1.02588,0.2026 1.46875,0.1875 0.42986,-0.0151 0.73429,-0.11585 0.96875,-0.3125 0.23446,-0.21177 0.3958,-0.53307 0.5,-1.0625 0.10421,-0.54454 0.14325,-1.29489 0.15625,-2.65625 0.013,-1.36139 0.013,-3.32297 0,-5.0625 0,-1.73953 -0.0287,-3.29405 -0.0937,-4.15625 -0.0651,-0.87732 -0.17961,-1.06749 -0.375,-1.21875 -0.19538,-0.13613 -0.46599,-0.23585 -0.84375,-0.28125 -0.18887,-0.0227 -0.41496,-0.0312 -0.625,-0.0312 z"
           id="2-0"
           style="fill:#000000;fill-opacity:1;fill-rule:evenodd;stroke:none;display:inline" />
        <path
           d="m 322.65099,173.61992 c -0.18712,-0.002 -0.36989,0.0121 -0.53115,0.0273 -0.32149,0.0453 -0.54326,0.11969 -0.7436,0.28608 -0.20034,0.16639 -0.3809,0.4016 -0.82328,1.15793 -0.44236,0.75631 -1.1347,1.99891 -1.88555,3.40566 -0.75084,1.40675 -1.56254,2.9495 -2.2972,4.38651 -0.71951,1.45213 -1.36353,2.7932 -1.64655,3.61001 -0.29712,0.81682 -0.24556,1.093 -0.17262,1.33502 0.086,0.2269 0.20096,0.4254 0.73032,0.53128 0.54245,0.0908 1.35053,0.0847 1.89884,0.0545 0.71043,0.0105 0.8604,-0.31194 1.16852,-0.89911 0.23514,-0.48404 0.60019,-1.2899 0.82327,-1.7437 0.22206,-0.46891 0.28626,-0.59337 0.45147,-0.65388 0.1642,-0.0756 0.61815,-0.0817 1.16852,-0.0817 0.54934,-0.0151 1.38164,0 2.04491,0 0.66326,0 1.25121,-0.002 1.63326,0.0136 0.38206,0.0151 0.84589,0.0304 1.02246,0.13623 0.17655,0.10587 0.27898,0.29846 0.4913,0.722 0.2113,0.40841 0.52891,1.03224 0.73032,1.51211 0.19423,0.46276 0.41706,0.6661 0.61082,0.81737 0.20788,0.15126 0.29822,0.21495 0.83655,0.24521 0.53831,0.0303 1.30532,0.006 1.75277,-0.0545 0.44747,-0.0605 0.52422,-0.17416 0.59754,-0.34056 0.0744,-0.15126 0.14392,-0.35924 -0.10623,-1.13068 -0.26323,-0.75632 -0.86816,-2.09437 -1.58015,-3.63726 -0.71199,-1.54289 -1.52108,-3.32492 -2.24408,-4.82242 -0.72403,-1.51265 -1.37621,-2.7341 -1.79261,-3.46017 -0.4164,-0.72606 -0.60128,-0.93855 -0.82327,-1.08981 -0.20789,-0.15127 -0.44166,-0.24069 -0.78344,-0.28608 -0.16384,-0.0227 -0.34403,-0.039 -0.53114,-0.0409 z m 0.0398,4.60446 c 0.0418,-0.003 0.0716,0.0249 0.13279,0.0817 0.31307,0.29066 1.39471,2.70377 1.47393,3.29669 0.0686,0.51334 0.011,0.52638 -1.47393,0.51766 -0.68915,-0.004 -1.3864,-0.0311 -1.54032,-0.0681 -0.41382,-0.0995 -0.49025,-0.19196 -0.45147,-0.54491 0.0602,-0.54748 1.27591,-2.85356 1.6731,-3.17409 0.0856,-0.0691 0.14408,-0.10547 0.1859,-0.10898 z"
           id="3-2"
           style="fill:#000000;fill-opacity:1;fill-rule:evenodd;stroke:none;display:inline" />
        <path
           d="m 322.68144,170.62539 c 0.0282,0.12101 0.1129,0.21177 0.36692,0.25714 0.2399,0.0605 0.63503,0.0605 1.01606,0.0454 0.38103,0 0.74794,-0.0152 1.01607,-0.0152 0.26813,-0.0151 0.46569,-0.0303 0.64916,-0.0605 0.18345,-0.0303 0.38103,-0.0756 0.67737,-0.27227 0.29636,-0.18152 0.6915,-0.52943 1.18542,-0.90759 0.47981,-0.39328 0.78784,-0.83194 1.07009,-1.11935 0.28224,-0.2874 0.28224,-0.42353 0.18345,-0.54454 -0.0847,-0.12101 -0.28224,-0.24203 -0.5786,-0.2874 -0.29634,-0.0605 -0.46326,-0.0605 -0.92896,-0.0605 -0.45158,0 -0.95962,0 -1.31242,0.0151 -0.33869,0.0303 -0.50803,0.0605 -0.66327,0.15126 -0.14112,0.0756 -0.26813,0.19665 -0.69149,0.60506 -0.42336,0.42353 -1.15719,1.13447 -1.55232,1.55801 -0.39514,0.40841 -0.45159,0.52942 -0.43748,0.63531 l 0,-2e-5 z"
           id="5-7"
           style="fill:#000000;fill-opacity:1;fill-rule:evenodd;stroke:none;display:inline" />
        <path
           d="m 341.09495,173.37892 c -0.441,0.009 -0.83688,0.0318 -1.16852,0.0545 -1.00453,0.12701 -2.21501,0.26361 -2.48309,1.40314 -0.15524,0.68067 -0.093,1.8128 -0.093,3.31031 0,1.4975 0,3.38551 0,4.95865 0,1.57314 -0.005,2.83706 0.0797,3.62363 0.20128,1.01735 0.79256,1.58535 1.88556,1.66197 0.64916,0.0605 1.65871,0.0803 2.80178,0.0954 1.12897,0.0151 2.3866,0.0272 3.34621,-0.10898 0.95962,-0.13614 1.63232,-0.4438 2.09802,-0.91272 0.46569,-0.46891 0.73443,-1.1084 0.88967,-1.74371 0.15522,-0.65043 0.20417,-1.28849 0.1195,-1.89355 -0.0705,-0.60506 -0.27379,-1.19455 -0.58426,-1.64834 -0.32458,-0.46893 -0.78005,-0.80844 -1.06228,-1.03533 -0.29636,-0.22689 -0.43819,-0.34366 -0.4382,-0.44955 0,-0.10588 0.13357,-0.19992 0.34524,-0.38143 0.21169,-0.18152 0.45143,-0.46795 0.67721,-0.83098 0.22579,-0.37816 0.43487,-0.84346 0.49131,-1.40314 0.0705,-0.5748 0.0108,-1.19464 -0.17262,-1.78457 -0.16935,-0.58993 -0.47876,-1.11282 -0.91622,-1.56661 -0.45159,-0.45379 -1.00399,-0.83718 -1.76606,-1.04894 l 0,-0.0545 c -0.76205,-0.21175 -1.69609,-0.23008 -2.65572,-0.24521 -0.47275,0 -0.95325,-0.009 -1.39425,0 z m 0.37181,2.72454 c 0.15171,-0.003 0.34094,0 0.59753,0 0.68198,0 1.21323,0.0295 1.43409,0.0954 0.72842,0.21728 1.21666,0.87481 1.22163,1.63472 0.005,0.88624 -0.43319,1.53035 -1.15524,1.68922 -0.21186,0.0466 -0.86821,0.0817 -1.46064,0.0817 -0.91627,0 -1.10201,-0.0215 -1.23491,-0.13622 -0.13171,-0.11369 -0.17051,-0.25739 -0.21246,-0.91272 -0.0675,-1.05417 0.0224,-2.05096 0.19917,-2.27499 0.0978,-0.12391 0.15564,-0.16705 0.61083,-0.1771 z m 0.91621,6.23919 c 0.34575,-0.007 0.70577,-0.002 1.00918,0.0136 0.5927,0.0303 0.96262,0.11667 1.3013,0.31331 0.33869,0.18152 0.62821,0.46946 0.78344,0.81737 0.15523,0.36303 0.1544,0.67079 0.0132,1.04894 -0.12701,0.39329 -0.37835,0.7282 -0.71704,0.93997 -0.33869,0.21177 -0.74843,0.31032 -1.34114,0.34057 -0.60681,0.0303 -1.38003,0.0167 -1.84573,-0.0136 -0.45157,-0.0454 -0.57842,-0.0984 -0.6772,-0.20434 -0.0988,-0.0908 -0.15768,-0.24538 -0.1859,-0.51766 -0.0282,-0.27227 -0.0265,-0.57543 -0.0265,-0.95359 -0.0141,-0.36303 -0.0141,-0.68131 0,-0.95358 0.0141,-0.25715 0.0622,-0.4239 0.13278,-0.54491 0.0705,-0.12101 0.17083,-0.18621 0.65065,-0.23159 0.23285,-0.0303 0.5572,-0.0469 0.90295,-0.0545 z"
           id="6-9"
           style="fill:#000000;fill-opacity:1;fill-rule:evenodd;stroke:none;display:inline" />
        <path
           d="m 364.77111,174.15334 c 0.91728,0.42354 1.79224,1.11935 2.48372,2.07231 0.6915,0.95296 1.21364,2.14794 1.43944,3.47906 0.21168,1.33112 0.127,2.79837 -0.19758,4.0236 -0.33869,1.22524 -0.90316,2.19333 -1.65111,2.96477 -0.74793,0.77144 -1.67933,1.34625 -2.93531,1.61852 -1.24186,0.27227 -2.8224,0.24202 -4.03605,-0.0908 -1.21363,-0.34791 -2.06036,-0.99833 -2.72363,-1.76978 -0.67737,-0.77144 -1.18541,-1.6639 -1.48176,-2.8135 -0.29635,-1.1496 -0.38102,-2.57148 -0.21168,-3.87235 0.15523,-1.30086 0.56448,-2.46559 1.15719,-3.40342 0.5927,-0.92271 1.36887,-1.6034 2.27204,-2.04206 0.91728,-0.43866 1.97568,-0.63531 2.99176,-0.66556 1.00196,-0.0454 1.97569,0.0908 2.89297,0.49917 l 0,0 z m -1.22775,2.91939 c 0.47981,0.22689 0.94552,0.62017 1.31242,1.16473 0.36692,0.52942 0.63504,1.19497 0.74795,1.95129 0.127,0.7412 0.0705,1.57314 -0.0988,2.25383 -0.16935,0.69581 -0.47981,1.24036 -0.87495,1.67902 -0.39513,0.42354 -0.87494,0.74119 -1.53822,0.89246 -0.66326,0.15126 -1.49587,0.15126 -2.14503,-0.0454 -0.63504,-0.19664 -1.07252,-0.55968 -1.43943,-0.99834 -0.3528,-0.42354 -0.62093,-0.9227 -0.77616,-1.57314 -0.15524,-0.65043 -0.19757,-1.45213 -0.1129,-2.17819 0.0847,-0.72607 0.29635,-1.39163 0.60682,-1.90592 0.31046,-0.52943 0.71971,-0.90759 1.21364,-1.1496 0.47981,-0.24203 1.03018,-0.36304 1.56644,-0.37816 0.53626,-0.0151 1.04429,0.0454 1.53821,0.28739 l 0,3e-5 z"
           id="8-0"
           style="fill:#000000;fill-opacity:1;fill-rule:evenodd;stroke:none;display:inline" />
        <path
           d="m 385.79275,173.45326 c 0.57859,0.0756 0.73383,0.22689 0.87495,0.40841 0.12701,0.18152 0.2399,0.40841 0.31046,1.24036 0.0706,0.83195 0.0847,2.28408 0.0988,3.6757 0.0141,1.39162 0.0141,2.72274 -0.0423,3.81183 -0.0423,1.0891 -0.15523,1.95131 -0.4657,2.73788 -0.32458,0.80169 -0.86084,1.51263 -1.43943,2.01181 -0.56448,0.49915 -1.17131,0.77144 -1.86279,0.93783 -0.69149,0.16638 -1.46766,0.24202 -2.27204,0.21177 -0.81851,-0.0303 -1.65112,-0.15127 -2.45551,-0.52943 -0.79027,-0.37816 -1.53821,-1.01347 -1.97568,-1.69415 -0.42337,-0.69581 -0.55038,-1.42187 -0.56449,-1.87567 -0.0282,-0.45379 0.0705,-0.62017 0.16935,-0.75631 0.11289,-0.15126 0.2399,-0.27228 0.62093,-0.33278 0.38102,-0.0605 1.00196,-0.0605 1.4112,-0.0151 0.39515,0.0605 0.56449,0.15126 0.70561,0.27227 0.12701,0.13613 0.22579,0.2874 0.36691,0.49916 0.39959,0.69174 0.9873,0.93252 1.72168,1.0891 0.95682,0.0337 1.80966,-0.17576 2.38082,-0.95923 0.26814,-0.49917 0.4953,-0.84136 0.53764,-1.86994 0.0423,-1.0286 0.0285,-2.5381 -0.0139,-3.56042 0.0229,-1.26844 -0.11541,-1.72318 -0.93822,-1.86479 -0.8228,-0.14162 -1.32818,-0.0769 -2.418,-0.0436 -1.08981,0.0332 -2.44139,0.0103 -3.20344,-0.0502 -0.77616,-0.0454 -0.98785,-0.12266 -1.14307,-0.30418 -0.14112,-0.16639 -0.21168,-0.39328 -0.25402,-0.77144 -0.0282,-0.37816 -0.0282,-0.90758 0.0141,-1.27061 0.0423,-0.36303 0.12701,-0.5748 0.25402,-0.71094 0.12701,-0.13614 0.28224,-0.2269 0.90317,-0.27227 0.62093,-0.0605 1.67933,-0.0756 2.76597,-0.0908 1.08663,0 2.18737,0.0151 3.24578,0.0151 1.0584,0 2.07447,-0.0151 2.66717,0.0605 l -10e-6,2e-5 z"
           id="10-9"
           style="fill:#000000;fill-opacity:1;fill-rule:evenodd;stroke:none;display:inline" />
        <text
           x="202.83688"
           y="22.671242"
           transform="translate(79.194989,91.599921)"
           id="text7992"
           xml:space="preserve"
           style="font-size:40px;font-style:normal;font-weight:normal;line-height:125%;letter-spacing:0px;word-spacing:0px;fill:#000000;fill-opacity:1;stroke:none;font-family:Sans"><tspan
             x="202.83688"
             y="22.671242"
             id="tspan7994" /></text>
        <flowRoot
           id="flowRoot7996"
           xml:space="preserve"
           style="font-size:40px;font-style:normal;font-weight:normal;line-height:125%;letter-spacing:0px;word-spacing:0px;fill:#000000;fill-opacity:1;stroke:none;font-family:Sans"><flowRegion
             id="flowRegion7998"><rect
               width="55.319149"
               height="73.404259"
               x="162.76596"
               y="3.8769159"
               id="rect8000" /></flowRegion><flowPara
             id="flowPara8002" /></flowRoot>      </g>
      <g
         transform="translate(-154.54009,-30.487709)"
         id="layer4-7"
         style="display:inline" />
    </g>
  </g>
  <g
     transform="translate(-85.004237,44.896301)"
     id="layer4"
     style="display:inline" />
</svg>
