<?xml version="1.0" encoding="utf-8"?>
<!-- Generator: Adobe Illustrator 15.0.2, SVG Export Plug-In . SVG Version: 6.00 Build 0)  -->
<!DOCTYPE svg PUBLIC "-//W3C//DTD SVG 1.1//EN" "http://www.w3.org/Graphics/SVG/1.1/DTD/svg11.dtd">
<svg version="1.1" id="Layer_1" xmlns="http://www.w3.org/2000/svg" xmlns:xlink="http://www.w3.org/1999/xlink" x="0px" y="0px"
	 width="225.532px" height="66.667px" viewBox="0 0 225.532 66.667" enable-background="new 0 0 225.532 66.667"
	 xml:space="preserve">
<polygon fill="#010101" points="26.383,16.902 26.383,30.545 39.241,16.902 48.276,16.902 35.416,29.9 49.52,49.811 40.441,49.811 
	30.53,35.016 26.383,39.211 26.383,49.811 19.147,49.811 19.147,16.902 "/>
<circle fill="none" stroke="#010101" stroke-width="4" stroke-miterlimit="10" cx="33.333" cy="33.333" r="31.333"/>
<path fill="#010101" d="M106.521,41.699c0.399,0.769,0.93,1.392,1.591,1.867c0.66,0.478,1.435,0.829,2.327,1.06
	c0.891,0.23,1.812,0.346,2.766,0.346c0.645,0,1.337-0.053,2.074-0.162c0.736-0.106,1.429-0.314,2.074-0.621
	c0.645-0.307,1.182-0.729,1.611-1.268c0.432-0.537,0.646-1.222,0.646-2.051c0-0.892-0.284-1.613-0.854-2.167
	c-0.568-0.553-1.313-1.014-2.234-1.383c-0.922-0.368-1.967-0.69-3.134-0.968c-1.168-0.276-2.35-0.584-3.549-0.922
	c-1.229-0.307-2.427-0.684-3.595-1.128c-1.168-0.446-2.212-1.022-3.134-1.729c-0.922-0.707-1.667-1.59-2.236-2.65
	s-0.852-2.343-0.852-3.849c0-1.688,0.36-3.157,1.083-4.401c0.722-1.245,1.666-2.282,2.834-3.111c1.168-0.83,2.489-1.444,3.964-1.844
	c1.475-0.399,2.95-0.599,4.425-0.599c1.72,0,3.372,0.192,4.955,0.576c1.582,0.384,2.987,1.007,4.216,1.867
	c1.229,0.86,2.206,1.958,2.927,3.295c0.722,1.337,1.083,2.958,1.083,4.863h-7.006c-0.061-0.983-0.268-1.798-0.622-2.443
	c-0.353-0.645-0.821-1.152-1.405-1.521c-0.584-0.369-1.252-0.629-2.004-0.784c-0.755-0.153-1.576-0.23-2.467-0.23
	c-0.584,0-1.168,0.062-1.752,0.184c-0.584,0.124-1.114,0.338-1.589,0.646c-0.477,0.307-0.869,0.691-1.175,1.152
	c-0.308,0.46-0.461,1.045-0.461,1.751c0,0.645,0.122,1.168,0.368,1.568c0.246,0.399,0.729,0.768,1.452,1.105
	c0.722,0.339,1.721,0.676,2.996,1.014c1.275,0.339,2.942,0.769,5,1.291c0.614,0.123,1.468,0.346,2.56,0.668
	c1.09,0.323,2.173,0.838,3.248,1.544c1.076,0.707,2.006,1.652,2.789,2.835s1.176,2.696,1.176,4.54c0,1.506-0.292,2.903-0.876,4.194
	c-0.585,1.29-1.451,2.403-2.604,3.342c-1.152,0.937-2.58,1.666-4.287,2.188c-1.705,0.522-3.68,0.783-5.922,0.783
	c-1.813,0-3.572-0.223-5.277-0.668c-1.706-0.445-3.212-1.144-4.518-2.097c-1.305-0.952-2.342-2.167-3.11-3.642
	c-0.769-1.475-1.138-3.227-1.106-5.254h7.005C105.922,39.994,106.123,40.93,106.521,41.699"/>
<circle fill="none" stroke="#010101" stroke-width="4" stroke-miterlimit="10" cx="112.767" cy="33.333" r="31.333"/>
<path fill="#010101" d="M194.927,16.902c2.06,0,3.81,0.299,5.254,0.899c1.445,0.599,2.62,1.39,3.527,2.373
	c0.905,0.984,1.567,2.105,1.981,3.365c0.414,1.26,0.622,2.566,0.622,3.917c0,1.322-0.208,2.62-0.622,3.896
	c-0.414,1.275-1.076,2.404-1.981,3.387c-0.907,0.983-2.082,1.774-3.527,2.375c-1.444,0.599-3.194,0.897-5.254,0.897h-7.604V49.81
	h-7.235V16.902H194.927z M192.946,32.388c0.83,0,1.629-0.061,2.396-0.184s1.443-0.361,2.027-0.714s1.054-0.853,1.406-1.498
	c0.354-0.646,0.53-1.491,0.53-2.536c0-1.044-0.177-1.889-0.53-2.534c-0.353-0.645-0.822-1.145-1.406-1.498s-1.26-0.592-2.027-0.715
	c-0.768-0.122-1.566-0.184-2.396-0.184h-5.623v9.863H192.946z"/>
<circle fill="none" stroke="#010101" stroke-width="4" stroke-miterlimit="10" cx="192.199" cy="33.333" r="31.333"/>
<circle fill="none" stroke="#010101" stroke-width="3.046" stroke-miterlimit="10" cx="192.2" cy="33.333" r="25.926"/>
<polygon fill="#010101" points="56.847,9.754 79.459,33.345 56.847,56.958 65.045,33.355 "/>
<polygon fill="#010101" points="136.262,9.754 158.875,33.345 136.262,56.958 144.46,33.355 "/>
</svg>
